<?xml version="1.0" encoding="UTF-8"?> <svg xmlns="http://www.w3.org/2000/svg" width="20" height="20" viewBox="0 0 20 20" fill="#1F1F24"><path fill-rule="evenodd" clip-rule="evenodd" d="M9.98812 1.60709C9.88969 1.46574 9.68114 1.46394 9.58029 1.60358L8.49454 3.10692C8.09454 3.66077 7.87925 4.32658 7.87925 5.00977V6.58148C7.87925 8.90213 6.95737 11.1277 5.31643 12.7687L3.5 14.5851V15.7825H5.44083V14.6564H6.94083V18.174C6.94083 18.3121 7.05276 18.424 7.19083 18.424H8.80489C8.94318 18.424 9.05549 18.3115 9.05549 18.1736V14.656H10.5555V18.1736C10.5555 18.3117 10.6674 18.4236 10.8055 18.4236H12.4196C12.5576 18.4236 12.6696 18.3117 12.6696 18.1736V14.656H14.1696V15.7825H16V14.5851L14.1836 12.7687C12.5426 11.1277 11.6208 8.90213 11.6208 6.58148V4.97181C11.6208 4.30774 11.4173 3.65961 11.0379 3.11464L9.98812 1.60709ZM14.1696 17.2825H17.5V13.9638L15.2442 11.708C13.8846 10.3484 13.1208 8.5043 13.1208 6.58148V4.97181C13.1208 4.00124 12.8234 3.05397 12.2688 2.25749L11.2191 0.74994C10.5301 -0.23957 9.07023 -0.252146 8.36427 0.725344L7.27852 2.22869C6.69391 3.03815 6.37925 4.01126 6.37925 5.00977V6.58148C6.37925 8.5043 5.61541 10.3484 4.25577 11.708L2 13.9638V17.2825H5.44083V18.174C5.44083 19.1405 6.22433 19.924 7.19083 19.924H8.80489C9.17683 19.924 9.5218 19.8079 9.80547 19.6099C10.0889 19.8077 10.4337 19.9236 10.8055 19.9236H12.4196C13.386 19.9236 14.1696 19.1401 14.1696 18.1736V17.2825Z"></path></svg> 