<?xml version="1.0" encoding="UTF-8"?> <svg xmlns="http://www.w3.org/2000/svg" width="20" height="20" viewBox="0 0 20 20" fill="#1F1F24"><path d="M18 1.5V9.2C18 13.5 14.5 16.9 10.3 16.9C6.1 16.9 2.6 13.4 2.6 9.2C2.6 5 6 1.5 10.2 1.5H18ZM19.5 0H10.2C5.1 0 1 4.1 1 9.2C1 14.3 5.1 18.4 10.2 18.4C15.3 18.4 19.4 14.3 19.4 9.2V0H19.5Z"></path><path fill-rule="evenodd" clip-rule="evenodd" d="M11.0303 8.66967C11.3232 8.96256 11.3232 9.43744 11.0303 9.73033L1.53033 19.2303C1.23744 19.5232 0.762563 19.5232 0.46967 19.2303C0.176777 18.9374 0.176777 18.4626 0.46967 18.1697L9.96967 8.66967C10.2626 8.37678 10.7374 8.37678 11.0303 8.66967Z"></path></svg> 