<?xml version="1.0" encoding="UTF-8"?> <svg xmlns="http://www.w3.org/2000/svg" width="108" height="41" viewBox="0 0 108 41" fill="none"><path d="M87.4423 23.722L89.2063 23.3215C89.2431 23.3132 89.3055 23.2993 89.3792 23.2756C89.8664 23.1474 90.2839 22.8386 90.5437 22.4142C90.8035 21.9898 90.8853 21.483 90.7719 21.0006L90.7648 20.97C90.7065 20.7389 90.6046 20.5205 90.4645 20.3261C90.2669 20.0801 90.0225 19.8741 89.7447 19.7198C89.4177 19.5369 89.0755 19.3816 88.7217 19.2554L86.7877 18.5615C85.7024 18.1651 84.6171 17.7799 83.5205 17.4031C82.8107 17.1555 82.2085 16.9372 81.6857 16.7773C81.5862 16.7503 81.4874 16.7206 81.3896 16.6883C80.7577 16.4992 80.3128 16.4199 79.9373 16.4171C79.6864 16.408 79.4364 16.4526 79.2048 16.5478C78.9628 16.6507 78.7456 16.8023 78.5672 16.9928C78.4787 17.0915 78.3955 17.1945 78.3178 17.3016C78.1669 17.5292 78.0424 17.7727 77.9466 18.0275C77.5873 19.0691 77.4082 20.1624 77.4167 21.262C77.4238 22.2549 77.4507 23.5301 78.0076 24.3951C78.1422 24.6176 78.3221 24.8095 78.536 24.9583C78.9328 25.2266 79.3323 25.2628 79.7503 25.292C80.3737 25.3351 80.9758 25.1863 81.578 25.0486L87.4381 23.7206L87.4423 23.722ZM107.122 14.5315C106.641 13.5395 105.993 12.6337 105.207 11.8518C105.105 11.7523 104.996 11.6603 104.881 11.5764C104.774 11.498 104.664 11.4251 104.549 11.3581C104.432 11.2948 104.31 11.2377 104.187 11.1871C103.942 11.0927 103.68 11.05 103.417 11.0619C103.166 11.0758 102.921 11.1453 102.699 11.2608C102.363 11.4248 101.999 11.6891 101.514 12.1299C101.448 12.1952 101.364 12.2689 101.288 12.3385C100.89 12.707 100.445 13.1617 99.9162 13.6901C99.0987 14.5009 98.2953 15.3158 97.4948 16.1376L96.0638 17.595C95.8025 17.8608 95.5646 18.1478 95.3526 18.453C95.171 18.7112 95.0425 19.0017 94.9743 19.3082C94.936 19.5437 94.9417 19.784 94.9913 20.0174L94.9983 20.048C95.1114 20.5299 95.4106 20.95 95.8329 21.2197C96.2552 21.4895 96.7677 21.5879 97.2625 21.4942C97.322 21.486 97.3811 21.4749 97.4396 21.4609L105.065 19.731C105.667 19.5947 106.276 19.4695 106.816 19.1608C107.179 18.9564 107.523 18.752 107.76 18.3403C107.886 18.1136 107.962 17.8635 107.984 17.6061C108.101 16.5854 107.559 15.427 107.122 14.5315V14.5315ZM93.471 17.6784C94.0236 16.997 94.0236 15.9819 94.0717 15.1503C94.2389 12.376 94.4132 9.60175 94.5535 6.8261C94.6059 5.7748 94.7207 4.7374 94.6569 3.67776C94.6045 2.80446 94.5988 1.80044 94.0363 1.08288C93.0445 -0.182572 90.9278 -0.0782764 89.484 0.11919C89.0386 0.179572 88.5965 0.261251 88.1592 0.363937C87.72 0.466842 87.2836 0.579482 86.8586 0.714371C85.4729 1.15937 83.5247 1.97704 83.196 3.54426C83.009 4.43008 83.4511 5.33537 83.7911 6.1447C84.2063 7.12369 84.7716 8.00673 85.2873 8.9287C86.6517 11.3637 88.0402 13.7847 89.4245 16.2072C89.8396 16.9303 90.2888 17.8453 91.0893 18.2208C91.1431 18.243 91.197 18.2625 91.2522 18.2805C91.6107 18.414 92.0031 18.4391 92.3758 18.3543L92.4424 18.3403C92.7881 18.2472 93.0998 18.0622 93.3449 17.8077C93.3902 17.766 93.4313 17.7243 93.4724 17.6784H93.471ZM92.8093 25.1057C92.5937 24.8079 92.2876 24.5847 91.9349 24.4681C91.5821 24.3515 91.2009 24.3473 90.8456 24.4562C90.762 24.4833 90.6805 24.5163 90.6019 24.555C90.4801 24.6159 90.364 24.6871 90.2548 24.7677C89.9429 25.009 89.6642 25.289 89.4259 25.6007C89.365 25.6772 89.3083 25.7787 89.2346 25.8455L88.0076 27.5003C87.3134 28.4292 86.6262 29.3595 85.9476 30.3038C85.5027 30.9142 85.1201 31.4301 84.8155 31.8849C84.7588 31.9711 84.6993 32.0657 84.6455 32.1435C84.2813 32.6942 84.0759 33.0975 83.9696 33.4563C83.8903 33.6946 83.8651 33.9471 83.896 34.1961C83.93 34.4547 84.0192 34.7036 84.1567 34.9275C84.2303 35.0388 84.3097 35.1472 84.3947 35.2515C84.5783 35.459 84.785 35.6456 85.011 35.8078C85.8583 36.3863 86.7849 36.8021 87.7597 37.1233C88.5715 37.3875 89.4146 37.5461 90.2675 37.5933C90.4134 37.6003 90.5594 37.5975 90.7039 37.585C90.8379 37.5727 90.9712 37.5541 91.1034 37.5294C91.2357 37.4991 91.3663 37.462 91.4945 37.4181C91.7438 37.3264 91.9707 37.1843 92.1604 37.0009C92.3404 36.8243 92.4792 36.6116 92.5656 36.3765C92.7073 36.0289 92.8008 35.5895 92.8632 34.9359C92.8674 34.8427 92.8816 34.7315 92.8915 34.6299C92.9397 34.0876 92.9624 33.4479 92.9964 32.6998C93.0573 31.547 93.104 30.3997 93.1409 29.2497L93.2202 27.2027C93.2386 26.7327 93.223 26.2098 93.0899 25.7412C93.0313 25.5161 92.9366 25.3015 92.8093 25.1057V25.1057ZM106.656 28.3082C106.401 28.0315 106.038 27.7575 105.466 27.4182C105.384 27.3724 105.286 27.3126 105.197 27.2597C104.721 26.9774 104.147 26.6826 103.477 26.3252C102.447 25.769 101.417 25.2294 100.375 24.6926L98.5376 23.7359C98.4427 23.7081 98.3464 23.6413 98.2557 23.5982C97.9023 23.4211 97.527 23.2897 97.1392 23.2075C97.0056 23.1822 96.87 23.1682 96.734 23.1658C96.6459 23.1653 96.5579 23.1704 96.4705 23.1811C96.1026 23.2368 95.762 23.4052 95.4974 23.6621C95.2328 23.9191 95.0576 24.2515 94.9969 24.612C94.97 24.8414 94.9785 25.0737 95.0239 25.299C95.1131 25.7801 95.3313 26.2543 95.558 26.6701L96.5385 28.4765C97.0854 29.4944 97.6379 30.5068 98.2047 31.5164C98.5702 32.1741 98.8748 32.7373 99.1596 33.2046C99.2135 33.2922 99.2744 33.3867 99.3211 33.4688C99.6683 34.0292 99.946 34.3824 100.228 34.6369C100.416 34.8142 100.641 34.9485 100.888 35.0303C101.135 35.112 101.397 35.1391 101.656 35.1097C101.791 35.0936 101.925 35.0704 102.057 35.0402C102.328 34.969 102.59 34.8677 102.838 34.7384C103.584 34.3281 104.271 33.8232 104.882 33.2366C105.616 32.5273 106.265 31.7542 106.769 30.8697C106.84 30.7446 106.9 30.6153 106.951 30.4804C106.998 30.3568 107.039 30.2311 107.074 30.1035C107.104 29.9728 107.127 29.8421 107.142 29.71C107.168 29.4503 107.137 29.1883 107.053 28.941C106.97 28.7036 106.834 28.487 106.656 28.3068V28.3082Z" fill="white"></path><path fill-rule="evenodd" clip-rule="evenodd" d="M43.3729 10.7434C43.3729 9.25543 44.607 8.04004 46.0975 8.04004C47.5668 8.04004 48.7597 9.25543 48.8235 10.7656V31.8667C48.8235 33.3547 47.588 34.5701 46.0975 34.5701C45.7372 34.5699 45.3806 34.4997 45.0482 34.3634C44.7157 34.2271 44.4141 34.0275 44.1607 33.7761C43.9074 33.5248 43.7073 33.2266 43.5721 32.8988C43.4369 32.5711 43.3692 32.2203 43.3729 31.8667V10.7434ZM40.8382 23.7776C40.8169 24.1961 40.7107 24.9721 40.1581 25.5381C39.5616 26.1458 38.7526 26.2918 38.2836 26.2918C36.3354 26.3029 34.3873 26.3085 32.4391 26.3126C30.491 26.3182 28.5428 26.3238 26.5946 26.3335C26.7647 26.8578 27.1047 27.6546 27.8712 28.3874C28.3388 28.8283 28.7865 29.0786 28.9792 29.1843C29.213 29.3303 30.022 29.7502 31.0223 29.7502C32.0877 29.7502 33.0243 29.4137 33.941 28.9534L34.0161 28.9145C34.6536 28.5905 35.3096 28.2567 36.0053 28.1357C36.6854 28.0314 37.4108 28.1566 37.9421 28.6183C38.5811 29.1634 38.8376 29.9588 38.6024 30.7765C38.3261 31.6985 37.5383 32.4953 36.7081 32.9765C36.2329 33.2494 35.7341 33.4807 35.2176 33.6676C33.8998 34.1265 32.5063 34.3402 31.1087 34.2975C30.7687 34.2975 30.4059 34.2975 30.0432 34.2558C29.6607 34.2141 29.2781 34.1293 28.9154 34.0458C28.3274 33.9207 27.7556 33.7308 27.211 33.4799C26.6661 33.2428 26.1456 32.955 25.6567 32.6205C25.169 32.2764 24.7134 31.8906 24.2951 31.4676C23.8792 31.0394 23.5014 30.5769 23.1659 30.0854C22.0168 28.3666 21.4841 26.2501 21.5903 24.1961C21.6754 22.1853 22.3569 20.1731 23.5923 18.5391C23.7255 18.3333 23.88 18.1595 24.0259 17.9954C24.0897 17.9231 24.152 17.8536 24.2101 17.784C25.7346 15.954 27.772 15.3755 28.6122 15.1363L28.659 15.1224C30.3642 14.6472 32.1706 14.6472 33.8758 15.1224C34.281 15.2281 36.5593 15.9192 38.3261 17.784C38.4111 17.8675 38.6463 18.14 38.9439 18.5391C39.6996 19.5492 40.2547 20.6899 40.5803 21.9016L40.5831 21.9128C40.7107 22.3731 40.8382 23.0016 40.8382 23.7762V23.7776ZM28.3402 20.3205C27.4995 20.9915 26.9144 21.9216 26.6796 22.9599H35.9628C35.7123 21.9225 35.1214 20.9946 34.281 20.3191C33.4345 19.6529 32.385 19.2842 31.3 19.272C30.2207 19.2825 29.1769 19.6516 28.3388 20.3191L28.3402 20.3205ZM63.6423 14.7664C61.2152 14.7664 59.0007 15.8358 57.4252 17.5754V17.5115C57.3936 16.8129 57.0836 16.1544 56.5619 15.678C56.0403 15.2017 55.3489 14.9455 54.6366 14.9649C53.9244 14.9842 53.2484 15.2775 52.7545 15.7814C52.2605 16.2853 51.988 16.9596 51.9958 17.6589V37.7963C51.9941 38.1484 52.0634 38.4974 52.1998 38.8232C52.3361 39.1489 52.5367 39.445 52.7901 39.6943C53.0434 39.9437 53.3446 40.1413 53.6761 40.276C54.0076 40.4106 54.363 40.4795 54.7218 40.4788C55.0805 40.4793 55.4357 40.4103 55.7671 40.2756C56.0985 40.1408 56.3995 39.9431 56.6527 39.6938C56.9059 39.4445 57.1064 39.1485 57.2426 38.8229C57.3788 38.4972 57.4481 38.1483 57.4464 37.7963V31.5094C59.0219 33.2282 61.2152 34.3184 63.6635 34.3184C68.5403 34.3184 72.5004 29.9797 72.5004 24.573C72.4791 19.1677 68.5191 14.7664 63.6423 14.7664ZM62.4507 29.938C59.6822 29.938 57.4252 27.5698 57.4252 24.6161C57.4252 21.6402 59.6609 19.272 62.4507 19.272C65.2178 19.272 67.4748 21.6402 67.4748 24.6161C67.4536 27.5698 65.2178 29.938 62.4507 29.938V29.938ZM17.5027 25.9775L16.6087 27.9063C16.2035 28.7434 15.7983 29.6028 15.4157 30.4622L15.0459 31.2688C13.3429 34.9845 11.3239 39.3955 6.92033 40.3314C4.79082 40.7931 1.576 40.1645 0.383015 38.194C-0.808551 36.2041 0.958254 33.9193 3.23654 34.4435C3.59642 34.5214 3.94921 34.6939 4.30626 34.8691C4.89991 35.1611 5.50207 35.4545 6.15382 35.3238C6.77157 35.2195 7.15411 34.7787 7.64434 34.2127C8.32443 33.4381 8.62338 32.6205 8.7509 32.1379L8.71973 32.0656C8.70985 32.0406 8.69898 32.016 8.68714 31.9919C8.13315 30.9768 7.64859 30.0701 7.24479 29.3122C7.01778 28.8842 6.78872 28.4573 6.55762 28.0314L5.62959 26.3015C4.9495 25.0361 4.83616 24.8275 4.53579 24.281C3.8736 23.0543 3.17767 21.8454 2.44877 20.6556C1.66101 19.3554 0.851991 17.9106 1.51224 16.3795C1.7604 15.7867 2.22641 15.3071 2.8179 15.0356C3.40939 14.7642 4.0832 14.7207 4.70581 14.9138C6.0759 15.3213 6.68372 16.602 7.25046 17.7979C7.35389 18.0149 7.45449 18.229 7.55933 18.4335C8.47461 20.2148 9.36864 21.9962 10.2627 23.7776C10.342 23.9542 10.461 24.1948 10.6084 24.4896C10.7387 24.751 10.8903 25.0555 11.0504 25.3907L11.287 25.8746C11.3791 26.0637 11.4599 26.225 11.5194 26.3544C11.9345 25.3392 12.3554 24.3282 12.7747 23.3159C13.1955 22.3049 13.6163 21.2939 14.0315 20.2774C14.0428 20.2218 14.142 20.0048 14.2922 19.678C14.4183 19.4013 14.5798 19.0467 14.7555 18.6434L14.9354 18.2165C15.488 16.8954 16.1539 15.306 17.6303 14.8721C18.1543 14.7228 18.7126 14.7375 19.2278 14.9139C19.743 15.0903 20.1894 15.4198 20.505 15.8567C20.8238 16.2961 20.9513 16.7995 20.9726 17.3029C20.9896 18.4154 20.4427 19.6085 19.9723 20.632C19.859 20.8823 19.7484 21.1215 19.6535 21.3468L19.5968 21.4692C19.4665 21.757 19.1123 22.5358 18.503 23.8193C18.2834 24.2782 18.0723 24.7399 17.8584 25.2057L17.5027 25.9775Z" fill="white"></path></svg> 