<svg width="1201" height="1200" viewBox="0 0 1201 1200" fill="none" xmlns="http://www.w3.org/2000/svg">
<g clip-path="url(#clip0)">
<rect width="1201" height="1200" fill="white"/>
<circle cx="600.5" cy="599.5" r="586.535" fill="black"/>
<rect y="-1" width="1201" height="1201" fill="white"/>
<path fill-rule="evenodd" clip-rule="evenodd" d="M602.819 500.867C576.414 519.62 558.044 546.464 550.171 580.348H501.205V925.087H410.013V580.348H345.807V500.867H410.013V421.385C410.013 316.048 465.845 264.337 552.384 264.337C584.952 264.337 610.076 271.04 633.34 285.405V372.547C611.007 357.225 590.535 348.607 562.62 348.607C523.537 348.607 501.205 368.717 501.205 420.427V500.867H602.819Z" fill="black"/>
<path fill-rule="evenodd" clip-rule="evenodd" d="M572.315 900.189C603.022 921.256 651.41 934.663 699.797 934.663C789.127 934.663 855.195 894.443 855.195 805.386C855.195 728.777 814.252 692.388 720.268 671.32C672.812 657.914 655.132 643.55 655.132 615.779C655.132 588.008 676.534 567.899 716.546 567.899C760.281 567.899 795.641 584.178 831.932 610.991V523.849C797.502 501.824 760.281 491.29 713.755 491.29C630.008 491.29 566.732 533.425 566.732 619.609C566.732 693.345 603.022 728.777 688.631 748.887C741.671 763.251 765.864 775.7 765.864 810.174C765.864 843.69 738.879 858.054 697.936 858.054C656.062 858.054 610.467 839.859 572.315 810.174V900.189Z" fill="black"/>
</g>
<defs>
<clipPath id="clip0">
<rect width="1201" height="1200" fill="white"/>
</clipPath>
</defs>
</svg>
