<?xml version="1.0" encoding="UTF-8"?> <svg xmlns="http://www.w3.org/2000/svg" width="20" height="20" viewBox="0 0 20 20" fill="none"><path fill-rule="evenodd" clip-rule="evenodd" d="M1.60715 10C1.60715 5.36475 5.36476 1.60714 10 1.60714C14.6353 1.60714 18.3929 5.36475 18.3929 10C18.3929 14.6352 14.6353 18.3929 10 18.3929C5.36476 18.3929 1.60715 14.6352 1.60715 10ZM10 0.107143C4.53633 0.107143 0.107147 4.53633 0.107147 10C0.107147 15.4637 4.53633 19.8929 10 19.8929C15.4637 19.8929 19.8929 15.4637 19.8929 10C19.8929 4.53633 15.4637 0.107143 10 0.107143ZM8.3884 13.8214C7.97418 13.8214 7.6384 14.1572 7.6384 14.5714C7.6384 14.9856 7.97418 15.3214 8.3884 15.3214H10.2174L10.2284 15.3215L10.2394 15.3214H12.0684C12.4826 15.3214 12.8184 14.9856 12.8184 14.5714C12.8184 14.1572 12.4826 13.8214 12.0684 13.8214H10.9784V9.72579C10.9784 9.24196 10.7862 8.77795 10.4441 8.43583C10.102 8.09371 9.63794 7.90151 9.15411 7.90151H8.3884C7.97418 7.90151 7.6384 8.23729 7.6384 8.65151C7.6384 9.06572 7.97418 9.40151 8.3884 9.40151H9.15411C9.24012 9.40151 9.3226 9.43567 9.38342 9.49649C9.44423 9.5573 9.4784 9.63979 9.4784 9.72579V13.8214H8.3884ZM10.6585 5.33705C10.6585 4.92284 10.3227 4.58705 9.90849 4.58705C9.49427 4.58705 9.15849 4.92284 9.15849 5.33705V5.35305C9.15849 5.76727 9.49427 6.10305 9.90849 6.10305C10.3227 6.10305 10.6585 5.76727 10.6585 5.35305V5.33705Z" fill="#80E1D9"></path></svg> 