<?xml version="1.0" encoding="UTF-8"?> <svg xmlns="http://www.w3.org/2000/svg" width="36" height="36" viewBox="0 0 36 36" fill="none"><rect width="36" height="36" rx="8" fill="#FF7557"></rect><path fill-rule="evenodd" clip-rule="evenodd" d="M8.375 7.45374H10.6062C12.056 7.45374 13.2312 8.62899 13.2312 10.0787V25.6712C13.2312 26.1545 12.8395 26.5462 12.3562 26.5462H10.125C8.67525 26.5462 7.5 25.371 7.5 23.9212V8.32874C7.5 7.84549 7.89175 7.45374 8.375 7.45374ZM11.9187 10.0787C11.9187 9.35386 11.3311 8.76624 10.6062 8.76624H8.8125V23.9212C8.8125 24.6461 9.40013 25.2337 10.125 25.2337H11.9187V10.0787ZM16.0138 12.2312H18.2362C19.686 12.2312 20.8612 13.4065 20.8612 14.8562V25.6712C20.8612 26.1545 20.4695 26.5462 19.9862 26.5462H17.7637C16.314 26.5462 15.1388 25.371 15.1388 23.9212V13.1062C15.1388 12.623 15.5305 12.2312 16.0138 12.2312ZM19.5487 14.8562C19.5487 14.1314 18.9611 13.5437 18.2362 13.5437H16.4862V23.9212C16.4862 24.6461 17.0739 25.2337 17.7987 25.2337H19.5487V14.8562ZM25.875 17H23.6438C23.1605 17 22.7688 17.3917 22.7688 17.875V23.9212C22.7688 25.371 23.944 26.5462 25.3938 26.5462H27.625C28.1082 26.5462 28.5 26.1545 28.5 25.6712V19.625C28.5 18.1752 27.3247 17 25.875 17ZM25.875 18.3125C26.5999 18.3125 27.1875 18.9001 27.1875 19.625V25.2337H25.3938C24.6689 25.2337 24.0813 24.6461 24.0813 23.9212V18.3125H25.875Z" fill="white"></path></svg> 