<?xml version="1.0" encoding="UTF-8"?> <svg xmlns="http://www.w3.org/2000/svg" width="36" height="36" viewBox="0 0 36 36" fill="none"><rect width="36" height="36" rx="8" fill="#FF7557"></rect><path fill-rule="evenodd" clip-rule="evenodd" d="M26.75 29.1562C28.0789 29.1562 29.1562 28.0789 29.1562 26.75V9.25C29.1562 7.92106 28.0789 6.84375 26.75 6.84375H9.25C7.92106 6.84375 6.84375 7.92106 6.84375 9.25V26.75C6.84375 28.0789 7.92106 29.1562 9.25 29.1562H26.75ZM8.15625 9.25C8.15625 8.64594 8.64594 8.15625 9.25 8.15625H26.75C27.3541 8.15625 27.8438 8.64594 27.8438 9.25V26.75C27.8438 27.3541 27.3541 27.8438 26.75 27.8438H9.25C8.64594 27.8438 8.15625 27.3541 8.15625 26.75V9.25ZM12.2688 10.8425C11.6876 10.8425 11.1638 11.1931 10.9422 11.7304C10.7206 12.2677 10.845 12.8856 11.2572 13.2953C11.6694 13.705 12.2881 13.8256 12.824 13.6007C13.3599 13.3759 13.7073 12.8499 13.7038 12.2688C13.7038 11.889 13.5523 11.5249 13.2829 11.2571C13.0136 10.9894 12.6485 10.8402 12.2688 10.8425ZM22.3984 11.7243C22.6228 11.1873 23.1493 10.839 23.7313 10.8425C24.5189 10.8425 25.1575 11.4811 25.1575 12.2687C25.161 12.8507 24.8127 13.3772 24.2757 13.6016C23.7387 13.8259 23.1194 13.7037 22.7078 13.2922C22.2963 12.8806 22.1741 12.2613 22.3984 11.7243ZM18 10.8425C17.4188 10.8425 16.895 11.1931 16.6734 11.7304C16.4518 12.2677 16.5762 12.8856 16.9884 13.2953C17.4007 13.705 18.0193 13.8256 18.5552 13.6007C19.0912 13.3759 19.4385 12.8499 19.435 12.2688C19.4302 11.4796 18.7891 10.8425 18 10.8425ZM10.8337 18C10.8337 17.2075 11.4762 16.565 12.2688 16.565C13.0613 16.565 13.7038 17.2075 13.7038 18C13.7038 18.7925 13.0613 19.435 12.2688 19.435C11.4762 19.435 10.8337 18.7925 10.8337 18ZM18 16.565C17.2075 16.565 16.565 17.2075 16.565 18C16.565 18.7925 17.2075 19.435 18 19.435C18.7925 19.435 19.435 18.7925 19.435 18C19.4302 17.2095 18.7905 16.5698 18 16.565ZM10.8337 23.7313C10.8337 22.9387 11.4762 22.2962 12.2688 22.2962C12.6501 22.2939 13.0164 22.4443 13.286 22.714C13.5557 22.9836 13.7061 23.3499 13.7038 23.7313C13.7038 24.5238 13.0613 25.1663 12.2688 25.1663C11.4762 25.1663 10.8337 24.5238 10.8337 23.7313Z" fill="white"></path></svg> 