<?xml version="1.0" encoding="UTF-8"?> <svg xmlns="http://www.w3.org/2000/svg" width="36" height="36" viewBox="0 0 36 36" fill="none"><rect width="36" height="36" rx="8" fill="#FF7557"></rect><path fill-rule="evenodd" clip-rule="evenodd" d="M6.84375 18C6.84375 24.1614 11.8386 29.1562 18 29.1562C24.1594 29.1514 29.1514 24.1594 29.1562 18C29.1562 11.8386 24.1614 6.84375 18 6.84375C11.8386 6.84375 6.84375 11.8386 6.84375 18ZM8.17778 17.3438C8.32421 15.1191 9.2097 13.0963 10.591 11.5185L15.105 16.0325C14.8406 16.4208 14.6522 16.865 14.5614 17.3438H8.17778ZM14.5614 18.6562H8.17778C8.32421 20.8809 9.2097 22.9037 10.591 24.4815L15.105 19.9675C14.8406 19.5792 14.6522 19.135 14.5614 18.6562ZM16.0325 20.895L11.5185 25.409C13.0963 26.7903 15.1191 27.6758 17.3438 27.8222V21.4386C16.865 21.3478 16.4208 21.1594 16.0325 20.895ZM18.6562 21.4386V27.8222C20.8809 27.6758 22.9037 26.7903 24.4815 25.409L19.9675 20.895C19.5792 21.1594 19.135 21.3478 18.6562 21.4386ZM20.895 19.9675L25.409 24.4815C26.7903 22.9037 27.6758 20.8809 27.8222 18.6562H21.4386C21.3478 19.135 21.1594 19.5792 20.895 19.9675ZM21.4386 17.3438H27.8211C27.6711 15.1211 26.7847 13.1004 25.4039 11.5236L20.895 16.0325C21.1594 16.4208 21.3478 16.865 21.4386 17.3438ZM19.9675 15.105L24.4764 10.5961C22.8996 9.21531 20.8789 8.32893 18.6562 8.17891V14.5614C19.135 14.6522 19.5792 14.8406 19.9675 15.105ZM17.3438 14.5614V8.17778C15.1191 8.32421 13.0963 9.2097 11.5185 10.591L16.0325 15.105C16.4208 14.8406 16.865 14.6522 17.3438 14.5614ZM18 15.8125C19.2081 15.8125 20.1875 16.7919 20.1875 18C20.1875 19.2081 19.2081 20.1875 18 20.1875C16.7919 20.1875 15.8125 19.2081 15.8125 18C15.8125 16.7919 16.7919 15.8125 18 15.8125Z" fill="white"></path></svg> 