<?xml version="1.0" encoding="UTF-8"?> <svg xmlns="http://www.w3.org/2000/svg" width="22" height="16" viewBox="0 0 22 16" fill="none"><path d="M4.37963 15.5604C4.19444 15.5604 4.00926 15.4678 3.91667 15.3752C0.0277779 11.4863 0.0277779 5.19 3.91667 1.30111C4.19444 1.02333 4.65741 1.02333 4.93519 1.30111C5.21296 1.57888 5.21296 2.04185 4.93519 2.31963C1.60185 5.65296 1.60185 11.1159 4.93519 14.4493C5.21296 14.727 5.21296 15.19 4.93519 15.4678C4.75 15.4678 4.56481 15.5604 4.37963 15.5604Z" fill="#7856FF" stroke="#7856FF" stroke-width="0.5"></path><path d="M17.5278 15.5602C17.3426 15.5602 17.1574 15.4676 17.0648 15.375C16.787 15.0972 16.787 14.6343 17.0648 14.3565C20.3981 11.0231 20.3981 5.56018 17.0648 2.22685C16.787 1.94907 16.787 1.48611 17.0648 1.20833C17.3426 0.930556 17.8056 0.930556 18.0833 1.20833C21.9722 5.09722 21.9722 11.3935 18.0833 15.2824C17.8981 15.4676 17.713 15.5602 17.5278 15.5602Z" fill="#7856FF" stroke="#7856FF" stroke-width="0.5"></path><path d="M10.9535 11.3009C9.28685 11.3009 7.99055 9.91204 7.99055 8.33796C7.99055 6.76389 9.37944 5.375 10.9535 5.375C12.5276 5.375 13.9165 6.76389 13.9165 8.33796C13.9165 9.91204 12.6202 11.3009 10.9535 11.3009ZM10.9535 6.6713C10.0276 6.6713 9.28685 7.41204 9.28685 8.33796C9.28685 9.26389 10.0276 10.0046 10.9535 10.0046C11.8794 10.0046 12.6202 9.26389 12.6202 8.33796C12.6202 7.41204 11.8794 6.6713 10.9535 6.6713Z" fill="#7856FF" stroke="#7856FF" stroke-width="0.5"></path><path d="M15.0276 13.1528C14.8424 13.1528 14.6572 13.0602 14.5646 12.9676C14.2868 12.6898 14.2868 12.2269 14.5646 11.9491C16.5091 10.0046 16.5091 6.76389 14.5646 4.72685C14.2868 4.44907 14.2868 3.98611 14.5646 3.70833C14.8424 3.43056 15.3054 3.43056 15.5831 3.70833C18.0831 6.20833 18.0831 10.375 15.5831 12.875C15.398 13.0602 15.2128 13.1528 15.0276 13.1528Z" fill="#7856FF" stroke="#7856FF" stroke-width="0.5"></path><path d="M6.87982 13.1525C6.69463 13.1525 6.50945 13.0599 6.41685 12.9673C3.91685 10.4673 3.91685 6.30062 6.41685 3.80062C6.69463 3.52284 7.1576 3.52284 7.43537 3.80062C7.71315 4.0784 7.71315 4.54136 7.43537 4.81914C5.49093 6.76358 5.49093 10.0043 7.43537 12.0414C7.71315 12.3191 7.71315 12.7821 7.43537 13.0599C7.25019 13.0599 7.065 13.1525 6.87982 13.1525Z" fill="#7856FF" stroke="#7856FF" stroke-width="0.5"></path></svg> 