<?xml version="1.0" encoding="UTF-8"?> <svg xmlns="http://www.w3.org/2000/svg" width="153" height="24" viewBox="0 0 153 24" fill="none"><path d="M17.8838 6.21329H18.7432L21.1929 3.77642L21.313 2.74142C16.7537 -1.26225 9.79549 -0.82974 5.77078 3.70574C4.65252 4.96456 3.84217 6.46405 3.39893 8.08638C3.6713 7.97531 3.97413 7.9568 4.25834 8.03589L9.1577 7.23146C9.1577 7.23146 9.40639 6.82082 9.53665 6.84607C11.7156 4.46473 15.3834 4.18705 17.9007 6.21329H17.8838Z" fill="white"></path><path d="M24.6818 8.08645C24.1185 6.02319 22.963 4.16861 21.3558 2.75159L17.9181 6.17129C19.3697 7.35101 20.197 9.12986 20.1614 10.9945V11.6021C21.8515 11.6021 23.2218 12.9652 23.2218 14.6465C23.2218 16.3277 21.8515 17.6909 20.1614 17.6909H14.0406L13.4299 18.3068V21.9588L14.0406 22.5663H20.1614C24.5566 22.6 28.1483 19.0827 28.1821 14.7104C28.2024 12.0548 26.8879 9.57079 24.6818 8.08645Z" fill="white"></path><path d="M7.91235 22.5275H14.0332V17.6537H7.91235C7.47588 17.6537 7.04617 17.5595 6.64861 17.3794L5.78919 17.6453L3.3226 20.0822L3.10774 20.9371C4.48991 21.9771 6.1783 22.5359 7.91235 22.5275Z" fill="white"></path><path d="M7.91252 6.71821C3.51563 6.74345 -0.0252409 10.3096 0.000135552 14.6835C0.0153614 17.1254 1.16069 19.4243 3.10791 20.912L6.65723 17.3812C5.11773 16.6895 4.43256 14.8854 5.12788 13.354C5.82319 11.8225 7.63677 11.1409 9.17627 11.8326C9.85467 12.1372 10.3977 12.6791 10.7056 13.354L14.255 9.8232C12.7459 7.85754 10.3977 6.70811 7.91252 6.71821Z" fill="white"></path><path d="M44.4776 19.1246C42.3477 19.1515 40.3006 18.3151 38.8051 16.8072C37.2605 15.3632 36.3977 13.3404 36.4248 11.2317C36.3994 9.12297 37.2622 7.10178 38.8051 5.65615C40.2939 4.1331 42.3426 3.27986 44.4776 3.29669C46.5111 3.26976 48.4719 4.05569 49.9183 5.47776L48.389 7.02605C47.3418 6.01798 45.9342 5.46598 44.4776 5.48617C42.95 5.46766 41.4832 6.08866 40.4377 7.19602C39.3516 8.26804 38.7527 9.73555 38.7781 11.2569C38.7645 12.7614 39.3634 14.2071 40.4377 15.2673C42.6505 17.4619 46.2184 17.5039 48.4837 15.3616C49.1587 14.6278 49.5715 13.6921 49.6612 12.7025H44.503V10.5147H51.8013C51.8723 10.9557 51.9011 11.4016 51.8876 11.8493C51.9789 13.7157 51.2988 15.5383 50.0046 16.8947C48.5649 18.3841 46.5551 19.1953 44.4776 19.1246ZM61.446 17.6705C59.4108 19.6109 56.1999 19.6109 54.1647 17.6705C53.1784 16.7197 52.6404 15.402 52.6776 14.0371C52.6404 12.6723 53.1801 11.3545 54.1647 10.4037C56.2016 8.46831 59.4092 8.46831 61.446 10.4037C62.4306 11.3545 62.9703 12.6723 62.9331 14.0371C62.9686 15.4036 62.4256 16.7214 61.4376 17.6705H61.446ZM55.7719 16.2434C56.8224 17.3609 58.5853 17.4181 59.7086 16.3713C59.7526 16.3292 59.7966 16.2872 59.8372 16.2434C60.4107 15.6527 60.7203 14.8584 60.6966 14.0371C60.722 13.2142 60.4124 12.4148 59.8372 11.8224C58.7561 10.7016 56.9662 10.6628 55.8378 11.7382C55.8091 11.7652 55.7803 11.7938 55.7532 11.8224C55.178 12.4148 54.8685 13.2142 54.8938 14.0371C54.8718 14.8584 55.1848 15.6544 55.7617 16.2434H55.7719ZM72.6371 17.6705C70.6019 19.6109 67.3909 19.6109 65.3557 17.6705C64.3694 16.7197 63.8314 15.402 63.8686 14.0371C63.8314 12.6723 64.3711 11.3545 65.3557 10.4037C67.3909 8.46326 70.6019 8.46326 72.6371 10.4037C73.6217 11.3545 74.1614 12.6723 74.1241 14.0371C74.1631 15.402 73.6234 16.7197 72.6371 17.6705ZM66.9646 16.2434C68.0152 17.3609 69.778 17.4181 70.9013 16.3713C70.9453 16.3292 70.9893 16.2872 71.0299 16.2434C71.6034 15.6527 71.913 14.8584 71.8893 14.0371C71.9147 13.2142 71.6051 12.4148 71.0299 11.8224C69.9489 10.7016 68.159 10.6628 67.0323 11.7382C67.0035 11.7652 66.9747 11.7938 66.9477 11.8224C66.3725 12.4148 66.0629 13.2142 66.0882 14.0371C66.0663 14.8584 66.3792 15.6544 66.9561 16.2434H66.9646ZM79.9946 23.6903C78.9643 23.7223 77.9543 23.4026 77.1321 22.7833C76.4029 22.238 75.8278 21.5126 75.464 20.6796L77.4231 19.8667C77.6362 20.3649 77.9695 20.8025 78.3942 21.1407C78.8475 21.5042 79.4177 21.6961 80.0013 21.6793C80.7491 21.7247 81.4799 21.4436 82.0044 20.9102C82.5221 20.2892 82.7775 19.4915 82.7183 18.687V17.9516H82.6405C81.9756 18.7358 80.9792 19.1633 79.9506 19.1061C78.6462 19.1094 77.3994 18.5709 76.5129 17.6184C75.552 16.6742 75.0208 15.3801 75.0428 14.0354C75.0191 12.684 75.5503 11.3815 76.5129 10.4272C77.3977 9.47133 78.6445 8.92775 79.9506 8.93112C80.497 8.92943 81.0384 9.0506 81.5324 9.28116C81.9604 9.46629 82.341 9.74397 82.6506 10.094H82.7285V9.28116H84.8601V18.3875C84.9734 19.8432 84.4794 21.2821 83.4931 22.3642C82.5542 23.2578 81.2938 23.7358 79.9946 23.6903ZM80.1502 17.1236C80.8929 17.1404 81.6051 16.8257 82.0924 16.2687C82.6219 15.6645 82.9027 14.8819 82.874 14.0792C82.9061 13.263 82.627 12.4669 82.0924 11.8476C81.6051 11.2889 80.8929 10.9759 80.1502 10.9927C79.3872 10.9776 78.6547 11.2889 78.1387 11.8476C77.5703 12.4451 77.2607 13.2411 77.2793 14.0623C77.2624 14.8769 77.5703 15.6645 78.1387 16.2518C78.6513 16.8156 79.3838 17.1337 80.1502 17.1236ZM88.6513 3.87057V18.8166H86.4081V3.87057H88.6513ZM94.806 19.1246C93.4475 19.1599 92.1364 18.6298 91.1873 17.6621C90.2247 16.7029 89.6985 15.3919 89.7341 14.0371C89.6833 12.679 90.1892 11.3579 91.1349 10.3767C92.0281 9.44104 93.2766 8.9227 94.5725 8.94795C95.163 8.94121 95.7466 9.05565 96.2914 9.28116C96.782 9.47807 97.2286 9.76921 97.6059 10.1361C97.9307 10.4474 98.2183 10.7941 98.4653 11.1711C98.6649 11.4892 98.8341 11.8241 98.9728 12.1707L99.2046 12.753L92.3292 15.5669C92.7556 16.5396 93.7385 17.1522 94.8043 17.1068C95.8346 17.1101 96.7904 16.5733 97.3233 15.6965L99.0422 16.851C98.604 17.4753 98.0423 18.0054 97.391 18.4077C96.6196 18.8923 95.7195 19.1414 94.806 19.1246ZM91.9351 13.8823L96.5079 11.9924C96.3675 11.6591 96.1154 11.3848 95.794 11.2148C95.4353 11.0129 95.0293 10.9102 94.6165 10.9153C93.9178 10.9338 93.2529 11.2249 92.7691 11.7281C92.1821 12.2869 91.8758 13.0762 91.9351 13.8823Z" fill="white"></path><path d="M110.956 19.1245C107.045 19.1919 103.82 16.0919 103.752 12.201C103.751 12.1068 103.751 12.0108 103.754 11.9166C103.663 8.02567 106.76 4.79951 110.67 4.70864C110.765 4.70695 110.861 4.70695 110.956 4.70695C112.912 4.64637 114.79 5.47773 116.053 6.96375L114.815 8.16031C113.886 6.99741 112.455 6.34612 110.964 6.4067C109.535 6.37473 108.153 6.92504 107.139 7.92807C106.085 8.98326 105.522 10.4272 105.583 11.9132C105.52 13.3992 106.085 14.8432 107.139 15.8984C108.153 16.9031 109.535 17.4517 110.964 17.4197C112.629 17.4383 114.211 16.7011 115.262 15.4188L116.5 16.6507C115.852 17.4214 115.038 18.0374 114.12 18.4547C113.128 18.9125 112.047 19.1414 110.956 19.1245Z" fill="white"></path><path d="M119.826 18.8166H118.046V5.00659H119.826V18.8166Z" fill="white"></path><path d="M122.731 10.5047C124.672 8.5878 127.805 8.5878 129.745 10.5047C130.666 11.4723 131.161 12.7648 131.121 14.096C131.161 15.4272 130.666 16.7197 129.745 17.6874C127.805 19.6042 124.672 19.6042 122.731 17.6874C121.811 16.7197 121.315 15.4272 121.356 14.096C121.315 12.7648 121.809 11.4723 122.731 10.5047ZM124.054 16.5766C125.193 17.7732 127.091 17.8254 128.296 16.6928C128.336 16.6557 128.375 16.6153 128.412 16.5766C129.04 15.9068 129.371 15.0132 129.333 14.0977C129.373 13.1822 129.042 12.2885 128.412 11.6187C127.274 10.4222 125.376 10.37 124.171 11.5026C124.13 11.5396 124.091 11.58 124.054 11.6187C123.427 12.2885 123.095 13.1822 123.134 14.0977C123.098 15.0115 123.433 15.9018 124.063 16.5682L124.054 16.5766Z" fill="white"></path><path d="M140.979 18.8166H139.26V17.509H139.209C138.903 18.0054 138.47 18.4127 137.954 18.6887C137.419 18.9967 136.81 19.1599 136.191 19.1582C135.173 19.2272 134.18 18.8301 133.493 18.0812C132.841 17.2616 132.515 16.2333 132.572 15.1916V9.37708H134.352V14.8668C134.352 16.6288 135.134 17.509 136.699 17.509C137.404 17.5308 138.076 17.2128 138.504 16.654C138.966 16.0734 139.211 15.3514 139.201 14.611V9.37708H140.98V18.8166H140.979Z" fill="white"></path><path d="M147.022 19.1246C145.8 19.128 144.638 18.6012 143.841 17.679C142.95 16.6995 142.473 15.4171 142.508 14.0961C142.473 12.775 142.95 11.4926 143.841 10.5131C144.638 9.59255 145.8 9.06412 147.022 9.06748C147.699 9.05738 148.367 9.21558 148.964 9.5286C149.49 9.79114 149.935 10.19 150.253 10.6831H150.331L150.253 9.37546V5.00659H152.033V18.8166H150.314V17.509H150.236C149.918 18.0021 149.473 18.401 148.947 18.6635C148.355 18.9732 147.694 19.133 147.022 19.1246ZM147.315 17.509C148.128 17.5208 148.908 17.1842 149.455 16.5851C150.059 15.9001 150.368 15.0065 150.314 14.0961C150.368 13.1873 150.059 12.292 149.455 11.607C148.375 10.4256 146.538 10.3398 145.35 11.4152C145.283 11.4757 145.218 11.5414 145.158 11.607C144.552 12.2869 144.242 13.1789 144.298 14.086C144.242 14.9931 144.552 15.885 145.158 16.5649C145.706 17.1775 146.492 17.5208 147.315 17.509Z" fill="white"></path></svg> 