<?xml version="1.0" encoding="UTF-8"?> <svg xmlns="http://www.w3.org/2000/svg" width="135" height="31" viewBox="0 0 135 31" fill="none"><path d="M9.32077 20.1354C13.8744 20.1354 15.6532 17.3606 15.6532 12.5935C15.6532 7.82643 13.5898 4.55348 9.46307 4.55348H4.83829V20.1354H9.32077ZM6.10352e-05 0.426758H10.0323C16.4358 0.426758 20.5625 5.54962 20.5625 12.5935C20.5625 16.5068 19.2107 19.8508 16.7204 21.9853C14.9417 23.4795 12.6648 24.2622 9.60538 24.2622H6.10352e-05V0.426758Z" fill="white"></path><path d="M34.3658 15.7954C34.3658 12.4513 32.8005 10.1745 30.0256 10.1745C27.2508 10.1745 25.6854 12.4513 25.6854 15.7954C25.6854 19.1395 27.2508 21.3451 30.0256 21.3451C32.8716 21.3451 34.3658 19.1395 34.3658 15.7954ZM21.0607 15.7954C21.0607 10.6726 24.6893 6.75928 30.0256 6.75928C35.3619 6.75928 38.9906 10.7437 38.9906 15.7954C38.9906 20.9182 35.3619 24.8315 30.0256 24.8315C24.6893 24.8315 21.0607 20.9182 21.0607 15.7954Z" fill="white"></path><path d="M39.7731 15.7954C39.7731 10.6726 43.1171 6.75928 48.3111 6.75928C52.7225 6.75928 55.4973 9.32069 56.0665 13.0205H51.6552C51.3706 11.4552 50.0899 10.3879 48.5246 10.3879C45.7497 10.3879 44.3979 12.5225 44.3979 15.7954C44.3979 19.1395 45.7497 21.2028 48.4534 21.2028C50.3033 21.2028 51.5841 20.2067 51.8687 18.2857H56.28C55.9954 21.9143 53.1494 24.8315 48.5246 24.8315C43.1171 24.8315 39.7731 20.9182 39.7731 15.7954Z" fill="white"></path><path d="M68.0909 24.3336V22.3413H68.0198C66.8813 23.9066 65.5295 24.8316 63.1104 24.8316C59.2682 24.8316 57.1337 22.4125 57.1337 18.6415V7.18628H61.6162V17.8588C61.6162 19.8511 62.47 20.9895 64.4622 20.9895C66.5967 20.9895 67.8775 19.353 67.8775 17.0762V7.18628H72.4311V24.3336H68.0909Z" fill="white"></path><path d="M94.6302 24.3335H99.1838V7.18617H94.6302V24.3335ZM94.6302 4.76708H99.1838V0.498047H94.6302V4.76708Z" fill="white"></path><path d="M113.058 15.0127C113.058 12.5224 111.706 10.3879 109.003 10.3879C106.726 10.3879 105.16 12.1667 105.16 15.0839C105.16 17.9299 106.726 19.7087 109.074 19.7087C111.92 19.6375 113.058 17.5741 113.058 15.0127ZM101.034 24.8315H105.516C105.872 25.8987 106.868 26.7525 108.931 26.7525C111.493 26.7525 112.774 25.543 112.774 23.195V21.3451H112.702C111.635 22.697 109.928 23.4085 108.22 23.3373C104.378 23.3373 100.678 20.349 100.678 15.155C100.678 10.0322 103.737 6.75928 108.078 6.75928C110.212 6.75928 111.777 7.61309 112.845 9.0361H112.916V7.25734H117.327V22.9816C117.327 25.4007 116.545 27.0371 115.264 28.1756C113.841 29.5274 111.635 30.0966 109.074 30.0966C104.378 30.1678 101.532 28.1755 101.034 24.8315Z" fill="white"></path><path d="M123.731 9.53413H123.802C124.869 7.75537 126.79 6.61698 128.854 6.75929C132.411 6.75929 134.759 9.463 134.759 13.1628V24.3335H130.205V13.8032C130.205 11.9532 129.138 10.6726 127.217 10.6726C125.225 10.6726 123.731 12.309 123.731 14.657V24.4046H119.248V7.25735H123.66V9.53413H123.731Z" fill="white"></path><path d="M84.2422 9.88989C80.6846 9.10723 79.0482 8.53805 79.0482 6.61698C79.0482 4.90937 80.7558 3.8421 83.3883 3.8421C85.7363 3.8421 87.5862 4.98052 87.942 7.18618H92.6379C92.1399 2.5614 88.7246 0 83.4595 0C78.1944 0 74.2811 2.4191 74.2811 7.18618C74.2811 12.1667 78.1944 13.3051 82.4634 14.3012C86.0921 15.155 88.3689 15.6531 88.3689 17.9299C88.3689 20.1356 86.1632 20.9894 83.7441 20.9894C80.3289 20.9894 78.6924 19.851 78.3367 17.0049H73.5696C73.7119 22.0566 77.4117 24.9027 83.8864 24.9027C89.2938 24.9027 93.2071 22.1989 93.2071 17.3607C93.2071 12.1667 89.1515 10.9571 84.2422 9.88989Z" fill="white"></path></svg> 