<?xml version="1.0" encoding="UTF-8"?> <!-- Generator: Adobe Illustrator 23.0.1, SVG Export Plug-In . SVG Version: 6.00 Build 0) --> <svg xmlns="http://www.w3.org/2000/svg" xmlns:xlink="http://www.w3.org/1999/xlink" id="Layer_1" x="0px" y="0px" viewBox="0 0 147.4 33" style="enable-background:new 0 0 147.4 33;" xml:space="preserve"> <style type="text/css"> .st0{fill:none;} .st1{fill:#FFFFFF;} </style> <g> <path class="st0" d="M67.3,11.5c0-1.5-1-2.2-3.5-2.2h-2.4c0,0-0.1,0-0.1,0.1v4.3c0,0,0,0.1,0.1,0.1h2.4 C65.9,13.7,67.3,13.3,67.3,11.5z"></path> <path class="st0" d="M51.2,14.3c-1.8,0-3.3,1.2-3.3,3.3c0,2.1,1.4,3.3,3.3,3.3c1,0,3-0.7,3-3.3C54.2,15,52.3,14.3,51.2,14.3z"></path> <path class="st0" d="M2.7,10.7l-1.2-0.4c-0.1,0-0.2,0.3-0.2,0.6v6.8c0,0,0,0.1,0.1,0l1.4-1.1v-5.8C2.7,10.7,2.7,10.7,2.7,10.7z"></path> <path class="st0" d="M17.9,10.3l-1.2,0.4c0,0-0.1,0.1-0.1,0.1v5.8l1.4,1.1c0,0,0.1,0,0.1,0v-6.8C18.1,10.6,18.1,10.2,17.9,10.3z"></path> <path class="st0" d="M76.4,13.9c-1.5,0-2.8,0.9-2.9,2.5c0,0,0,0.1,0.1,0.1l5.5,0c0,0,0.1,0,0.1-0.1C79.1,15.1,77.9,13.9,76.4,13.9z "></path> <path class="st0" d="M133.4,13.9c-1.5,0-2.8,0.9-2.9,2.5c0,0,0,0.1,0.1,0.1l5.5,0c0,0,0.1,0,0.1-0.1 C136.1,15.1,134.9,13.9,133.4,13.9z"></path> <path class="st1" d="M41.3,6.9c-1,0-1.8,0.7-1.8,1.6c0,0.9,0.8,1.7,1.8,1.6c1,0,1.8-0.8,1.8-1.6S42.4,6.9,41.3,6.9z"></path> <path class="st1" d="M38,6.9H25.6c-0.1,0-0.1,0.1-0.1,0.1v2.4c0,0.1,0.1,0.1,0.1,0.1h8.3C34,9.5,34,9.6,34,9.6l-8.6,10.9 c0,0,0,0.1,0,0.1V23c0,0.1,0.1,0.1,0.1,0.1H38c0.1,0,0.1-0.1,0.1-0.1v-2.4c0-0.1-0.1-0.1-0.1-0.1h-8.5c-0.1,0-0.1-0.1-0.1-0.1 l8.7-10.9c0,0,0-0.1,0-0.1V7C38.1,6.9,38,6.9,38,6.9z"></path> <path class="st1" d="M66.5,16c1.5-0.2,3.7-1.4,3.7-4.5c0-2.9-1.8-4.7-6.5-4.7h-5.1c-0.1,0-0.1,0.1-0.1,0.1h0v16 c0,0.1,0.1,0.1,0.1,0.1h2.7c0.1,0,0.1-0.1,0.1-0.1v-6.7c0,0,0-0.1,0.1-0.1h2c0,0,0.1,0,0.1,0.1l3.7,6.8c0,0.1,0.1,0.1,0.1,0.1h3.2 c0.1,0,0.1-0.1,0.1-0.2L66.5,16C66.4,16,66.4,16,66.5,16z M61.3,13.7C61.3,13.7,61.3,13.7,61.3,13.7l-0.1-4.4c0,0,0-0.1,0.1-0.1 h2.4c2.5,0,3.5,0.7,3.5,2.2c0,1.8-1.4,2.3-3.5,2.3H61.3z"></path> <path class="st1" d="M42.6,12.1h-2.5c-0.1,0-0.1,0.1-0.1,0.1V23c0,0.1,0.1,0.1,0.1,0.1h2.5c0.1,0,0.1-0.1,0.1-0.1V12.2 C42.7,12.2,42.6,12.1,42.6,12.1z"></path> <path class="st1" d="M51.5,11.9c-1.8,0-3.1,0.9-3.8,1.9c0,0-0.1,0-0.1,0l-0.3-1.5c0-0.1-0.1-0.1-0.1-0.1h-2c-0.1,0-0.1,0.1-0.1,0.1 v16c0,0.1,0.1,0.1,0.1,0.1h2.5c0.1,0,0.1-0.1,0.1-0.1v-6.5h0c0,0,0.1-0.1,0.1,0c0.7,0.9,2.2,1.6,3.8,1.6c2.7,0,5.4-2.1,5.4-5.8 C56.9,13.7,54.2,11.9,51.5,11.9z M51.2,20.9c-1.8,0-3.3-1.2-3.3-3.3c0-2.1,1.4-3.3,3.3-3.3c1.1,0,3,0.7,3,3.3 C54.2,20.2,52.2,20.9,51.2,20.9z"></path> <path class="st1" d="M76.5,11.8c-3.2,0-5.9,2.3-5.9,5.8c0,3.6,2.8,5.8,6,5.8c2,0,3.5-0.8,4.6-2.1c0-0.1,0-0.2,0-0.2l-1.8-1.3 c0,0-0.1,0-0.2,0c-0.7,0.8-1.4,1.4-2.9,1.4c-1.4,0-2.8-1.3-3-2.5c0,0,0-0.1,0.1-0.1l8.2,0c0.1,0,0.1-0.1,0.1-0.1v-0.6 C81.8,14.4,79.5,11.8,76.5,11.8z M79,16.5l-5.5,0c0,0-0.1,0-0.1-0.1c0.2-1.6,1.4-2.5,2.9-2.5S79.1,15.1,79,16.5 C79.1,16.5,79.1,16.5,79,16.5z"></path> <path class="st1" d="M126.8,12.1h-2.9c0,0-0.1,0-0.1-0.1V9.1c0-0.1-0.1-0.2-0.2-0.1l-2.5,0.9c-0.1,0-0.1,0.1-0.1,0.1v2 c0,0,0,0.1-0.1,0.1h-2.1c-0.1,0-0.1,0.1-0.1,0.1v2.1c0,0.1,0.1,0.1,0.2,0.1h2.1c0,0,0.1,0,0.1,0.1v5c0,1.9,0.4,2.6,0.9,3.1 c0.5,0.5,1.4,0.8,2.8,0.8c0.8,0,1.7-0.1,2.1-0.3c0.1,0,0.1-0.1,0.1-0.2v-2c0-0.1-0.1-0.1-0.1-0.1c-0.3,0.1-0.9,0.2-1.4,0.2 c-1.4,0-1.6-0.8-1.6-1.8v-4.8c0,0,0-0.1,0.1-0.1h2.9c0.1,0,0.1-0.1,0.1-0.1v-2.1C126.9,12.2,126.8,12.1,126.8,12.1z"></path> <path class="st1" d="M147.3,12c-0.2,0-3-0.4-4.2,1.9h0l-0.3-1.6c0-0.1-0.1-0.1-0.1-0.1h-2.2c-0.1,0-0.1,0.1-0.2,0.1V23 c0,0.1,0.1,0.1,0.1,0.1h2.5c0.1,0,0.1-0.1,0.1-0.1v-4.9c0.1-2.2,1.4-3.8,3.2-3.8c0.4,0,1,0.1,1,0.1c0.1,0,0.1-0.1,0.1-0.1v-2.1 C147.4,12,147.3,12,147.3,12z"></path> <path class="st1" d="M115.9,6.9c-1,0-1.8,0.7-1.8,1.6c0,0.9,0.8,1.7,1.8,1.6c1,0,1.8-0.8,1.8-1.6S116.9,6.9,115.9,6.9z"></path> <path class="st1" d="M133.5,11.8c-3.2,0-5.9,2.3-5.9,5.8c0,3.6,2.8,5.8,6,5.8c2,0,3.5-0.8,4.6-2.1c0-0.1,0-0.2,0-0.2l-1.8-1.3 c0,0-0.1,0-0.2,0c-0.7,0.8-1.4,1.4-2.9,1.4c-1.4,0-2.8-1.3-3-2.5c0,0,0-0.1,0.1-0.1l8.2,0c0.1,0,0.1-0.1,0.1-0.1v-0.6 C138.8,14.4,136.5,11.8,133.5,11.8z M136.1,16.5l-5.5,0c0,0-0.1,0-0.1-0.1c0.2-1.6,1.4-2.5,2.9-2.5 C134.9,13.9,136.1,15.1,136.1,16.5C136.1,16.5,136.1,16.5,136.1,16.5z"></path> <path class="st1" d="M101.3,12c-0.2,0-3-0.4-4.2,1.9h0l-0.3-1.6c0-0.1-0.1-0.1-0.1-0.1h-2.2c-0.1,0-0.1,0.1-0.2,0.1V23 c0,0.1,0.1,0.1,0.1,0.1H97c0.1,0,0.1-0.1,0.1-0.1v-4.9c0.1-2.2,1.4-3.8,3.2-3.8c0.4,0,1,0.1,1,0.1c0.1,0,0.1-0.1,0.1-0.1v-2.1 C101.4,12,101.4,12,101.3,12z"></path> <path class="st1" d="M88.9,14.3c1.1,0,1.9,0.7,2.2,1c0.1,0.1,0.1,0.1,0.2,0l1.7-1.6c0.1-0.1,0.1-0.1,0-0.2c-1-0.9-2.3-1.6-3.9-1.6 c-3,0-6,1.9-6,5.8c0,4,3.2,5.8,6,5.8c1.8,0,3.1-0.7,3.9-1.4c0-0.1,0.1-0.1,0-0.2L91.3,20c-0.1-0.1-0.1-0.1-0.2,0 C90.8,20.3,90,21,88.9,21c-1.1,0-3.2-0.8-3.2-3.3C85.8,15.1,87.6,14.3,88.9,14.3z"></path> <path class="st1" d="M117.1,12.1h-2.5c-0.1,0-0.1,0.1-0.1,0.1V23c0,0.1,0.1,0.1,0.1,0.1h2.5c0.1,0,0.1-0.1,0.1-0.1V12.2 C117.3,12.2,117.2,12.1,117.1,12.1z"></path> <path class="st1" d="M112.3,12.1h-2.5c-0.1,0-0.1,0.1-0.1,0.1v6.9c0,1.2-1,1.9-2.1,1.9c-1.1,0-2-0.7-2.1-1.9v-6.9 c0-0.1-0.1-0.1-0.1-0.1h-2.5c-0.1,0-0.1,0.1-0.1,0.1v6.6c0,2.7,2,4.6,4.8,4.6h0.1c2.8,0,4.8-1.9,4.8-4.6v-6.6 C112.4,12.2,112.3,12.1,112.3,12.1z"></path> <path class="st1" d="M18.2,9.1c-0.2-0.1-0.4,0-0.7,0l-0.9,0.3V0.8c0-0.4-0.4-0.8-0.8-0.8H3.5C3.1,0,2.7,0.4,2.7,0.8v8.6L1.8,9.1 C1.5,9.1,1.3,9,1.1,9.1C0.8,9.2,0,9.5,0,10.9v7.2c0.1,0.6,0.5,1.3,1.4,1.3h3.1c0.3,0.4,1.1,1,2.5,1.1c0,1.1,0.7,2,1.6,2.3v2 c0,0,0,0.1-0.1,0.1c-4.3,0.1-7.1,1.5-7.9,2c-0.5,0.3-0.6,0.9-0.6,1.2v1.6c0,0.5,0.5,1,1.1,1c0.5,0,1-0.4,1-1c0-0.5-0.3-0.9-0.8-1.1 c0,0-0.1,0-0.1-0.1V28c0-0.1,0.1-0.3,0.2-0.3c1.2-0.7,4.2-1,6.4-1.1h0.7c0,0,0.1,0,0.1,0.1C8.8,28.4,9,30,9.1,30.9H9 c-0.4,0-0.7,0.4-0.7,1c0,0.6,0.3,1,0.7,1h1.4c0.4,0,0.7-0.4,0.7-1c0-0.6-0.3-1-0.7-1h-0.1c0,0,0.2-2.5,0.4-4.3c0,0,0-0.1,0.1-0.1 h0.7c2.3,0.1,5.3,0.4,6.4,1.1C18,27.7,18,27.9,18,28v0.6c0,0,0,0.1-0.1,0.1c-0.5,0.1-0.8,0.5-0.8,1.1c0,0.5,0.5,1,1,1 c0.6,0,1-0.4,1.1-1v-1.6c0-0.4-0.1-0.9-0.6-1.2c-0.8-0.4-3.6-1.8-7.9-2c0,0-0.1,0-0.1-0.1v-2c0.9-0.4,1.5-1.3,1.6-2.3 c1.4-0.1,2.2-0.8,2.5-1.1h3.1c0.9,0,1.3-0.7,1.4-1.3v-7.2C19.3,9.5,18.6,9.2,18.2,9.1z M2.7,16.6l-1.4,1.1c0,0-0.1,0-0.1,0v-6.8 c0-0.3,0-0.6,0.2-0.6l1.2,0.4c0,0,0.1,0.1,0.1,0.1V16.6z M18.1,17.6C18.1,17.6,18.1,17.6,18.1,17.6l-1.5-1.1v-5.8 c0,0,0-0.1,0.1-0.1l1.2-0.4c0.2,0,0.2,0.3,0.2,0.6V17.6z"></path> </g> </svg> 