<?xml version="1.0" encoding="UTF-8"?> <svg xmlns="http://www.w3.org/2000/svg" width="138" height="23" viewBox="0 0 138 23" fill="none"><path opacity="0.6" d="M19.0568 9.03179L38.7223 9.89826C38.7822 9.9009 38.8398 9.92256 38.8866 9.96012C38.9333 9.99768 38.9669 10.0492 38.9825 10.1071C38.998 10.1651 38.9947 10.2265 38.973 10.2824C38.9513 10.3383 38.9123 10.3859 38.8617 10.4181L22.2642 21.0015C22.2152 21.0327 22.1579 21.0481 22.0999 21.0455L2.43441 20.1791C2.37441 20.1764 2.31681 20.1548 2.26998 20.1172C2.22315 20.0796 2.18953 20.028 2.17402 19.97C2.1585 19.912 2.16189 19.8505 2.18369 19.7946C2.2055 19.7386 2.24458 19.6911 2.29527 19.6589L18.8923 9.07553C18.9412 9.04442 18.9986 9.02914 19.0565 9.03179H19.0568Z" fill="white"></path><path d="M17.6463 0.000293611L37.3118 0.866764C37.3717 0.869401 37.4292 0.891071 37.476 0.928627C37.5228 0.966183 37.5564 1.01767 37.572 1.07562C37.5875 1.13357 37.5842 1.19496 37.5625 1.25089C37.5407 1.30682 37.5018 1.35437 37.4512 1.38665L20.8536 11.97C20.8047 12.0012 20.7473 12.0166 20.6894 12.014L1.02389 11.1476C0.96389 11.1449 0.906289 11.1233 0.859459 11.0857C0.812629 11.0481 0.779011 10.9965 0.763493 10.9385C0.747974 10.8805 0.751364 10.8191 0.77317 10.7631C0.794976 10.7071 0.834061 10.6596 0.884743 10.6274L17.4817 0.0440405C17.5307 0.012924 17.588 -0.00235125 17.646 0.000293611H17.6463Z" fill="white"></path><path d="M46.5056 4.35189H49.4996V17.9399H46.5056V4.35189ZM58.2129 10.9156H55.6795V14.0247C55.6795 14.2807 55.6922 14.5141 55.7179 14.7253C55.7433 14.9364 55.8011 15.1187 55.8906 15.2722C55.9801 15.4258 56.1178 15.544 56.3033 15.6273C56.4887 15.7105 56.7351 15.752 57.0421 15.752C57.1957 15.752 57.3972 15.7359 57.6467 15.7041C57.8962 15.6722 58.085 15.5985 58.2129 15.4833V17.8824C57.8931 17.9975 57.5603 18.0743 57.2149 18.1127C56.8771 18.1506 56.5376 18.1698 56.1977 18.1702C55.7114 18.1702 55.2635 18.1192 54.8542 18.0167C54.445 17.9143 54.0866 17.7514 53.7795 17.5273C53.4724 17.3035 53.2325 17.0122 53.0598 16.6541C52.887 16.2956 52.8007 15.861 52.8007 15.349V10.9156H50.9582V8.61255H52.8007V5.84888H55.6795V8.61255H58.2129V10.9156ZM68.4999 16.3278C68.0393 16.9163 67.457 17.3707 66.7534 17.6904C66.0498 18.0102 65.3205 18.1702 64.5655 18.1702C63.8489 18.1702 63.174 18.0551 62.5407 17.8248C61.9074 17.5945 61.3573 17.2651 60.8902 16.8364C60.4231 16.4077 60.0553 15.8929 59.7866 15.2914C59.5179 14.6903 59.3836 14.0185 59.3836 13.2762C59.3836 12.534 59.5179 11.8622 59.7866 11.2611C60.0553 10.6599 60.4231 10.1448 60.8902 9.7161C61.3573 9.28738 61.9074 8.95801 62.5407 8.7277C63.174 8.4974 63.8489 8.38224 64.5655 8.38224C65.2307 8.38224 65.8355 8.4974 66.3791 8.7277C66.923 8.95801 67.3836 9.28738 67.761 9.7161C68.1383 10.1448 68.4296 10.6596 68.6342 11.2611C68.8388 11.8622 68.9413 12.534 68.9413 13.2762V14.1783H62.2624C62.3776 14.7286 62.6271 15.1667 63.0109 15.4929C63.3948 15.8192 63.8681 15.9823 64.4311 15.9823C64.9044 15.9823 65.3044 15.8768 65.6306 15.6657C65.9631 15.4487 66.2526 15.1721 66.4847 14.85L68.4999 16.3278ZM66.0625 12.2207C66.0752 11.7344 65.9154 11.3186 65.5827 10.9732C65.2499 10.6277 64.8215 10.455 64.2968 10.455C63.977 10.455 63.6956 10.5061 63.4523 10.6085C63.2093 10.711 63.0013 10.8419 62.8286 11.002C62.6583 11.1586 62.5212 11.3479 62.4256 11.5585C62.3302 11.7671 62.2749 11.9917 62.2624 12.2207H66.0625ZM70.6878 8.61255H73.5666V10.1095H73.605C73.9121 9.53377 74.2767 9.10195 74.6989 8.81407C75.1212 8.52619 75.6521 8.38224 76.2919 8.38224C76.4584 8.38224 76.6247 8.38873 76.7909 8.40144C76.9574 8.41414 77.1107 8.43982 77.2515 8.47821V11.1075C77.0537 11.0452 76.8516 10.9971 76.6469 10.9636C76.4406 10.931 76.2321 10.9149 76.0232 10.9156C75.4728 10.9156 75.0382 10.9924 74.7181 11.1459C74.3984 11.2995 74.152 11.5137 73.9792 11.7889C73.8065 12.064 73.6945 12.3934 73.6434 12.7773C73.5899 13.1973 73.5643 13.6205 73.5666 14.0439V17.9399H70.6878V8.61255ZM84.3526 16.7692H84.3142C83.9944 17.2682 83.5691 17.6264 83.0379 17.844C82.505 18.0619 81.9344 18.1727 81.3586 18.1702C80.9237 18.1702 80.5046 18.1096 80.1015 17.9879C79.6985 17.8666 79.3434 17.684 79.0364 17.4409C78.7294 17.198 78.4803 16.8899 78.3071 16.5389C78.1279 16.1805 78.0384 15.7647 78.0384 15.2914C78.0384 14.754 78.1374 14.2999 78.3359 13.9288C78.5293 13.5633 78.8053 13.2478 79.1419 13.0076C79.4809 12.7645 79.8681 12.5757 80.3031 12.4414C80.7452 12.3055 81.1977 12.206 81.6561 12.1439C82.1207 12.0801 82.5884 12.0417 83.0571 12.0288C83.5242 12.0161 83.9561 12.0096 84.3526 12.0096C84.3526 11.4979 84.1703 11.0914 83.8056 10.7909C83.441 10.4903 83.0092 10.3398 82.5102 10.3398C82.0368 10.3398 81.605 10.4389 81.2147 10.6373C80.8244 10.8357 80.4758 11.1075 80.1687 11.453L78.6333 9.87923C79.1707 9.38024 79.7976 9.00599 80.5142 8.75649C81.2299 8.50713 81.9826 8.3806 82.7405 8.38224C83.5849 8.38224 84.2789 8.4878 84.8228 8.69891C85.3667 8.91003 85.8016 9.22021 86.1279 9.62973C86.4541 10.039 86.6811 10.5414 86.8092 11.1363C86.9371 11.7313 87.0011 12.4191 87.0011 13.1995V17.9399H84.3526V16.7692ZM84.3526 13.852H83.6425L83.4692 13.8537C83.2549 13.8586 83.0408 13.8676 82.8268 13.8808C82.5006 13.9 82.187 13.9542 81.8864 14.0439C81.5858 14.1334 81.3298 14.2677 81.1187 14.447C80.9076 14.6262 80.8021 14.8757 80.8021 15.1955C80.8021 15.5409 80.9491 15.7966 81.2435 15.9632C81.5378 16.1297 81.8446 16.2126 82.1647 16.2126C82.4461 16.2126 82.7179 16.1743 82.9804 16.0975C83.2298 16.0268 83.4663 15.9166 83.6809 15.7712C83.8836 15.6326 84.0512 15.4486 84.1703 15.2338C84.2916 15.0165 84.3526 14.7605 84.3526 14.4662V13.852ZM95.1578 10.9156H92.6244V14.0247C92.6244 14.2807 92.6371 14.5141 92.6628 14.7253C92.6882 14.9364 92.7461 15.1187 92.8355 15.2722C92.925 15.4258 93.0627 15.544 93.2482 15.6273C93.4336 15.7105 93.68 15.752 93.9871 15.752C94.1406 15.752 94.3421 15.7359 94.5916 15.7041C94.8411 15.6722 95.0299 15.5985 95.1578 15.4833V17.8824C94.838 17.9975 94.5053 18.0743 94.1598 18.1127C93.8221 18.1506 93.4825 18.1698 93.1426 18.1702C92.6563 18.1702 92.2084 18.1192 91.7992 18.0167C91.3899 17.9143 91.0315 17.7514 90.7244 17.5273C90.4173 17.3035 90.1774 17.0122 90.0047 16.6541C89.832 16.2956 89.7456 15.861 89.7456 15.349V10.9156H87.9032V8.61255H89.7456V5.84888H92.6244V8.61255H95.1578V10.9156ZM96.6548 8.61255H99.5336V17.9399H96.6548V8.61255ZM96.4245 5.67615C96.4245 5.21554 96.5876 4.8221 96.9139 4.49583C97.2402 4.16956 97.6336 4.00643 98.0942 4.00643C98.5548 4.00643 98.9483 4.16956 99.2745 4.49583C99.6008 4.8221 99.7639 5.21554 99.7639 5.67615C99.7639 6.13676 99.6008 6.5302 99.2745 6.85647C98.9483 7.18273 98.5548 7.34587 98.0942 7.34587C97.6336 7.34587 97.2402 7.18273 96.9139 6.85647C96.5876 6.5302 96.4245 6.13676 96.4245 5.67615ZM100.628 8.61255H103.737L106.097 14.946H106.136L108.324 8.61255H111.222L107.537 17.9399H104.485L100.628 8.61255ZM121.106 16.3278C120.645 16.9163 120.063 17.3707 119.359 17.6904C118.656 18.0102 117.926 18.1702 117.171 18.1702C116.455 18.1702 115.78 18.0551 115.146 17.8248C114.513 17.5945 113.963 17.2651 113.496 16.8364C113.029 16.4077 112.661 15.8929 112.392 15.2914C112.124 14.6903 111.989 14.0185 111.989 13.2762C111.989 12.534 112.124 11.8622 112.392 11.2611C112.661 10.6599 113.029 10.1448 113.496 9.7161C113.963 9.28738 114.513 8.95801 115.146 8.7277C115.78 8.4974 116.455 8.38224 117.171 8.38224C117.836 8.38224 118.441 8.4974 118.985 8.7277C119.529 8.95801 119.989 9.28738 120.367 9.7161C120.744 10.1448 121.035 10.6596 121.24 11.2611C121.445 11.8622 121.547 12.534 121.547 13.2762V14.1783H114.868C114.983 14.7286 115.233 15.1667 115.617 15.4929C116 15.8192 116.474 15.9823 117.037 15.9823C117.51 15.9823 117.91 15.8768 118.236 15.6657C118.569 15.4487 118.858 15.1721 119.09 14.85L121.106 16.3278ZM118.668 12.2207C118.681 11.7344 118.521 11.3186 118.188 10.9732C117.856 10.6277 117.427 10.455 116.903 10.455C116.583 10.455 116.301 10.5061 116.058 10.6085C115.815 10.711 115.607 10.8419 115.434 11.002C115.264 11.1586 115.127 11.3479 115.031 11.5585C114.936 11.7671 114.881 11.9917 114.868 12.2207H118.668ZM123.332 3.43066H126.211V17.9399H123.332V3.43066ZM137.88 8.61255L133.657 19.4561C133.487 19.9038 133.301 20.3455 133.101 20.7804C132.921 21.1642 132.694 21.4874 132.419 21.7496C132.144 22.0121 131.796 22.2102 131.373 22.3445C130.951 22.4789 130.395 22.5461 129.704 22.5461C128.961 22.5461 128.245 22.4309 127.554 22.2006L127.938 19.84C128.373 20.0319 128.821 20.1278 129.281 20.1278C129.601 20.1278 129.864 20.0926 130.068 20.0223C130.273 19.9517 130.443 19.8496 130.577 19.7152C130.717 19.573 130.83 19.4074 130.913 19.2258L130.991 19.0537C131.058 18.9032 131.128 18.737 131.201 18.5541L131.412 18.0167L127.324 8.61255H130.433L132.832 14.7732H132.87L134.924 8.61255H137.88Z" fill="white"></path><path d="M46.5056 4.35189H49.4996V17.9399H46.5056V4.35189ZM58.2129 10.9156H55.6795V14.0247C55.6795 14.2807 55.6922 14.5141 55.7179 14.7253C55.7433 14.9364 55.8011 15.1187 55.8906 15.2722C55.9801 15.4258 56.1178 15.544 56.3033 15.6273C56.4887 15.7105 56.7351 15.752 57.0421 15.752C57.1957 15.752 57.3972 15.7359 57.6467 15.7041C57.8962 15.6722 58.085 15.5985 58.2129 15.4833V17.8824C57.8931 17.9975 57.5603 18.0743 57.2149 18.1127C56.8771 18.1506 56.5376 18.1698 56.1977 18.1702C55.7114 18.1702 55.2635 18.1192 54.8542 18.0167C54.445 17.9143 54.0866 17.7514 53.7795 17.5273C53.4724 17.3035 53.2325 17.0122 53.0598 16.6541C52.887 16.2956 52.8007 15.861 52.8007 15.349V10.9156H50.9582V8.61255H52.8007V5.84888H55.6795V8.61255H58.2129V10.9156ZM68.4999 16.3278C68.0393 16.9163 67.457 17.3707 66.7534 17.6904C66.0498 18.0102 65.3205 18.1702 64.5655 18.1702C63.8489 18.1702 63.174 18.0551 62.5407 17.8248C61.9074 17.5945 61.3573 17.2651 60.8902 16.8364C60.4231 16.4077 60.0553 15.8929 59.7866 15.2914C59.5179 14.6903 59.3836 14.0185 59.3836 13.2762C59.3836 12.534 59.5179 11.8622 59.7866 11.2611C60.0553 10.6599 60.4231 10.1448 60.8902 9.7161C61.3573 9.28738 61.9074 8.95801 62.5407 8.7277C63.174 8.4974 63.8489 8.38224 64.5655 8.38224C65.2307 8.38224 65.8355 8.4974 66.3791 8.7277C66.923 8.95801 67.3836 9.28738 67.761 9.7161C68.1383 10.1448 68.4296 10.6596 68.6342 11.2611C68.8388 11.8622 68.9413 12.534 68.9413 13.2762V14.1783H62.2624C62.3776 14.7286 62.6271 15.1667 63.0109 15.4929C63.3948 15.8192 63.8681 15.9823 64.4311 15.9823C64.9044 15.9823 65.3044 15.8768 65.6306 15.6657C65.9631 15.4487 66.2526 15.1721 66.4847 14.85L68.4999 16.3278ZM66.0625 12.2207C66.0752 11.7344 65.9154 11.3186 65.5827 10.9732C65.2499 10.6277 64.8215 10.455 64.2968 10.455C63.977 10.455 63.6956 10.5061 63.4523 10.6085C63.2093 10.711 63.0013 10.8419 62.8286 11.002C62.6583 11.1586 62.5212 11.3479 62.4256 11.5585C62.3302 11.7671 62.2749 11.9917 62.2624 12.2207H66.0625ZM70.6878 8.61255H73.5666V10.1095H73.605C73.9121 9.53377 74.2767 9.10195 74.6989 8.81407C75.1212 8.52619 75.6521 8.38224 76.2919 8.38224C76.4584 8.38224 76.6247 8.38873 76.7909 8.40144C76.9574 8.41414 77.1107 8.43982 77.2515 8.47821V11.1075C77.0537 11.0452 76.8516 10.9971 76.6469 10.9636C76.4406 10.931 76.2321 10.9149 76.0232 10.9156C75.4728 10.9156 75.0382 10.9924 74.7181 11.1459C74.3984 11.2995 74.152 11.5137 73.9792 11.7889C73.8065 12.064 73.6945 12.3934 73.6434 12.7773C73.5899 13.1973 73.5643 13.6205 73.5666 14.0439V17.9399H70.6878V8.61255ZM84.3526 16.7692H84.3142C83.9944 17.2682 83.5691 17.6264 83.0379 17.844C82.505 18.0619 81.9344 18.1727 81.3586 18.1702C80.9237 18.1702 80.5046 18.1096 80.1015 17.9879C79.6985 17.8666 79.3434 17.684 79.0364 17.4409C78.7294 17.198 78.4803 16.8899 78.3071 16.5389C78.1279 16.1805 78.0384 15.7647 78.0384 15.2914C78.0384 14.754 78.1374 14.2999 78.3359 13.9288C78.5293 13.5633 78.8053 13.2478 79.1419 13.0076C79.4809 12.7645 79.8681 12.5757 80.3031 12.4414C80.7452 12.3055 81.1977 12.206 81.6561 12.1439C82.1207 12.0801 82.5884 12.0417 83.0571 12.0288C83.5242 12.0161 83.9561 12.0096 84.3526 12.0096C84.3526 11.4979 84.1703 11.0914 83.8056 10.7909C83.441 10.4903 83.0092 10.3398 82.5102 10.3398C82.0368 10.3398 81.605 10.4389 81.2147 10.6373C80.8244 10.8357 80.4758 11.1075 80.1687 11.453L78.6333 9.87923C79.1707 9.38024 79.7976 9.00599 80.5142 8.75649C81.2299 8.50713 81.9826 8.3806 82.7405 8.38224C83.5849 8.38224 84.2789 8.4878 84.8228 8.69891C85.3667 8.91003 85.8016 9.22021 86.1279 9.62973C86.4541 10.039 86.6811 10.5414 86.8092 11.1363C86.9371 11.7313 87.0011 12.4191 87.0011 13.1995V17.9399H84.3526V16.7692ZM84.3526 13.852H83.6425L83.4692 13.8537C83.2549 13.8586 83.0408 13.8676 82.8268 13.8808C82.5006 13.9 82.187 13.9542 81.8864 14.0439C81.5858 14.1334 81.3298 14.2677 81.1187 14.447C80.9076 14.6262 80.8021 14.8757 80.8021 15.1955C80.8021 15.5409 80.9491 15.7966 81.2435 15.9632C81.5378 16.1297 81.8446 16.2126 82.1647 16.2126C82.4461 16.2126 82.7179 16.1743 82.9804 16.0975C83.2298 16.0268 83.4663 15.9166 83.6809 15.7712C83.8836 15.6326 84.0512 15.4486 84.1703 15.2338C84.2916 15.0165 84.3526 14.7605 84.3526 14.4662V13.852ZM95.1578 10.9156H92.6244V14.0247C92.6244 14.2807 92.6371 14.5141 92.6628 14.7253C92.6882 14.9364 92.7461 15.1187 92.8355 15.2722C92.925 15.4258 93.0627 15.544 93.2482 15.6273C93.4336 15.7105 93.68 15.752 93.9871 15.752C94.1406 15.752 94.3421 15.7359 94.5916 15.7041C94.8411 15.6722 95.0299 15.5985 95.1578 15.4833V17.8824C94.838 17.9975 94.5053 18.0743 94.1598 18.1127C93.8221 18.1506 93.4825 18.1698 93.1426 18.1702C92.6563 18.1702 92.2084 18.1192 91.7992 18.0167C91.3899 17.9143 91.0315 17.7514 90.7244 17.5273C90.4173 17.3035 90.1774 17.0122 90.0047 16.6541C89.832 16.2956 89.7456 15.861 89.7456 15.349V10.9156H87.9032V8.61255H89.7456V5.84888H92.6244V8.61255H95.1578V10.9156ZM96.6548 8.61255H99.5336V17.9399H96.6548V8.61255ZM96.4245 5.67615C96.4245 5.21554 96.5876 4.8221 96.9139 4.49583C97.2402 4.16956 97.6336 4.00643 98.0942 4.00643C98.5548 4.00643 98.9483 4.16956 99.2745 4.49583C99.6008 4.8221 99.7639 5.21554 99.7639 5.67615C99.7639 6.13676 99.6008 6.5302 99.2745 6.85647C98.9483 7.18273 98.5548 7.34587 98.0942 7.34587C97.6336 7.34587 97.2402 7.18273 96.9139 6.85647C96.5876 6.5302 96.4245 6.13676 96.4245 5.67615ZM100.628 8.61255H103.737L106.097 14.946H106.136L108.324 8.61255H111.222L107.537 17.9399H104.485L100.628 8.61255ZM121.106 16.3278C120.645 16.9163 120.063 17.3707 119.359 17.6904C118.656 18.0102 117.926 18.1702 117.171 18.1702C116.455 18.1702 115.78 18.0551 115.146 17.8248C114.513 17.5945 113.963 17.2651 113.496 16.8364C113.029 16.4077 112.661 15.8929 112.392 15.2914C112.124 14.6903 111.989 14.0185 111.989 13.2762C111.989 12.534 112.124 11.8622 112.392 11.2611C112.661 10.6599 113.029 10.1448 113.496 9.7161C113.963 9.28738 114.513 8.95801 115.146 8.7277C115.78 8.4974 116.455 8.38224 117.171 8.38224C117.836 8.38224 118.441 8.4974 118.985 8.7277C119.529 8.95801 119.989 9.28738 120.367 9.7161C120.744 10.1448 121.035 10.6596 121.24 11.2611C121.445 11.8622 121.547 12.534 121.547 13.2762V14.1783H114.868C114.983 14.7286 115.233 15.1667 115.617 15.4929C116 15.8192 116.474 15.9823 117.037 15.9823C117.51 15.9823 117.91 15.8768 118.236 15.6657C118.569 15.4487 118.858 15.1721 119.09 14.85L121.106 16.3278ZM118.668 12.2207C118.681 11.7344 118.521 11.3186 118.188 10.9732C117.856 10.6277 117.427 10.455 116.903 10.455C116.583 10.455 116.301 10.5061 116.058 10.6085C115.815 10.711 115.607 10.8419 115.434 11.002C115.264 11.1586 115.127 11.3479 115.031 11.5585C114.936 11.7671 114.881 11.9917 114.868 12.2207H118.668ZM123.332 3.43066H126.211V17.9399H123.332V3.43066ZM137.88 8.61255L133.657 19.4561C133.487 19.9038 133.301 20.3455 133.101 20.7804C132.921 21.1642 132.694 21.4874 132.419 21.7496C132.144 22.0121 131.796 22.2102 131.373 22.3445C130.951 22.4789 130.395 22.5461 129.704 22.5461C128.961 22.5461 128.245 22.4309 127.554 22.2006L127.938 19.84C128.373 20.0319 128.821 20.1278 129.281 20.1278C129.601 20.1278 129.864 20.0926 130.068 20.0223C130.273 19.9517 130.443 19.8496 130.577 19.7152C130.717 19.573 130.83 19.4074 130.913 19.2258L130.991 19.0537C131.058 18.9032 131.128 18.737 131.201 18.5541L131.412 18.0167L127.324 8.61255H130.433L132.832 14.7732H132.87L134.924 8.61255H137.88Z" fill="white"></path></svg> 