<?xml version="1.0" encoding="UTF-8"?> <svg xmlns="http://www.w3.org/2000/svg" width="66" height="39" viewBox="0 0 66 39" fill="none"><path d="M19.016 14.164C19.016 14.9666 19.1027 15.6173 19.2546 16.0945C19.4281 16.5717 19.645 17.0923 19.9487 17.6562C20.0571 17.8298 20.1005 18.0033 20.1005 18.1551C20.1005 18.372 19.9704 18.5889 19.6884 18.8058L18.3219 19.7169C18.1266 19.847 17.9314 19.9121 17.7579 19.9121C17.541 19.9121 17.3241 19.8036 17.1072 19.6084C16.8035 19.283 16.5432 18.936 16.3263 18.5889C16.1094 18.2202 15.8925 17.8081 15.6539 17.3092C13.962 19.3047 11.8363 20.3025 9.27683 20.3025C7.45481 20.3025 6.00154 19.7819 4.93869 18.7408C3.87585 17.6996 3.33358 16.3114 3.33358 14.5762C3.33358 12.7324 3.9843 11.2358 5.30743 10.1079C6.63057 8.97995 8.38751 8.41599 10.6217 8.41599C11.3591 8.41599 12.1183 8.48107 12.9209 8.58952C13.7234 8.69797 14.5477 8.8715 15.4153 9.06672V7.48329C15.4153 5.8348 15.0683 4.68519 14.3958 4.01278C13.7017 3.34037 12.5304 3.01501 10.8603 3.01501C10.1011 3.01501 9.32021 3.10177 8.51766 3.29699C7.7151 3.4922 6.93424 3.7308 6.17506 4.03447C5.82801 4.18631 5.56772 4.27307 5.41589 4.31645C5.26405 4.35983 5.1556 4.38152 5.06884 4.38152C4.76517 4.38152 4.61333 4.16462 4.61333 3.70911V2.64627C4.61333 2.29921 4.65671 2.03893 4.76517 1.88709C4.87362 1.73526 5.06884 1.58342 5.37251 1.43159C6.13168 1.04115 7.04269 0.715793 8.10554 0.455505C9.16838 0.173526 10.2963 0.0433814 11.4893 0.0433814C14.0705 0.0433814 15.9576 0.62903 17.1723 1.80033C18.3652 2.97163 18.9726 4.75026 18.9726 7.13624V14.164H19.016ZM10.2095 17.461C10.9253 17.461 11.6628 17.3309 12.4437 17.0706C13.2245 16.8103 13.9186 16.3331 14.5043 15.6824C14.8513 15.2703 15.1116 14.8148 15.2418 14.2942C15.3719 13.7736 15.4587 13.1446 15.4587 12.4071V11.4961C14.8297 11.3442 14.1572 11.2141 13.4631 11.1273C12.769 11.0406 12.0966 10.9972 11.4242 10.9972C9.97094 10.9972 8.90809 11.2792 8.1923 11.8648C7.4765 12.4505 7.12945 13.2747 7.12945 14.3592C7.12945 15.3787 7.38974 16.1379 7.93201 16.6585C8.45259 17.2007 9.21176 17.461 10.2095 17.461ZM27.6272 19.8036C27.2367 19.8036 26.9764 19.7385 26.8029 19.5867C26.6294 19.4566 26.4776 19.1529 26.3474 18.7408L21.2501 1.97385C21.12 1.54004 21.0549 1.25806 21.0549 1.10623C21.0549 0.759175 21.2284 0.563958 21.5755 0.563958H23.7012C24.1133 0.563958 24.3953 0.62903 24.5471 0.780865C24.7206 0.91101 24.8508 1.21468 24.9809 1.6268L28.6249 15.986L32.0087 1.6268C32.1171 1.19299 32.2473 0.91101 32.4208 0.780865C32.5943 0.650721 32.898 0.563958 33.2884 0.563958H35.0237C35.4358 0.563958 35.7178 0.62903 35.8913 0.780865C36.0649 0.91101 36.2167 1.21468 36.3035 1.6268L39.7306 16.1596L43.4831 1.6268C43.6132 1.19299 43.7651 0.91101 43.9169 0.780865C44.0904 0.650721 44.3724 0.563958 44.7628 0.563958H46.7801C47.1271 0.563958 47.3223 0.737484 47.3223 1.10623C47.3223 1.21468 47.3006 1.32313 47.2789 1.45328C47.2573 1.58342 47.2139 1.75695 47.1271 1.99554L41.8997 18.7625C41.7695 19.1963 41.6177 19.4783 41.4441 19.6084C41.2706 19.7385 40.9886 19.8253 40.6199 19.8253H38.7545C38.3424 19.8253 38.0604 19.7602 37.8869 19.6084C37.7133 19.4566 37.5615 19.1746 37.4748 18.7408L34.1127 4.75026L30.7723 18.7191C30.6639 19.1529 30.5337 19.4349 30.3602 19.5867C30.1867 19.7385 29.883 19.8036 29.4926 19.8036H27.6272ZM55.4997 20.3893C54.3718 20.3893 53.2439 20.2591 52.1594 19.9988C51.0748 19.7385 50.2289 19.4566 49.6649 19.1312C49.3179 18.936 49.0793 18.7191 48.9925 18.5239C48.9058 18.3286 48.8624 18.1117 48.8624 17.9165V16.8103C48.8624 16.3548 49.0359 16.1379 49.3613 16.1379C49.4914 16.1379 49.6215 16.1596 49.7517 16.203C49.8818 16.2463 50.077 16.3331 50.294 16.4199C51.0314 16.7452 51.834 17.0055 52.6799 17.179C53.5476 17.3526 54.3935 17.4393 55.2611 17.4393C56.6276 17.4393 57.6905 17.2007 58.428 16.7235C59.1655 16.2463 59.5559 15.5522 59.5559 14.6629C59.5559 14.0556 59.3607 13.5567 58.9702 13.1446C58.5798 12.7324 57.8423 12.3637 56.7795 12.0167L53.6343 11.0406C52.0509 10.5417 50.8796 9.8042 50.1638 8.82812C49.448 7.87373 49.0793 6.81088 49.0793 5.68296C49.0793 4.77195 49.2745 3.9694 49.6649 3.2753C50.0554 2.58119 50.5759 1.97385 51.2267 1.49666C51.8774 0.997772 52.6149 0.62903 53.4825 0.368742C54.3501 0.108453 55.2611 0 56.2155 0C56.6927 0 57.1916 0.0216907 57.6688 0.0867628C58.1677 0.151835 58.6232 0.238598 59.0787 0.325361C59.5125 0.433814 59.9246 0.542268 60.3151 0.672412C60.7055 0.802556 61.0092 0.9327 61.2261 1.06284C61.5297 1.23637 61.7466 1.4099 61.8768 1.60511C62.0069 1.77864 62.072 2.01724 62.072 2.32091V3.34037C62.072 3.79587 61.8985 4.03447 61.5731 4.03447C61.3996 4.03447 61.1176 3.94771 60.7489 3.77418C59.5125 3.21022 58.1243 2.92825 56.5843 2.92825C55.3479 2.92825 54.3718 3.12346 53.6994 3.53558C53.027 3.94771 52.6799 4.57674 52.6799 5.46606C52.6799 6.0734 52.8968 6.59397 53.3307 7.0061C53.7645 7.41822 54.567 7.83034 55.7166 8.19909L58.7967 9.17517C60.3584 9.67405 61.4864 10.3682 62.1588 11.2575C62.8312 12.1468 63.1565 13.1663 63.1565 14.2942C63.1565 15.2269 62.9613 16.0728 62.5926 16.8103C62.2022 17.5478 61.6816 18.1985 61.0092 18.7191C60.3368 19.2613 59.5342 19.6518 58.6015 19.9338C57.6254 20.2374 56.606 20.3893 55.4997 20.3893Z" fill="white"></path><path fill-rule="evenodd" clip-rule="evenodd" d="M59.601 30.9311C52.4647 36.2019 42.0966 39 33.1817 39C20.6878 39 9.43035 34.3799 0.927596 26.7014C0.255184 26.0941 0.862524 25.2698 1.66508 25.747C10.8619 31.0829 22.2062 34.3148 33.9408 34.3148C41.858 34.3148 50.5559 32.6663 58.5598 29.2826C59.7528 28.7403 60.7723 30.0635 59.601 30.9311Z" fill="white"></path><path fill-rule="evenodd" clip-rule="evenodd" d="M62.5727 27.5473C61.6617 26.376 56.5427 26.9834 54.2218 27.2653C53.5277 27.3521 53.4192 26.7448 54.0483 26.2893C58.1261 23.4261 64.8285 24.2503 65.6094 25.2047C66.3903 26.1808 65.3925 32.8832 61.5749 36.0935C60.9893 36.5923 60.4253 36.3321 60.6856 35.6813C61.5532 33.534 63.4837 28.6969 62.5727 27.5473Z" fill="white"></path></svg> 