<?xml version="1.0" encoding="UTF-8"?> <svg xmlns="http://www.w3.org/2000/svg" width="119" height="25" viewBox="0 0 119 25" fill="none"><path d="M19.6228 18.6416V24.8558L29.4343 18.6416V12.4279L19.6228 18.6416Z" fill="white"></path><path d="M9.81226 18.6416V24.8558L19.6238 18.6416V12.4279L9.81226 18.6416Z" fill="white"></path><path d="M0 18.6416V24.8558L9.8115 18.6416V12.4279L0 18.6416Z" fill="white"></path><path d="M29.4343 0L19.6228 6.21395V12.4279L29.4343 6.21395V0Z" fill="white"></path><path d="M19.6238 0L9.81226 6.21395V12.4279L19.6238 6.21395V0Z" fill="white"></path><path d="M9.8115 0L0 6.21395V12.4279L9.8115 6.21395V0Z" fill="white"></path><path d="M50.2983 12.8041V18.6905H47.7656V12.9997C47.7656 11.8461 47.2201 11.2788 46.1682 11.2788C45.3885 11.2788 44.7069 11.6115 44.1226 12.2761V18.6905H41.5894V12.9997C41.5894 11.8461 41.0636 11.2788 40.0115 11.2788C39.2128 11.2788 38.5307 11.6309 37.9461 12.3351V18.6905H35.3939V9.30356H37.771V10.1838C38.5502 9.49917 39.6415 9.12781 40.7519 9.12781C42.0377 9.12781 42.9726 9.55815 43.5184 10.4184C44.5509 9.55815 45.681 9.12781 46.9081 9.12781C49.1101 9.12781 50.2983 10.4184 50.2983 12.8041Z" fill="white"></path><path fill-rule="evenodd" clip-rule="evenodd" d="M62.094 13.9776C62.094 13.0193 61.8604 12.1786 61.4317 11.4354C60.5354 9.94908 59.0353 9.12781 57.3599 9.12781C56.4441 9.12781 55.6063 9.42122 54.8662 10.0273V9.30371H52.3918V23.0713H54.944V18.0452C55.6063 18.6126 56.4053 18.9058 57.3599 18.9058C58.5871 18.9058 59.7562 18.3974 60.6327 17.5563C61.5097 16.7154 62.094 15.4249 62.094 13.9776ZM57.0496 11.2787C58.3746 11.2787 59.5434 12.3155 59.5434 13.9776C59.5434 15.6985 58.3941 16.7349 56.9523 16.7349C56.1533 16.7349 55.4717 16.4221 54.9067 15.816V12.2371C55.4717 11.6114 56.1923 11.2787 57.0496 11.2787Z" fill="white"></path><path fill-rule="evenodd" clip-rule="evenodd" d="M70.4179 18.6905H72.8108V9.30356H70.3952V10.1056C69.7132 9.46005 68.8753 9.12781 67.8622 9.12781C67.0443 9.12781 66.2648 9.32342 65.5442 9.73391C64.1024 10.5356 63.1281 12.1198 63.1281 14.0166C63.1281 14.9748 63.3422 15.8159 63.7904 16.5588C64.6672 18.0649 66.1675 18.9057 67.8427 18.9057C68.8558 18.9057 69.7132 18.5733 70.4147 17.8888L70.4179 18.6905ZM70.2982 12.1984V15.8359C69.7527 16.442 69.0516 16.7352 68.1943 16.7352C66.8303 16.7352 65.6809 15.6988 65.6809 14.017C65.6809 12.3353 66.8498 11.2792 68.2136 11.2792C69.0321 11.2792 69.7334 11.5921 70.2982 12.1984Z" fill="white"></path><path d="M77.3721 9.30356V10.1643C78.132 9.40152 78.9698 9.12781 80.4113 9.12781V11.5525C80.2359 11.494 79.9829 11.4744 79.7099 11.4744C78.9307 11.4744 78.1125 11.8656 77.5475 12.5498V18.6905H74.9953V9.30356H77.3721Z" fill="white"></path><path d="M88.1027 9.30367V11.4158H85.9987V18.6906H83.4659V11.4158H81.4982V9.30367H83.4659V6.17493H85.9987V9.30367H88.1027Z" fill="white"></path><path fill-rule="evenodd" clip-rule="evenodd" d="M92.2073 8.05208H89.5383V5.47046H92.2073V8.05208ZM92.1487 18.6907H89.5965V9.30378H92.1487V18.6907Z" fill="white"></path><path d="M102.879 16.7935C101.983 18.0844 100.463 18.8863 98.7292 18.8863C96.8976 18.8863 95.2807 18.0256 94.3843 16.5393C93.9362 15.7962 93.7026 14.9554 93.7026 14.0362C93.7026 12.1785 94.6574 10.5946 96.1965 9.75347C96.9559 9.34298 97.7939 9.12781 98.7097 9.12781C100.56 9.12781 101.943 9.83186 102.859 11.2592L100.911 12.4717C100.366 11.6896 99.645 11.2984 98.7292 11.2984C97.2484 11.2984 96.2548 12.4522 96.2548 14.0557C96.2548 15.6594 97.2096 16.7154 98.7097 16.7154C99.6644 16.7154 100.424 16.3245 101.009 15.5618L102.879 16.7935Z" fill="white"></path><path d="M104.553 18.6906H107.086V4.62988H104.553V18.6906Z" fill="white"></path><path fill-rule="evenodd" clip-rule="evenodd" d="M113.512 16.6935C114.46 16.6935 115.249 16.3273 115.852 15.6116L117.641 16.79L117.643 16.7911C116.708 18.1211 115.227 18.8643 113.512 18.8643C112.051 18.8643 110.746 18.3168 109.908 17.4366C109.07 16.5763 108.564 15.3442 108.564 14.0142C108.564 12.1956 109.402 10.6507 110.921 9.77062C111.681 9.32101 112.538 9.10583 113.512 9.10583C116.337 9.10583 118.266 11.1006 118.266 14.21C118.266 14.3273 118.266 14.4641 118.247 14.6012H111.057C111.253 15.9699 112.188 16.6935 113.512 16.6935ZM115.81 12.9195C115.498 11.7655 114.758 11.1985 113.57 11.1985C112.342 11.1985 111.504 11.8049 111.154 12.9195H115.81Z" fill="white"></path></svg> 