<?xml version="1.0" encoding="UTF-8"?> <svg xmlns="http://www.w3.org/2000/svg" width="71" height="24" viewBox="0 0 71 24" fill="none"><path fill-rule="evenodd" clip-rule="evenodd" d="M58.4997 2.48397C53.1217 2.48397 48.7459 6.74639 48.7459 11.9853C48.7459 17.2245 53.1217 21.487 58.4997 21.487C63.8779 21.487 68.2533 17.2245 68.2533 11.9853C68.2533 6.74639 63.8779 2.48397 58.4997 2.48397ZM58.4997 23.9486C51.7281 23.9486 46.2187 18.5819 46.2187 11.9853C46.2187 5.3889 51.7281 0.0224609 58.4997 0.0224609C65.2712 0.0224609 70.7802 5.3889 70.7802 11.9853C70.7802 18.5819 65.2712 23.9486 58.4997 23.9486Z" fill="white"></path><path fill-rule="evenodd" clip-rule="evenodd" d="M47.4221 0.0155029H44.7255L36.8692 20.0397L28.9957 0.0155029H26.2815L35.6889 23.926H36.8692H38.0493L47.4221 0.0155029Z" fill="white"></path><path fill-rule="evenodd" clip-rule="evenodd" d="M12.2806 2.46297C6.90255 2.46297 2.52688 6.72538 2.52688 11.9643C2.52688 17.2035 6.90255 21.466 12.2806 21.466C17.6589 21.466 22.0346 17.2035 22.0346 11.9643C22.0346 6.72538 17.6589 2.46297 12.2806 2.46297ZM12.2806 23.9276C5.50898 23.9276 0 18.5609 0 11.9643C0 5.36791 5.50898 0.00146484 12.2806 0.00146484C19.0525 0.00146484 24.5615 5.36791 24.5615 11.9643C24.5615 18.5609 19.0525 23.9276 12.2806 23.9276Z" fill="white"></path><path fill-rule="evenodd" clip-rule="evenodd" d="M21.3122 23.9488H25.1026V0H21.3122V23.9488Z" fill="white"></path></svg> 