<?xml version="1.0" encoding="UTF-8"?> <svg xmlns="http://www.w3.org/2000/svg" width="112" height="27" viewBox="0 0 112 27" fill="none"><path d="M23.1354 19.8887L17.6268 16.7065C16.8529 16.2609 15.8633 16.5259 15.4154 17.2998C15.2418 17.6046 15.1738 17.94 15.2067 18.2659V24.4851C15.2067 25.3739 15.929 26.0962 16.8201 26.0962C17.7089 26.0962 18.4312 25.3739 18.4312 24.4851V20.9089L21.5173 22.6911C22.2912 23.139 23.2832 22.8717 23.7287 22.0978C24.1766 21.3239 23.9116 20.3343 23.1354 19.8887Z" fill="white"></path><path d="M9.4386 13.0692C9.44798 12.4946 9.14546 11.96 8.6483 11.6715L3.13968 8.49158C2.90048 8.35322 2.62611 8.28052 2.35173 8.28052C1.78656 8.28052 1.26126 8.58303 0.979853 9.07081C0.543666 9.82593 0.803972 10.7945 1.55909 11.2306L4.73435 13.0622L1.55909 14.896C1.19326 15.1071 0.930606 15.4471 0.822733 15.8552C0.712513 16.2632 0.768795 16.69 0.979853 17.0559C1.26126 17.5436 1.78656 17.8461 2.34939 17.8461C2.62611 17.8461 2.90048 17.7734 3.13968 17.6351L8.6483 14.4551C9.14077 14.169 9.44329 13.6391 9.4386 13.0692Z" fill="white"></path><path d="M4.38906 6.23795L9.89768 9.41789C10.5402 9.79076 11.3329 9.66881 11.8394 9.174C12.1607 8.87852 12.36 8.4564 12.36 7.98738V1.61342C12.36 0.722288 11.6377 0 10.749 0C9.85782 0 9.13553 0.722288 9.13553 1.61342V5.24128L6.00718 3.43556C5.2333 2.98765 4.24367 3.25264 3.79575 4.02652C3.34784 4.8004 3.61518 5.79003 4.38906 6.23795Z" fill="white"></path><path d="M16.7769 13.327C16.7769 13.449 16.7066 13.6178 16.6198 13.7069L14.4365 15.8902C14.3498 15.977 14.1786 16.0473 14.0566 16.0473H13.5008C13.3789 16.0473 13.2077 15.977 13.1209 15.8902L10.9353 13.7069C10.8486 13.6178 10.7782 13.449 10.7782 13.327V12.7712C10.7782 12.6469 10.8486 12.4781 10.9353 12.3913L13.1209 10.2057C13.2077 10.1189 13.3789 10.0486 13.5008 10.0486H14.0566C14.1786 10.0486 14.3498 10.1189 14.4365 10.2057L16.6198 12.3913C16.7066 12.4781 16.7769 12.6469 16.7769 12.7712V13.327ZM14.8282 13.0597V13.0362C14.8282 12.9471 14.7766 12.8228 14.7133 12.7572L14.0684 12.1146C14.005 12.0489 13.8808 11.9974 13.7893 11.9974H13.7658C13.6767 11.9974 13.5524 12.0489 13.4868 12.1146L12.8442 12.7572C12.7809 12.8205 12.7293 12.9448 12.7293 13.0362V13.0597C12.7293 13.1511 12.7809 13.2754 12.8442 13.3387L13.4868 13.9836C13.5524 14.047 13.6767 14.0986 13.7658 14.0986H13.7893C13.8808 14.0986 14.005 14.047 14.0684 13.9836L14.7133 13.3387C14.7766 13.2754 14.8282 13.1511 14.8282 13.0597Z" fill="white"></path><path d="M17.6283 9.41789L23.1369 6.23795C23.9108 5.79238 24.1781 4.8004 23.7302 4.02652C23.2823 3.25264 22.2927 2.98765 21.5188 3.43556L18.4327 5.21783V1.61342C18.4327 0.722288 17.7104 0 16.8216 0C15.9304 0 15.2082 0.722288 15.2082 1.61342V7.86075C15.1777 8.18437 15.241 8.52206 15.4169 8.82693C15.8648 9.60081 16.8544 9.8658 17.6283 9.41789Z" fill="white"></path><path d="M11.0022 16.5188C10.6364 16.4484 10.2448 16.5071 9.89768 16.7064L4.38906 19.8887C3.61518 20.3342 3.34784 21.3239 3.79575 22.0978C4.24367 22.874 5.2333 23.139 6.00718 22.6911L9.13553 20.8853V24.4851C9.13553 25.3738 9.85782 26.0961 10.749 26.0961C11.6377 26.0961 12.36 25.3738 12.36 24.4851V18.1111C12.36 17.3067 11.7714 16.6407 11.0022 16.5188Z" fill="white"></path><path d="M26.5833 9.05205C26.1378 8.27582 25.1458 8.01083 24.3719 8.45874L18.8633 11.6387C18.3356 11.9435 18.0449 12.5017 18.0542 13.0692C18.0495 13.6344 18.3403 14.1855 18.8633 14.4856L24.3719 17.6679C25.1458 18.1135 26.1354 17.8485 26.5833 17.0746C27.0312 16.3007 26.7639 15.3111 25.99 14.8632L22.8711 13.0622L25.99 11.2611C26.7663 10.8156 27.0312 9.82593 26.5833 9.05205Z" fill="white"></path><path d="M111.227 12.6892V12.6915V12.7502C111.227 13.0503 110.977 13.2731 110.667 13.2731H102.928C102.942 13.456 102.966 13.6343 103.003 13.8101C103.362 15.4869 104.797 16.7345 106.502 16.7485C106.507 16.7485 106.594 16.7485 106.727 16.7485C106.748 16.7485 106.769 16.7485 106.791 16.7485H106.952C106.988 16.7485 107.023 16.7485 107.06 16.7462C107.093 16.7462 107.126 16.7438 107.159 16.7415C107.161 16.7415 107.163 16.7415 107.166 16.7392C107.731 16.6946 108.301 16.4671 108.81 16.1013C108.81 16.1013 108.81 16.1013 108.812 16.1013C108.838 16.0825 108.866 16.0614 108.892 16.0403C108.896 16.038 108.901 16.0333 108.908 16.0286C108.929 16.0122 108.953 15.9934 108.976 15.9747C108.986 15.9676 108.993 15.9606 109.002 15.9535C109.021 15.9395 109.039 15.9231 109.058 15.9066C109.07 15.8973 109.084 15.8855 109.096 15.8762C109.11 15.8621 109.124 15.848 109.14 15.8363C109.154 15.8222 109.171 15.8082 109.185 15.7941C109.197 15.7847 109.208 15.773 109.22 15.7612C109.239 15.7448 109.255 15.7284 109.274 15.712C109.283 15.7026 109.293 15.6909 109.302 15.6815C109.321 15.6628 109.34 15.644 109.358 15.6252C109.368 15.6159 109.375 15.6088 109.384 15.5994C109.403 15.5783 109.422 15.5572 109.441 15.5361C109.45 15.5291 109.457 15.5197 109.464 15.5103C109.485 15.4892 109.504 15.4681 109.523 15.447C109.53 15.4376 109.539 15.4282 109.546 15.4189C109.565 15.3954 109.581 15.3743 109.6 15.3532C109.609 15.3415 109.619 15.3298 109.628 15.318C109.645 15.2969 109.661 15.2782 109.675 15.2594C109.689 15.2406 109.701 15.2242 109.713 15.2078C109.724 15.1914 109.736 15.1773 109.748 15.1609C109.766 15.1351 109.785 15.1093 109.802 15.0835C109.809 15.0741 109.813 15.0671 109.818 15.0601C109.865 14.9921 109.91 14.9217 109.954 14.849C109.954 14.849 109.954 14.8467 109.956 14.8443C109.966 14.8279 109.978 14.8138 109.989 14.7974C109.994 14.7904 109.999 14.7833 110.006 14.7787C110.013 14.7669 110.022 14.7599 110.029 14.7505C110.036 14.7435 110.043 14.7364 110.05 14.7294C110.06 14.7224 110.067 14.7153 110.076 14.7083C110.083 14.7013 110.09 14.6942 110.099 14.6895C110.111 14.6802 110.125 14.6708 110.139 14.6637C110.149 14.6567 110.16 14.6497 110.17 14.645C110.182 14.6403 110.191 14.6356 110.2 14.6309C110.21 14.6262 110.219 14.6239 110.226 14.6192C110.24 14.6145 110.252 14.6122 110.266 14.6075C110.273 14.6051 110.278 14.6028 110.285 14.6004C110.329 14.591 110.376 14.584 110.421 14.584C110.47 14.584 110.522 14.591 110.568 14.6051C110.571 14.6051 110.571 14.6051 110.573 14.6051C110.592 14.6122 110.613 14.6168 110.632 14.6262C110.637 14.6286 110.641 14.6286 110.646 14.6309C110.667 14.6403 110.686 14.6497 110.705 14.6614L110.714 14.6661C110.972 14.8537 111.052 15.182 110.894 15.4517L110.892 15.454C110.873 15.4845 110.855 15.515 110.836 15.5432C110.831 15.5502 110.826 15.5572 110.822 15.5643C110.273 16.3991 109.527 17.0651 108.695 17.4638C108.676 17.4708 108.66 17.4802 108.641 17.4896C108.638 17.4896 108.634 17.4919 108.631 17.4919C108.247 17.6702 107.834 17.7944 107.393 17.846C107.384 17.846 107.374 17.8484 107.365 17.8484C107.328 17.8531 107.29 17.8578 107.253 17.8601C107.231 17.8601 107.21 17.8625 107.187 17.8648C107.161 17.8648 107.133 17.8671 107.107 17.8695C107.056 17.8695 107.004 17.8718 106.952 17.8718C106.945 17.8718 106.751 17.8718 106.619 17.8718C106.544 17.8718 106.502 17.8718 106.497 17.8718C103.894 17.8531 101.798 15.6815 101.798 13.0222C101.798 10.3183 103.908 8.13501 106.533 8.13501C106.61 8.13501 106.687 8.13736 106.765 8.1397C107.679 8.1866 108.524 8.4985 109.225 9.00973C109.227 9.01207 109.229 9.01442 109.232 9.01442C109.272 9.04256 109.309 9.07305 109.347 9.10119C109.365 9.1176 109.387 9.13402 109.408 9.15044C109.426 9.16451 109.445 9.18092 109.464 9.19499C110.451 10.0181 111.117 11.254 111.227 12.6845V12.6892ZM103.003 12.1686H110.008C109.661 10.4801 108.209 9.25831 106.533 9.25831C104.825 9.25831 103.385 10.4567 103.003 12.1686Z" fill="white"></path><path d="M91.4463 8.29917C91.533 8.38593 91.5917 8.50319 91.6057 8.6392C91.6057 8.65797 91.6081 8.67673 91.6081 8.69549V17.309C91.6081 17.6162 91.3501 17.8718 91.0453 17.8718C90.7404 17.8718 90.4848 17.6162 90.4848 17.309V16.1646C90.2714 16.4226 90.0369 16.6571 89.7813 16.8611C89.7742 16.8681 89.7672 16.8728 89.7601 16.8799C89.7367 16.8986 89.7109 16.9174 89.6875 16.9338C88.9136 17.5294 87.9732 17.8718 86.9906 17.8718C85.4077 17.8718 84.0147 17.0299 83.1845 15.7542C83.1775 15.7448 83.1681 15.7331 83.1611 15.7237C83.1376 15.6839 83.1142 15.644 83.0884 15.6018C83.0719 15.576 83.0579 15.5502 83.0415 15.5244C83.025 15.4986 83.011 15.4705 82.9969 15.4423C82.9735 15.4025 82.95 15.3602 82.9289 15.3204C82.9219 15.3063 82.9172 15.2922 82.9101 15.2782C82.6029 14.6684 82.413 13.9813 82.3801 13.252C82.3755 13.1699 82.3731 13.0878 82.3731 13.0034C82.3731 12.919 82.3755 12.8369 82.3801 12.7548C82.413 12.0255 82.6029 11.3384 82.9101 10.7263C82.9172 10.7146 82.9219 10.7005 82.9289 10.6865C82.95 10.6466 82.9735 10.6044 82.9969 10.5645C83.011 10.5364 83.025 10.5082 83.0415 10.4824C83.0555 10.4567 83.0719 10.4309 83.0884 10.4051C83.1118 10.3652 83.1376 10.323 83.1611 10.2831C83.1681 10.2737 83.1775 10.262 83.1845 10.2526C84.0147 8.9769 85.4077 8.13501 86.9906 8.13501C88.06 8.13501 89.0707 8.52664 89.8751 9.20906C90.0955 9.39432 90.2995 9.59835 90.4848 9.82348V8.69549C90.4848 8.67673 90.4848 8.65797 90.4871 8.6392C90.5012 8.50319 90.5598 8.38593 90.6466 8.29917C90.6466 8.29917 90.6466 8.29917 90.6466 8.29682C90.656 8.28744 90.6677 8.28041 90.6771 8.27103C90.6794 8.26868 90.6841 8.26399 90.6865 8.26164C90.6935 8.25461 90.7029 8.24992 90.7099 8.24523C90.7169 8.24054 90.724 8.2335 90.731 8.22881C90.7357 8.22647 90.7404 8.22412 90.7451 8.21943C90.7568 8.21474 90.7662 8.20771 90.7779 8.20067C90.7803 8.20067 90.7826 8.19833 90.785 8.19833C90.799 8.19129 90.8131 8.18426 90.8272 8.17722C90.8272 8.17722 90.8272 8.17722 90.8295 8.17722C90.8623 8.16315 90.8975 8.15377 90.9327 8.14673C90.935 8.14673 90.9397 8.14439 90.9421 8.14439C90.9561 8.14205 90.9726 8.1397 90.989 8.13736C91.0077 8.13736 91.0265 8.13501 91.0453 8.13501C91.0664 8.13501 91.0851 8.13736 91.1039 8.13736C91.1203 8.1397 91.1344 8.14205 91.1508 8.14439C91.1531 8.14439 91.1555 8.14673 91.1602 8.14673C91.1953 8.15377 91.2305 8.16315 91.2634 8.17722H91.2657C91.2798 8.18426 91.2938 8.19129 91.3056 8.19833C91.3103 8.19833 91.3126 8.20067 91.3149 8.20067C91.3243 8.20771 91.3361 8.21474 91.3454 8.21943C91.3501 8.22412 91.3572 8.22647 91.3618 8.22881C91.3689 8.2335 91.3759 8.24054 91.383 8.24523C91.39 8.24992 91.397 8.25461 91.4041 8.26164C91.4087 8.26399 91.4111 8.26868 91.4158 8.27103C91.4252 8.28041 91.4369 8.28744 91.4439 8.29682C91.4463 8.29917 91.4463 8.29917 91.4463 8.29917ZM86.9906 16.7485C88.9159 16.7485 90.4848 15.0694 90.4848 13.0034C90.4848 10.928 88.9159 9.23955 86.9906 9.23955C85.0793 9.23955 83.4964 10.9257 83.4964 13.0034C83.4964 13.0691 83.4988 13.1324 83.5011 13.1957C83.5011 13.2239 83.5058 13.2497 83.5058 13.2755C83.5081 13.313 83.5105 13.3505 83.5152 13.3857C83.5175 13.4162 83.5222 13.4443 83.5245 13.4724C83.5292 13.5053 83.5316 13.5404 83.5363 13.5733C83.541 13.5991 83.5457 13.6225 83.548 13.646C83.555 13.6835 83.5597 13.721 83.5668 13.7585C83.5715 13.7773 83.5761 13.7937 83.5785 13.8101C83.5879 13.8547 83.5972 13.8969 83.6066 13.9415C83.609 13.9508 83.6113 13.9602 83.616 13.9696C84.0147 15.5736 85.3842 16.7485 86.9906 16.7485Z" fill="white"></path><path d="M77.3466 4.07349H77.1941C77.1754 4.07349 77.1543 4.07349 77.1355 4.07583C77.1144 4.07349 77.0956 4.07349 77.0745 4.07349C77.0206 4.07349 76.9667 4.07349 76.9127 4.07583C76.9033 4.07583 76.8916 4.07818 76.8822 4.07818C76.84 4.07818 76.7978 4.08052 76.7556 4.08521C76.7486 4.08521 76.7392 4.08521 76.7322 4.08521C76.6876 4.0899 76.6454 4.09225 76.6032 4.09694C76.5985 4.09928 76.5938 4.09928 76.5891 4.09928C76.5422 4.10632 76.4976 4.11101 76.4554 4.11804C76.4531 4.11804 76.4507 4.11804 76.4507 4.11804C76.167 4.1626 75.9114 4.24233 75.6839 4.3549C75.6839 4.35724 75.6816 4.35724 75.6792 4.35724C75.6464 4.376 75.6112 4.39476 75.5784 4.41352C75.5713 4.41587 75.5666 4.42056 75.5596 4.42525C75.5315 4.44167 75.5033 4.45808 75.4752 4.47684C75.4635 4.48388 75.4541 4.49326 75.4447 4.50029C75.4212 4.51436 75.4001 4.53078 75.3767 4.5472C75.3603 4.56127 75.3439 4.57534 75.3274 4.58706C75.3134 4.59879 75.2993 4.61051 75.2852 4.62224C75.2594 4.64569 75.236 4.6668 75.2125 4.69025C75.2078 4.69494 75.2032 4.69963 75.1985 4.70432C75.1703 4.7348 75.1422 4.76294 75.114 4.79343C75.1093 4.80047 75.1047 4.8075 75.1 4.81219C75.0765 4.83799 75.0531 4.86378 75.032 4.88958C75.0249 4.9013 75.0155 4.91303 75.0085 4.92475C74.9897 4.94821 74.9733 4.96931 74.9569 4.99276C74.9522 5.00214 74.9475 5.00918 74.9405 5.01621C74.9217 5.04435 74.903 5.0725 74.8866 5.10064C74.8842 5.10533 74.8819 5.10767 74.8795 5.11236C74.7271 5.36329 74.6192 5.65877 74.5512 6.01522C74.5512 6.01991 74.5512 6.02695 74.5489 6.03164C74.5395 6.0762 74.5325 6.1231 74.5254 6.17C74.5231 6.18407 74.5207 6.19814 74.5207 6.21221C74.5137 6.25208 74.509 6.29194 74.5043 6.33416C74.502 6.35761 74.4996 6.38106 74.4973 6.40685C74.4926 6.43968 74.4879 6.47017 74.4856 6.50535C74.4832 6.54052 74.4809 6.5757 74.4785 6.61322C74.4762 6.63667 74.4762 6.66012 74.4738 6.68592C74.4715 6.73517 74.4691 6.78676 74.4668 6.83835C74.4668 6.85242 74.4644 6.8618 74.4644 6.87353C74.4621 6.93919 74.4621 7.0072 74.4621 7.07286V7.99917H73.2942C73.2216 7.99682 73.1489 8.0109 73.0832 8.03435C72.8721 8.11173 72.722 8.31107 72.722 8.54323C72.722 8.76133 72.8299 8.94659 72.9988 9.05446C73.0832 9.1084 73.1817 9.14123 73.2896 9.14592H73.2942V9.14827H74.4621V17.3279C74.4598 17.3397 74.4621 17.3491 74.4621 17.3608C74.4621 17.3678 74.4621 17.3748 74.4621 17.3819C74.4691 17.5132 74.5231 17.6328 74.6098 17.7243L74.6122 17.7266C74.6239 17.7383 74.638 17.7501 74.6497 17.7618C74.6521 17.7641 74.6544 17.7641 74.6567 17.7665C74.6661 17.7759 74.6779 17.7829 74.6872 17.7899C74.6919 17.7946 74.699 17.7993 74.7036 17.8017C74.7083 17.8063 74.713 17.8087 74.7201 17.811C74.8115 17.8697 74.9194 17.9025 75.0343 17.9025C75.0531 17.9025 75.0718 17.9001 75.0882 17.8978C75.1985 17.8884 75.2993 17.8415 75.3814 17.7735L75.3837 17.7712C75.3955 17.7618 75.4048 17.7524 75.4142 17.7407C75.4166 17.7383 75.4212 17.736 75.4236 17.7336C75.433 17.7243 75.44 17.7149 75.447 17.7079C75.5362 17.6 75.5854 17.4663 75.5784 17.3279V9.14827H76.8353V9.14592H76.84C77.173 9.1295 77.4169 8.8692 77.4075 8.54558C77.4075 8.54323 77.4075 8.54323 77.4075 8.54089C77.4099 8.52916 77.4075 8.51744 77.4075 8.50571C77.4075 8.50102 77.4075 8.49633 77.4075 8.49399C77.3982 8.3697 77.3442 8.25713 77.2598 8.17036C77.2598 8.17036 77.2598 8.17036 77.2598 8.16802C77.2575 8.16802 77.2575 8.16802 77.2575 8.16802C77.2457 8.15629 77.2363 8.14691 77.2246 8.13753C77.2199 8.13284 77.2152 8.1305 77.2129 8.12581C77.2035 8.11877 77.1965 8.11408 77.1871 8.10704C77.1801 8.10236 77.1707 8.09532 77.1637 8.09063C77.159 8.08828 77.1519 8.08359 77.1472 8.08125C77.1355 8.07421 77.1238 8.06718 77.1121 8.06249C77.1097 8.06014 77.105 8.0578 77.1027 8.0578C77.0886 8.05076 77.0745 8.04373 77.0605 8.03904C77.0581 8.03669 77.0558 8.03669 77.0511 8.03435C77.037 8.02966 77.0229 8.02497 77.0089 8.02028C77.0042 8.02028 76.9995 8.01793 76.9948 8.01793C76.9807 8.01559 76.969 8.0109 76.9549 8.00855C76.9479 8.00855 76.9409 8.00855 76.9338 8.00621C76.9245 8.00386 76.9127 8.00386 76.901 8.00152C76.8916 8.00152 76.8822 8.00152 76.8752 8.00152C76.8682 8.00152 76.8611 7.99917 76.8541 7.99917C76.8471 7.99917 76.8377 7.99917 76.8353 7.99917H75.5784V7.0752C75.5784 7.06817 75.5784 7.06113 75.5784 7.05644C75.5807 7.00954 75.5807 6.96264 75.5831 6.91808C75.5831 6.90636 75.5831 6.89229 75.5854 6.88056C75.5854 6.8407 75.5877 6.80083 75.5901 6.76331C75.5901 6.75627 75.5924 6.74689 75.5924 6.73986C75.5948 6.6953 75.5995 6.65074 75.6042 6.60853C75.6487 6.15124 75.7472 5.86279 75.8504 5.68691C75.8527 5.68222 75.8527 5.67987 75.8551 5.67518C75.8621 5.66346 75.8715 5.65173 75.8785 5.64001C75.8832 5.63063 75.8903 5.62125 75.8973 5.61187C75.8996 5.60718 75.9043 5.5978 75.909 5.59311C75.9208 5.57669 75.9325 5.56262 75.9465 5.54855C76.0943 5.38205 76.3241 5.28121 76.6571 5.24134C76.6618 5.24134 76.6641 5.239 76.6712 5.239C76.6899 5.23665 76.711 5.23431 76.7298 5.23431C76.7392 5.23196 76.7509 5.23196 76.7603 5.22962C76.7791 5.22962 76.7955 5.22727 76.8142 5.22727C76.8283 5.22727 76.84 5.22493 76.8564 5.22493C76.8729 5.22258 76.8893 5.22258 76.9057 5.22258C76.9221 5.22258 76.9385 5.22024 76.9549 5.22024C76.9714 5.22024 76.9878 5.22024 77.0042 5.22024C77.0276 5.22024 77.0511 5.22024 77.0745 5.22024H77.0769C77.0956 5.22024 77.1121 5.21789 77.1308 5.21555C77.1519 5.21789 77.173 5.22024 77.1941 5.22024H77.3466C77.6608 5.22024 77.9188 4.96228 77.9188 4.64569C77.9188 4.3291 77.6608 4.07349 77.3466 4.07349Z" fill="white"></path><path d="M80.3717 4.08987C80.3717 4.08987 80.3694 4.08753 80.3671 4.08753C80.3553 4.08284 80.3459 4.07815 80.3319 4.0758C80.3272 4.07345 80.3202 4.07111 80.3131 4.06877C80.3037 4.06642 80.2944 4.06407 80.285 4.06173C80.2756 4.05938 80.2662 4.05469 80.2592 4.05469C80.2475 4.05235 80.2381 4.05 80.2263 4.05C80.217 4.04766 80.2099 4.04766 80.2006 4.04531C80.1818 4.04297 80.1607 4.04297 80.1419 4.04297C79.8371 4.04297 79.5791 4.29858 79.5791 4.60345V17.3092C79.5791 17.6164 79.8371 17.872 80.1419 17.872C80.1607 17.872 80.1818 17.872 80.2006 17.8696C80.2029 17.8696 80.2076 17.8673 80.2099 17.8673C80.2263 17.8649 80.2428 17.8626 80.2592 17.8603C80.2615 17.8603 80.2662 17.8579 80.2709 17.8579C80.285 17.8532 80.299 17.8509 80.3131 17.8462C80.3155 17.8462 80.3178 17.8462 80.3202 17.8438C80.5359 17.7758 80.6954 17.5929 80.7188 17.3678C80.7212 17.349 80.7235 17.3303 80.7235 17.3092V4.60345C80.7235 4.58469 80.7212 4.56592 80.7188 4.54716C80.6977 4.3408 80.5617 4.1696 80.3717 4.08987Z" fill="white"></path><path d="M37.3148 14.8818C37.3101 14.849 37.3101 14.8185 37.3054 14.788C37.3031 14.7646 37.3007 14.7435 37.2984 14.7224C37.2937 14.6966 37.2914 14.6731 37.2867 14.6473C37.282 14.6239 37.2773 14.6004 37.2726 14.5746C37.2703 14.5559 37.2656 14.5348 37.2609 14.516C37.2538 14.4879 37.2492 14.4621 37.2421 14.4339C37.2374 14.4199 37.2327 14.4034 37.2281 14.3894C37.221 14.3589 37.2116 14.3307 37.1999 14.3026C37.1976 14.2909 37.1929 14.2792 37.1905 14.2698C37.1788 14.2369 37.1671 14.2065 37.153 14.1736C37.1507 14.1689 37.1483 14.1619 37.146 14.1549C37.1296 14.122 37.1155 14.0869 37.0991 14.054C37.0967 14.0517 37.0967 14.0493 37.0944 14.047C36.9607 13.7773 36.7708 13.5522 36.5386 13.3622C36.5386 13.3599 36.5386 13.3599 36.5362 13.3599C36.5034 13.3341 36.4706 13.3059 36.4354 13.2801C36.4354 13.2801 36.4331 13.2778 36.4307 13.2755C36.4284 13.2755 36.426 13.2731 36.4237 13.2708C36.4026 13.2567 36.3815 13.2403 36.3627 13.2262C36.0743 13.0222 35.7553 12.8604 35.291 12.6821C35.284 12.6798 35.2769 12.6775 35.2699 12.6751C35.2629 12.6704 35.2535 12.6681 35.2464 12.6634C34.9838 12.5649 34.7118 12.4711 34.4327 12.3796C34.4327 12.3796 34.4327 12.3796 34.4304 12.3796C34.4304 12.3796 34.428 12.3796 34.428 12.3773C34.4233 12.3773 34.4186 12.3749 34.4116 12.3726C34.3858 12.3632 34.3577 12.3538 34.3201 12.3421C34.3014 12.3374 34.2873 12.3327 34.2732 12.328C34.1794 12.2952 34.0833 12.2647 33.9871 12.2319C33.9191 12.2084 33.8464 12.185 33.7597 12.1568C33.7362 12.1498 33.6799 12.131 33.633 12.117C33.6307 12.117 33.6307 12.1146 33.6283 12.1146C33.6002 12.1053 33.5721 12.0959 33.5416 12.0865C33.3071 12.0114 33.1148 11.9458 32.9506 11.8848C32.6833 11.7863 32.4394 11.6808 32.24 11.5542C32.2353 11.5518 32.2307 11.5495 32.2283 11.5471C31.9563 11.3736 31.7687 11.1602 31.7241 10.8811L31.7218 10.8788C31.7194 10.86 31.7171 10.8389 31.7171 10.8201C31.7147 10.8154 31.7147 10.8131 31.7147 10.8108C31.7124 10.7873 31.7124 10.7662 31.7124 10.7428C31.7124 10.7099 31.7147 10.6771 31.7171 10.6466C31.7171 10.6372 31.7171 10.6302 31.7194 10.6232C31.7218 10.5974 31.7241 10.5739 31.7265 10.5505C31.7288 10.5434 31.7288 10.5364 31.7312 10.5293C31.7358 10.5036 31.7405 10.4801 31.7452 10.4543C31.7476 10.452 31.7476 10.4473 31.7499 10.4426C31.757 10.4144 31.764 10.3886 31.7734 10.3628C31.7734 10.3605 31.7734 10.3605 31.7734 10.3605C31.8953 9.99701 32.1838 9.72733 32.5238 9.53737C32.5472 9.52565 32.5707 9.51392 32.5918 9.5022C32.6153 9.49047 32.6364 9.47875 32.6575 9.46937C32.6926 9.45295 32.7278 9.43654 32.763 9.42246C32.7841 9.41308 32.8029 9.4037 32.824 9.39667C32.8615 9.3826 32.899 9.36853 32.9365 9.35446C32.9553 9.34742 32.9764 9.34039 32.9975 9.33335C33.035 9.32163 33.0702 9.3099 33.1077 9.30052C33.1312 9.29349 33.1523 9.28645 33.1757 9.28176C33.2109 9.27238 33.2461 9.26534 33.2789 9.25596C33.3024 9.25127 33.3258 9.24658 33.3493 9.24189C33.3868 9.23486 33.422 9.22782 33.4548 9.22313C33.4759 9.22079 33.4947 9.21844 33.5158 9.21375C33.5556 9.20906 33.5978 9.20437 33.6401 9.20203C33.6494 9.19968 33.6588 9.19968 33.6705 9.19734C33.7221 9.19499 33.7737 9.19265 33.823 9.19265C33.8816 9.19265 33.9402 9.19499 33.9965 9.19734C34.0059 9.19734 34.0153 9.19734 34.0223 9.19734C34.4374 9.22313 34.7727 9.32397 35.0495 9.45764C35.0706 9.46702 35.0917 9.47875 35.1128 9.48813C35.1245 9.49516 35.1362 9.5022 35.148 9.50689C35.1737 9.52096 35.1995 9.53503 35.2277 9.55145C35.2324 9.55379 35.2371 9.55614 35.2418 9.55848C35.2699 9.5749 35.298 9.59366 35.3262 9.61007C35.3285 9.61242 35.3309 9.61242 35.3309 9.61242C35.3614 9.63118 35.3918 9.65228 35.4223 9.67105C35.4223 9.67339 35.4247 9.67339 35.4247 9.67574C35.4552 9.6945 35.4833 9.71326 35.5114 9.73436C35.5232 9.74374 35.5325 9.75078 35.5443 9.75781C35.6099 9.80706 35.7131 9.88679 35.8069 9.96418C35.8186 9.97122 35.828 9.97825 35.8351 9.98529C35.9054 10.0439 35.9711 10.0955 36.0344 10.1424C36.0461 10.1518 36.0555 10.1588 36.0625 10.1635C36.0649 10.1659 36.0672 10.1682 36.0696 10.1682C36.0766 10.1729 36.0836 10.1776 36.0907 10.1823C36.1071 10.194 36.1259 10.2057 36.1423 10.2175C36.1493 10.2221 36.1563 10.2245 36.1634 10.2292C36.1798 10.2386 36.1962 10.2479 36.2126 10.2573C36.2197 10.2597 36.2244 10.262 36.2314 10.2644C36.2501 10.2737 36.2666 10.2808 36.2853 10.2878C36.29 10.2901 36.2924 10.2901 36.2971 10.2925C36.3182 10.2995 36.3393 10.3066 36.3604 10.3089C36.3604 10.3089 36.3604 10.3089 36.3627 10.3113C36.4096 10.3183 36.4542 10.3206 36.5011 10.3089C36.5058 10.3089 36.5105 10.3066 36.5151 10.3066C36.5269 10.3042 36.5409 10.2995 36.5527 10.2972C36.5574 10.2948 36.5597 10.2925 36.5644 10.2901C36.5691 10.2901 36.5738 10.2878 36.5785 10.2855C36.5972 10.2761 36.616 10.2667 36.6347 10.255C36.6394 10.255 36.6418 10.2526 36.6441 10.2503C36.6652 10.2362 36.684 10.2221 36.7028 10.2057C36.7051 10.2034 36.7051 10.2034 36.7051 10.2034C36.7215 10.1893 36.7356 10.1729 36.7497 10.1565C36.759 10.1448 36.7684 10.1307 36.7754 10.1166C36.7778 10.1143 36.7801 10.1119 36.7801 10.1096C36.8786 9.94542 36.8223 9.72967 36.6488 9.49516C36.6465 9.49047 36.6441 9.48578 36.6394 9.48109C36.6324 9.47171 36.6277 9.46468 36.6207 9.4553C36.222 8.93938 35.3145 8.37421 34.4726 8.19364C34.4679 8.19364 34.4632 8.19364 34.4585 8.19129C34.4233 8.18426 34.3858 8.17722 34.3506 8.17019C34.3412 8.17019 34.3295 8.16784 34.3201 8.1655C34.2897 8.16081 34.2592 8.15612 34.2287 8.15377C34.217 8.15143 34.2052 8.14908 34.1935 8.14908C34.1654 8.14673 34.1349 8.14439 34.1067 8.14205C34.095 8.1397 34.0833 8.1397 34.0739 8.13736C34.034 8.13736 33.9965 8.13501 33.959 8.13501C33.898 8.13501 33.837 8.13501 33.7784 8.13736C33.7456 8.13736 33.7128 8.1397 33.6776 8.14205C33.6541 8.14439 33.626 8.14439 33.6025 8.14439C33.5556 8.14908 33.5111 8.15143 33.4665 8.15612C33.4548 8.15612 33.4407 8.15612 33.429 8.15846C33.3774 8.16315 33.3258 8.16784 33.2766 8.17488C33.2695 8.17488 33.2648 8.17488 33.2602 8.17488C33.2062 8.18191 33.1546 8.18895 33.103 8.19833C33.1007 8.19833 33.096 8.19833 33.0937 8.19833C33.0421 8.20536 32.9905 8.21474 32.9412 8.22412C32.9389 8.22412 32.9365 8.22647 32.9318 8.22647C32.8263 8.24523 32.7231 8.26868 32.6246 8.29448C32.6223 8.29448 32.6223 8.29682 32.6223 8.29682C32.573 8.30855 32.5238 8.32262 32.4745 8.33669C32.4276 8.35076 32.3831 8.36717 32.3409 8.38125C32.3362 8.38125 32.3338 8.38359 32.3292 8.38359C32.2869 8.40001 32.2447 8.41408 32.2025 8.43049C32.1978 8.43284 32.1931 8.43518 32.1908 8.43518C32.1486 8.4516 32.1111 8.46801 32.0712 8.48677C32.0665 8.48912 32.0595 8.48912 32.0548 8.49381C32.0196 8.50788 31.9821 8.52664 31.9492 8.54306C31.9399 8.54775 31.9328 8.55009 31.9258 8.55478C31.8906 8.5712 31.8578 8.58761 31.825 8.60637C31.8156 8.61106 31.8085 8.61575 31.7992 8.62044C31.7687 8.63686 31.7382 8.65562 31.7077 8.67438C31.6983 8.67907 31.6889 8.68376 31.6796 8.6908C31.6397 8.71425 31.6022 8.74004 31.5647 8.76349C31.5201 8.79633 31.4755 8.82681 31.4357 8.85964C31.431 8.85964 31.4286 8.86199 31.4286 8.86433C31.2293 9.01207 31.0581 9.1692 30.9174 9.35211C30.9127 9.35915 30.9057 9.36618 30.901 9.37322C30.8846 9.39901 30.8658 9.42247 30.8494 9.44592C30.8377 9.46468 30.8259 9.48344 30.8142 9.5022C30.8048 9.51627 30.7955 9.53034 30.7884 9.54441C30.7697 9.5749 30.7533 9.60538 30.7368 9.63821C30.7345 9.6429 30.7321 9.64525 30.7298 9.64994C30.6032 9.90086 30.5305 10.1893 30.5023 10.5387C30.5023 10.5434 30.5023 10.5481 30.5 10.5528C30.4976 10.6138 30.4929 10.6747 30.4906 10.7404C30.4906 10.7897 30.4906 10.8389 30.4929 10.8881C30.4929 10.8952 30.4929 10.9022 30.4929 10.9093C30.5187 11.5799 30.8236 12.0841 31.3747 12.4758C31.3794 12.4781 31.3841 12.4828 31.3888 12.4852C31.4122 12.5016 31.4357 12.518 31.4591 12.5344C31.4755 12.5461 31.4943 12.5555 31.5107 12.5672C31.5154 12.5719 31.5224 12.5743 31.5271 12.5766C32.0712 12.9213 32.7372 13.1183 33.293 13.2755C33.565 13.3552 33.8089 13.4232 33.8816 13.4443C33.898 13.449 33.9144 13.4537 33.9285 13.4607C34.2615 13.5709 34.5171 13.66 34.7282 13.7445C34.7446 13.7492 34.7587 13.7562 34.7751 13.7609C34.7798 13.7632 34.7868 13.7656 34.7938 13.7703C34.9134 13.8195 35.0307 13.8711 35.1433 13.9274C35.2371 13.9743 35.3238 14.0235 35.4106 14.0751C35.6334 14.2135 35.8046 14.3636 35.9195 14.5277C35.9242 14.5324 35.9265 14.5371 35.9289 14.5418C35.9406 14.5559 35.95 14.5699 35.957 14.5864C35.964 14.5957 35.9687 14.6028 35.9734 14.6122C35.9805 14.6239 35.9875 14.6356 35.9922 14.6473C35.9992 14.6591 36.0039 14.6731 36.0109 14.6849C36.0156 14.6942 36.0203 14.7036 36.025 14.713C36.0297 14.7271 36.0367 14.7411 36.0414 14.7575C36.0438 14.7646 36.0485 14.774 36.0508 14.7833C36.0555 14.7998 36.0602 14.8162 36.0649 14.8326C36.0672 14.8396 36.0696 14.8467 36.0719 14.856C36.0766 14.8725 36.0813 14.8912 36.0836 14.9076C36.086 14.9147 36.0883 14.9241 36.0883 14.9311C36.0907 14.9498 36.093 14.9686 36.0954 14.9874C36.0977 14.9944 36.0977 15.0014 36.0977 15.0085C36.1001 15.0366 36.1024 15.0624 36.1024 15.0906C36.1024 15.1328 36.1001 15.1726 36.0977 15.2125C36.0977 15.2242 36.0954 15.2359 36.0954 15.2477C36.093 15.2782 36.0883 15.3086 36.0813 15.3391C36.0813 15.3485 36.079 15.3579 36.0766 15.3673C36.0625 15.4494 36.0391 15.5267 36.0086 15.6041C36.0063 15.6065 36.0063 15.6088 36.0063 15.6112C35.9898 15.6463 35.9734 15.6839 35.9547 15.7167C35.9523 15.7214 35.9523 15.7237 35.95 15.7261C35.9101 15.8011 35.8632 15.8738 35.8046 15.9418C35.7764 15.977 35.746 16.0098 35.7155 16.0427C35.7131 16.0427 35.7131 16.0427 35.7131 16.045C35.6498 16.1083 35.5795 16.167 35.5068 16.2209C35.5044 16.2232 35.5021 16.2232 35.5021 16.2256C35.4669 16.249 35.4317 16.2748 35.3965 16.2959C35.3918 16.3006 35.3872 16.303 35.3825 16.3053C35.3215 16.3428 35.2558 16.3804 35.1902 16.4132C35.1667 16.4249 35.1433 16.4366 35.1175 16.4484C35.0917 16.4601 35.0635 16.4742 35.0354 16.4859C35.0119 16.4953 34.9908 16.5046 34.9674 16.514C34.9041 16.5375 34.8431 16.5609 34.7798 16.582C34.7704 16.5844 34.761 16.5867 34.7516 16.5914C34.7141 16.6031 34.6766 16.6125 34.6391 16.6242C34.6297 16.6266 34.618 16.6313 34.6086 16.6336C34.4843 16.6665 34.3623 16.6923 34.2474 16.711C34.2451 16.711 34.2427 16.711 34.2404 16.711C34.1818 16.7204 34.1255 16.7274 34.0716 16.7345C34.0505 16.7368 34.0317 16.7392 34.0106 16.7392C33.9918 16.7415 33.9731 16.7415 33.952 16.7438C33.9074 16.7462 33.8605 16.7485 33.8183 16.7485C33.7315 16.7485 33.6471 16.7462 33.565 16.7415C33.5322 16.7415 33.4994 16.7392 33.4665 16.7368C33.422 16.7321 33.3751 16.7298 33.3329 16.7251C33.293 16.7227 33.2508 16.718 33.2133 16.7134C33.1781 16.7087 33.1452 16.704 33.1124 16.6993C33.0397 16.6876 32.9717 16.6782 32.9037 16.6641C32.8732 16.6571 32.8404 16.6524 32.8099 16.6453C32.7747 16.636 32.7395 16.6289 32.7044 16.6196C32.6645 16.6102 32.627 16.6008 32.5895 16.5891C32.5637 16.582 32.5355 16.575 32.5121 16.568C32.4488 16.5492 32.3854 16.5281 32.3245 16.5046C32.3104 16.5 32.2963 16.4953 32.2823 16.4906C32.1462 16.439 32.0126 16.3827 31.8812 16.317C31.8766 16.3147 31.8695 16.31 31.8625 16.3077C31.7781 16.2654 31.635 16.1857 31.499 16.1083C31.4873 16.1013 31.4732 16.0943 31.4615 16.0872C31.3653 16.0309 31.2832 15.984 31.2059 15.9465C31.1988 15.9418 31.1941 15.9395 31.1894 15.9371C31.1847 15.9348 31.1801 15.9324 31.1777 15.9324C31.1566 15.9231 31.1402 15.9137 31.1214 15.9066C31.1144 15.9043 31.1097 15.902 31.105 15.8996C31.0558 15.8808 31.0112 15.8668 30.9667 15.8621C30.9526 15.8597 30.9385 15.8597 30.9244 15.8597C30.9198 15.8574 30.9151 15.8574 30.9104 15.8574C30.8213 15.8574 30.7439 15.8879 30.6712 15.9559C30.6548 15.97 30.6407 15.984 30.6266 16.0004C30.6243 16.0051 30.6196 16.0098 30.6149 16.0145C30.6055 16.0262 30.5985 16.0356 30.5914 16.045C30.5867 16.052 30.5821 16.0591 30.5797 16.0638C30.5727 16.0731 30.5656 16.0825 30.561 16.0919C30.5563 16.0989 30.5539 16.106 30.5516 16.113C30.5469 16.1224 30.5422 16.1318 30.5375 16.1412C30.5352 16.1482 30.5328 16.1529 30.5305 16.1599C30.5258 16.1716 30.5234 16.181 30.5211 16.1904C30.5187 16.1974 30.5164 16.2021 30.5164 16.2092C30.5141 16.2209 30.5117 16.2326 30.5094 16.2443C30.5094 16.249 30.507 16.2537 30.507 16.2584C30.5047 16.2748 30.5047 16.2889 30.5047 16.303C30.5047 16.3053 30.5047 16.3077 30.5047 16.31C30.5047 16.3288 30.507 16.3452 30.5117 16.3639C30.5117 16.3663 30.5117 16.371 30.5117 16.3733C30.5164 16.3874 30.5187 16.4038 30.5234 16.4179C30.5258 16.4249 30.5281 16.4319 30.5305 16.439C30.5352 16.4507 30.5375 16.4648 30.5445 16.4765C30.5469 16.4835 30.5492 16.4882 30.5516 16.4929C30.5821 16.5633 30.6313 16.636 30.6946 16.7063C30.7626 16.7814 30.8494 16.8564 30.9502 16.9338C30.9526 16.9338 30.9526 16.9338 30.9526 16.9361C30.9807 16.9549 31.0089 16.976 31.0394 16.9971C31.0464 17.0018 31.0511 17.0065 31.0581 17.0088C31.1402 17.0651 31.227 17.1191 31.3255 17.1753C31.3489 17.1894 31.3724 17.2035 31.3958 17.2152C31.4193 17.2293 31.4427 17.241 31.4662 17.2527C31.4943 17.2691 31.5271 17.2856 31.5576 17.302C31.5787 17.3114 31.5975 17.3231 31.6186 17.3325C31.6655 17.3559 31.7147 17.3794 31.764 17.4028C31.771 17.4075 31.7757 17.4098 31.7827 17.4122C31.8367 17.438 31.8906 17.4614 31.9446 17.4825C31.968 17.4919 31.9891 17.5013 32.0126 17.5107C32.0173 17.513 32.0219 17.5154 32.0266 17.5154C32.5285 17.7124 33.1476 17.8437 33.694 17.8671C33.7339 17.8695 33.7761 17.8718 33.8159 17.8718H33.8183C33.837 17.8718 33.8535 17.8718 33.8722 17.8695C33.9144 17.8695 33.9566 17.8695 33.9989 17.8695C34.0035 17.8695 34.0082 17.8695 34.0129 17.8671C34.9017 17.839 35.631 17.6092 36.2525 17.1542C36.2525 17.1519 36.2525 17.1519 36.2525 17.1519C36.942 16.6313 37.3219 15.8973 37.3219 15.0882C37.3219 15.0366 37.3195 14.985 37.3172 14.9358C37.3172 14.917 37.3148 14.8983 37.3148 14.8818Z" fill="white"></path><path d="M43.0477 8.15381C43.0454 8.15381 43.043 8.15381 43.0407 8.15381C41.9479 8.15381 40.916 8.59938 40.1703 9.38733V8.71663C40.1703 8.40708 39.9311 8.15381 39.6286 8.15381C39.6075 8.15381 39.5887 8.15615 39.5699 8.15615C39.4363 8.17022 39.319 8.22885 39.2323 8.31562C39.2299 8.31562 39.2299 8.31562 39.2276 8.31797C39.2205 8.32735 39.2111 8.33673 39.2041 8.34611C39.1994 8.34845 39.1947 8.35314 39.1924 8.35783C39.1854 8.36487 39.1807 8.3719 39.176 8.37894C39.1713 8.38597 39.1666 8.39301 39.1596 8.40004C39.1572 8.40473 39.1549 8.40942 39.1525 8.41411C39.1455 8.42584 39.1385 8.43756 39.1314 8.44694C39.1314 8.44929 39.1314 8.45164 39.1291 8.45398C39.122 8.46805 39.115 8.48212 39.108 8.49619C39.0962 8.53137 39.0845 8.56654 39.0775 8.60172C39.0775 8.60407 39.0775 8.60641 39.0751 8.60641C39.0728 8.62517 39.0704 8.64159 39.0681 8.658C39.0681 8.67676 39.0658 8.69552 39.0658 8.71663V17.4263L39.0587 17.4638L39.0869 17.4873C39.0869 17.499 39.0892 17.5154 39.0962 17.5318C39.0962 17.5342 39.0986 17.5389 39.0986 17.5412C39.1033 17.5529 39.1103 17.567 39.122 17.5787C39.1947 17.7171 39.3284 17.8226 39.4855 17.8695L39.4973 17.8719H39.6286C39.6497 17.8719 39.6708 17.8719 39.6919 17.8695C39.706 17.8672 39.72 17.8625 39.7341 17.8601C39.7411 17.8601 39.7458 17.8601 39.7529 17.8578C39.7716 17.8531 39.7904 17.8484 39.8091 17.8414C39.8091 17.8414 39.8091 17.8414 39.8115 17.8414C39.91 17.8062 39.9944 17.7452 40.0507 17.6632C40.053 17.6608 40.0554 17.6585 40.0577 17.6561C40.0952 17.6163 40.1164 17.574 40.1375 17.5154C40.1398 17.5084 40.1422 17.5037 40.1422 17.499C40.1445 17.4967 40.1445 17.4967 40.1445 17.4943C40.1539 17.4662 40.1609 17.438 40.1679 17.4099L40.1703 17.4005V12.1287C40.2078 10.5575 41.4929 9.27945 43.036 9.27711C43.0383 9.27711 43.0383 9.27711 43.0407 9.27711C44.6119 9.27711 45.89 10.5552 45.89 12.1264V17.309C45.89 17.3302 45.8923 17.3489 45.8947 17.3677C45.9064 17.5037 45.965 17.6209 46.0518 17.7077C46.0518 17.7077 46.0541 17.7077 46.0541 17.7101C46.0635 17.7194 46.0729 17.7265 46.0823 17.7359C46.087 17.7405 46.0893 17.7429 46.094 17.7452C46.101 17.7523 46.1081 17.757 46.1151 17.7617C46.1221 17.7687 46.1292 17.7734 46.1362 17.7781C46.1432 17.7804 46.1479 17.7828 46.1526 17.7874C46.162 17.7945 46.1737 17.7992 46.1831 17.8062C46.1855 17.8062 46.1878 17.8086 46.1925 17.8086C46.2042 17.8156 46.2183 17.8226 46.2324 17.8297H46.2347C46.2675 17.8437 46.3027 17.8531 46.3379 17.8601C46.3426 17.8601 46.3449 17.8625 46.3473 17.8625C46.3637 17.8648 46.3778 17.8672 46.3942 17.8695C46.4129 17.8719 46.4317 17.8719 46.4528 17.8719C46.4716 17.8719 46.4903 17.8719 46.5091 17.8695C46.5255 17.8672 46.5419 17.8648 46.556 17.8625C46.5583 17.8625 46.563 17.8601 46.5654 17.8601C46.6029 17.8531 46.6357 17.8437 46.6709 17.8297C46.685 17.8226 46.699 17.8156 46.7131 17.8086C46.7154 17.8086 46.7178 17.8062 46.7201 17.8062C46.7319 17.7992 46.7412 17.7945 46.753 17.7874C46.7577 17.7828 46.7623 17.7804 46.767 17.7781C46.7741 17.7734 46.7811 17.7687 46.7881 17.7617C46.7952 17.757 46.8046 17.7523 46.8116 17.7452C46.8139 17.7429 46.8186 17.7405 46.821 17.7359C46.8304 17.7265 46.8421 17.7194 46.8515 17.7101C46.8515 17.7077 46.8515 17.7077 46.8515 17.7077C46.9406 17.6209 46.9992 17.5037 47.0109 17.3677C47.0133 17.3489 47.0133 17.3302 47.0133 17.309V12.1264C47.0133 9.93842 45.2357 8.1585 43.0477 8.15381Z" fill="white"></path><path d="M53.1665 8.13501C55.7133 8.13501 57.784 10.3183 57.784 13.0034C57.784 15.6886 55.7133 17.8718 53.1665 17.8718C53.0868 17.8718 53.0094 17.8695 52.932 17.8648C52.9203 17.8648 52.9109 17.8648 52.8992 17.8625C52.8311 17.8601 52.7631 17.8531 52.6975 17.846C52.6951 17.846 52.6928 17.846 52.6904 17.846C51.6844 17.7358 50.744 17.2762 49.9959 16.5234C49.9654 16.4929 49.9326 16.4624 49.9045 16.4296C49.9021 16.4296 49.9021 16.4273 49.8998 16.4273C49.8834 16.4108 49.8693 16.3921 49.8529 16.3733C49.8177 16.3358 49.7825 16.2959 49.7474 16.2561C49.7192 16.2256 49.6934 16.1904 49.6653 16.1576C49.6465 16.1318 49.6254 16.106 49.6043 16.0802C49.5621 16.0286 49.5222 15.9747 49.4847 15.9207C49.48 15.9137 49.4753 15.9066 49.4706 15.8996C49.0133 15.2594 48.7155 14.5207 48.6029 13.7374C48.5912 13.6647 48.5842 13.592 48.5772 13.5193C48.5748 13.5123 48.5748 13.5029 48.5725 13.4935C48.5654 13.4255 48.5607 13.3599 48.5584 13.2919C48.556 13.2778 48.556 13.2637 48.556 13.2473C48.5514 13.1676 48.549 13.0855 48.549 13.0034C48.549 12.9213 48.5514 12.8393 48.556 12.7595C48.556 12.7431 48.556 12.729 48.5584 12.715C48.5607 12.647 48.5654 12.579 48.5725 12.5133C48.5748 12.5039 48.5748 12.4945 48.5772 12.4875C48.5842 12.4148 48.5912 12.3421 48.6029 12.2694C48.7155 11.4861 49.0133 10.7474 49.4706 10.1072C49.473 10.1002 49.4777 10.0932 49.4824 10.0885C49.5222 10.0322 49.5621 9.97825 49.6043 9.92432C49.6231 9.90086 49.6442 9.87741 49.6629 9.85162C49.6911 9.81644 49.7192 9.78361 49.7474 9.74843C49.7802 9.71091 49.813 9.67574 49.8482 9.63821C49.8646 9.61945 49.8834 9.59835 49.8998 9.57959C49.9021 9.57959 49.9021 9.57724 49.9045 9.57724C49.9303 9.54676 49.9608 9.51861 49.9889 9.49047C50.737 8.73535 51.6797 8.27103 52.6904 8.16081C52.6928 8.16081 52.6951 8.16081 52.6975 8.16081C52.7631 8.15377 52.8311 8.14908 52.8992 8.14439C52.9109 8.14439 52.9203 8.14205 52.932 8.14205C53.0094 8.13736 53.0868 8.13501 53.1665 8.13501ZM56.6419 12.6212C56.6419 12.6188 56.6419 12.6188 56.6419 12.6165C56.5598 11.7722 56.2128 11.0101 55.6945 10.4215C55.6711 10.3957 55.65 10.3699 55.6265 10.3441C55.6124 10.33 55.5984 10.3159 55.5843 10.3019C55.5561 10.2737 55.5304 10.2456 55.5022 10.2175C55.4764 10.1917 55.4483 10.1682 55.4225 10.1448C55.4061 10.1307 55.392 10.1143 55.3756 10.1002C55.3334 10.0627 55.2912 10.0275 55.2489 9.99232C55.2489 9.99232 55.2466 9.99232 55.2466 9.98998C54.7565 9.59366 54.1679 9.33335 53.5347 9.26065C53.5276 9.26065 53.523 9.25831 53.5183 9.25831C53.469 9.25127 53.4221 9.24893 53.3729 9.24658C53.3611 9.24424 53.3518 9.24424 53.3424 9.24424C53.2838 9.23955 53.2251 9.23955 53.1665 9.23955C53.1079 9.23955 53.0492 9.23955 52.9906 9.24424C52.9812 9.24424 52.9719 9.24424 52.9601 9.24658C52.9109 9.24893 52.864 9.25127 52.8147 9.25831C52.81 9.25831 52.8054 9.26065 52.7983 9.26065C52.1651 9.33335 51.5765 9.59366 51.0864 9.98998C51.0864 9.99232 51.0841 9.99232 51.0841 9.99232C51.0418 10.0275 50.9996 10.0627 50.9574 10.1002C50.941 10.1143 50.9269 10.1283 50.9105 10.1424C50.8847 10.1682 50.8566 10.1917 50.8308 10.2175C50.805 10.2432 50.7792 10.2714 50.7511 10.2995C50.737 10.3136 50.7229 10.3277 50.7065 10.3441C50.6854 10.3675 50.6643 10.3933 50.6408 10.4191C50.1226 11.0077 49.7731 11.7722 49.6911 12.6165C49.6911 12.6188 49.6911 12.6188 49.6911 12.6212C49.6864 12.6751 49.6817 12.729 49.6793 12.7853C49.6793 12.7947 49.677 12.8041 49.677 12.8135C49.6747 12.8768 49.6723 12.9401 49.6723 13.0034C49.6723 15.0648 51.2576 16.7485 53.1665 16.7485C55.0754 16.7485 56.6607 15.0648 56.6607 13.0034C56.6607 12.9401 56.6583 12.8768 56.656 12.8135C56.656 12.8041 56.6536 12.7947 56.6536 12.7853C56.6513 12.729 56.6466 12.6751 56.6419 12.6212Z" fill="white"></path><path d="M71.3539 8.37659C71.3492 8.3719 71.3469 8.36721 71.3422 8.36252C71.2859 8.29217 71.2109 8.23589 71.1265 8.20071C71.1265 8.20071 71.1265 8.20071 71.1241 8.20071C71.1147 8.19367 71.103 8.19133 71.0936 8.18664C71.0889 8.18664 71.0842 8.18429 71.0772 8.18195C71.0022 8.15615 70.9201 8.15146 70.8404 8.16319H70.838C70.6762 8.18898 70.5214 8.28748 70.4347 8.43287C70.4347 8.43287 70.4347 8.43287 70.4323 8.43287C70.4206 8.45632 70.4065 8.47977 70.3971 8.50322L70.3948 8.50557V8.50792L67.7073 15.8645L65.5967 10.8413C65.5756 10.7944 65.5475 10.7522 65.5147 10.7123C65.3997 10.5786 65.2239 10.4942 65.0433 10.4942C65.0151 10.4942 64.9894 10.4942 64.9612 10.5012C64.9589 10.5012 64.9565 10.5012 64.9518 10.5012C64.7642 10.5341 64.5883 10.6654 64.5086 10.8413C64.5086 10.8436 64.5086 10.8436 64.5086 10.8436L62.398 15.8668L61.3756 13.0879L59.6918 8.50792C59.6824 8.48212 59.673 8.46101 59.6613 8.43756C59.659 8.43522 59.659 8.43522 59.6566 8.43287C59.605 8.33672 59.5229 8.26168 59.4244 8.21478C59.4244 8.21478 59.4221 8.21478 59.4221 8.21243C59.3729 8.19133 59.3213 8.17491 59.2673 8.16553C59.2626 8.16553 59.2603 8.16553 59.2556 8.16319C59.2298 8.16084 59.2017 8.1585 59.1759 8.1585H59.1735C59.1665 8.1585 59.1618 8.1585 59.1571 8.1585C59.1454 8.1585 59.1337 8.1585 59.1219 8.16084C59.1149 8.16084 59.1055 8.16319 59.0985 8.16319C59.0868 8.16553 59.0774 8.16553 59.068 8.16788C59.061 8.17022 59.0539 8.17022 59.0469 8.17257C59.0352 8.17491 59.0234 8.17726 59.0117 8.18195C59.007 8.18429 59.0023 8.18429 58.9976 8.18664C58.9859 8.19133 58.9742 8.19367 58.9625 8.20071C58.9625 8.20071 58.9625 8.20071 58.9601 8.20071C58.864 8.24292 58.7866 8.31562 58.7303 8.40004C58.728 8.40473 58.7256 8.40708 58.7233 8.41177C58.7209 8.41646 58.7186 8.42115 58.7162 8.42584C58.674 8.49619 58.6482 8.57827 58.6388 8.66035C58.6295 8.74711 58.6412 8.83857 58.6764 8.923L60.6251 14.1596L61.8751 17.5178C61.8751 17.5178 61.8751 17.5178 61.8751 17.5201C61.9267 17.6467 62.0017 17.7335 62.1049 17.7804C62.1072 17.7828 62.1119 17.7851 62.1143 17.7874C62.1166 17.7898 62.119 17.7921 62.1236 17.7945C62.1236 17.7968 62.126 17.7968 62.1283 17.7992C62.133 17.8015 62.1354 17.8039 62.1401 17.8085C62.1424 17.8085 62.1424 17.8085 62.1448 17.8085C62.1635 17.8203 62.187 17.8297 62.2175 17.832C62.2198 17.832 62.2221 17.8343 62.2245 17.8343C62.2339 17.8367 62.2433 17.8414 62.2526 17.8437C62.2573 17.8437 62.262 17.8461 62.2667 17.8461C62.3253 17.8648 62.3628 17.8719 62.4098 17.8719C62.4355 17.8719 62.459 17.8695 62.4848 17.8648C62.5036 17.8625 62.5247 17.8578 62.5434 17.8508C62.5481 17.8484 62.5528 17.8484 62.5575 17.8461C62.5763 17.8414 62.595 17.8343 62.6138 17.825C62.6208 17.8226 62.6278 17.8203 62.6349 17.8156C62.6466 17.8085 62.6607 17.8015 62.6747 17.7945C62.6841 17.7874 62.6959 17.7804 62.7076 17.7734C62.7146 17.7687 62.7216 17.7616 62.7287 17.757C62.7451 17.7452 62.7592 17.7335 62.7756 17.7194C62.7779 17.7171 62.7803 17.7147 62.7826 17.7101C62.799 17.6936 62.8155 17.6772 62.8319 17.6585C62.8319 17.6561 62.8342 17.6538 62.8366 17.6514C62.8506 17.6327 62.8647 17.6116 62.8764 17.5905C62.8881 17.567 62.8999 17.5412 62.9093 17.5154L62.9116 17.5084L62.9186 17.499L62.9257 17.4826L65.0433 12.4266L67.1797 17.5013C67.1961 17.5529 67.2219 17.5998 67.2571 17.6444C67.2617 17.6514 67.2664 17.6561 67.2711 17.6632C67.2829 17.6772 67.2946 17.6913 67.3086 17.7054C67.3157 17.7101 67.3227 17.7171 67.3298 17.7218C67.3415 17.7335 67.3555 17.7452 67.3696 17.757C67.3767 17.7616 67.3813 17.7663 67.3884 17.7687C67.4048 17.7804 67.4212 17.7921 67.4376 17.8015C67.4423 17.8039 67.447 17.8062 67.4517 17.8085C67.4705 17.8179 67.4869 17.8273 67.508 17.8343C67.5127 17.8367 67.5174 17.839 67.5244 17.839C67.5408 17.8461 67.5572 17.8531 67.576 17.8578C67.5994 17.8625 67.6229 17.8672 67.644 17.8719H67.7143C67.7425 17.8719 67.7683 17.8695 67.7941 17.8648C67.8011 17.8648 67.8058 17.8648 67.8128 17.8625C67.8363 17.8578 67.8574 17.8531 67.8785 17.8461C67.8855 17.8437 67.8902 17.8414 67.8949 17.839C67.9184 17.832 67.9418 17.8203 67.9629 17.8085C67.9653 17.8085 67.9676 17.8062 67.97 17.8062C67.9958 17.7898 68.0216 17.7734 68.0427 17.757C68.1365 17.6866 68.2045 17.5951 68.2514 17.4826V17.4802L69.5717 13.9251L71.429 8.923C71.5017 8.74711 71.4735 8.55482 71.3727 8.40473C71.368 8.39535 71.361 8.38597 71.3539 8.37659Z" fill="white"></path><path d="M101.175 8.53382C101.175 8.52444 101.173 8.51271 101.17 8.50333C101.17 8.4963 101.168 8.48926 101.166 8.48223C101.163 8.4705 101.161 8.45878 101.159 8.4494C101.156 8.44236 101.154 8.43533 101.152 8.43064C101.149 8.41656 101.145 8.40484 101.138 8.39311C101.138 8.38842 101.135 8.38608 101.133 8.38139C101.126 8.36497 101.119 8.3509 101.11 8.33683C101.11 8.33449 101.11 8.33449 101.11 8.33449C101.081 8.28524 101.046 8.24303 101.006 8.20551C101.004 8.20316 101.004 8.20316 101.004 8.20316C101.002 8.20082 101.002 8.20082 101.002 8.20082C100.802 8.00148 100.521 7.97569 100.3 8.13046C100.293 8.13515 100.289 8.13984 100.282 8.14219C100.272 8.14922 100.263 8.15626 100.254 8.1633C100.239 8.17737 100.225 8.18909 100.211 8.20316C100.211 8.20316 100.209 8.20316 100.209 8.20551L94.7144 13.5617V4.60345C94.7144 4.58469 94.7144 4.56592 94.7121 4.54716C94.691 4.3408 94.5526 4.1696 94.365 4.08987C94.3627 4.08987 94.3627 4.08753 94.3603 4.08753C94.3486 4.08284 94.3369 4.07815 94.3252 4.0758C94.3205 4.07345 94.3134 4.07111 94.3064 4.06877C94.297 4.06642 94.2876 4.06407 94.2759 4.06173C94.2689 4.05938 94.2595 4.05704 94.2501 4.05469C94.2407 4.05235 94.229 4.05 94.2196 4.05C94.2103 4.04766 94.2032 4.04766 94.1938 4.04531C94.1727 4.04297 94.154 4.04297 94.1352 4.04297C93.828 4.04297 93.5724 4.29858 93.5724 4.60345V17.3092C93.5724 17.6164 93.828 17.872 94.1352 17.872C94.154 17.872 94.1751 17.872 94.1938 17.8696C94.1962 17.8696 94.1985 17.8673 94.2032 17.8673C94.2196 17.8649 94.236 17.8649 94.2501 17.8603C94.2548 17.8603 94.2595 17.8579 94.2642 17.8579C94.2783 17.8532 94.2923 17.8509 94.3064 17.8462C94.3087 17.8462 94.3111 17.8438 94.3134 17.8438C94.5292 17.7758 94.6887 17.5906 94.7121 17.3678C94.7144 17.349 94.7144 17.3303 94.7144 17.3092V15.1657L96.5647 13.3178L100.16 17.6562C100.183 17.6937 100.209 17.7266 100.242 17.7524C100.249 17.7594 100.254 17.7641 100.261 17.7688C100.27 17.7758 100.279 17.7829 100.289 17.7876C100.3 17.7969 100.312 17.8016 100.324 17.8087C100.329 17.811 100.336 17.8157 100.34 17.818C100.357 17.8251 100.371 17.8298 100.387 17.8368C100.392 17.8391 100.397 17.8391 100.399 17.8415C100.418 17.8462 100.434 17.8509 100.453 17.8556C100.455 17.8556 100.46 17.8579 100.465 17.8579C100.483 17.8626 100.5 17.8649 100.521 17.8673C100.526 17.8673 100.53 17.8673 100.535 17.8696C100.558 17.8696 100.582 17.872 100.608 17.872C100.645 17.872 100.68 17.8696 100.713 17.8649C100.716 17.8649 100.716 17.8649 100.716 17.8649C100.781 17.8556 100.842 17.8345 100.898 17.8063C100.901 17.8063 100.901 17.804 100.901 17.804C100.927 17.7899 100.952 17.7735 100.978 17.7547L100.985 17.7477C101.199 17.5343 101.231 17.2435 101.077 17.0019C101.063 16.9808 101.049 16.9597 101.032 16.9386L97.3808 12.5041L101.006 9.00049C101.102 8.902 101.161 8.7824 101.175 8.65342C101.175 8.65107 101.175 8.64873 101.178 8.64638C101.178 8.63466 101.178 8.62059 101.178 8.60886C101.178 8.60183 101.18 8.59479 101.18 8.5901C101.18 8.58541 101.18 8.58307 101.18 8.58072C101.18 8.57134 101.178 8.56431 101.178 8.55493C101.178 8.54789 101.175 8.54085 101.175 8.53382Z" fill="white"></path></svg> 