<?xml version="1.0" encoding="UTF-8"?> <svg xmlns="http://www.w3.org/2000/svg" width="142" height="32" viewBox="0 0 142 32" fill="none"><path fill-rule="evenodd" clip-rule="evenodd" d="M131.552 21.933L131.368 21.1958C130.999 19.1683 131.736 17.1409 133.026 15.6664C133.764 14.9292 134.501 14.7449 135.422 14.5606C135.975 14.5606 136.528 14.7449 136.713 15.2978C138.003 17.6938 131.552 21.933 131.552 21.933ZM121.968 16.9566L121.783 15.6664V15.4821C121.599 13.0861 121.599 10.69 121.783 8.29399C122.152 4.97639 123.074 2.94897 124.364 2.94897C124.548 2.94897 124.917 3.13328 125.101 3.3176C125.838 4.79208 125.838 6.26657 125.47 7.74106C124.917 9.95279 124.179 12.3488 123.258 14.3762C123.074 14.9292 122.889 15.2978 122.705 15.6664L121.968 16.9566ZM115.333 25.8035C114.042 25.6192 112.936 24.5133 112.936 23.0389C112.936 23.0389 112.936 23.0389 112.936 22.8545C112.936 15.8507 116.991 14.5606 118.65 15.1135C118.65 15.1135 118.65 16.4037 118.834 18.0625C119.019 19.7213 119.019 21.3801 119.019 21.3801C119.203 21.7487 117.729 25.8035 115.333 25.8035ZM102.615 15.4821C102.615 15.4821 102.246 25.8035 98.1916 25.8035C96.1642 25.8035 96.1642 23.7761 96.1642 23.0389C95.9799 15.6664 101.878 14.3762 102.615 15.4821ZM65.0157 26.1721C62.6196 26.1721 61.8824 23.9604 61.8824 21.933C61.8824 18.0625 64.0941 15.1135 66.1215 15.1135C68.1489 15.1135 68.7019 17.6938 68.7019 19.3526C68.8862 23.0389 67.0431 26.1721 65.0157 26.1721ZM25.5731 15.2978C27.9692 13.639 29.075 15.8507 28.1535 17.1409C26.679 18.984 25.0202 20.4585 22.9928 21.3801C22.4398 19.1683 23.5457 16.7723 25.5731 15.2978ZM124.548 28.1996C126.391 28.1996 128.05 27.6466 129.34 26.3565C130.446 27.8309 132.473 28.7525 134.317 28.5682C137.081 28.3839 139.477 27.0937 141.136 24.882C142.058 23.7761 142.242 23.2232 141.689 22.8545C141.32 22.4859 140.583 23.0389 139.846 23.5918C138.556 24.6977 136.897 25.4349 135.054 25.6192C133.948 25.6192 132.658 25.2506 131.921 24.329C136.344 21.7487 139.662 18.7997 139.662 16.2194C139.846 14.0076 138.003 12.1645 135.791 11.9802C135.607 11.9802 135.422 11.9802 135.238 11.9802C130.63 12.1645 126.944 16.2194 127.128 20.8271C127.128 21.933 127.313 23.0389 127.681 24.1447C127.681 24.1447 126.944 25.2506 124.548 25.0663C122.152 24.882 122.152 20.4585 122.152 20.4585L123.258 18.4311C125.654 14.7449 127.313 10.3214 127.866 5.89795C128.234 4.05484 127.681 2.21173 126.391 0.737244C126.207 0.368622 125.285 0 124.364 0C121.415 0 119.387 2.94897 118.834 5.89795C118.466 8.29399 118.466 10.69 118.466 13.0861C116.623 12.7175 114.595 13.0861 113.121 14.1919C111.093 15.8507 109.619 18.0625 109.25 20.6428C109.066 21.3801 109.066 22.1173 109.066 22.8545C109.066 23.2232 109.25 23.9604 109.25 23.9604C109.25 23.9604 108.329 25.8035 106.854 25.8035C104.274 25.8035 105.933 14.3762 106.117 13.8233C106.301 13.2704 106.486 12.3488 104.642 12.1645C103.537 12.1645 103.168 12.3488 103.168 12.9018V13.4547C103.168 13.4547 99.4818 11.0587 95.4269 15.2978C93.3995 17.5095 92.2937 20.6428 92.2937 23.5918V23.9604C92.2937 23.9604 91.3721 26.5408 89.3447 26.1721C87.8702 25.9878 87.8702 23.4075 87.8702 22.4859C87.8702 20.6428 88.2388 18.7997 88.6074 17.1409C88.7918 16.4037 88.9761 15.4821 88.9761 14.7449C88.9761 13.0861 88.4231 12.3488 87.3173 12.3488C85.8428 12.3488 84.3683 13.639 82.7095 15.4821C81.235 17.3252 80.1291 19.3526 79.2076 21.5644C79.2076 21.5644 79.2076 20.8271 79.3919 20.2742C79.3919 19.9056 79.5762 17.8782 79.9448 16.2194C80.1292 15.2978 80.1291 14.3762 80.1291 14.3762C80.1291 14.0076 80.1291 13.4547 79.7605 13.2704C79.3919 12.9018 79.0233 12.7175 78.6547 12.7175C77.7331 12.7175 76.8115 13.4547 76.6272 14.3762C76.4429 14.9292 76.2586 15.4821 76.2586 16.035L75.89 16.588L75.3371 16.2194C73.1253 14.0076 69.9921 12.5331 66.8588 12.5331C61.3294 12.5331 58.3805 17.3252 58.3805 21.933C58.3805 22.4859 58.3805 23.0389 58.5648 23.4075V23.5918C58.5648 23.5918 57.4589 26.1721 55.4315 25.8035C54.5099 25.6192 53.957 24.6977 53.957 22.4859C53.957 20.6428 54.3256 18.6154 54.6943 16.7723C54.6943 16.2194 54.8786 15.8507 54.8786 15.6664V15.2978C55.0629 13.8233 55.0629 12.9018 54.5099 12.5331C54.1413 12.3488 53.5884 12.1645 53.2198 12.1645C52.8511 12.1645 52.4825 12.3488 52.1139 12.5331C50.0865 14.7449 48.4277 17.1409 46.9532 19.7213C46.9532 19.7213 46.9532 19.7213 46.9532 19.9056L46.5846 20.4585L45.8473 22.1173L46.216 19.7213V19.537C46.216 19.1683 46.4003 18.4311 46.4003 18.0625L46.5846 17.5095C46.7689 16.588 47.1375 14.9292 47.3218 14.5606C47.5061 13.8233 47.5061 13.0861 47.1375 12.3488C46.7689 11.9802 46.4003 11.7959 45.8473 11.9802C44.7415 11.9802 43.8199 12.7175 42.3454 15.1135C42.1611 15.4821 41.2396 16.9566 40.5023 18.0625C39.9494 18.984 39.3965 19.7213 38.8435 20.6428L39.0278 18.6154C39.2121 17.6938 39.7651 13.639 39.7651 13.4547C39.7651 12.5331 39.3964 12.1645 38.4749 12.1645C37.7376 12.1645 37.1847 12.3488 36.8161 12.9018C35.7102 15.6664 35.1573 18.6154 34.973 21.5644C34.973 21.5644 31.1025 25.0663 27.0476 25.0663C25.7574 25.2506 24.4673 24.5133 23.9143 23.4075C23.9143 23.4075 26.1261 22.3016 27.2319 21.5644C29.8123 19.7213 31.8397 17.8782 31.8397 15.6664C31.6554 13.4547 29.8123 11.6116 27.4162 11.6116C27.2319 11.6116 27.0476 11.6116 26.8633 11.6116C22.6242 12.5331 19.6752 16.2194 19.6752 20.6428C19.6752 24.882 22.0712 28.0153 26.4947 28.0153C29.628 27.8309 32.5769 26.3565 34.7887 23.9604V25.8035C34.6044 26.7251 35.3416 27.8309 36.2632 28.0153C36.4475 28.0153 36.6318 28.0153 36.8161 28.0153C37.5533 28.0153 38.1063 27.6466 38.4749 26.9094C40.1337 23.5918 41.7925 20.2742 43.6356 17.1409L43.8199 16.9566L44.3728 16.035L45.1101 14.9292L44.5572 17.3252C44.3728 17.8782 43.6356 22.6702 43.4513 24.882C43.267 25.8035 43.4513 26.7251 43.8199 27.4623C44.1885 27.6466 44.5572 27.8309 44.9258 27.8309C46.216 27.8309 46.9532 27.4623 47.1375 26.5408C48.2434 23.2232 49.7179 19.9056 51.3767 16.7723V17.5095L52.4825 15.4821C51.9296 18.2468 51.7453 20.8271 51.561 23.5918C51.561 25.0663 51.9296 28.0153 54.1413 28.5682C57.6432 29.3054 59.8549 25.8035 59.8549 25.8035L60.0393 26.3565C61.1451 28.0153 62.9882 28.9368 64.8313 28.9368C69.2548 28.9368 72.2038 25.6192 72.2038 20.2742C72.2038 18.4311 71.6508 16.588 70.7293 15.1135C71.8352 15.4821 72.7567 16.035 73.6783 16.588C74.4155 17.1409 75.3371 17.8782 76.0743 18.6154V18.7997C76.0743 18.984 76.0743 19.3526 75.89 19.537C75.7057 20.6428 75.7057 21.5644 75.5214 22.6702C75.3371 23.5918 75.3371 24.5133 75.3371 25.4349C75.3371 25.8035 75.3371 26.3565 75.5214 26.7251C75.5214 27.0937 75.7057 27.4623 75.89 27.8309C76.2586 28.3839 76.8116 28.7525 77.3645 28.7525C78.1017 28.7525 78.6547 28.3839 78.839 27.6466C82.3409 19.9056 85.1055 17.3252 85.2898 16.9566C86.0271 16.2194 85.6585 17.5095 85.6585 17.5095V17.6938C85.4742 18.7997 85.2898 20.0899 85.1055 21.1958C84.9212 21.933 84.9212 22.6702 84.9212 23.5918C84.9212 25.8035 85.4742 28.1996 88.0545 28.7525C89.8976 29.1211 91.925 28.3839 92.8466 26.5408C93.7682 28.0153 95.4269 28.9368 97.2701 28.9368C99.6661 29.1211 102.062 27.8309 103.168 25.6192C103.721 27.6466 104.458 28.7525 106.486 28.7525C107.96 28.5682 109.435 27.6466 110.172 26.3565C111.093 28.0153 112.752 28.9368 114.595 28.9368C116.807 28.9368 118.834 27.8309 120.125 26.1721L120.493 25.6192C121.23 26.9094 122.705 28.0153 124.548 28.1996ZM5.29894 27.4623C2.16565 27.278 1.98134 24.882 4.93032 24.329C6.58911 23.9604 8.24791 24.1447 9.90671 24.6977C9.16947 26.5408 7.32636 27.8309 5.29894 27.4623ZM19.4909 3.3176C21.334 3.50191 21.1497 5.89795 20.7811 7.55675C19.3066 12.1645 15.8047 12.1645 15.8047 12.1645C15.8047 12.1645 16.9105 3.13328 19.4909 3.3176ZM14.6988 19.7213C15.0674 16.9566 15.436 14.3762 15.436 14.3762C19.3066 14.1919 22.4398 11.4273 23.3614 7.74106C24.4673 3.87053 22.8085 0.552933 19.4909 0.368622C16.1733 0.184311 13.2243 3.13328 11.9341 12.1645C9.90671 11.7959 8.24791 10.8743 7.14205 9.21554C6.4048 7.92537 5.29894 8.66261 5.66756 9.76848C6.77342 13.639 11.7498 14.3762 11.7498 14.3762C11.7498 14.3762 11.5655 15.8507 11.1969 18.0625C10.8283 20.2742 10.4596 22.6702 10.4596 22.6702C8.24791 22.1173 6.03618 22.1173 4.00876 22.4859C-1.15194 23.5918 -1.70488 29.6741 4.56169 30.227C11.9341 30.9642 13.2243 25.9878 13.2243 25.9878C14.5145 26.7251 15.6203 27.4623 16.7262 28.3839C18.9379 30.4113 20.0438 31.5172 20.5967 31.1485C21.1497 30.7799 20.0438 28.9368 17.8321 26.9094C16.7262 25.6192 15.2517 24.6977 13.7772 23.9604C13.7772 23.9604 14.1459 22.3016 14.6988 19.7213Z" fill="white"></path></svg> 