<?xml version="1.0" encoding="UTF-8"?> <svg xmlns="http://www.w3.org/2000/svg" width="124" height="37" viewBox="0 0 124 37" fill="none"><path d="M59.6591 28.1895H55.8916C55.8747 28.1895 55.8646 28.1861 55.8545 28.1743L52.6083 24.2133L49.3587 28.1743C49.352 28.1861 49.3402 28.1895 49.3233 28.1895H46.3066C46.288 28.1895 46.2745 28.181 46.261 28.1608C46.256 28.149 46.256 28.1271 46.2678 28.1136L51.0493 22.2463L46.3235 16.4346C46.31 16.4144 46.31 16.3975 46.315 16.379C46.3235 16.3689 46.342 16.352 46.3572 16.352H50.1264C50.1382 16.352 50.1517 16.3587 50.1618 16.3756L53.0099 19.9017L55.9085 16.3739C55.9169 16.3587 55.9304 16.352 55.9439 16.352H59.0163C59.0349 16.352 59.0534 16.3689 59.0602 16.379C59.0686 16.3975 59.0652 16.4177 59.0534 16.4346L54.5671 21.8165L59.6912 28.1136C59.7047 28.1271 59.7098 28.149 59.6996 28.1608C59.6912 28.181 59.6743 28.1895 59.6591 28.1895Z" fill="white"></path><path d="M80.0531 18.4376C78.3844 18.4376 77.2456 19.4489 76.9199 21.2069H82.5957V21.094C82.5957 19.6865 81.5581 18.4376 80.0531 18.4376ZM85.523 23.0104C85.5146 23.0239 85.4977 23.0323 85.4825 23.0323H76.8592C77.038 25.0381 78.3422 26.1809 80.4529 26.1809C81.7521 26.1809 83.1322 25.7376 85.0826 24.701C85.1181 24.6808 85.1535 24.7111 85.1535 24.7482L85.1501 27.3978C85.1467 27.4197 85.1366 27.4332 85.1214 27.4383C83.3077 28.2018 81.4855 28.7227 80.0531 28.7227C76.3395 28.7227 73.6484 26.0191 73.6484 22.2957C73.6484 18.5724 76.3395 15.8688 80.0531 15.8688C83.441 15.8688 85.6175 18.1493 85.6175 21.2861C85.6175 21.7935 85.5297 22.9733 85.523 23.0104Z" fill="white"></path><path d="M103.039 13.9075C101.981 13.9075 101.121 13.0614 101.121 12.0197C101.121 10.9477 101.981 10.0797 103.039 10.0797C104.097 10.0797 104.959 10.9477 104.959 12.0197C104.959 13.0614 104.097 13.9075 103.039 13.9075ZM101.49 28.189C101.46 28.189 101.441 28.1704 101.441 28.1401V16.4004C101.441 16.3768 101.458 16.3583 101.479 16.3532H104.593C104.618 16.3583 104.632 16.3768 104.632 16.4004V28.1401C104.632 28.1704 104.612 28.189 104.586 28.189H101.49Z" fill="white"></path><path d="M65.3567 26.4207C64.7948 26.4207 64.2195 26.3415 63.5581 26.1645L63.5649 18.6336C64.3393 18.3875 65.0125 18.2712 65.6789 18.2712C67.8386 18.2712 69.2879 19.8623 69.2879 22.2254C69.2879 24.774 67.7441 26.4207 65.3567 26.4207ZM66.2037 15.871C65.3246 15.871 64.4372 16.0311 63.5058 16.3514H60.4064C60.3811 16.3514 60.3626 16.3733 60.3626 16.4003V35.6523C61.299 35.5242 62.4463 35.1905 63.5598 34.3983L63.5581 28.5428C64.3224 28.6507 64.9534 28.7231 65.5625 28.7231C69.8075 28.7231 72.5543 26.1814 72.5543 22.2457C72.5543 18.4937 69.9408 15.871 66.2037 15.871Z" fill="white"></path><path d="M95.8177 25.4467C94.8475 25.9557 93.9803 26.1967 93.1654 26.1967C91.2436 26.1967 90.0913 24.8399 90.0913 22.5678C90.0913 19.9384 91.5625 18.2377 93.8369 18.2377C94.4645 18.2377 95.0753 18.3911 95.8177 18.7265V25.4467ZM95.8177 10.1371V16.2825C94.9083 16.0229 94.1068 15.9032 93.2987 15.9032C89.6054 15.9032 86.8164 18.6844 86.8164 22.379C86.8164 26.0569 89.2764 28.7234 92.6609 28.7234C93.8335 28.7234 94.9302 28.4301 96.2209 27.766L96.2192 28.8262C97.0713 28.6644 98.0498 28.3239 99.0149 27.6412V8.87965C98.0667 9.00606 96.943 9.32294 95.8177 10.1371Z" fill="white"></path><path d="M115.423 25.4226C114.485 25.9637 113.68 26.2232 112.961 26.2232C110.903 26.2232 109.669 24.8714 109.669 22.5909C109.669 20.0003 111.122 18.2625 113.282 18.2625C113.86 18.2625 114.562 18.4833 115.423 18.9384V25.4226ZM118.623 16.2095C118.623 16.137 118.561 16.0797 118.49 16.0797L115.973 16.0831C115.899 16.0831 115.836 16.1472 115.836 16.218V16.6461H115.772C114.61 16.137 113.619 15.9028 112.642 15.9028C109.16 15.9028 106.43 18.7867 106.43 22.483C106.43 26.2199 108.873 28.7246 112.509 28.7246C113.483 28.7246 114.729 28.6571 115.897 27.3155V28.8257C116.722 28.6504 117.695 28.2998 118.62 27.6357L118.623 16.2095Z" fill="white"></path><path d="M37.6904 25.251L45.509 25.2477C45.3909 26.1208 45.0956 27.1422 44.4173 28.1838H37.709H36.3727H36.2833C35.2879 28.1838 34.4696 27.4136 34.3717 26.4393C34.3667 26.4241 34.3616 26.4107 34.3599 26.3972V18.3977V10.9932C34.3616 10.9814 34.3667 10.9645 34.3717 10.9544C34.4696 9.97847 35.2879 9.20481 36.2833 9.20481C36.3154 9.20481 36.3457 9.20818 36.3727 9.20818L45.4921 9.2065C45.3723 10.0779 45.077 11.1263 44.4005 12.1646H37.6904V16.3582H44.333C44.36 16.3582 44.3802 16.3767 44.3802 16.4037V19.3129C44.3802 19.3365 44.36 19.3584 44.333 19.3584H37.6904V25.2477V25.251Z" fill="white"></path><path d="M27.9015 28.4276C27.1287 28.4276 26.6512 27.8242 26.6512 27.0859C26.6512 26.2954 27.1979 25.7442 27.9015 25.7442C28.5983 25.7442 29.1432 26.2954 29.1432 27.0859C29.1432 27.8781 28.5983 28.4276 27.9015 28.4276ZM27.9015 25.5925C27.1102 25.5925 26.4336 26.1875 26.4336 27.0859C26.4336 27.9354 27.0444 28.5742 27.9015 28.5742C28.6826 28.5742 29.3626 27.9826 29.3626 27.0859C29.3626 26.1875 28.6826 25.5925 27.9015 25.5925Z" fill="white"></path><path d="M27.5512 26.9639V26.4195H27.919C28.1046 26.4195 28.3239 26.4481 28.3239 26.674C28.3239 26.942 28.1215 26.9639 27.8903 26.9639H27.5512ZM28.5956 26.7094C28.5956 26.3538 28.3762 26.2021 27.9511 26.2021H27.2812V27.9668H27.5731V27.2117H27.8431L28.3003 27.9668H28.6293L28.1333 27.1915C28.4016 27.1594 28.5956 27.0296 28.5956 26.7094Z" fill="white"></path><path d="M121.194 18.3055C120.421 18.3055 119.941 17.7021 119.941 16.9638C119.941 16.1733 120.489 15.6222 121.194 15.6222C121.889 15.6222 122.436 16.1733 122.436 16.9638C122.436 17.756 121.889 18.3055 121.194 18.3055ZM121.194 15.4705C120.403 15.4705 119.726 16.0654 119.726 16.9638C119.726 17.8133 120.335 18.4521 121.194 18.4521C121.974 18.4521 122.652 17.8588 122.652 16.9638C122.652 16.0654 121.974 15.4705 121.194 15.4705Z" fill="white"></path><path d="M120.84 16.8409V16.2981H121.208C121.394 16.2981 121.613 16.3251 121.613 16.551C121.613 16.8206 121.409 16.8409 121.181 16.8409H120.84ZM121.885 16.5863C121.885 16.2307 121.665 16.079 121.24 16.079H120.57V17.8438H120.859V17.0903H121.132L121.589 17.8438H121.917L121.422 17.0684C121.689 17.0381 121.885 16.9066 121.885 16.5863Z" fill="white"></path><path d="M17.8181 12.1502L17.2512 10.5473L12.4427 4.12714L13.3065 3.91308L21.5975 11.0732L26.4769 9.67927C27.0505 9.53094 27.7018 9.49891 28.1978 9.50229C26.6642 6.19865 23.8583 3.48664 20.1532 2.16856C12.8291 -0.438951 4.77602 3.38382 2.17097 10.7041C1.36448 12.9677 1.17214 15.3039 1.51127 17.5254L13.2002 13.4683L17.8181 12.1502Z" fill="white"></path><path d="M28.7114 10.7674C28.2828 11.0455 27.6535 11.4096 27.0292 11.6102L22.1397 13.0041L18.8767 23.4678L18.0297 23.7426L18.7181 15.7515L18.3334 14.0912L13.7509 15.3975L1.64015 18.2461C2.59849 22.9032 5.89866 26.9586 10.7089 28.671C18.0347 31.2786 26.0844 27.4541 28.6894 20.1389C29.8131 16.9853 29.7406 13.6951 28.7114 10.7674Z" fill="white"></path><path d="M18.3331 14.0925L18.7195 15.7511L18.0294 23.7422L18.8764 23.4674L22.1394 13.0054L27.029 11.6115C27.6532 11.4109 28.2826 11.0434 28.7111 10.7687C28.5609 10.3389 28.3889 9.91581 28.1982 9.50286C27.7022 9.49949 27.0509 9.5332 26.4772 9.67816L21.5978 11.0755L13.3052 3.91197L12.4431 4.12772L17.2499 10.5479L17.8185 12.1491L13.1989 13.4706L1.51165 17.5243C1.54877 17.767 1.59095 18.008 1.63988 18.2474L13.7523 15.3988L18.3331 14.0925Z" fill="#1F1F24"></path></svg> 