<?xml version="1.0" encoding="UTF-8"?> <svg xmlns="http://www.w3.org/2000/svg" width="116" height="25" viewBox="0 0 116 25" fill="none"><path fill-rule="evenodd" clip-rule="evenodd" d="M40.8554 11.3838L42.9545 11.8392L42.9445 11.8338C45.3704 12.3693 46.761 13.8831 46.761 15.9902C46.761 18.4854 44.5808 20.368 41.6899 20.368C38.2688 20.368 36.6483 18.2641 36.2698 16.2917C36.2189 16.0199 36.3805 15.7533 36.645 15.6727L37.8606 15.2846C38.011 15.2367 38.1748 15.2556 38.3103 15.3366C38.4459 15.4176 38.5402 15.5528 38.5693 15.708C38.797 16.8978 39.7303 18.1679 41.6674 18.1679C43.3159 18.1679 44.339 17.3949 44.339 16.1506C44.339 15.1756 43.6193 14.4412 42.4147 14.1878L40.4134 13.7516C38.1598 13.2609 36.815 11.7472 36.815 9.69779C36.815 7.31328 39.0376 5.29919 41.6706 5.29919C45.2274 5.29919 46.2761 7.634 46.5615 8.63783C46.6427 8.91897 46.4909 9.21468 46.2152 9.31261L45.1087 9.70292C44.9644 9.75328 44.8136 9.74301 44.6789 9.67406C44.541 9.60511 44.4384 9.48003 44.3967 9.3325C44.2652 8.88863 43.6847 7.44221 41.7187 7.44221C40.298 7.44221 39.2268 8.3524 39.2268 9.55892C39.2268 10.5082 39.805 11.1561 40.8554 11.3838ZM55.3466 13.8447C55.3594 13.8318 55.3787 13.7998 55.3723 13.7581L55.37 13.7526C55.1888 12.5843 54.3059 11.8883 53.0079 11.8883C51.6866 11.8883 50.8896 12.8254 50.686 13.7549C50.6795 13.7857 50.6878 13.8177 50.7084 13.8415C50.7306 13.8698 50.7645 13.8864 50.8005 13.8864H55.2584C55.2926 13.8866 55.3251 13.8713 55.3466 13.8447ZM52.9905 9.80694C50.6429 9.80694 48.215 11.7697 48.215 15.057C48.215 16.6414 48.7346 17.9948 49.7192 18.9665C50.6313 19.8678 51.8776 20.3649 53.2278 20.3649C55.2387 20.3649 56.8679 19.3142 57.5863 17.5554C57.6441 17.4111 57.6408 17.2507 57.5786 17.1096C57.5166 16.9712 57.3999 16.8648 57.2563 16.8158L56.2749 16.4759C56.0025 16.3823 55.704 16.514 55.5896 16.7783C55.1662 17.7757 54.3708 18.2793 53.2259 18.2793C51.8404 18.2793 50.7853 17.346 50.6024 15.9563C50.5978 15.9248 50.6078 15.8929 50.6297 15.8697C50.6425 15.8537 50.6714 15.828 50.7163 15.828H57.2217C57.5135 15.828 57.7573 15.6003 57.7733 15.3098C57.7797 15.2168 57.7829 15.1141 57.7829 15.0128C57.7829 11.7992 55.9452 9.80341 52.9882 9.80341L52.9905 9.80694ZM61.5341 14.7779C61.5341 16.5226 62.5059 17.6066 64.0678 17.6066L64.0675 17.6053C65.5585 17.6053 66.561 16.4681 66.561 14.7766C66.561 13.0833 65.5591 11.9479 64.0678 11.9479C62.5284 11.9479 61.5341 13.0589 61.5341 14.7779ZM68.2309 10.1017H67.0539C66.7492 10.1017 66.5006 10.3496 66.5006 10.6694C66.5004 10.7156 66.4727 10.7572 66.4301 10.7752C66.4076 10.7848 66.3627 10.7977 66.3223 10.7592C65.7162 10.205 64.8631 9.92372 63.7887 9.92372C61.1258 9.92372 59.1928 11.9667 59.1928 14.7793C59.1928 17.5798 61.1258 19.6125 63.7887 19.6125C64.7733 19.6125 65.6649 19.2892 66.2999 18.7023C66.3416 18.6638 66.3865 18.6735 66.4089 18.6831C66.4249 18.6895 66.4795 18.7184 66.4795 18.7889V19.193C66.4795 21.1494 65.6232 22.0618 63.7887 22.0618C62.6245 22.0618 61.7104 21.3402 61.4635 20.2247C61.4314 20.0804 61.3448 19.9586 61.2197 19.8806C61.0947 19.8027 60.9439 19.778 60.7996 19.8101L59.6438 20.0763C59.3485 20.1465 59.1639 20.4404 59.2288 20.7369C59.6425 22.7638 61.4757 24.1269 63.7861 24.1269C65.5083 24.1269 66.8201 23.6025 67.686 22.5682C68.4012 21.7132 68.7796 20.5262 68.7796 19.1356V10.6633C68.7796 10.3586 68.5327 10.1117 68.228 10.1117L68.2309 10.1017ZM79.1605 11.2487C79.8632 10.3161 80.9225 9.82472 82.2246 9.82472V9.83498C83.9693 9.83498 85.73 11.0226 85.73 13.6781V19.5247C85.73 19.8294 85.4831 20.0776 85.1784 20.0776H84.0014C83.6967 20.0776 83.4497 19.8307 83.4497 19.526V13.8782C83.4497 13.147 83.2166 11.9187 81.6505 11.9187C80.4863 11.9187 79.6717 12.8135 79.6717 14.095V19.5244C79.6717 19.8291 79.4248 20.0773 79.1201 20.0773H77.9229C77.6182 20.0773 77.3712 19.8304 77.3712 19.5257V13.8779C77.3712 13.1467 77.1371 11.9193 75.572 11.9193C74.3758 11.9193 73.574 12.8016 73.574 14.1143V19.5161C73.574 19.8207 73.327 20.0696 73.0223 20.0696H71.8453C71.5406 20.0696 71.2924 19.822 71.2924 19.5173V10.656C71.2924 10.3513 71.5394 10.1044 71.844 10.1044H72.962C73.2667 10.1044 73.515 10.3513 73.515 10.656C73.5132 10.6995 73.5388 10.7395 73.5791 10.7561C73.6203 10.7756 73.6694 10.7666 73.701 10.7336C74.3386 10.1554 75.2439 9.82439 76.1859 9.82439C77.3699 9.82439 78.3869 10.3472 78.9761 11.258C78.9921 11.2852 79.0215 11.3017 79.0531 11.3013C79.0956 11.3037 79.1363 11.2838 79.1605 11.2487ZM90.1807 13.8939C90.1449 13.8937 90.1111 13.8775 90.0887 13.8496C90.0689 13.8259 90.0611 13.7945 90.0675 13.7643C90.2715 12.8342 91.0681 11.8977 92.3908 11.8977C93.6884 11.8977 94.5716 12.5937 94.7525 13.7611C94.7589 13.8028 94.7387 13.8348 94.7268 13.8477C94.7038 13.8718 94.672 13.8856 94.6387 13.8862H90.1807V13.8939ZM87.5965 15.0645C87.5965 11.7785 90.0244 9.81443 92.372 9.81443L92.3649 9.79903C95.3219 9.79903 97.1596 11.7971 97.1596 15.0106C97.1596 15.1133 97.1554 15.2159 97.15 15.3089C97.133 15.5998 96.8902 15.8275 96.5984 15.8275H90.0911C90.0462 15.8275 90.0173 15.8516 90.0045 15.8676C89.9833 15.8919 89.9739 15.9243 89.9788 15.9561C90.1616 17.3461 91.2168 18.2813 92.6023 18.2813C93.7472 18.2813 94.5426 17.7752 94.9659 16.7803C95.0775 16.5167 95.379 16.3843 95.6516 16.4782L96.633 16.8175C96.7773 16.8689 96.8928 16.9715 96.9569 17.1126C97.0211 17.2537 97.0243 17.4141 96.9665 17.5584C96.2449 19.3191 94.6157 20.3711 92.608 20.3711C91.2546 20.3711 90.0102 19.8772 89.0994 18.976C88.1161 18.0032 87.5965 16.6508 87.5965 15.0645ZM104.164 9.83468C103.168 9.83468 102.295 10.174 101.64 10.8161C101.609 10.847 101.562 10.856 101.522 10.8385C101.481 10.8205 101.455 10.7796 101.455 10.7346V10.6641C101.455 10.3594 101.207 10.1124 100.902 10.1124H99.7476C99.443 10.1124 99.1947 10.3594 99.1947 10.6641V19.5238C99.1947 19.8285 99.4417 20.0764 99.7463 20.0764H100.943C101.247 20.0764 101.496 19.8278 101.496 19.5231V14.351C101.496 13.1938 102.02 11.9572 103.494 11.9572C104.818 11.9572 105.491 12.6894 105.491 14.1332V19.5212C105.491 19.8259 105.738 20.0729 106.042 20.0729H107.239C107.543 20.0729 107.791 19.8227 107.791 19.518V13.816C107.791 11.3594 106.4 9.83276 104.164 9.83276L104.164 9.83468ZM114.761 12.2343H113.366L113.371 12.2324C113.31 12.2324 113.258 12.2824 113.258 12.344V16.9623C113.258 17.7544 113.56 18.0495 114.365 18.0495C114.46 18.0495 114.581 18.0421 114.706 18.0293C114.862 18.0127 115.018 18.063 115.134 18.1677C115.251 18.2725 115.318 18.4219 115.318 18.5787V19.5213C115.318 19.781 115.142 20.0023 114.892 20.0601C114.707 20.1018 114.323 20.1723 113.829 20.1723C112.057 20.1723 110.955 19.0498 110.955 17.241V12.3437C110.955 12.2795 110.906 12.2314 110.843 12.2314H109.685C109.381 12.2314 109.134 11.9845 109.134 11.6798V10.6631C109.134 10.3584 109.381 10.1115 109.685 10.1115H109.863C110.892 10.1115 111.109 9.43383 111.109 8.86616V7.65386C111.109 7.34918 111.356 7.10159 111.661 7.10159H112.7C113.005 7.10159 113.253 7.34918 113.253 7.65386V9.99957C113.253 10.0616 113.304 10.1118 113.366 10.1118H114.761C115.066 10.1118 115.312 10.3588 115.312 10.6634V11.6814C115.312 11.9858 115.066 12.2343 114.761 12.2343Z" fill="white"></path><mask id="mask0" maskUnits="userSpaceOnUse" x="0" y="14" width="26" height="11"><path fill-rule="evenodd" clip-rule="evenodd" d="M25.2729 24.7808H0V14.3752H25.2729V24.7808Z" fill="white"></path></mask><g mask="url(#mask0)"><path d="M16.6542 16.9427H1.28359C0.574811 16.9427 0.000732422 16.3686 0.000732422 15.6598C0.000732422 14.951 0.574811 14.377 1.28359 14.377H16.6542C17.3629 14.377 17.937 14.951 17.937 15.6598C17.937 16.3686 17.3629 16.9427 16.6542 16.9427Z" fill="white"></path></g><mask id="mask1" maskUnits="userSpaceOnUse" x="0" y="14" width="26" height="11"><path fill-rule="evenodd" clip-rule="evenodd" d="M25.2729 24.7808H0V14.3752H25.2729V24.7808Z" fill="white"></path></mask><g mask="url(#mask1)"><path d="M13.3584 24.7999C12.1064 24.7999 10.8697 24.6139 9.68303 24.2461C9.00637 24.0364 8.62776 23.3179 8.83731 22.6412C9.04706 21.9613 9.76738 21.5828 10.4425 21.7945C11.3828 22.0864 12.3636 22.2339 13.3584 22.2339C17.7115 22.2339 21.4911 19.4405 22.764 15.2808C22.8635 14.9555 23.0883 14.6831 23.3888 14.5237C23.6893 14.3643 24.0408 14.3309 24.366 14.4309C25.0433 14.6362 25.4243 15.3546 25.2172 16.0313C23.6123 21.2753 18.8465 24.7999 13.3584 24.7999Z" fill="white"></path></g><path d="M25.4337 10.4244H10.0638C9.35504 10.4244 8.78096 9.85028 8.78096 9.1415C8.78096 8.43272 9.35504 7.85864 10.0638 7.85864H25.4337C26.1425 7.85864 26.7166 8.43272 26.7166 9.1415C26.7166 9.85028 26.1425 10.4244 25.4337 10.4244Z" fill="white"></path><path d="M2.72564 10.4245C2.31876 10.4246 1.93597 10.2316 1.69403 9.90445C1.45209 9.57731 1.37969 9.15479 1.49891 8.76577C3.10408 3.52209 7.8699 0 13.3573 0C14.6104 0 15.847 0.186014 17.0327 0.554195C17.3577 0.654887 17.6294 0.880578 17.788 1.18161C17.9467 1.48265 17.9792 1.83436 17.8784 2.15937C17.778 2.48458 17.5524 2.75649 17.2512 2.91509C16.9501 3.0737 16.5982 3.10596 16.2733 3.00477C15.3336 2.71613 14.3522 2.5686 13.3573 2.5686C9.00523 2.5686 5.22497 5.36202 3.95205 9.52169C3.7869 10.0606 3.28958 10.4287 2.72596 10.4293" fill="white"></path><path fill-rule="evenodd" clip-rule="evenodd" d="M20.9694 5.53569C21.6779 5.53569 22.2522 4.96133 22.2522 4.25283C22.2522 3.54433 21.6779 2.96997 20.9694 2.96997C20.2608 2.96997 19.6865 3.54433 19.6865 4.25283C19.6865 4.96133 20.2608 5.53569 20.9694 5.53569ZM5.74238 21.8323C6.45088 21.8323 7.02523 21.2579 7.02523 20.5494C7.02523 19.8409 6.45088 19.2665 5.74238 19.2665C5.03387 19.2665 4.45952 19.8409 4.45952 20.5494C4.45952 21.2579 5.03387 21.8323 5.74238 21.8323Z" fill="white"></path></svg> 