<?xml version="1.0" encoding="UTF-8"?> <!-- Generator: Adobe Illustrator 23.0.1, SVG Export Plug-In . SVG Version: 6.00 Build 0) --> <svg xmlns="http://www.w3.org/2000/svg" xmlns:xlink="http://www.w3.org/1999/xlink" id="Layer_1" x="0px" y="0px" viewBox="0 0 112 36.8" style="enable-background:new 0 0 112 36.8;" xml:space="preserve"> <style type="text/css"> .st0{fill:#FFFFFF;} </style> <path class="st0" d="M9.7,31.9c0,2.7-2.2,4.9-4.9,4.9S0,34.6,0,31.9s2.2-4.9,4.9-4.9S9.7,29.2,9.7,31.9"></path> <path class="st0" d="M26,32c0,1.9-1.6,3.5-3.5,3.5S19,33.9,19,32s1.6-3.5,3.5-3.5S26,30.1,26,32"></path> <path class="st0" d="M38.5,32c0,0.9-0.7,1.6-1.6,1.6s-1.6-0.7-1.6-1.6c0-0.9,0.7-1.6,1.6-1.6S38.5,31.2,38.5,32"></path> <path class="st0" d="M21.5,21.7c-0.9,0-1.5-0.7-1.5-1.5v-6.4c0-2.2-1-3.9-3.4-3.9s-3.8,1.8-3.8,3.9v6.3c0,0.9-0.6,1.5-1.5,1.5 s-1.5-0.7-1.5-1.5v-6.4c0-2.2-1.1-3.9-3.5-3.9c-2.4,0-3.6,1.8-3.6,3.9V20c0,0.9-0.6,1.5-1.5,1.5s-1.5-0.7-1.5-1.5V8.9 c0-0.9,0.6-1.6,1.5-1.6c1,0,1.5,0.7,1.5,1.6v1c0.9-1.6,2.6-2.7,4.5-2.7c2.3,0,4,1.1,4.9,2.9c1.2-1.9,3-2.9,5.3-2.9 c3.8,0,5.7,2.7,5.7,6.4v6.6C23.1,21,22.5,21.7,21.5,21.7"></path> <path class="st0" d="M27.3,21.7c-0.9,0-1.5-0.7-1.5-1.5V8.9c0-0.9,0.6-1.5,1.5-1.5c0.9,0,1.5,0.7,1.5,1.5v11.4 C28.7,21,28.1,21.7,27.3,21.7z M27.3,1.6c1,0,1.7,0.8,1.7,1.7s-0.8,1.7-1.7,1.7c-1,0-1.7-0.8-1.7-1.7S26.3,1.6,27.3,1.6L27.3,1.6z"></path> <path class="st0" d="M37.1,12.5L41,7.8c0.3-0.3,0.6-0.4,1-0.4c0.9,0,1.4,0.5,1.4,1.3c0,0.3-0.1,0.6-0.3,0.9l-4.2,4.9l4.3,5 c0.3,0.3,0.3,0.5,0.3,0.9c0,0.7-0.6,1.3-1.3,1.3c-0.4,0-0.8-0.2-1-0.5l-3.8-4.8l-3.8,4.8c-0.3,0.3-0.6,0.5-1,0.5 c-0.7,0-1.3-0.6-1.3-1.3c0-0.3,0.1-0.6,0.3-0.9l4.3-5l-4.2-4.9c-0.3-0.3-0.3-0.6-0.3-0.9c0-0.8,0.5-1.3,1.4-1.3c0.4,0,0.7,0.2,1,0.4 L37.1,12.5"></path> <path class="st0" d="M52.9,9.7c-2.6,0-4.3,2.3-4.3,4.9c0,2.5,1.7,4.9,4.3,4.9c2.6,0,4.3-1.9,4.3-4.9S55.5,9.7,52.9,9.7z M53.5,21.9 c-2.2,0-3.9-1.1-4.9-2.8v7.1c0,0.9-0.6,1.5-1.5,1.5s-1.5-0.7-1.5-1.5V8.9c0-0.9,0.5-1.5,1.4-1.5c0.9,0,1.5,0.7,1.5,1.6v1.1 c1-1.6,2.9-2.8,4.9-2.8c3.6,0,6.6,3,6.6,7.3C60.1,18.9,57.1,21.9,53.5,21.9L53.5,21.9z"></path> <path class="st0" d="M68.6,9.8c-2.5,0-4.3,2.2-4.3,4.8c0,2.8,1.5,4.8,4.3,4.8c2.6,0,4.3-2.3,4.3-4.8C72.8,11.5,71.1,9.8,68.6,9.8z M75.9,20.2c0,0.9-0.6,1.5-1.5,1.5c-0.9,0-1.5-0.7-1.5-1.5v-0.7c-0.9,1.3-2.6,2.3-4.6,2.3c-4.4,0-7-3.3-7-7.3s2.9-7.3,7.4-7.3 c4.6,0,7.3,3,7.3,7.3L75.9,20.2L75.9,20.2z"></path> <path class="st0" d="M84.8,7.2c3.8,0,6.7,3,6.7,6.7v6.3c0,0.9-0.7,1.5-1.5,1.5c-0.9,0-1.5-0.7-1.5-1.5v-6.7c0-2-1.6-3.6-3.6-3.6 c-2.1,0-3.6,1.6-3.6,3.6v6.7c0,0.9-0.7,1.5-1.5,1.5c-0.9,0-1.5-0.7-1.5-1.5v-6.3C78.2,10.2,81,7.2,84.8,7.2"></path> <path class="st0" d="M100.4,9.6c-2.2,0-3.6,1.6-4,3.6h7.8C104,11.2,102.6,9.6,100.4,9.6z M107,14.6c0,0.5-0.3,1-1.1,1h-9.5 c0.2,2.2,1.6,3.8,4.3,3.8c1.6,0,2.6-0.6,3.6-1.6c0.3-0.3,0.6-0.5,1-0.5c0.7,0,1.2,0.5,1.2,1.2c0,0.3-0.2,0.6-0.3,0.9 c-1.2,1.4-3.4,2.3-5.6,2.3c-4.8,0-7.2-3.3-7.2-7.3c0-4.2,3-7.3,7.1-7.3C104.4,7.2,107,10.5,107,14.6L107,14.6z"></path> <path class="st0" d="M110.6,21.7c-0.9,0-1.5-0.7-1.5-1.5V1.5c0-0.9,0.6-1.5,1.5-1.5c0.9,0,1.5,0.7,1.5,1.5v18.7 C112,21,111.4,21.7,110.6,21.7"></path> </svg> 