<?xml version="1.0" encoding="UTF-8"?> <svg xmlns="http://www.w3.org/2000/svg" width="171" height="26" viewBox="0 0 171 26" fill="none"><path d="M51.2711 26.0003L97.1955 22.0728H47.2894L51.2711 26.0003Z" fill="white"></path><path d="M51.9103 6.0603V6.66453C50.9993 6.06029 50.1557 5.72461 49.0084 5.72461C45.4992 5.72461 42.8672 8.91364 42.8672 12.8076C42.8672 16.7016 45.5329 19.8906 49.0084 19.8906C50.1557 19.8906 50.9655 19.5549 51.9103 18.9507V19.5549H54.981V6.09387H51.9103V6.0603ZM49.0084 16.6345C47.2875 16.6345 46.0053 14.956 46.0053 12.8076C46.0053 10.6592 47.2538 8.98077 49.0084 8.98077C50.7293 8.98077 51.9441 10.6592 51.9441 12.8076C51.9441 14.9224 50.7293 16.6345 49.0084 16.6345Z" fill="white"></path><path d="M76.5462 6.06055V13.9828C76.5462 15.4598 75.5339 16.7354 74.0154 16.7354C72.5307 16.7354 71.4847 15.4934 71.4847 13.9828V6.06055H68.4141V13.9828C68.4141 17.2389 70.6411 19.8573 73.9142 19.8573C75.4326 19.8573 76.5124 19.0181 76.5124 19.0181V19.5216H79.583V6.06055H76.5462Z" fill="white"></path><path d="M105.193 19.5214V11.5991C105.193 10.1221 106.205 8.8465 107.723 8.8465C109.208 8.8465 110.254 10.0885 110.254 11.5991V19.5214H113.325V11.5991C113.325 8.34297 111.098 5.72461 107.825 5.72461C106.306 5.72461 105.226 6.56383 105.226 6.56383V6.0603H102.156V19.5214H105.193Z" fill="white"></path><path d="M33.9947 19.5214V14.2847H36.2555L40.2034 19.5214H44.2188L39.4611 13.2105C40.9458 12.1363 41.9243 10.4243 41.9243 8.47731C41.9243 5.28828 39.2923 2.66992 36.0867 2.66992H30.7891V19.4879H33.9947V19.5214ZM33.9947 5.89252H36.0867C37.5377 5.89252 38.7187 7.06743 38.7187 8.51088C38.7187 9.95434 37.5377 11.1292 36.0867 11.1292H33.9947V5.89252Z" fill="white"></path><path d="M87.884 16.332C87.6141 16.5335 87.2429 16.6677 86.8717 16.6677C86.3656 16.6677 85.4208 16.2985 85.4208 15.0228V9.24903H88.0527V6.06H85.4208V2.70312H82.3501V6.06H80.7305V9.24903H82.3501V15.0564C82.3501 18.0776 84.6447 19.8568 86.9055 19.8568C87.749 19.8568 88.9301 19.5882 89.9086 19.0175L87.884 16.332Z" fill="white"></path><path d="M63.5874 6.06035L59.9094 10.76V1.5957H56.7375V19.5214H59.9094V14.0161L64.431 19.5214H68.7501L62.6088 12.3713L67.9065 6.06035H63.5874Z" fill="white"></path><path d="M95.0023 5.72461C91.4592 5.72461 88.8947 8.8465 88.8947 12.8076C88.8947 16.9701 92.1003 19.8906 95.3059 19.8906C96.9256 19.8906 99.0177 19.3535 100.739 16.8694L98.0391 15.3253C95.9471 18.4136 92.4378 16.8359 92.0329 13.7475H100.874C101.65 8.91364 98.4778 5.72461 95.0023 5.72461ZM97.668 11.062H92.1341C92.7752 7.90658 97.0943 7.70516 97.668 11.062Z" fill="white"></path><path d="M123.178 18.38L118.218 6.09382C118.15 5.92598 118.083 5.75813 118.049 5.59029C118.015 5.42245 117.981 5.22103 117.981 5.05319C117.981 4.51609 118.15 4.11327 118.521 3.74401C118.892 3.40832 119.331 3.24048 119.905 3.24048C120.31 3.24048 120.647 3.37475 120.883 3.60973C121.153 3.84471 121.389 4.24753 121.592 4.8182L124.966 13.8482L128.206 4.95248C128.408 4.31467 128.678 3.87828 128.948 3.60973C129.218 3.37475 129.589 3.24048 130.028 3.24048C130.601 3.24048 131.04 3.37475 131.344 3.67687C131.647 3.97899 131.816 4.38182 131.816 4.91892C131.816 5.12033 131.782 5.32174 131.749 5.55672C131.715 5.75813 131.647 5.99311 131.58 6.19452L126.788 18.2457C126.586 18.7828 126.316 19.1856 126.046 19.4206C125.742 19.6556 125.371 19.7899 124.932 19.7899C124.494 19.7899 124.156 19.6892 123.886 19.4542C123.65 19.2192 123.414 18.8835 123.178 18.38Z" fill="white"></path><path d="M136.236 17.3059C136.236 18.1451 136.101 18.7493 135.831 19.1522C135.562 19.555 135.123 19.7564 134.583 19.7564C134.009 19.7564 133.571 19.555 133.301 19.1522C133.031 18.7493 132.896 18.1451 132.896 17.3059V10.525C132.896 9.68576 133.031 9.08152 133.301 8.6787C133.571 8.27587 134.009 8.07446 134.583 8.07446C135.157 8.07446 135.562 8.27587 135.831 8.6787C136.101 9.08152 136.236 9.68576 136.236 10.525V17.3059Z" fill="white"></path><path d="M141.365 8.17508C141.77 7.83939 142.209 7.57084 142.681 7.403C143.154 7.23516 143.66 7.13444 144.2 7.13444C145.752 7.13444 147.068 7.73868 148.148 8.98072C149.228 10.1892 149.734 11.7334 149.734 13.5796C149.734 15.3252 149.194 16.8022 148.08 18.0107C147.001 19.2192 145.685 19.857 144.2 19.857C143.592 19.857 143.053 19.7563 142.546 19.5549C142.04 19.3535 141.635 19.0514 141.264 18.6485C141.028 19.0178 140.792 19.3199 140.488 19.5213C140.218 19.7227 139.881 19.8234 139.543 19.8234C138.936 19.8234 138.497 19.622 138.194 19.1856C137.89 18.7492 137.755 18.1114 137.755 17.2051V5.85884C137.755 4.98605 137.89 4.31468 138.194 3.87828C138.497 3.44189 138.936 3.24048 139.543 3.24048C140.151 3.24048 140.623 3.44189 140.893 3.87828C141.197 4.31468 141.332 4.95248 141.332 5.85884V8.17508H141.365ZM141.096 13.5125C141.096 14.486 141.332 15.2916 141.804 15.8623C142.277 16.4666 142.918 16.7687 143.66 16.7687C144.402 16.7687 145.043 16.4666 145.516 15.8623C145.988 15.2581 146.258 14.486 146.258 13.5125C146.258 12.539 146.022 11.7334 145.55 11.1291C145.077 10.5249 144.436 10.2228 143.694 10.2228C142.918 10.2228 142.31 10.5249 141.838 11.1291C141.332 11.7334 141.096 12.539 141.096 13.5125Z" fill="white"></path><path d="M153.783 14.5195C153.85 15.1909 154.357 15.728 154.829 16.0973C155.301 16.4665 155.942 16.6679 156.719 16.6679C157.393 16.6679 158.136 16.4665 158.979 16.0973C159.823 15.6944 160.329 15.5266 160.498 15.5266C160.936 15.5266 161.274 15.6609 161.544 15.9294C161.814 16.198 161.949 16.5336 161.949 16.9365C161.949 17.7086 161.409 18.3799 160.329 19.0177C159.249 19.622 157.967 19.9577 156.516 19.9577C154.728 19.9577 153.243 19.3534 152.062 18.1449C150.881 16.9365 150.274 15.4259 150.274 13.6132C150.274 11.8005 150.847 10.2563 151.995 9.04782C153.142 7.83934 154.593 7.23511 156.314 7.23511C157.967 7.23511 159.384 7.80578 160.498 8.94712C161.611 10.0885 162.185 11.4983 162.185 13.1432C162.185 13.6803 162.05 14.0496 161.814 14.2845C161.578 14.486 161.105 14.6202 160.397 14.6202H153.783V14.5195ZM153.648 12.4047H158.946C158.912 11.7333 158.642 11.0619 158.136 10.592C157.63 10.1556 157.056 9.92061 156.381 9.92061C155.706 9.92061 155.065 10.122 154.593 10.5584C154.087 10.9948 153.783 11.6997 153.648 12.4047Z" fill="white"></path><path d="M163.197 17.138V9.92073C163.197 9.04794 163.332 8.37656 163.636 7.97373C163.94 7.53734 164.378 7.33593 164.986 7.33593C165.357 7.33593 165.66 7.43664 165.964 7.60449C166.234 7.8059 166.504 8.07444 166.706 8.47727C167.078 8.07444 167.483 7.77233 167.887 7.57092C168.292 7.3695 168.731 7.2688 169.136 7.2688C169.642 7.2688 170.047 7.43663 170.418 7.80589C170.789 8.14158 170.958 8.57798 170.958 9.04794C170.958 9.75288 170.283 10.3571 168.967 10.8606C168.495 11.0285 168.124 11.1628 167.887 11.297C167.449 11.4985 167.145 11.7334 166.976 12.002C166.841 12.2705 166.74 12.7405 166.74 13.4119V17.138C166.74 18.0108 166.605 18.6822 166.302 19.1186C165.998 19.555 165.559 19.7564 164.952 19.7564C164.344 19.7564 163.906 19.555 163.602 19.1186C163.366 18.6822 163.197 18.0108 163.197 17.138Z" fill="white"></path><path d="M132.763 5.08683C132.763 4.58328 132.965 4.14686 133.336 3.77759C133.708 3.40832 134.146 3.24048 134.686 3.24048C135.192 3.24048 135.631 3.40832 136.002 3.77759C136.373 4.14686 136.542 4.58328 136.542 5.08683C136.542 5.59038 136.373 6.06036 136.002 6.39606C135.631 6.76533 135.192 6.93318 134.686 6.93318C134.146 6.93318 133.708 6.76533 133.336 6.39606C132.931 6.06036 132.763 5.62395 132.763 5.08683Z" fill="white"></path><path d="M21.6446 2.50194C21.0035 1.93127 18.439 0.051423 12.669 0.0178542C12.669 0.0178542 5.88659 -0.384975 2.57976 2.63621C0.723884 4.48249 0.0827625 7.13443 0.0152762 10.4577C-0.0522101 13.781 -0.153431 19.9913 5.88659 21.7033V24.2881C5.88659 24.2881 5.85285 25.3287 6.52771 25.5301C7.37129 25.7987 7.84369 24.993 8.65352 24.1538C9.09218 23.6838 9.69956 23.0124 10.1382 22.4753C14.2549 22.811 17.4267 22.0389 17.7979 21.9047C18.6415 21.6361 23.3318 21.0319 24.1079 14.8217C24.9177 8.37647 23.7705 4.31465 21.6446 2.50194ZM22.3532 14.3181C21.7121 19.5213 17.8992 19.857 17.1905 20.0584C16.8869 20.1591 14.1199 20.8305 10.6106 20.6291C10.6106 20.6291 8.01241 23.7509 7.16883 24.5902C7.03385 24.7244 6.89888 24.758 6.79765 24.758C6.66268 24.7244 6.62893 24.5566 6.62893 24.3216C6.62893 23.9859 6.66268 20.0248 6.66268 20.0248C1.56747 18.6149 1.87115 13.3111 1.90489 10.5249C1.97238 7.73866 2.47853 5.48955 4.03072 3.94539C6.8314 1.42774 12.6015 1.79699 12.6015 1.79699C17.4605 1.83056 19.7888 3.27402 20.3287 3.77755C22.0833 5.32171 22.9944 8.98071 22.3532 14.3181Z" fill="white"></path><path d="M15.0314 10.3247C14.9639 9.04909 14.3228 8.37769 13.0742 8.31055M16.7159 10.8614C16.7496 9.68646 16.3784 8.67937 15.6698 7.90725C14.9274 7.10157 13.9151 6.66516 12.6328 6.56445M18.4043 11.5327C18.4043 9.48495 17.7631 7.87359 16.5483 6.69864C15.3335 5.52369 13.815 4.91943 11.9928 4.91943" stroke="white" stroke-width="0.6" stroke-linecap="round" stroke-linejoin="round"></path><path d="M13.1413 14.6552C13.1413 14.6552 13.6136 14.6888 13.8498 14.3867L14.3223 13.7824C14.5585 13.4803 15.0984 13.2789 15.672 13.581C15.9757 13.7489 16.5156 14.0846 16.853 14.3531C17.2242 14.6217 17.9665 15.2259 17.9665 15.2259C18.3377 15.528 18.4052 15.9644 18.169 16.4344C17.9328 16.8708 17.5953 17.2736 17.1567 17.6428C16.8193 17.945 16.4818 18.0792 16.1444 18.1464H16.0094C15.8744 18.1464 15.7057 18.1128 15.5708 18.0792C15.0646 17.945 14.221 17.5757 12.7701 16.8036C11.859 16.3001 11.0829 15.763 10.4418 15.2595C10.1044 14.9909 9.73319 14.6888 9.39576 14.3195L9.26079 14.1853C8.88961 13.816 8.58592 13.4803 8.31598 13.1446C7.80983 12.5068 7.26994 11.7347 6.76379 10.8284C5.9877 9.4185 5.61653 8.57928 5.48155 8.04218C5.44781 7.90791 5.41406 7.77364 5.41406 7.60579V7.47151C5.44781 7.13582 5.61652 6.80013 5.92021 6.46445C6.29138 6.06162 6.6963 5.72593 7.13497 5.45738C7.60737 5.2224 8.04603 5.28954 8.34972 5.6588C8.34972 5.6588 8.9571 6.39732 9.22704 6.76657C9.46325 7.10226 9.80067 7.63936 10.0031 7.94148C10.3068 8.47858 10.1044 9.04925 9.83442 9.28423L9.22704 9.75419C8.92336 9.98917 8.95709 10.4591 8.95709 10.4591C8.95709 10.4591 9.80068 13.7824 13.1413 14.6552Z" fill="white"></path></svg> 