<?xml version="1.0" encoding="UTF-8"?> <svg xmlns="http://www.w3.org/2000/svg" width="81" height="29" viewBox="0 0 81 29" fill="none"><path d="M4.64717 20.0263C4.98851 20.9321 5.46109 21.7067 6.06499 22.3499C6.6689 22.9932 7.38434 23.4854 8.21133 23.8268C9.03841 24.1681 9.93764 24.3388 10.9091 24.3388C11.8544 24.3388 12.7404 24.1615 13.5675 23.807C14.3946 23.4525 15.1166 22.9537 15.7335 22.3105C16.3505 21.6672 16.8297 20.8993 17.171 20.0066C17.5124 19.1139 17.683 18.1163 17.683 17.0135V0H21.8182V27.5681H17.7224V25.0082C16.8035 25.9796 15.7204 26.7279 14.4733 27.2531C13.2261 27.7781 11.8806 28.0407 10.4365 28.0407C8.96616 28.0407 7.59436 27.7847 6.32093 27.2727C5.0476 26.7607 3.9448 26.0322 3.0128 25.087C2.08081 24.1417 1.34558 23.0063 0.807382 21.6804C0.269098 20.3545 0 18.8777 0 17.2497V0H4.13521V17.0135C4.13521 18.1163 4.30583 19.1204 4.64717 20.0263Z" fill="white"></path><path d="M28.9462 0V10.0426C29.8651 9.12372 30.9285 8.3952 32.1362 7.85692C33.344 7.31864 34.6568 7.04954 36.0745 7.04954C37.5449 7.04954 38.9231 7.32517 40.2097 7.87653C41.4962 8.42788 42.612 9.17618 43.5572 10.1214C44.5025 11.0667 45.2508 12.1824 45.8021 13.4689C46.3535 14.7555 46.6291 16.1208 46.6291 17.5648C46.6291 19.0088 46.3535 20.3675 45.8021 21.6409C45.2508 22.9143 44.5025 24.0236 43.5572 24.9687C42.612 25.9139 41.4962 26.6623 40.2097 27.2136C38.9231 27.765 37.5448 28.0406 36.0745 28.0406C34.6567 28.0406 33.3374 27.7715 32.1165 27.2332C30.8957 26.695 29.8257 25.9664 28.9068 25.0475V27.568H24.9685V0H28.9462ZM29.3991 20.2822C29.7535 21.1225 30.2458 21.8576 30.876 22.4877C31.5061 23.1179 32.2412 23.6168 33.0814 23.9843C33.9216 24.3519 34.8274 24.5357 35.7989 24.5357C36.7441 24.5357 37.6367 24.3519 38.4769 23.9843C39.317 23.6168 40.0455 23.118 40.6627 22.4877C41.2797 21.8577 41.7719 21.1225 42.1395 20.2822C42.5071 19.4421 42.6909 18.5363 42.6909 17.5648C42.6909 16.5934 42.5071 15.681 42.1395 14.8277C41.7719 13.9744 41.2797 13.2327 40.6627 12.6026C40.0456 11.9725 39.3171 11.4802 38.4769 11.1257C37.6366 10.7713 36.744 10.594 35.7989 10.594C34.8537 10.594 33.961 10.7712 33.1209 11.1257C32.2807 11.4802 31.5456 11.9725 30.9154 12.6026C30.2853 13.2327 29.7864 13.9744 29.4189 14.8277C29.0513 15.681 28.8675 16.5934 28.8675 17.5648C28.8674 18.5363 29.0447 19.4421 29.3991 20.2822Z" fill="white"></path><path d="M48.8734 13.5084C49.3985 12.2482 50.1206 11.1389 51.0395 10.1806C51.9583 9.22229 53.048 8.46746 54.3083 7.9161C55.5685 7.36475 56.9338 7.08911 58.4041 7.08911C59.8482 7.08911 61.1872 7.35167 62.4212 7.87671C63.6552 8.40184 64.7185 9.13044 65.6112 10.0625C66.5039 10.9945 67.1997 12.0973 67.6984 13.3707C68.1973 14.6441 68.4467 16.029 68.4467 17.5256V18.8253H52.1029C52.2342 19.6392 52.4967 20.394 52.8905 21.0897C53.2844 21.7855 53.7766 22.3894 54.3674 22.9013C54.9581 23.4134 55.6276 23.8138 56.3759 24.1025C57.1242 24.3913 57.9184 24.5358 58.7586 24.5358C61.1479 24.5358 63.0777 23.5512 64.548 21.582L67.4229 23.7086C66.4252 25.0477 65.1912 26.0979 63.721 26.8593C62.2506 27.6207 60.5965 28.0014 58.7587 28.0014C57.2621 28.0014 55.8641 27.7387 54.5644 27.2137C53.2647 26.6887 52.1358 25.9534 51.1775 25.0082C50.2192 24.063 49.4643 22.9537 48.913 21.6804C48.3616 20.407 48.0859 19.022 48.0859 17.5255C48.0857 16.1077 48.3484 14.7687 48.8734 13.5084ZM54.4068 11.9527C53.2909 12.8848 52.5492 14.1254 52.1816 15.6745H64.4298C64.0885 14.1254 63.3598 12.8848 62.244 11.9527C61.1281 11.0208 59.8219 10.5547 58.3254 10.5547C56.8288 10.5547 55.5226 11.0208 54.4068 11.9527Z" fill="white"></path><path d="M75.8902 12.4056C75.0501 13.3246 74.6299 14.5717 74.6299 16.1471V27.5682H70.6522V7.48284H74.5905V9.96398C75.0894 9.15006 75.7392 8.50677 76.54 8.03419C77.3407 7.56153 78.2925 7.3252 79.3953 7.3252H80.7736V11.0272H79.1196C77.8068 11.0273 76.7304 11.4867 75.8902 12.4056Z" fill="white"></path></svg> 