<svg width="245" height="217" viewBox="0 0 245 217" fill="none" xmlns="http://www.w3.org/2000/svg">
<circle cx="121.391" cy="118.966" r="97.2288" fill="url(#paint0_linear)"/>
<circle cx="121.524" cy="115.976" r="37.1392" fill="#57D6C1"/>
<path d="M180.618 110.415C181.055 110.752 181.683 110.67 182.02 110.232L187.505 103.097C187.842 102.659 187.76 102.031 187.322 101.694C186.884 101.358 186.256 101.44 185.92 101.878L181.044 108.22L174.701 103.344C174.264 103.007 173.636 103.09 173.299 103.527C172.963 103.965 173.045 104.593 173.482 104.93L180.618 110.415ZM64.7191 101.583C71.6638 76.672 94.5218 58.396 121.646 58.396V56.396C93.6009 56.396 69.972 75.2928 62.7926 101.046L64.7191 101.583ZM121.646 58.396C151.659 58.396 176.447 80.7723 180.236 109.752L182.219 109.493C178.302 79.5302 152.676 56.396 121.646 56.396V58.396Z" fill="black"/>
<path d="M62.2618 116.78C61.8713 116.39 61.2381 116.39 60.8476 116.78L54.4836 123.144C54.0931 123.535 54.0931 124.168 54.4836 124.558C54.8741 124.949 55.5073 124.949 55.8978 124.558L61.5547 118.901L67.2115 124.558C67.6021 124.949 68.2352 124.949 68.6258 124.558C69.0163 124.168 69.0163 123.535 68.6258 123.144L62.2618 116.78ZM165.335 158.745L164.609 158.058L165.335 158.745ZM121.646 176.578C89.0108 176.578 62.5547 150.122 62.5547 117.487H60.5547C60.5547 151.227 87.9062 178.578 121.646 178.578V176.578ZM164.609 158.058C153.834 169.463 138.572 176.578 121.646 176.578V178.578C139.145 178.578 154.926 171.22 166.062 159.432L164.609 158.058ZM180.236 125.223C178.584 137.858 172.94 149.239 164.609 158.058L166.062 159.432C174.674 150.316 180.511 138.549 182.219 125.482L180.236 125.223Z" fill="black"/>
<path d="M121.646 133.525C134.76 133.525 145.39 122.895 145.39 109.781H97.9023C97.9023 122.895 108.533 133.525 121.646 133.525Z" fill="black"/>
<circle cx="143.16" cy="100.891" r="3.45675" fill="black"/>
<circle cx="101.359" cy="100.891" r="3.45675" fill="black"/>
<path d="M86.771 157.305H104.816L128.103 172.042L113.905 186.779L86.771 178.892V157.305Z" fill="url(#paint1_linear)" stroke="#25A49C" stroke-width="2" stroke-linecap="round" stroke-linejoin="round"/>
<path d="M90.2119 180.175C134.209 194.841 119.543 194.841 169.825 169.7C168.412 167.796 166.449 166.373 164.2 165.624C161.952 164.874 159.527 164.834 157.255 165.509L138.818 171.631" fill="url(#paint2_linear)"/>
<path d="M90.2119 180.175C134.209 194.841 119.543 194.841 169.825 169.7C168.412 167.796 166.449 166.373 164.2 165.624C161.952 164.874 159.527 164.834 157.255 165.509L138.818 171.631" stroke="#25A49C" stroke-width="2" stroke-linecap="round" stroke-linejoin="round"/>
<path d="M90.2119 157.305H102.782C109.914 157.558 116.672 160.561 121.638 165.685H134.209C134.822 165.575 135.451 165.601 136.053 165.761C136.655 165.92 137.215 166.21 137.693 166.61C138.17 167.009 138.555 167.509 138.818 168.073C139.082 168.637 139.218 169.253 139.218 169.875C139.218 170.498 139.082 171.113 138.818 171.678C138.555 172.242 138.17 172.741 137.693 173.141C137.215 173.54 136.655 173.83 136.053 173.99C135.451 174.15 134.822 174.176 134.209 174.066H111.163" fill="url(#paint3_linear)"/>
<path d="M90.2119 157.305H102.782C109.914 157.558 116.672 160.561 121.638 165.685H134.209C134.822 165.575 135.451 165.601 136.053 165.761C136.655 165.92 137.215 166.21 137.693 166.61C138.17 167.009 138.555 167.509 138.818 168.073C139.082 168.637 139.218 169.253 139.218 169.875C139.218 170.498 139.082 171.113 138.818 171.678C138.555 172.242 138.17 172.741 137.693 173.141C137.215 173.54 136.655 173.83 136.053 173.99C135.451 174.15 134.822 174.176 134.209 174.066H111.163" stroke="#25A49C" stroke-width="2" stroke-linecap="round" stroke-linejoin="round"/>
<path d="M73.4678 153.115H90.2285V186.636H73.4678V153.115Z" fill="url(#paint4_linear)" stroke="#25A49C" stroke-width="2" stroke-linecap="round" stroke-linejoin="round"/>
<path d="M122.492 0.0195312V38.5108" stroke="#57D6C1" stroke-width="2"/>
<path d="M61.6748 16.3153L80.9204 49.6497" stroke="#57D6C1" stroke-width="2"/>
<path d="M17.1533 60.8361L50.4877 80.0817" stroke="#57D6C1" stroke-width="2"/>
<path d="M194.494 80.082L227.829 60.8364" stroke="#57D6C1" stroke-width="2"/>
<path d="M0.858398 121.653H39.3496" stroke="#57D6C1" stroke-width="2"/>
<path d="M205.634 121.653H244.125" stroke="#57D6C1" stroke-width="2"/>
<path d="M164.062 49.6493L183.308 16.3149" stroke="#57D6C1" stroke-width="2"/>
<defs>
<linearGradient id="paint0_linear" x1="121.391" y1="21.7377" x2="121.391" y2="216.195" gradientUnits="userSpaceOnUse">
<stop stop-color="#E3FBF7"/>
<stop offset="1" stop-color="#E3FBF7" stop-opacity="0"/>
</linearGradient>
<linearGradient id="paint1_linear" x1="107.437" y1="106.747" x2="107.437" y2="186.779" gradientUnits="userSpaceOnUse">
<stop stop-color="#E3FBF7"/>
<stop offset="1" stop-color="#FEFEFE"/>
</linearGradient>
<linearGradient id="paint2_linear" x1="130.019" y1="112.212" x2="130.019" y2="190.126" gradientUnits="userSpaceOnUse">
<stop stop-color="#E3FBF7"/>
<stop offset="1" stop-color="#FEFEFE"/>
</linearGradient>
<linearGradient id="paint3_linear" x1="114.715" y1="96.4256" x2="114.715" y2="174.133" gradientUnits="userSpaceOnUse">
<stop stop-color="#E3FBF7"/>
<stop offset="1" stop-color="#FEFEFE"/>
</linearGradient>
<linearGradient id="paint4_linear" x1="81.8481" y1="91.5683" x2="81.8481" y2="186.636" gradientUnits="userSpaceOnUse">
<stop stop-color="#E3FBF7"/>
<stop offset="1" stop-color="#FEFEFE"/>
</linearGradient>
</defs>
</svg>
