<?xml version="1.0" encoding="UTF-8"?> <svg xmlns="http://www.w3.org/2000/svg" width="20" height="20" viewBox="0 0 20 20" fill="#1F1F24"><path d="M3.37963 17.5603C3.19444 17.5603 3.00926 17.4677 2.91667 17.3751C-0.972222 13.4862 -0.972222 7.18991 2.91667 3.30102C3.19444 3.02324 3.65741 3.02324 3.93519 3.30102C4.21296 3.57879 4.21296 4.04176 3.93519 4.31954C0.601852 7.65287 0.601852 13.1158 3.93519 16.4492C4.21296 16.7269 4.21296 17.1899 3.93519 17.4677C3.75 17.4677 3.56481 17.5603 3.37963 17.5603Z"></path><path d="M16.5278 17.5602C16.3426 17.5602 16.1574 17.4676 16.0648 17.375C15.787 17.0972 15.787 16.6343 16.0648 16.3565C19.3981 13.0231 19.3981 7.56018 16.0648 4.22685C15.787 3.94907 15.787 3.48611 16.0648 3.20833C16.3426 2.93056 16.8056 2.93056 17.0833 3.20833C20.9722 7.09722 20.9722 13.3935 17.0833 17.2824C16.8981 17.4676 16.713 17.5602 16.5278 17.5602Z"></path><path d="M9.95352 13.301C8.28685 13.301 6.99055 11.9121 6.99055 10.3381C6.99055 8.76398 8.37944 7.37509 9.95352 7.37509C11.5276 7.37509 12.9165 8.76398 12.9165 10.3381C12.9165 11.9121 11.6202 13.301 9.95352 13.301ZM9.95352 8.67139C9.02759 8.67139 8.28685 9.41213 8.28685 10.3381C8.28685 11.264 9.02759 12.0047 9.95352 12.0047C10.8794 12.0047 11.6202 11.264 11.6202 10.3381C11.6202 9.41213 10.8794 8.67139 9.95352 8.67139Z"></path><path d="M14.0276 15.153C13.8424 15.153 13.6572 15.0604 13.5646 14.9678C13.2868 14.69 13.2868 14.227 13.5646 13.9493C15.5091 12.0048 15.5091 8.76407 13.5646 6.72703C13.2868 6.44926 13.2868 5.98629 13.5646 5.70851C13.8424 5.43074 14.3054 5.43074 14.5831 5.70851C17.0831 8.20851 17.0831 12.3752 14.5831 14.8752C14.398 15.0604 14.2128 15.153 14.0276 15.153Z"></path><path d="M5.87982 15.1526C5.69463 15.1526 5.50945 15.06 5.41685 14.9674C2.91685 12.4674 2.91685 8.30074 5.41685 5.80074C5.69463 5.52297 6.1576 5.52297 6.43537 5.80074C6.71315 6.07852 6.71315 6.54148 6.43537 6.81926C4.49093 8.76371 4.49093 12.0044 6.43537 14.0415C6.71315 14.3193 6.71315 14.7822 6.43537 15.06C6.25019 15.06 6.065 15.1526 5.87982 15.1526Z"></path></svg> 