<?xml version="1.0" encoding="UTF-8"?> <svg xmlns="http://www.w3.org/2000/svg" width="20" height="20" viewBox="0 0 20 20" fill="#1F1F24"><path fill-rule="evenodd" clip-rule="evenodd" d="M16 1.5H4C2.61929 1.5 1.5 2.61929 1.5 4V16C1.5 17.3807 2.61929 18.5 4 18.5H16C17.3807 18.5 18.5 17.3807 18.5 16V4C18.5 2.61929 17.3807 1.5 16 1.5ZM4 0C1.79086 0 0 1.79086 0 4V16C0 18.2091 1.79086 20 4 20H16C18.2091 20 20 18.2091 20 16V4C20 1.79086 18.2091 0 16 0H4Z"></path><path fill-rule="evenodd" clip-rule="evenodd" d="M4.25 6C4.25 5.58579 4.58579 5.25 5 5.25H10C10.4142 5.25 10.75 5.58579 10.75 6C10.75 6.41421 10.4142 6.75 10 6.75H5C4.58579 6.75 4.25 6.41421 4.25 6Z"></path><path fill-rule="evenodd" clip-rule="evenodd" d="M4.25 10C4.25 9.58579 4.58579 9.25 5 9.25H15C15.4142 9.25 15.75 9.58579 15.75 10C15.75 10.4142 15.4142 10.75 15 10.75H5C4.58579 10.75 4.25 10.4142 4.25 10Z"></path><path fill-rule="evenodd" clip-rule="evenodd" d="M4.25 14C4.25 13.5858 4.58579 13.25 5 13.25H10C10.4142 13.25 10.75 13.5858 10.75 14C10.75 14.4142 10.4142 14.75 10 14.75H5C4.58579 14.75 4.25 14.4142 4.25 14Z"></path></svg> 