<?xml version="1.0" encoding="UTF-8"?> <svg xmlns="http://www.w3.org/2000/svg" width="20" height="20" viewBox="0 0 20 20" fill="#1F1F24"><path fill-rule="evenodd" clip-rule="evenodd" d="M1.5 10C1.5 14.6944 5.30558 18.5 10 18.5C14.6944 18.5 18.5 14.6944 18.5 10C18.5 5.30558 14.6944 1.5 10 1.5C5.30558 1.5 1.5 5.30558 1.5 10ZM10 0C4.47715 0 0 4.47715 0 10C0 15.5228 4.47715 20 10 20C15.5228 20 20 15.5228 20 10C20 4.47715 15.5228 0 10 0Z"></path><path fill-rule="evenodd" clip-rule="evenodd" d="M14.75 10C14.75 10.268 14.6071 10.5155 14.375 10.6495L8.375 14.1136C8.14295 14.2476 7.85705 14.2476 7.625 14.1136C7.39295 13.9796 7.25 13.7321 7.25 13.4641L7.25 6.5359C7.25 6.26795 7.39295 6.02036 7.625 5.88638C7.85705 5.75241 8.14295 5.75241 8.375 5.88638L14.375 9.35048C14.6071 9.48446 14.75 9.73205 14.75 10ZM8.75 7.83494L8.75 12.1651L12.5 10L8.75 7.83494Z"></path></svg> 