<?xml version="1.0" encoding="UTF-8"?> <svg xmlns="http://www.w3.org/2000/svg" width="20" height="20" viewBox="0 0 20 20" fill="#1F1F24"><path fill-rule="evenodd" clip-rule="evenodd" d="M1.5 10C1.5 11.3225 1.80204 12.5745 2.3409 13.6907L5.08876 10.9428C5.0305 10.6375 5 10.3223 5 10C5 9.65418 5.03511 9.31657 5.10195 8.99052L2.36705 6.25561C1.81182 7.3853 1.5 8.65624 1.5 10ZM5.69247 7.45971C6.12273 6.7317 6.73229 6.12223 7.46037 5.69208L4.93874 3.17045C4.26629 3.66961 3.67011 4.26573 3.1709 4.93814L5.69247 7.45971ZM8.99138 5.10178C9.31716 5.03505 9.65449 5 10 5C10.3223 5 10.6375 5.0305 10.9428 5.08876L13.6907 2.3409C12.5745 1.80204 11.3225 1.5 10 1.5C8.65652 1.5 7.38583 1.81169 6.25631 2.3667L8.99138 5.10178ZM12.4899 5.66306C13.2233 6.08506 13.8397 6.68778 14.278 7.41043L16.7954 4.89305C16.2918 4.22407 15.6918 3.63183 15.0159 3.13702L12.4899 5.66306ZM14.8843 8.92551C14.9601 9.27162 15 9.63114 15 10C15 10.3455 14.965 10.6828 14.8982 11.0086L17.6333 13.7437C18.1883 12.6142 18.5 11.3435 18.5 10C18.5 8.63531 18.1784 7.34574 17.6068 6.20294L14.8843 8.92551ZM14.3079 12.5396C13.8778 13.2677 13.2683 13.8773 12.5403 14.3075L15.0619 16.8291C15.7343 16.3299 16.3304 15.7337 16.8295 15.0613L14.3079 12.5396ZM11.0095 14.898C10.6834 14.9649 10.3458 15 10 15C9.63115 15 9.27162 14.9601 8.92551 14.8843L6.20294 17.6068C7.34574 18.1784 8.63531 18.5 10 18.5C11.3438 18.5 12.6147 18.1882 13.7444 17.633L11.0095 14.898ZM7.41043 14.278C6.68778 13.8397 6.08506 13.2233 5.66306 12.4899L3.13702 15.0159C3.63183 15.6918 4.22407 16.2918 4.89305 16.7954L7.41043 14.278ZM10 0C4.47715 0 0 4.47715 0 10C0 15.5228 4.47715 20 10 20C15.5228 20 20 15.5228 20 10C20 4.47715 15.5228 0 10 0ZM10 13.5C8.067 13.5 6.5 11.933 6.5 10C6.5 8.067 8.067 6.5 10 6.5C11.933 6.5 13.5 8.067 13.5 10C13.5 11.933 11.933 13.5 10 13.5Z"></path></svg> 