<?xml version="1.0" encoding="UTF-8"?> <svg xmlns="http://www.w3.org/2000/svg" width="20" height="20" viewBox="0 0 20 20" fill="#1F1F24"><g clip-path="url(#clip0)"><path fill-rule="evenodd" clip-rule="evenodd" d="M11.1017 3.38744C13.1303 1.35881 16.4194 1.3588 18.4481 3.38744C20.4767 5.41608 20.4767 8.70515 18.448 10.7338L12.0051 17.1767C10.9312 18.2506 9.19001 18.2506 8.11607 17.1767L1.67317 10.7338C-0.355473 8.70516 -0.355475 5.41608 1.67316 3.38744C3.7018 1.3588 6.99088 1.35881 9.01952 3.38744L10.0606 4.42854L11.1017 3.38744ZM17.3874 4.4481C15.9445 3.00525 13.6052 3.00525 12.1624 4.44811L10.5909 6.01953C10.298 6.31242 9.82317 6.31242 9.53028 6.01953L7.95886 4.44811C6.516 3.00525 4.17668 3.00525 2.73382 4.4481C1.29097 5.89096 1.29097 8.23028 2.73383 9.67313L9.17673 16.116C9.66488 16.6042 10.4563 16.6042 10.9445 16.116L17.3874 9.67313C18.8302 8.23028 18.8302 5.89096 17.3874 4.4481Z"></path></g><defs><clipPath id="clip0"><rect width="20" height="20" fill="white"></rect></clipPath></defs></svg> 