<?xml version="1.0" encoding="UTF-8"?> <svg xmlns="http://www.w3.org/2000/svg" width="20" height="20" viewBox="0 0 20 20" fill="#1F1F24"><path fill-rule="evenodd" clip-rule="evenodd" d="M10 0C15.5228 0 20 4.47715 20 10C20 15.5228 15.5228 20 10 20C4.47715 20 0 15.5228 0 10C0 4.47715 4.47715 0 10 0ZM10 1.39535C5.24778 1.39535 1.39535 5.24778 1.39535 10C1.39535 12.495 2.45727 14.742 4.15381 16.3137C5.08114 13.9433 7.38127 12.3258 10.0002 12.3256C12.619 12.3258 14.919 13.9432 15.8464 16.3135C17.5428 14.7418 18.6047 12.4949 18.6047 10C18.6047 5.24778 14.7522 1.39535 10 1.39535ZM14.6831 17.2198C14.0761 15.1622 12.1801 13.7211 10.0002 13.7209C7.82018 13.7211 5.92411 15.1622 5.31713 17.22C6.66477 18.0959 8.27297 18.6047 10 18.6047C11.7271 18.6047 13.3354 18.0958 14.6831 17.2198Z"></path><path d="M9.96296 10.9259C8.2963 10.9259 7 9.53704 7 7.96296C7 6.38889 8.38889 5 9.96296 5C11.537 5 12.9259 6.38889 12.9259 7.96296C12.9259 9.53704 11.6296 10.9259 9.96296 10.9259ZM9.96296 6.2963C9.03704 6.2963 8.2963 7.03704 8.2963 7.96296C8.2963 8.88889 9.03704 9.62963 9.96296 9.62963C10.8889 9.62963 11.6296 8.88889 11.6296 7.96296C11.6296 7.03704 10.8889 6.2963 9.96296 6.2963Z"></path></svg> 