<?xml version="1.0" encoding="UTF-8"?> <svg xmlns="http://www.w3.org/2000/svg" width="25" height="25" viewBox="0 0 25 25" fill="#FF7557"><path d="M5.70313 4.00003C5.01334 4.00004 4.39168 4.41613 4.12869 5.05381C3.8657 5.6915 4.01333 6.42484 4.50257 6.9111C4.99181 7.39736 5.72605 7.5405 6.36211 7.27361C6.99818 7.00673 7.41045 6.38253 7.40624 5.69276C7.40625 5.24201 7.22649 4.80988 6.90679 4.49213C6.58709 4.17439 6.15387 3.99727 5.70313 4.00003V4.00003Z"></path><path d="M19.3082 4.00003C18.6175 3.99583 17.9927 4.40924 17.7264 5.04658C17.4601 5.68392 17.6052 6.41897 18.0936 6.90739C18.582 7.39581 19.3171 7.54086 19.9544 7.27459C20.5918 7.00833 21.0052 6.38348 21.001 5.69276C21.001 4.75789 20.2431 4.00003 19.3082 4.00003V4.00003Z"></path><path d="M12.5059 4.00006C11.8161 4.00007 11.1944 4.41616 10.9314 5.05384C10.6684 5.69153 10.8161 6.42487 11.3053 6.91113C11.7945 7.39739 12.5288 7.54053 13.1648 7.27364C13.8009 7.00676 14.2132 6.38256 14.209 5.69279C14.2033 4.75624 13.4424 4.00004 12.5059 4.00006V4.00006Z"></path><path d="M5.70311 10.7917C4.76251 10.7917 4 11.5543 4 12.4949C4 13.4355 4.76251 14.198 5.70311 14.198C6.64371 14.198 7.40622 13.4355 7.40622 12.4949C7.40622 11.5543 6.64371 10.7917 5.70311 10.7917V10.7917Z"></path><path d="M12.5058 10.7917C11.5652 10.7917 10.8027 11.5543 10.8027 12.4949C10.8027 13.4355 11.5652 14.198 12.5058 14.198C13.4464 14.198 14.209 13.4355 14.209 12.4949C14.2033 11.5566 13.4441 10.7974 12.5058 10.7917Z"></path><path d="M5.70311 17.5938C4.76251 17.5938 4 18.3563 4 19.2969C4 20.2375 4.76251 21 5.70311 21C6.64371 21 7.40622 20.2375 7.40622 19.2969C7.40901 18.8444 7.23047 18.4095 6.91047 18.0895C6.59047 17.7695 6.15565 17.591 5.70311 17.5938V17.5938Z"></path><path fill-rule="evenodd" clip-rule="evenodd" d="M0.25 2.45C0.25 1.23498 1.23497 0.25 2.45 0.25H22.55C23.765 0.25 24.75 1.23497 24.75 2.45V22.55C24.75 23.765 23.765 24.75 22.55 24.75H2.45C1.23498 24.75 0.25 23.765 0.25 22.55V2.45ZM2.45 1.75C2.0634 1.75 1.75 2.0634 1.75 2.45V22.55C1.75 22.9366 2.0634 23.25 2.45 23.25H22.55C22.9366 23.25 23.25 22.9366 23.25 22.55V2.45C23.25 2.0634 22.9366 1.75 22.55 1.75H2.45Z"></path></svg> 