<?xml version="1.0" encoding="UTF-8"?> <svg xmlns="http://www.w3.org/2000/svg" width="20" height="20" viewBox="0 0 20 20" fill="#1F1F24"><path fill-rule="evenodd" clip-rule="evenodd" d="M4.25 6C4.25 5.58579 4.58579 5.25 5 5.25H15C15.4142 5.25 15.75 5.58579 15.75 6C15.75 6.41421 15.4142 6.75 15 6.75H5C4.58579 6.75 4.25 6.41421 4.25 6Z"></path><path fill-rule="evenodd" clip-rule="evenodd" d="M4.25 10C4.25 9.58579 4.58579 9.25 5 9.25H10C10.4142 9.25 10.75 9.58579 10.75 10C10.75 10.4142 10.4142 10.75 10 10.75H5C4.58579 10.75 4.25 10.4142 4.25 10Z"></path><path fill-rule="evenodd" clip-rule="evenodd" d="M14.5 14.5H16C17.3807 14.5 18.5 13.3807 18.5 12V4C18.5 2.61929 17.3807 1.5 16 1.5H4C2.61929 1.5 1.5 2.61929 1.5 4V12C1.5 13.3807 2.61929 14.5 4 14.5H8.5H8.875L9.20588 14.6765L14.5 17.5V16V14.5ZM16 18.3V20L14.5 19.2L8.5 16H4C1.79086 16 0 14.2091 0 12V4C0 1.79086 1.79086 0 4 0H16C18.2091 0 20 1.79086 20 4V12C20 14.2091 18.2091 16 16 16V17.5V18.3Z"></path></svg> 