<?xml version="1.0" encoding="utf-8"?>
<!-- Generator: Adobe Illustrator 23.0.1, SVG Export Plug-In . SVG Version: 6.00 Build 0)  -->
<svg version="1.1" id="Layer_1" xmlns="http://www.w3.org/2000/svg" xmlns:xlink="http://www.w3.org/1999/xlink" x="0px" y="0px"
	 viewBox="0 0 17.5 17.5" style="enable-background:new 0 0 17.5 17.5;" xml:space="preserve">
<style type="text/css">
	.st0{fill:#7856FF;}
</style>
<g>
	<path class="st0" d="M8.8,17.5C3.9,17.5,0,13.6,0,8.8C0,3.9,3.9,0,8.8,0c4.8,0,8.8,3.9,8.8,8.8C17.5,13.6,13.6,17.5,8.8,17.5z
		 M8.8,1.5c-4,0-7.2,3.3-7.2,7.2c0,4,3.3,7.2,7.2,7.2c4,0,7.2-3.3,7.2-7.2C16,4.8,12.7,1.5,8.8,1.5z"/>
</g>
<g>
	<path class="st0" d="M7.3,12.2c-0.2,0-0.4-0.1-0.5-0.2L4.2,9.4c-0.3-0.3-0.3-0.8,0-1.1s0.8-0.3,1.1,0l2,2l4.9-4.9
		c0.3-0.3,0.8-0.3,1.1,0c0.3,0.3,0.3,0.8,0,1.1L7.8,12C7.7,12.1,7.5,12.2,7.3,12.2z"/>
</g>
</svg>
