<?xml version="1.0" encoding="utf-8"?>
<!-- Generator: Adobe Illustrator 24.2.0, SVG Export Plug-In . SVG Version: 6.00 Build 0)  -->
<svg version="1.1" id="Layer_1" xmlns="http://www.w3.org/2000/svg" xmlns:xlink="http://www.w3.org/1999/xlink" x="0px" y="0px"
	 viewBox="0 0 20 16" style="enable-background:new 0 0 20 16;" xml:space="preserve">
<style type="text/css">
	.st0{fill-rule:evenodd;clip-rule:evenodd;}
	.st1{fill:none;}
	.st2{fill:#1A1A1A;}
	.st3{fill:#231F20;}
	.st4{fill-rule:evenodd;clip-rule:evenodd;fill:#231F20;}
	.st5{fill:#FFFFFF;}
</style>
<g>
	<path class="st5" d="M20,2.6c0-0.4-0.1-0.8-0.3-1.2l-6.1,6.4l6,6.9c0.2-0.4,0.4-0.8,0.4-1.3V2.6z"/>
	<path class="st5" d="M9.3,8.3c0.5,0.5,1.3,0.5,1.8,0l7.5-7.9C18.2,0.1,17.8,0,17.3,0H2.7C2.2,0,1.8,0.1,1.4,0.3L9.3,8.3z"/>
	<path class="st5" d="M0.3,1.4C0.1,1.7,0,2.2,0,2.6v10.8c0,0.5,0.1,0.9,0.4,1.3l6.2-7L0.3,1.4z"/>
	<path class="st5" d="M12.6,8.9l-0.3,0.4c-1.1,1.1-2.8,1.1-3.9,0.1L7.6,8.7l-6.2,7C1.8,15.9,2.2,16,2.7,16h14.6
		c0.4,0,0.9-0.1,1.2-0.3L12.6,8.9z"/>
</g>
</svg>
