<?xml version="1.0" encoding="utf-8"?>
<!-- Generator: Adobe Illustrator 23.0.1, SVG Export Plug-In . SVG Version: 6.00 Build 0)  -->
<svg version="1.1" id="Layer_1" xmlns="http://www.w3.org/2000/svg" xmlns:xlink="http://www.w3.org/1999/xlink" x="0px" y="0px"
	 viewBox="0 0 25.5 25.5" style="enable-background:new 0 0 25.5 25.5;" xml:space="preserve">
<style type="text/css">
	.st0{fill-rule:evenodd;clip-rule:evenodd;fill:#219464;}
</style>
<path class="st0" d="M12.7,25.5C5.7,25.5,0,19.8,0,12.7S5.7,0,12.7,0c7,0,12.7,5.7,12.7,12.7C25.4,19.7,19.7,25.4,12.7,25.5z
	 M12.7,2.2C6.9,2.2,2.2,6.9,2.2,12.7c0,5.8,4.7,10.5,10.5,10.5c5.8,0,10.5-4.7,10.5-10.5C23.3,6.9,18.5,2.2,12.7,2.2z M9.8,17.4
	c0.2,0.2,0.5,0.3,0.8,0.3c0.3,0,0.6-0.1,0.8-0.3l7.8-7.9c0.4-0.4,0.4-1.1,0-1.5c-0.2-0.2-0.5-0.3-0.8-0.3c-0.3,0-0.6,0.1-0.8,0.3
	l-7.1,7.1l-2.9-2.9c-0.4-0.4-1.1-0.4-1.5,0c-0.4,0.4-0.4,1.1,0,1.5L9.8,17.4z"/>
</svg>
