<svg width="40" height="40" viewBox="0 0 40 40" fill="none" xmlns="http://www.w3.org/2000/svg">
<path d="M21.8652 9.35559C21.7514 8.53092 21.0466 7.91666 20.2142 7.91666H19.7859C18.9536 7.91666 18.2487 8.53092 18.1349 9.35559L17.9897 10.4085C17.8971 11.0802 17.4006 11.6149 16.7704 11.8654C16.6767 11.9026 16.5838 11.9414 16.4917 11.9817C15.8704 12.254 15.1407 12.2307 14.598 11.8236L14.0854 11.4392C13.4219 10.9415 12.4934 11.0075 11.9069 11.594L11.5941 11.9068C11.0076 12.4933 10.9416 13.4218 11.4393 14.0853L11.8237 14.5979C12.2308 15.1406 12.2541 15.8703 11.9818 16.4916C11.9415 16.5837 11.9027 16.6767 11.8654 16.7703C11.615 17.4005 11.0803 17.897 10.4086 17.9897L9.35568 18.1348C8.53101 18.2487 7.91675 18.9533 7.91675 19.7858V20.2142C7.91675 21.0465 8.53101 21.7513 9.35568 21.8652L10.4086 22.0103C11.0803 22.103 11.615 22.5995 11.8654 23.2297C11.9027 23.3233 11.9415 23.4163 11.9818 23.5083C12.2541 24.1297 12.2307 24.8593 11.8237 25.402L11.4393 25.9147C10.9416 26.5782 11.0076 27.5067 11.5941 28.0932L11.9069 28.406C12.4934 28.9925 13.4218 29.0585 14.0854 28.5608L14.598 28.1763C15.1407 27.7693 15.8703 27.746 16.4917 28.0183C16.5838 28.0587 16.6767 28.0973 16.7704 28.1347C17.4006 28.385 17.8971 28.9198 17.9897 29.5915L18.1349 30.6443C18.2487 31.469 18.9536 32.0833 19.7859 32.0833H20.2142C21.0466 32.0833 21.7514 31.469 21.8652 30.6443L22.0104 29.5915C22.1031 28.9198 22.5996 28.385 23.2297 28.1347C23.3234 28.0973 23.4164 28.0587 23.5084 28.0182C24.1297 27.746 24.8594 27.7693 25.4021 28.1763L25.9147 28.5608C26.5782 29.0585 27.5067 28.9925 28.0932 28.406L28.4061 28.0932C28.9926 27.5067 29.0586 26.5782 28.5609 25.9147L28.1764 25.402C27.7694 24.8593 27.7461 24.1297 28.0184 23.5083C28.0587 23.4163 28.0974 23.3233 28.1347 23.2297C28.3851 22.5995 28.9199 22.103 29.5916 22.0103L30.6444 21.8652C31.4691 21.7513 32.0834 21.0465 32.0834 20.2142V19.7858C32.0834 18.9535 31.4691 18.2487 30.6444 18.1348L29.5916 17.9897C28.9199 17.897 28.3851 17.4005 28.1347 16.7703C28.0974 16.6767 28.0587 16.5837 28.0182 16.4916C27.7461 15.8703 27.7694 15.1406 28.1764 14.5979L28.5609 14.0853C29.0586 13.4218 28.9926 12.4933 28.4061 11.9068L28.0932 11.594C27.5067 11.0075 26.5782 10.9416 25.9147 11.4392L25.4021 11.8236C24.8594 12.2307 24.1297 12.254 23.5084 11.9817C23.4164 11.9414 23.3234 11.9026 23.2297 11.8654C22.5996 11.6149 22.1031 11.0802 22.0104 10.4085L21.8652 9.35559Z" stroke="white" stroke-width="2" stroke-linecap="round" stroke-linejoin="round"/>
<path d="M22.0834 20C22.0834 21.1507 21.1507 22.0833 20.0001 22.0833C18.8494 22.0833 17.9167 21.1507 17.9167 20C17.9167 18.8493 18.8494 17.9167 20.0001 17.9167C21.1507 17.9167 22.0834 18.8493 22.0834 20Z" stroke="white" stroke-width="2" stroke-linecap="round" stroke-linejoin="round"/>
</svg>
