<svg width="194" height="53" viewBox="0 0 194 53" fill="none" xmlns="http://www.w3.org/2000/svg">
<path d="M105.959 22.0042C109.711 22.0042 112.752 24.8697 112.752 28.4042V37.1509C112.752 37.3867 112.55 37.5776 112.299 37.5776H110.487C110.238 37.5776 110.035 37.3867 110.035 37.1509V28.4042C110.035 26.2835 108.21 24.5643 105.959 24.5643C103.709 24.5643 101.884 26.2835 101.884 28.4042V37.1509C101.884 37.3867 101.681 37.5776 101.431 37.5776H99.6199C99.3694 37.5776 99.167 37.3867 99.167 37.1509V28.4042C99.167 24.8697 102.208 22.0042 105.959 22.0042Z" fill="white"/>
<path d="M99.6199 22.0042H101.431C101.681 22.0042 101.884 22.1953 101.884 22.431V36.2976C101.884 36.5333 101.681 36.7242 101.431 36.7242H99.6199C99.3694 36.7242 99.167 36.5333 99.167 36.2976V22.431C99.167 22.1953 99.3694 22.0042 99.6199 22.0042Z" fill="white"/>
<path d="M128.6 37.5776C135.277 37.5776 140.6 32.5631 140.6 26.3776C140.6 20.1921 135.277 15.1776 128.6 15.1776C128.003 15.1776 127.022 15.1776 125.654 15.1776V17.9509H128.6C133.778 17.9509 137.883 21.8187 137.883 26.5909C137.883 31.3632 133.778 35.0176 128.6 35.0176C127.988 35.0176 127.007 35.0176 125.654 35.0176V37.5776H128.6Z" fill="white"/>
<path d="M123.619 15.1776H125.883V37.5776H123.619C123.368 37.5776 123.166 37.3866 123.166 37.1509V15.6043C123.166 15.3687 123.368 15.1776 123.619 15.1776Z" fill="white"/>
<path fill-rule="evenodd" clip-rule="evenodd" d="M71.771 26.3776C71.771 20.1921 77.0929 15.1776 83.6576 15.1776C90.2221 15.1776 95.5446 20.1921 95.5446 26.3776C95.5446 32.5631 90.2221 37.5776 83.6576 37.5776C77.0929 37.5776 71.771 32.5631 71.771 26.3776ZM83.6576 17.7377C78.5934 17.7377 74.488 21.6059 74.488 26.3776C74.488 31.1493 78.5934 35.0176 83.6576 35.0176C88.7218 35.0176 92.8273 31.1493 92.8273 26.3776C92.8273 21.6059 88.7218 17.7377 83.6576 17.7377Z" fill="white"/>
<path d="M182.169 27.426L187.47 22.5522C187.556 22.4745 187.669 22.431 187.787 22.431H190.679C190.803 22.431 190.905 22.5265 190.905 22.6443C190.905 22.7009 190.882 22.7552 190.839 22.7951L184.999 28.2976L192.735 37.2286C192.813 37.3199 192.799 37.4543 192.703 37.5288C192.661 37.5599 192.611 37.5768 192.558 37.5768L189.853 37.5725C189.718 37.5722 189.591 37.5157 189.505 37.4182L183.075 30.1109L182.169 30.9643V37.1456C182.169 37.3811 181.967 37.5722 181.716 37.5722H179.905C179.655 37.5722 179.452 37.3811 179.452 37.1456V16.671C179.452 16.4354 179.655 16.2443 179.905 16.2443H181.716C181.967 16.2443 182.169 16.4354 182.169 16.671V27.426Z" fill="white"/>
<path d="M175.581 24.3674L175.495 24.279C174.058 22.8733 172.077 22.0042 169.888 22.0042C167.64 22.0042 165.61 22.8653 164.165 24.3132C162.783 25.7053 161.95 27.626 161.95 29.7909C161.95 34.3047 165.504 37.5776 169.888 37.5776C172.068 37.5776 174.043 36.7153 175.478 35.3196L175.472 35.3139L175.571 35.2148C175.738 35.0486 175.736 34.7882 175.567 34.6243L174.305 33.4013C174.135 33.2366 173.858 33.23 173.679 33.3838C172.717 34.3974 171.357 35.0176 169.888 35.0176C166.985 35.0176 164.668 32.8721 164.668 29.7909C164.668 26.7097 166.985 24.5643 169.888 24.5643C171.361 24.5643 172.724 25.1881 173.687 26.2069C173.868 26.3518 174.139 26.3418 174.306 26.1795L175.571 24.9531C175.739 24.791 175.743 24.5341 175.581 24.3674Z" fill="white"/>
<path d="M143.656 29.7909C143.656 25.3938 147.09 22.0042 151.594 22.0042C155.933 22.0042 159.388 25.3921 159.527 29.5306C159.497 29.738 159.307 29.8976 159.079 29.8976H148.682C148.432 29.8976 148.229 29.7066 148.229 29.471V28.4042C148.229 28.1686 148.432 27.9776 148.682 27.9776H156.495C155.749 25.9564 153.795 24.5643 151.594 24.5643C148.692 24.5643 146.374 26.7097 146.374 29.7909C146.374 32.8721 148.692 35.0176 151.594 35.0176C153.064 35.0176 154.423 34.3974 155.386 33.3838C155.564 33.23 155.841 33.2366 156.012 33.4013L157.273 34.6243C157.443 34.7882 157.444 35.0486 157.277 35.2148L157.178 35.3139L157.184 35.3196C155.756 36.7112 153.788 37.5776 151.594 37.5776C147.09 37.5776 143.656 34.1881 143.656 29.7909Z" fill="white"/>
<path d="M105.959 22.0042C109.711 22.0042 112.752 24.8697 112.752 28.4042V37.1509C112.752 37.3867 112.55 37.5776 112.299 37.5776H110.487C110.238 37.5776 110.035 37.3867 110.035 37.1509V28.4042C110.035 26.2835 108.21 24.5643 105.959 24.5643C103.709 24.5643 101.884 26.2835 101.884 28.4042V37.1509C101.884 37.3867 101.681 37.5776 101.431 37.5776H99.6199C99.3694 37.5776 99.167 37.3867 99.167 37.1509V28.4042C99.167 24.8697 102.208 22.0042 105.959 22.0042Z" stroke="white" stroke-linejoin="round"/>
<path d="M99.6199 22.0042H101.431C101.681 22.0042 101.884 22.1953 101.884 22.431V36.2976C101.884 36.5333 101.681 36.7242 101.431 36.7242H99.6199C99.3694 36.7242 99.167 36.5333 99.167 36.2976V22.431C99.167 22.1953 99.3694 22.0042 99.6199 22.0042Z" stroke="white" stroke-linejoin="round"/>
<path d="M128.6 37.5776C135.277 37.5776 140.6 32.5631 140.6 26.3776C140.6 20.1921 135.277 15.1776 128.6 15.1776C128.003 15.1776 127.022 15.1776 125.654 15.1776V17.9509H128.6C133.778 17.9509 137.883 21.8187 137.883 26.5909C137.883 31.3632 133.778 35.0176 128.6 35.0176C127.988 35.0176 127.007 35.0176 125.654 35.0176V37.5776H128.6Z" stroke="white" stroke-linejoin="round"/>
<path d="M123.619 15.1776H125.883V37.5776H123.619C123.368 37.5776 123.166 37.3866 123.166 37.1509V15.6043C123.166 15.3687 123.368 15.1776 123.619 15.1776Z" stroke="white" stroke-linejoin="round"/>
<path fill-rule="evenodd" clip-rule="evenodd" d="M71.771 26.3776C71.771 20.1921 77.0929 15.1776 83.6576 15.1776C90.2221 15.1776 95.5446 20.1921 95.5446 26.3776C95.5446 32.5631 90.2221 37.5776 83.6576 37.5776C77.0929 37.5776 71.771 32.5631 71.771 26.3776ZM83.6576 17.7377C78.5934 17.7377 74.488 21.6059 74.488 26.3776C74.488 31.1493 78.5934 35.0176 83.6576 35.0176C88.7218 35.0176 92.8273 31.1493 92.8273 26.3776C92.8273 21.6059 88.7218 17.7377 83.6576 17.7377Z" stroke="white" stroke-linejoin="round"/>
<path d="M182.169 27.426L187.47 22.5522C187.556 22.4745 187.669 22.431 187.787 22.431H190.679C190.803 22.431 190.905 22.5265 190.905 22.6443C190.905 22.7009 190.882 22.7552 190.839 22.7951L184.999 28.2976L192.735 37.2286C192.813 37.3199 192.799 37.4543 192.703 37.5288C192.661 37.5599 192.611 37.5768 192.558 37.5768L189.853 37.5725C189.718 37.5722 189.591 37.5157 189.505 37.4182L183.075 30.1109L182.169 30.9643V37.1456C182.169 37.3811 181.967 37.5722 181.716 37.5722H179.905C179.655 37.5722 179.452 37.3811 179.452 37.1456V16.671C179.452 16.4354 179.655 16.2443 179.905 16.2443H181.716C181.967 16.2443 182.169 16.4354 182.169 16.671V27.426Z" stroke="white" stroke-linejoin="round"/>
<path d="M175.581 24.3674L175.495 24.279C174.058 22.8733 172.077 22.0042 169.888 22.0042C167.64 22.0042 165.61 22.8653 164.165 24.3132C162.783 25.7053 161.95 27.626 161.95 29.7909C161.95 34.3047 165.504 37.5776 169.888 37.5776C172.068 37.5776 174.043 36.7153 175.478 35.3196L175.472 35.3139L175.571 35.2148C175.738 35.0486 175.736 34.7882 175.567 34.6243L174.305 33.4013C174.135 33.2366 173.858 33.23 173.679 33.3838C172.717 34.3974 171.357 35.0176 169.888 35.0176C166.985 35.0176 164.668 32.8721 164.668 29.7909C164.668 26.7097 166.985 24.5643 169.888 24.5643C171.361 24.5643 172.724 25.1881 173.687 26.2069C173.868 26.3518 174.139 26.3418 174.306 26.1795L175.571 24.9531C175.739 24.791 175.743 24.5341 175.581 24.3674Z" stroke="white" stroke-linejoin="round"/>
<path d="M143.656 29.7909C143.656 25.3938 147.09 22.0042 151.594 22.0042C155.933 22.0042 159.388 25.3921 159.527 29.5306C159.497 29.738 159.307 29.8976 159.079 29.8976H148.682C148.432 29.8976 148.229 29.7066 148.229 29.471V28.4042C148.229 28.1686 148.432 27.9776 148.682 27.9776H156.495C155.749 25.9564 153.795 24.5643 151.594 24.5643C148.692 24.5643 146.374 26.7097 146.374 29.7909C146.374 32.8721 148.692 35.0176 151.594 35.0176C153.064 35.0176 154.423 34.3974 155.386 33.3838C155.564 33.23 155.841 33.2366 156.012 33.4013L157.273 34.6243C157.443 34.7882 157.444 35.0486 157.277 35.2148L157.178 35.3139L157.184 35.3196C155.756 36.7112 153.788 37.5776 151.594 37.5776C147.09 37.5776 143.656 34.1881 143.656 29.7909Z" stroke="white" stroke-linejoin="round"/>
<path fill-rule="evenodd" clip-rule="evenodd" d="M43.4361 12.0605H49.956C50.5451 12.0605 51.0227 12.5105 51.0227 13.0655V15.5781C51.0227 16.1332 50.5451 16.5832 49.956 16.5832H47.0254C46.054 14.9201 44.8429 13.3988 43.4361 12.0605ZM39.1747 16.5832H28.0896C27.5005 16.5832 27.023 16.1332 27.023 15.5781V13.0655C27.023 12.5105 27.5005 12.0605 28.0896 12.0605C32.4612 12.0605 36.4018 13.7994 39.1747 16.5832ZM39.1747 36.1813C36.4018 38.9651 32.4612 40.704 28.0896 40.704C27.5005 40.704 27.023 40.254 27.023 39.6989V37.1864C27.023 36.6313 27.5005 36.1813 28.0896 36.1813H39.1747ZM47.0254 36.1813H49.956C50.5451 36.1813 51.0227 36.6313 51.0227 37.1864V39.6989C51.0227 40.254 50.5451 40.704 49.956 40.704H43.4361C44.8429 39.3657 46.054 37.8444 47.0254 36.1813ZM42.7576 30.1511C42.2829 31.7952 41.5052 33.3215 40.4845 34.6738H28.0896C27.5005 34.6738 27.023 34.2238 27.023 33.6687V31.1561C27.023 30.6011 27.5005 30.1511 28.0896 30.1511H42.7576ZM49.3197 30.1511H49.956C50.5451 30.1511 51.0227 30.6011 51.0227 31.1561V33.6687C51.0227 34.2238 50.5451 34.6738 49.956 34.6738H47.8213C48.4984 33.2456 49.0058 31.7305 49.3197 30.1511ZM43.101 24.1209C43.225 24.8575 43.2894 25.6128 43.2894 26.3822C43.2894 27.1517 43.225 27.907 43.101 28.6436H28.0896C27.5005 28.6436 27.023 28.1936 27.023 27.6386V25.126C27.023 24.5708 27.5005 24.1209 28.0896 24.1209H43.101ZM49.5575 24.1209H49.956C50.5451 24.1209 51.0227 24.5708 51.0227 25.126V27.6386C51.0227 28.1936 50.5451 28.6436 49.956 28.6436H49.5575C49.6446 27.9011 49.6893 27.1466 49.6893 26.3822C49.6893 25.6179 49.6446 24.8634 49.5575 24.1209ZM40.4845 18.0907C41.5052 19.4429 42.2829 20.9693 42.7576 22.6133H28.0007C27.4116 22.6133 26.9341 22.1634 26.9341 21.6083V19.0958C26.9341 18.5407 27.4116 18.0907 28.0007 18.0907H40.4845ZM47.8213 18.0907H49.8671C50.4562 18.0907 50.9338 18.5407 50.9338 19.0958V21.6083C50.9338 22.1634 50.4562 22.6133 49.8671 22.6133H49.3197C49.0058 21.034 48.4984 19.5188 47.8213 18.0907Z" fill="white"/>
<path fill-rule="evenodd" clip-rule="evenodd" d="M27.9996 52.7643C12.5358 52.7643 0 40.9526 0 26.3821C0 11.8116 12.5358 0 27.9996 0C43.4634 0 55.9992 11.8116 55.9992 26.3821C55.9992 40.9526 43.4634 52.7643 27.9996 52.7643ZM27.9996 46.734C39.9288 46.734 49.5993 37.6222 49.5993 26.3821C49.5993 15.1421 39.9288 6.0302 27.9996 6.0302C16.0704 6.0302 6.39991 15.1421 6.39991 26.3821C6.39991 37.6222 16.0704 46.734 27.9996 46.734Z" fill="white"/>
</svg>
