<svg width="179" height="46" viewBox="0 0 179 46" fill="none" xmlns="http://www.w3.org/2000/svg">
<g clip-path="url(#clip0)">
<path d="M53.9893 27.1374H59.3192C59.3192 29.4503 61.272 30.5565 63.4304 30.5565C65.4126 30.5565 67.3655 29.5365 67.3655 27.7551C67.3655 25.9019 65.1337 25.3991 62.4907 24.7957C58.8053 23.905 54.3417 22.8563 54.3417 17.7133C54.3417 13.1305 57.7921 10.5446 63.1955 10.5446C68.8044 10.5446 72.0052 13.4753 72.0052 18.2305H66.7928C66.7928 16.1761 65.0603 15.2136 63.078 15.2136C61.3601 15.2136 59.6276 15.9175 59.6276 17.4834C59.6276 19.1642 61.7419 19.6671 64.3408 20.2848C68.0703 21.2042 72.7395 22.3391 72.7395 27.6977C72.7395 32.8551 68.5401 35.3548 63.4892 35.3548C57.8509 35.3548 53.9893 32.2804 53.9893 27.1374Z" fill="white"/>
<path d="M86.9086 30.4416V34.8807H83.2967C79.156 34.8807 76.6012 32.3954 76.6012 28.3011V20.4572H73.1948V19.3798L80.639 11.6365H81.6081V16.4491H86.8059V20.4572H81.6962V27.6402C81.6962 29.4216 82.7387 30.4416 84.6034 30.4416H86.9086Z" fill="white"/>
<path d="M108.14 16.4204V34.852H104.146L103.706 33.1999C102.091 34.579 99.9761 35.3979 97.5975 35.3979C91.9299 35.3979 87.7158 31.2174 87.7158 25.629C87.7158 20.0694 91.9299 15.9176 97.5975 15.9176C100.02 15.9176 102.163 16.7508 103.78 18.173L104.323 16.406L108.14 16.4204ZM103.147 25.6434C103.147 22.7414 100.975 20.5865 98.0233 20.5865C95.072 20.5865 92.8843 22.7558 92.8843 25.6434C92.8843 28.5309 95.0573 30.7002 98.0233 30.7002C100.989 30.7002 103.147 28.5309 103.147 25.6434Z" fill="white"/>
<path d="M119.799 35.3979C114.13 35.3979 109.799 31.1312 109.799 25.6003C109.799 20.0694 114.101 15.9176 119.828 15.9176C124.702 15.9176 128.491 18.9488 129.401 23.4741H124.349C123.527 21.664 121.824 20.6009 119.799 20.6009C117.038 20.6009 114.952 22.7702 114.952 25.629C114.952 28.4878 117.067 30.7146 119.799 30.7146C121.854 30.7146 123.484 29.594 124.349 27.6259H129.475C128.579 32.2661 124.732 35.3979 119.799 35.3979Z" fill="white"/>
<path d="M142.116 34.8807L136.081 26.06V34.8807H130.986V11.0044H136.081V24.6377L141.734 16.4491H147.607L141.235 25.2267L148.283 34.8807H142.116Z" fill="white"/>
<path d="M165.903 25.6003C165.903 26.0887 165.873 26.5772 165.8 27.0656H151.542C151.983 29.5797 153.672 30.9588 156.139 30.9588C157.915 30.9588 159.354 30.1399 160.132 28.8183H165.491C164.126 32.8407 160.514 35.3979 156.139 35.3979C150.573 35.3979 146.375 31.1887 146.375 25.6577C146.375 20.1125 150.559 15.9176 156.139 15.9176C161.938 15.9319 165.903 20.2992 165.903 25.6003ZM151.675 23.6609H160.808C160.088 21.4054 158.429 20.1843 156.153 20.1843C153.877 20.1843 152.276 21.4772 151.675 23.6609Z" fill="white"/>
<path d="M179 16.3485V21.0462H176.782C173.919 21.0462 172.775 22.2961 172.775 25.2986V34.8663H167.68V16.4491H170.939L171.849 18.7046C173.185 17.0812 174.888 16.3485 177.311 16.3485H179Z" fill="white"/>
<path d="M46.0005 31.9775L36.5447 18.0855L43.989 14.4365C44.9139 13.9768 45.4866 13.0718 45.4866 12.0518C45.4866 11.0318 44.9139 10.1267 43.989 9.66702L25.0039 0.40093C24.1522 -0.0156851 23.1832 -0.116247 22.2728 0.113609C22.0379 0.156707 21.803 0.228537 21.5827 0.343466L19.1894 1.50711L2.46551 9.69574L1.49644 10.1698C0.80634 10.5146 0.292437 11.1324 0.0868755 11.865C-0.118686 12.5977 0.0134606 13.3878 0.453949 14.0199L9.90978 27.9119L2.46551 31.5608C1.54049 32.0206 0.967853 32.9256 0.967853 33.9456C0.967853 34.9656 1.54049 35.8706 2.46551 36.3304L21.4506 45.6252C22.0085 45.8981 22.6105 46.0274 23.2272 46.0274C23.5502 46.0274 23.8732 45.9843 24.1816 45.9125C24.4165 45.8694 24.6514 45.7976 24.8717 45.6826L25.0039 45.6252L43.989 36.3304L44.958 35.8563C45.6481 35.5115 46.162 34.8938 46.3675 34.1611C46.5732 33.3997 46.441 32.6096 46.0005 31.9775ZM23.7265 42.9962L14.2119 29.0181L23.2419 24.6077L42.2857 33.9312L23.7265 42.9962ZM22.728 3.00117L32.2572 16.9793L23.2272 21.3897L4.16873 12.0662L22.728 3.00117ZM41.2726 30.2248L26.5015 22.9987L33.887 19.3928L41.2726 30.2248ZM34.9001 15.6864L27.5146 4.85439L42.2857 12.0662L34.9001 15.6864ZM5.18186 15.7726L19.9529 22.9987L12.5674 26.6046L5.18186 15.7726ZM11.5543 30.311L18.9398 41.143L4.16873 33.9312L11.5543 30.311Z" fill="white"/>
</g>
<defs>
<clipPath id="clip0">
<rect width="179" height="46" fill="white"/>
</clipPath>
</defs>
</svg>
