<svg width="201" height="36" viewBox="0 0 201 36" fill="none" xmlns="http://www.w3.org/2000/svg">
<path d="M0 8.42129C0 9.57415 0.608552 10.6394 1.59642 11.2159L13.2205 17.9986V10.2843L26.4408 17.9986V12.1474C26.4408 10.9945 25.8322 9.92925 24.8444 9.35283L13.2205 2.57016V10.2843L0 2.57016V8.42129Z" fill="#FCFBF8"/>
<path d="M26.4408 17.9987L13.2205 25.7129V17.9987L1.59642 24.7814C0.608554 25.3579 0 26.4231 0 27.576V33.4272L13.2205 25.7129V33.4272L24.8444 26.6445C25.8322 26.068 26.4408 25.0028 26.4408 23.8499V17.9987Z" fill="#FCFBF8"/>
<path d="M44.5542 27.0043C46.0886 27.8838 47.8301 28.3027 49.7376 28.3027C52.1426 28.3027 54.1745 27.6326 55.8747 26.2921C57.5748 24.9517 58.653 23.1924 59.109 21.0142H54.6721C54.2159 22.1032 53.5525 22.8991 52.7232 23.4856C51.8939 24.0721 50.8987 24.3652 49.7791 24.3652C48.1203 24.3652 46.7105 23.7788 45.6324 22.606C44.5542 21.4331 44.0152 19.9251 44.0152 18.082C44.0152 16.239 44.5542 14.731 45.6324 13.5581C46.7105 12.3852 48.1203 11.7988 49.7791 11.7988C50.9402 11.7988 51.9354 12.092 52.7647 12.6784C53.594 13.2649 54.2574 14.1026 54.6721 15.1079H59.109C58.653 13.0135 57.5748 11.2542 55.8747 9.87189C54.1745 8.53147 52.1426 7.81937 49.7376 7.81937C47.8301 7.81937 46.0886 8.28014 44.5542 9.1598C43.02 10.0394 41.8174 11.2542 40.9466 12.8041C40.0759 14.3959 39.6611 16.1551 39.6611 18.082C39.6611 20.0507 40.0759 21.8101 40.9466 23.3599C41.8174 24.9517 43.02 26.1665 44.5542 27.0043Z" fill="#FCFBF8"/>
<path d="M74.9012 9.07602C73.4083 8.23825 71.7497 7.81937 69.9252 7.81937C68.0177 7.81937 66.3176 8.28014 64.8247 9.1598C63.2905 10.0813 62.0879 11.2961 61.2172 12.846C60.3464 14.4377 59.9316 16.1551 59.9316 18.082C59.9316 20.0926 60.3464 21.852 61.1757 23.4018C62.005 24.9517 63.1246 26.1665 64.5345 27.0043C65.9443 27.8838 67.52 28.3027 69.2617 28.3027C70.5471 28.3027 71.7497 28.0096 72.9108 27.4231C74.0304 26.8366 74.9427 25.957 75.6476 24.8679L75.9793 27.8838H79.8357V18.082C79.8357 15.9876 79.3795 14.1865 78.5088 12.6365C77.5965 11.0867 76.3939 9.91378 74.9012 9.07602ZM72.6619 23.6532C71.7912 24.1558 70.8789 24.3652 69.9252 24.3652C68.2665 24.3652 66.8981 23.8207 65.8614 22.6479C64.7832 21.4749 64.2857 19.967 64.2857 18.082C64.2857 16.8673 64.5344 15.7782 65.0321 14.8147C65.5296 13.8513 66.1932 13.0973 67.064 12.5527C67.8933 12.0501 68.847 11.7569 69.9252 11.7569C70.9204 11.7569 71.8326 12.0082 72.7034 12.5109C73.5327 13.0135 74.2378 13.7676 74.7353 14.731C75.233 15.6943 75.5231 16.8254 75.5231 18.082C75.5231 19.3805 75.233 20.5115 74.7353 21.4749C74.1963 22.4384 73.4913 23.1505 72.6619 23.6532Z" fill="#FCFBF8"/>
<path d="M96.8451 9.1598C95.3522 8.28014 93.6521 7.81937 91.8276 7.81937C90.0031 7.81937 88.3858 8.23825 86.893 9.07602C85.4002 9.91378 84.1977 11.1286 83.2855 12.6784C82.3732 14.2702 81.9585 16.0713 81.9585 18.1657V35.1932H86.3539V25.2868C87.1004 26.2502 88.0127 27.0043 89.1738 27.5068C90.2933 28.0515 91.4543 28.3027 92.6984 28.3027C94.357 28.3027 95.8499 27.8838 97.2597 27.0043C98.6281 26.1665 99.7063 24.9517 100.536 23.3599C101.323 21.8101 101.738 20.0507 101.738 18.0401C101.738 16.1132 101.282 14.3958 100.411 12.846C99.5404 11.2961 98.3378 10.0813 96.8451 9.1598ZM95.8499 22.606C94.8132 23.7788 93.5277 24.3652 91.952 24.3652C90.9568 24.3652 90.0445 24.114 89.1738 23.6113C88.3028 23.1085 87.5979 22.3965 87.1004 21.4331C86.5613 20.5115 86.3126 19.3805 86.3126 18.0401C86.3126 16.7835 86.5613 15.6524 87.0589 14.689C87.5565 13.7676 88.2615 13.0135 89.0908 12.5109C89.9201 12.0082 90.8324 11.7569 91.8276 11.7569C93.4033 11.7569 94.6888 12.3433 95.7669 13.5162C96.8451 14.689 97.3841 16.1971 97.3841 18.0401C97.3841 19.9251 96.8451 21.4331 95.8499 22.606Z" fill="#FCFBF8"/>
<path d="M108.323 27.0043C109.857 27.8838 111.599 28.3027 113.506 28.3027C115.911 28.3027 117.943 27.6326 119.643 26.2921C121.343 24.9517 122.422 23.1924 122.878 21.0142H118.441C117.984 22.1032 117.321 22.8991 116.492 23.4856C115.662 24.0721 114.667 24.3652 113.548 24.3652C111.889 24.3652 110.479 23.7788 109.401 22.606C108.323 21.4331 107.784 19.9251 107.784 18.082C107.784 16.239 108.323 14.731 109.401 13.5581C110.479 12.3852 111.889 11.7988 113.548 11.7988C114.709 11.7988 115.704 12.092 116.533 12.6784C117.363 13.2649 118.026 14.1026 118.441 15.1079H122.878C122.422 13.0135 121.343 11.2542 119.643 9.87189C117.943 8.53147 115.911 7.81937 113.506 7.81937C111.599 7.81937 109.857 8.28014 108.323 9.1598C106.789 10.0394 105.586 11.2542 104.715 12.8041C103.844 14.3959 103.43 16.1551 103.43 18.082C103.43 20.0507 103.844 21.8101 104.715 23.3599C105.586 24.9517 106.789 26.1665 108.323 27.0043Z" fill="#FCFBF8"/>
<path d="M138.696 8.78278C137.576 8.15445 136.333 7.81935 135.006 7.81935C133.762 7.81935 132.642 8.11257 131.563 8.65712C130.486 9.20167 129.615 9.99754 128.952 11.0866V0.806702H124.597V27.8838H128.952V17.3699C128.952 16.2807 129.159 15.3173 129.615 14.4796C130.071 13.6418 130.651 12.9716 131.398 12.5108C132.144 12.0501 132.89 11.7987 133.72 11.7987C134.881 11.7987 135.876 12.2595 136.706 13.0973C137.535 13.977 137.95 15.2754 137.95 17.0348V27.8838H142.345V16.2389C142.345 14.4377 142.013 12.8879 141.35 11.6312C140.686 10.3745 139.774 9.41111 138.696 8.78278Z" fill="#FCFBF8"/>
<path d="M159.3 9.07602C157.808 8.23825 156.149 7.81937 154.325 7.81937C152.416 7.81937 150.717 8.28014 149.223 9.1598C147.689 10.0813 146.487 11.2961 145.617 12.846C144.745 14.4377 144.331 16.1551 144.331 18.082C144.331 20.0926 144.745 21.852 145.575 23.4018C146.404 24.9517 147.524 26.1665 148.933 27.0043C150.344 27.8838 151.919 28.3027 153.661 28.3027C154.947 28.3027 156.149 28.0096 157.31 27.4231C158.43 26.8366 159.342 25.957 160.047 24.8679L160.379 27.8838H164.235V18.082C164.235 15.9876 163.779 14.1865 162.908 12.6365C161.996 11.0867 160.793 9.91378 159.3 9.07602ZM157.061 23.6532C156.191 24.1558 155.277 24.3652 154.325 24.3652C152.666 24.3652 151.297 23.8207 150.26 22.6479C149.183 21.4749 148.685 19.967 148.685 18.082C148.685 16.8673 148.933 15.7782 149.431 14.8147C149.929 13.8513 150.592 13.0973 151.464 12.5527C152.293 12.0501 153.246 11.7569 154.325 11.7569C155.319 11.7569 156.232 12.0082 157.103 12.5109C157.932 13.0135 158.637 13.7676 159.135 14.731C159.632 15.6943 159.922 16.8254 159.922 18.082C159.922 19.3805 159.632 20.5115 159.135 21.4749C158.595 22.4384 157.89 23.1505 157.061 23.6532Z" fill="#FCFBF8"/>
<path d="M167.934 26.5435C169.344 27.7163 171.168 28.3027 173.366 28.3027C175.356 28.3027 177.057 27.8001 178.466 26.7529C179.835 25.7057 180.54 24.3234 180.54 22.6479C180.54 21.3074 180.208 20.2602 179.586 19.4224C178.964 18.5846 178.217 17.9563 177.347 17.5374C176.475 17.1185 175.398 16.7416 174.071 16.3227C172.744 15.9876 171.79 15.6106 171.168 15.2335C170.546 14.8985 170.256 14.354 170.256 13.6418C170.256 13.0135 170.505 12.469 171.003 12.0501C171.5 11.6312 172.122 11.4218 172.91 11.4218C173.739 11.4218 174.403 11.6731 174.901 12.1339C175.398 12.5946 175.73 13.2229 175.895 14.0188H180.166C179.959 12.092 179.213 10.5421 177.927 9.45302C176.6 8.36392 174.941 7.81937 172.91 7.81937C171.5 7.81937 170.256 8.11259 169.219 8.65714C168.142 9.20169 167.353 9.91378 166.815 10.7934C166.275 11.715 166.026 12.6365 166.026 13.6418C166.026 14.9823 166.316 16.0713 166.938 16.8673C167.52 17.7051 168.265 18.2915 169.136 18.7104C169.966 19.1293 171.085 19.5481 172.412 19.9251C173.739 20.344 174.693 20.721 175.315 21.056C175.937 21.4331 176.268 21.9776 176.268 22.6479C176.268 23.2343 176.02 23.7369 175.523 24.114C175.025 24.5329 174.278 24.7004 173.366 24.7004C172.454 24.7004 171.665 24.449 171.003 23.9463C170.339 23.4437 169.966 22.7735 169.883 21.852H165.611C165.694 23.7788 166.483 25.3706 167.934 26.5435Z" fill="#FCFBF8"/>
<path d="M200.659 19.6738C200.659 19.2549 200.701 18.7522 200.701 18.082C200.701 16.1551 200.286 14.4377 199.457 12.846C198.627 11.2961 197.466 10.0813 196.014 9.1598C194.564 8.28014 192.988 7.81937 191.246 7.81937C189.338 7.81937 187.639 8.28014 186.146 9.1598C184.653 10.0394 183.451 11.2542 182.621 12.8041C181.792 14.354 181.377 16.1132 181.377 18.082C181.377 20.0926 181.792 21.852 182.621 23.4018C183.451 24.9517 184.653 26.1665 186.146 27.0043C187.639 27.8838 189.38 28.3027 191.288 28.3027C193.361 28.3027 195.227 27.7582 196.886 26.6272C198.503 25.4962 199.622 23.9463 200.204 21.9776H195.932C195.102 23.6532 193.527 24.449 191.246 24.449C189.837 24.449 188.633 24.0301 187.638 23.1924C186.644 22.3546 185.98 21.1818 185.732 19.6738H200.659ZM187.638 12.9298C188.633 12.092 189.837 11.6731 191.246 11.6731C192.573 11.6731 193.735 12.1339 194.729 13.0554C195.684 13.977 196.222 15.066 196.388 16.3227H185.732C186.022 14.8985 186.644 13.7676 187.638 12.9298Z" fill="#FCFBF8"/>
</svg>
