<svg width="200" height="22" viewBox="0 0 200 22" fill="none" xmlns="http://www.w3.org/2000/svg">
<path d="M15.6247 0.571888H0V21.1599H6.85294V16.1845H15.6247C20.5314 16.1845 23.5193 13.2678 23.5193 8.37817C23.5193 3.48852 20.5314 0.571888 15.6247 0.571888ZM6.85294 10.1796V6.57672H13.98C15.2409 6.57672 16.3922 6.57672 16.3922 8.37817C16.3922 10.1796 15.2409 10.1796 13.98 10.1796H6.85294Z" fill="white"/>
<path d="M38.6024 21.7318C46.7437 21.7318 51.4859 17.7857 51.4859 10.8373C51.4859 3.91744 46.7437 0 38.6024 0C30.4337 0 25.7189 3.88884 25.7189 10.8373C25.7189 17.8143 30.4337 21.7318 38.6024 21.7318ZM38.6024 15.7269C34.1343 15.7269 32.8459 13.5538 32.8459 10.8373C32.8459 8.14942 34.1069 6.00483 38.6024 6.00483C43.0979 6.00483 44.3589 8.17801 44.3589 10.8373C44.3589 13.5252 43.0705 15.7269 38.6024 15.7269Z" fill="white"/>
<path d="M69.8593 0.571888H54.2346V21.1599H61.0875V16.1845H69.8593C74.766 16.1845 77.7539 13.2678 77.7539 8.37817C77.7539 3.48852 74.766 0.571888 69.8593 0.571888ZM61.0875 10.1796V6.57672H68.2146C69.4755 6.57672 70.6268 6.57672 70.6268 8.37817C70.6268 10.1796 69.4755 10.1796 68.2146 10.1796H61.0875Z" fill="white"/>
<path d="M79.9534 10.8373C79.9534 18.1003 84.3941 21.7318 92.0146 21.7318C99.1691 21.7318 103.418 18.615 103.994 12.8389H96.702C96.4279 14.1828 95.0299 15.7269 92.0146 15.7269C88.4785 15.7269 87.0805 13.5538 87.0805 10.8373C87.0805 8.14942 88.4511 6.00483 92.0146 6.00483C95.0299 6.00483 96.4279 7.52034 96.702 8.83568H103.994C103.418 3.0882 99.1417 0 92.0146 0C84.3941 0 79.9534 3.6029 79.9534 10.8373Z" fill="white"/>
<path d="M124.821 7.86347H113.582V0.571888H106.729V21.1599H113.582V13.8683H124.821V21.1599H131.674V0.571888H124.821V7.86347Z" fill="white"/>
<path d="M155.255 0.571888H134.971V21.1599H155.255V15.7269H141.824V13.5824H154.707V8.14942H141.824V6.00483H155.255V0.571888Z" fill="white"/>
<path d="M188.569 15.6984L183.114 0.571888H174.068L168.614 15.6984L164.091 0.571888H157.183L163.542 21.1599H173.411L178.591 6.43375L183.772 21.1599H193.64L200 0.571888H193.092L188.569 15.6984Z" fill="white"/>
</svg>
