<svg width="25" height="25" viewBox="0 0 25 25" fill="none" xmlns="http://www.w3.org/2000/svg">
<g clip-path="url(#clip0_68:23)">
<path d="M0 8.85057C0 3.96254 4.03206 0 9.00585 0H9.79532C11.0872 0 12.1345 1.02923 12.1345 2.29885V8.76437C12.1345 10.034 11.0872 11.0632 9.79532 11.0632H2.25146C1.00801 11.0632 0 10.0726 0 8.85057Z" fill="#EC6F66"/>
<path d="M6.21353 25C9.48364 25 12.1346 22.3948 12.1346 19.181C12.1346 15.9673 9.48364 13.3621 6.21353 13.3621C2.94343 13.3621 0.29248 15.9673 0.29248 19.181C0.29248 22.3948 2.94343 25 6.21353 25Z" fill="#D9E4F6"/>
<path d="M14.4736 1.88088C14.4736 0.842098 15.3305 0 16.3875 0C21.1441 0 24.9999 3.78944 24.9999 8.46395V22.7011C24.9999 23.9708 23.9527 25 22.6608 25H16.8128C15.5209 25 14.4736 23.9708 14.4736 22.7011V1.88088Z" fill="#396AFC"/>
</g>
<defs>
<clipPath id="clip0_68:23">
<rect width="25" height="25" fill="white"/>
</clipPath>
</defs>
</svg>
