<svg width="201" height="42" viewBox="0 0 201 42" fill="none" xmlns="http://www.w3.org/2000/svg">
<rect width="201" height="42" fill="#4353FF"/>
<path d="M29.3477 18.5098C29.3477 18.5098 27.8844 22.9133 27.7744 23.2871C27.7321 22.9133 26.6664 15 26.6664 15C24.1711 15 22.843 16.698 22.141 18.5098C22.141 18.5098 20.3647 22.9296 20.2209 23.3033C20.2124 22.954 19.9502 18.5586 19.9502 18.5586C19.7979 16.3487 17.7002 15.0081 16 15.0081L18.047 27C20.6607 26.9919 22.0649 25.2938 22.8008 23.4902C22.8008 23.4902 24.3656 19.5904 24.4333 19.4116C24.4502 19.5823 25.5583 27 25.5583 27C28.172 27 29.5846 25.4076 30.3459 23.6689L34 15C31.4117 15 30.0498 16.698 29.3477 18.5098Z" fill="white"/>
<path d="M51.148 25H53.01V21.192H54.41C56.552 21.192 58.078 20.254 58.078 18.14V18.084C58.078 15.984 56.608 14.99 54.368 14.99H51.148V25ZM53.01 19.848V16.432H54.368C55.558 16.432 56.258 16.894 56.258 18.084V18.14C56.258 19.246 55.6 19.848 54.368 19.848H53.01ZM59.5393 25H61.2333V21.192C61.2333 19.638 62.1292 19.162 63.6133 19.148V17.566C62.3813 17.58 61.6953 18.126 61.2333 19.05V17.678H59.5393V25ZM68.243 23.824C66.955 23.824 66.213 22.886 66.213 21.388V21.276C66.213 19.764 66.983 18.854 68.243 18.854C69.503 18.854 70.259 19.778 70.259 21.29V21.388C70.259 22.886 69.503 23.824 68.243 23.824ZM68.229 25.14C70.385 25.14 71.995 23.656 71.995 21.374V21.262C71.995 19.022 70.385 17.524 68.243 17.524C66.087 17.524 64.477 19.036 64.477 21.304V21.416C64.477 23.642 66.073 25.14 68.229 25.14ZM73.8196 25H75.5136V18.952H77.1796V17.678H75.5136V16.628C75.5136 15.998 75.7936 15.55 76.4796 15.55C76.7876 15.55 77.0536 15.606 77.2496 15.676V14.36C76.9416 14.262 76.6896 14.22 76.2836 14.22C74.7156 14.22 73.8196 15.088 73.8196 16.698V17.678H72.8256V18.952H73.8196V25ZM81.5444 25.14C83.4204 25.14 84.6664 24.3 84.9044 22.76H83.2664C83.1404 23.474 82.6084 23.88 81.5864 23.88C80.3264 23.88 79.6264 23.096 79.5704 21.71H84.9324V21.22C84.9324 18.602 83.2944 17.524 81.4744 17.524C79.3884 17.524 77.8344 19.036 77.8344 21.304V21.416C77.8344 23.726 79.3884 25.14 81.5444 25.14ZM79.5984 20.576C79.7664 19.442 80.4524 18.756 81.4744 18.756C82.5244 18.756 83.1684 19.316 83.2524 20.576H79.5984ZM89.0199 25.14C90.8959 25.14 91.9459 24.286 91.9459 22.802C91.9459 21.248 90.9239 20.828 89.2019 20.562C88.0399 20.366 87.6899 20.156 87.6899 19.624C87.6899 19.106 88.1239 18.756 88.8519 18.756C89.6359 18.756 90.0139 19.064 90.1539 19.736H91.7219C91.5399 18.084 90.3499 17.524 88.8519 17.524C87.4799 17.524 86.1079 18.252 86.1079 19.722C86.1079 21.094 86.8219 21.64 88.7539 21.948C89.8319 22.13 90.3219 22.354 90.3219 22.956C90.3219 23.572 89.9159 23.894 89.0059 23.894C88.0119 23.894 87.6339 23.46 87.5499 22.718H85.9539C86.0239 24.272 87.1299 25.14 89.0199 25.14ZM95.9378 25.14C97.8138 25.14 98.8638 24.286 98.8638 22.802C98.8638 21.248 97.8418 20.828 96.1198 20.562C94.9578 20.366 94.6078 20.156 94.6078 19.624C94.6078 19.106 95.0418 18.756 95.7698 18.756C96.5538 18.756 96.9318 19.064 97.0718 19.736H98.6398C98.4578 18.084 97.2678 17.524 95.7698 17.524C94.3978 17.524 93.0258 18.252 93.0258 19.722C93.0258 21.094 93.7398 21.64 95.6718 21.948C96.7498 22.13 97.2398 22.354 97.2398 22.956C97.2398 23.572 96.8338 23.894 95.9238 23.894C94.9298 23.894 94.5518 23.46 94.4678 22.718H92.8718C92.9418 24.272 94.0478 25.14 95.9378 25.14ZM100.392 25H102.086V17.678H100.392V25ZM101.218 16.474C101.778 16.474 102.226 16.054 102.226 15.508C102.226 14.948 101.778 14.528 101.218 14.528C100.658 14.528 100.21 14.948 100.21 15.508C100.21 16.054 100.658 16.474 101.218 16.474ZM107.427 23.824C106.139 23.824 105.397 22.886 105.397 21.388V21.276C105.397 19.764 106.167 18.854 107.427 18.854C108.687 18.854 109.443 19.778 109.443 21.29V21.388C109.443 22.886 108.687 23.824 107.427 23.824ZM107.413 25.14C109.569 25.14 111.179 23.656 111.179 21.374V21.262C111.179 19.022 109.569 17.524 107.427 17.524C105.271 17.524 103.661 19.036 103.661 21.304V21.416C103.661 23.642 105.257 25.14 107.413 25.14ZM112.709 25H114.403V20.688C114.403 19.526 115.173 18.938 116.125 18.938C117.133 18.938 117.581 19.442 117.581 20.548V25H119.275V20.394C119.275 18.378 118.239 17.524 116.769 17.524C115.565 17.524 114.753 18.126 114.403 18.84V17.678H112.709V25ZM123.145 25.14C124.265 25.14 124.909 24.734 125.385 24.104V25H127.051V20.198C127.051 18.196 125.763 17.524 124.125 17.524C122.487 17.524 121.129 18.238 120.989 19.946H122.627C122.711 19.218 123.145 18.798 124.027 18.798C125.021 18.798 125.357 19.288 125.357 20.268V20.646H124.447C122.347 20.646 120.695 21.262 120.695 22.97C120.695 24.496 121.801 25.14 123.145 25.14ZM123.551 23.922C122.711 23.922 122.375 23.516 122.375 22.9C122.375 22.004 123.201 21.71 124.489 21.71H125.357V22.438C125.357 23.376 124.587 23.922 123.551 23.922ZM129.034 25H130.728V14.29H129.034V25ZM136.269 25H138.131V21.192H139.531C141.673 21.192 143.199 20.254 143.199 18.14V18.084C143.199 15.984 141.729 14.99 139.489 14.99H136.269V25ZM138.131 19.848V16.432H139.489C140.679 16.432 141.379 16.894 141.379 18.084V18.14C141.379 19.246 140.721 19.848 139.489 19.848H138.131ZM146.442 25.14C147.562 25.14 148.206 24.734 148.682 24.104V25H150.348V20.198C150.348 18.196 149.06 17.524 147.422 17.524C145.784 17.524 144.426 18.238 144.286 19.946H145.924C146.008 19.218 146.442 18.798 147.324 18.798C148.318 18.798 148.654 19.288 148.654 20.268V20.646H147.744C145.644 20.646 143.992 21.262 143.992 22.97C143.992 24.496 145.098 25.14 146.442 25.14ZM146.848 23.922C146.008 23.922 145.672 23.516 145.672 22.9C145.672 22.004 146.498 21.71 147.786 21.71H148.654V22.438C148.654 23.376 147.884 23.922 146.848 23.922ZM152.289 25H153.983V21.192C153.983 19.638 154.879 19.162 156.363 19.148V17.566C155.131 17.58 154.445 18.126 153.983 19.05V17.678H152.289V25ZM160.414 25.126C160.932 25.126 161.296 25.042 161.562 24.944V23.6C161.324 23.698 161.072 23.74 160.736 23.74C160.204 23.74 159.896 23.446 159.896 22.802V18.952H161.506V17.678H159.896V16.068H158.202V17.678H157.222V18.952H158.202V22.956C158.202 24.342 158.958 25.126 160.414 25.126ZM163.09 25H164.784V20.688C164.784 19.526 165.554 18.938 166.506 18.938C167.514 18.938 167.962 19.442 167.962 20.548V25H169.656V20.394C169.656 18.378 168.62 17.524 167.15 17.524C165.946 17.524 165.134 18.126 164.784 18.84V17.678H163.09V25ZM174.828 25.14C176.704 25.14 177.95 24.3 178.188 22.76H176.55C176.424 23.474 175.892 23.88 174.87 23.88C173.61 23.88 172.91 23.096 172.854 21.71H178.216V21.22C178.216 18.602 176.578 17.524 174.758 17.524C172.672 17.524 171.118 19.036 171.118 21.304V21.416C171.118 23.726 172.672 25.14 174.828 25.14ZM172.882 20.576C173.05 19.442 173.736 18.756 174.758 18.756C175.808 18.756 176.452 19.316 176.536 20.576H172.882ZM179.729 25H181.423V21.192C181.423 19.638 182.319 19.162 183.803 19.148V17.566C182.571 17.58 181.885 18.126 181.423 19.05V17.678H179.729V25Z" fill="white"/>
</svg>
