<svg id="Layer_1" data-name="Layer 1" xmlns="http://www.w3.org/2000/svg" xmlns:xlink="http://www.w3.org/1999/xlink" viewBox="0 0 32 32"><defs><style>.cls-1{fill:url(#linear-gradient);}.cls-2{fill:#4353ff;}</style><linearGradient id="linear-gradient" x1="-46.39" y1="-60.51" x2="26.49" y2="28.86" gradientUnits="userSpaceOnUse"><stop offset="0" stop-color="#4353ff"/><stop offset="0.09" stop-color="#4353ff" stop-opacity="0.91"/><stop offset="1" stop-color="#4353ff" stop-opacity="0"/></linearGradient></defs><title>pricing1</title><circle class="cls-1" cx="16" cy="16" r="11"/><path class="cls-2" d="M16,10a2.93,2.93,0,0,1,3,2.85,3,3,0,0,1-1.53,2.3,1,1,0,0,0-.42,1.16L18.58,21H13.42L15,16.31a1,1,0,0,0-.42-1.16A3,3,0,0,1,13,12.85,2.93,2.93,0,0,1,16,10m0-1a3.93,3.93,0,0,0-4,3.85A3.85,3.85,0,0,0,14,16l-1.74,5.34a.5.5,0,0,0,.48.66h6.52a.5.5,0,0,0,.48-.66L18,16a3.85,3.85,0,0,0,2-3.15A3.93,3.93,0,0,0,16,9Z"/></svg>