<svg id="Layer_1" data-name="Layer 1" xmlns="http://www.w3.org/2000/svg" xmlns:xlink="http://www.w3.org/1999/xlink" viewBox="0 0 32 32"><defs><style>.cls-1{fill:none;stroke:#38d996;stroke-linecap:round;stroke-linejoin:round;}.cls-2{fill:url(#linear-gradient);}</style><linearGradient id="linear-gradient" x1="39.08" y1="-5.91" x2="7.16" y2="23.01" gradientUnits="userSpaceOnUse"><stop offset="0" stop-color="#38d996"/><stop offset="1" stop-color="#38d996" stop-opacity="0"/></linearGradient></defs><title>pricing19</title><path class="cls-1" d="M15.5,18.9v2.27A3.42,3.42,0,0,0,19,24.5h4a3.42,3.42,0,0,0,3.5-3.33V18.83A3.42,3.42,0,0,0,23,15.5H9a3.42,3.42,0,0,1-3.5-3.33V9.83A3.42,3.42,0,0,1,9,6.5h4a3.42,3.42,0,0,1,3.5,3.33v2.34"/><rect class="cls-2" x="10" y="10" width="12" height="10" rx="4" ry="4"/></svg>