<?xml version="1.0" encoding="UTF-8"?> <svg xmlns="http://www.w3.org/2000/svg" width="267" height="57" viewBox="0 0 267 57" fill="none"><path d="M70.7334 38.2077V11.0922H90.2339V16.0217H75.8504V23.4329H89.4571V28.1647H75.8504V38.2145H70.7334V38.2077Z" fill="white"></path><path d="M97.7835 19.0829L98.131 21.292C99.6027 18.9261 101.579 18.5784 103.521 18.5784C105.496 18.5784 107.397 19.3557 108.447 20.3988L106.314 24.5101C105.347 23.6988 104.454 23.2693 102.9 23.2693C100.42 23.2693 98.131 24.592 98.131 28.1169V38.2009H93.4023V19.0761H97.7835V19.0829Z" fill="white"></path><path d="M114.259 30.3328C114.565 32.6987 116.623 34.41 119.955 34.41C121.699 34.41 123.989 33.7487 125.072 32.6237L128.097 35.61C126.08 37.7031 122.789 38.7122 119.88 38.7122C113.291 38.7122 109.374 34.6418 109.374 28.5124C109.374 22.6965 113.325 18.5034 119.533 18.5034C125.931 18.5034 129.923 22.4579 129.187 30.3328H114.259ZM124.643 26.4192C124.336 23.9374 122.394 22.6965 119.682 22.6965C117.127 22.6965 115.029 23.9374 114.334 26.4192H124.643Z" fill="white"></path><path d="M145.301 24.1692C143.945 22.8874 142.392 22.4647 140.573 22.4647C138.324 22.4647 137.084 23.1602 137.084 24.367C137.084 25.6079 138.208 26.3033 140.648 26.4601C144.252 26.6919 148.831 27.5101 148.831 32.5896C148.831 35.9645 146.078 38.8759 140.614 38.8759C137.588 38.8759 134.563 38.3713 131.776 35.46L134.1 32.085C135.456 33.5987 138.556 34.7236 140.689 34.7645C142.474 34.8055 144.136 33.8714 144.136 32.4737C144.136 31.1578 143.053 30.6123 140.334 30.4555C136.73 30.1828 132.424 28.8669 132.424 24.517C132.424 20.092 136.996 18.5443 140.484 18.5443C143.468 18.5443 145.717 19.1239 147.925 21.067L145.301 24.1692Z" fill="white"></path><path d="M156.578 11.0513V21.6807C158.281 19.4716 160.373 18.8102 162.546 18.8102C167.977 18.8102 170.375 22.4988 170.375 28.1237V38.2077H165.647V28.1578C165.647 24.667 163.827 23.1943 161.306 23.1943C158.513 23.1943 156.578 25.5601 156.578 28.4306V38.2077H151.849V11.0513H156.578Z" fill="white"></path><path d="M174.368 46.1985V19.083H178.79L179.104 21.7216C180.575 19.5875 183.137 18.6602 185.304 18.6602C191.198 18.6602 195.109 23.0443 195.109 28.6692C195.109 34.2532 191.579 38.6781 185.454 38.6781C183.437 38.6781 180.453 38.0577 179.097 35.9645V46.2053H174.368V46.1985ZM190.38 28.6692C190.38 25.6829 188.363 23.2352 184.95 23.2352C181.536 23.2352 179.519 25.676 179.519 28.6692C179.519 31.6623 181.727 34.1032 184.95 34.1032C188.172 34.1032 190.38 31.6555 190.38 28.6692Z" fill="white"></path><path d="M213.751 19.083H218.289V38.2077H213.833L213.601 35.4123C212.518 37.6623 209.533 38.7463 207.401 38.7872C201.739 38.8281 197.555 35.3373 197.555 28.6215C197.555 22.0284 201.936 18.5716 207.517 18.6125C210.079 18.6125 212.518 19.8125 213.601 21.7147L213.751 19.083ZM202.277 28.6283C202.277 32.276 204.798 34.4441 207.939 34.4441C215.38 34.4441 215.38 22.8466 207.939 22.8466C204.798 22.8466 202.277 24.9806 202.277 28.6283Z" fill="white"></path><path d="M227.432 13.6899C227.432 17.3716 221.852 17.3716 221.852 13.6899C221.845 10.0081 227.432 10.0081 227.432 13.6899ZM222.275 19.008V38.2077H227.003V19.008H222.275Z" fill="white"></path><path d="M245.338 38.2077V28.1987C245.338 25.2874 243.751 23.0783 240.725 23.0783C237.816 23.0783 235.84 25.5192 235.84 28.4305V38.2077H231.152V19.042H235.377L235.69 21.6397C237.625 19.7375 239.567 18.7693 241.972 18.7693C246.469 18.7693 250.074 22.1443 250.074 28.1578V38.2077H245.338Z" fill="white"></path><path d="M259.988 13.6898V19.1238H265.262V23.1942H259.947V31.4578C259.947 33.2782 260.955 34.1714 262.427 34.1714C263.163 34.1714 264.015 33.9395 264.717 33.5918L266.032 37.6281C264.676 38.1736 263.551 38.4054 262.114 38.4395C257.964 38.5963 255.252 36.2304 255.252 31.4578V23.1942H251.682V19.1238H255.252V14.1944L259.988 13.6898Z" fill="white"></path><path d="M0.708984 34.6396V22.5916C0.708984 21.979 1.2072 21.4889 1.81462 21.4889H15.4167C16.031 21.4889 16.5224 21.9858 16.5224 22.5916V34.6396C16.5224 35.2522 16.0241 35.7423 15.4167 35.7423H1.81462C1.20038 35.7423 0.708984 35.2454 0.708984 34.6396Z" fill="white"></path><path d="M16.5292 43.4271V55.7746C16.5292 56.3805 16.0378 56.8773 15.4304 56.8773L1.82827 56.9999C1.21403 57.0067 0.708984 56.5098 0.708984 55.8972V43.4203C0.708984 42.8077 1.2072 42.3176 1.81462 42.3176H15.4167C16.031 42.3244 16.5292 42.8213 16.5292 43.4271Z" fill="white"></path><path d="M42.6419 1.45652C42.6419 0.843909 42.1437 0.353821 41.5362 0.353821H39.1816H23.5389H16.5297H1.81511C1.20087 0.353821 0.709473 0.850716 0.709473 1.45652V13.7972C0.709473 14.4098 1.20769 14.8999 1.81511 14.8999H23.5389H41.5294C42.1437 14.8999 42.6351 14.403 42.6351 13.7972V1.45652H42.6419Z" fill="white"></path><path d="M42.6416 22.5916C42.6416 21.979 42.1433 21.4889 41.5359 21.4889H39.1813H24.6442C24.03 21.4889 23.5386 21.9858 23.5386 22.5916V34.6396C23.5386 35.2522 24.0368 35.7423 24.6442 35.7423H39.1745H41.5291C42.1433 35.7423 42.6347 35.2454 42.6347 34.6396V22.5916H42.6416Z" fill="white"></path></svg> 