<svg width="16" height="17" viewBox="0 0 16 17" fill="none" xmlns="http://www.w3.org/2000/svg">
<path d="M14.0203 4.71749H11.7199C11.7819 4.33642 12.0055 4.12313 12.458 3.88141L12.8809 3.65391C13.6378 3.2444 14.0419 2.78086 14.0419 2.02441C14.0419 1.5495 13.8668 1.17412 13.5193 0.903958C13.1718 0.633797 12.7624 0.500139 12.2829 0.500139C11.912 0.495534 11.5478 0.605233 11.2351 0.815801C10.9199 1.02055 10.6856 1.28503 10.5401 1.61491L11.2055 2.32017C11.464 1.76847 11.8385 1.49831 12.3314 1.49831C12.7489 1.49831 13.0048 1.72581 13.0048 2.04148C13.0048 2.30595 12.8809 2.52492 12.4014 2.78086L12.1294 2.92021C11.5395 3.23587 11.13 3.59703 10.893 4.00654C10.6559 4.41604 10.5401 4.93077 10.5401 5.55356V5.72419H14.0203V4.71749ZM13.7132 6.88446H9.90441L8 10.3653H11.8088L13.7132 13.8489L15.6177 10.3653L13.7132 6.88446Z" fill="#FF4027"/>
<path d="M7.69539 12.7513C5.27122 12.7513 3.29687 10.6697 3.29687 8.11379C3.29687 5.5579 5.27122 3.47626 7.69539 3.47626L9.20107 0.156438C8.70524 0.0524827 8.20092 0.000166655 7.69539 0.000244227C3.44501 0.000244227 0 3.63246 0 8.11379C0 12.5951 3.44501 16.2273 7.69539 16.2273C9.32422 16.2306 10.9115 15.6853 12.2259 14.6711L10.5613 11.6267C9.76493 12.352 8.74773 12.7512 7.69539 12.7513Z" fill="#FF4027"/>
</svg>
