<?xml version="1.0" encoding="utf-8"?>
<!-- Generator: Adobe Illustrator 25.3.1, SVG Export Plug-In . SVG Version: 6.00 Build 0)  -->
<svg version="1.1" id="Layer_1" xmlns="http://www.w3.org/2000/svg" xmlns:xlink="http://www.w3.org/1999/xlink" x="0px" y="0px"
	 viewBox="0 0 23 35" style="enable-background:new 0 0 23 35;" xml:space="preserve">
<style type="text/css">
	.st0{fill:#F8BC3B;stroke:#F8BC3B;stroke-width:1.5;stroke-linecap:round;stroke-linejoin:round;}
	.st1{fill:none;stroke:#F8BC3B;stroke-width:1.5;stroke-linecap:round;stroke-linejoin:round;}
</style>
<path class="st0" d="M8.4,0.9c0-0.1,0.2-0.1,0.2,0l1.8,5.4h5.7c0.1,0,0.2,0.2,0.1,0.2l-4.6,3.3l1.8,5.4c0,0.1-0.1,0.2-0.2,0.1
	L8.5,12l-4.6,3.3c-0.1,0.1-0.2,0-0.2-0.1l1.8-5.4L0.8,6.5c-0.1-0.1,0-0.2,0.1-0.2h5.7L8.4,0.9z"/>
<path class="st1" d="M8.4,19.8c0-0.1,0.2-0.1,0.2,0l1.8,5.4h5.7c0.1,0,0.2,0.2,0.1,0.2l-4.6,3.3l1.8,5.4c0,0.1-0.1,0.2-0.2,0.1
	l-4.6-3.3l-4.6,3.3c-0.1,0.1-0.2,0-0.2-0.1l1.8-5.4l-4.6-3.3c-0.1-0.1,0-0.2,0.1-0.2h5.7L8.4,19.8z"/>
</svg>
