<?xml version="1.0" encoding="UTF-8"?> <!-- Generator: Adobe Illustrator 23.0.1, SVG Export Plug-In . SVG Version: 6.00 Build 0) --> <svg xmlns="http://www.w3.org/2000/svg" xmlns:xlink="http://www.w3.org/1999/xlink" id="Layer_1" x="0px" y="0px" viewBox="0 0 34 34" style="enable-background:new 0 0 34 34;" xml:space="preserve"> <path d="M29,0H5C2.2,0,0,2.2,0,5v24c0,2.8,2.2,5,5,5h11h10h3c2.8,0,5-2.2,5-5v-3V16V5C34,2.2,31.8,0,29,0z M5,32 c-1.7,0-3-1.3-3-3V5c0-1.7,1.3-3,3-3h11v14v8v2v6H5z M24,24h-6v-6h6V24z M18,32v-6h6v6H18z M32,29c0,1.7-1.3,3-3,3h-3v-6h6V29z M26,24v-6h6v6H26z M26,16h-2h-6V2h11c1.7,0,3,1.3,3,3v11H26z"></path> </svg> 