<?xml version="1.0" encoding="UTF-8"?> <!-- Generator: Adobe Illustrator 23.0.1, SVG Export Plug-In . SVG Version: 6.00 Build 0) --> <svg xmlns="http://www.w3.org/2000/svg" xmlns:xlink="http://www.w3.org/1999/xlink" id="Layer_1" x="0px" y="0px" viewBox="0 0 34 34" style="enable-background:new 0 0 34 34;" xml:space="preserve"> <g> <path d="M25,24V9c0-0.6-0.4-1-1-1s-1,0.4-1,1v15c0,0.6,0.4,1,1,1S25,24.6,25,24z"></path> <path d="M16,18v6c0,0.6,0.4,1,1,1c0.6,0,1-0.4,1-1v-6c0-0.6-0.4-1-1-1C16.4,17,16,17.4,16,18z"></path> <path d="M33,27.3h-3.7v-3.7c0-0.6-0.4-1-1-1s-1,0.4-1,1v3.7h-3.7c-0.6,0-1,0.4-1,1s0.4,1,1,1h3.7V33c0,0.6,0.4,1,1,1 s1-0.4,1-1v-3.7H33c0.6,0,1-0.4,1-1S33.6,27.3,33,27.3z"></path> <path d="M29,0H5C2.2,0,0,2.2,0,5v24c0,2.8,2.2,5,5,5h17.6c0.6,0,1-0.4,1-1s-0.4-1-1-1H5c-1.7,0-3-1.3-3-3V5 c0-1.7,1.3-3,3-3h24c1.7,0,3,1.3,3,3v17.6c0,0.6,0.4,1,1,1s1-0.4,1-1V5C34,2.2,31.8,0,29,0z"></path> <path class="st0" d="M9,12v12c0,0.6,0.4,1,1,1s1-0.4,1-1V12c0-0.6-0.4-1-1-1S9,11.4,9,12z"></path> </g> </svg> 