<?xml version="1.0" encoding="UTF-8"?> <!-- Generator: Adobe Illustrator 23.0.1, SVG Export Plug-In . SVG Version: 6.00 Build 0) --> <svg xmlns="http://www.w3.org/2000/svg" xmlns:xlink="http://www.w3.org/1999/xlink" id="Layer_1" x="0px" y="0px" viewBox="0 0 36 30" style="enable-background:new 0 0 36 30;" xml:space="preserve"> <g> <path d="M35.2,13.4l-7.3-12C27.4,0.6,26.4,0,25.3,0H10.7c-1,0-2,0.6-2.6,1.4l-7.3,12c-0.6,1-0.6,2.2,0,3.1l7.3,12 c0.5,0.9,1.5,1.4,2.6,1.4h14.7c1,0,2-0.6,2.6-1.4l7.3-12C35.8,15.6,35.8,14.4,35.2,13.4z M33.5,15.5l-7.3,12 C26,27.8,25.7,28,25.3,28H10.7c-0.3,0-0.7-0.2-0.9-0.5l-7.3-12v0c-0.2-0.3-0.2-0.7,0-1l7.3-12C10,2.2,10.3,2,10.7,2h14.7 c0.3,0,0.7,0.2,0.9,0.5l7.3,12C33.7,14.8,33.7,15.2,33.5,15.5z"></path> <path d="M24.9,6.4C24.4,5.5,23.4,5,22.4,5h-8.7c-1,0-2,0.5-2.6,1.4l-4.3,7c-0.6,1-0.6,2.2,0,3.1l4.3,7 c0.5,0.9,1.5,1.4,2.6,1.4h8.7c1,0,2-0.5,2.6-1.4l4.3-7c0.6-1,0.6-2.2,0-3.1L24.9,6.4z M27.5,15.5l-4.3,7C23,22.8,22.7,23,22.4,23 h-8.7c-0.3,0-0.7-0.2-0.9-0.5l-4.3-7c-0.2-0.3-0.2-0.7,0-1l4.3-7C13,7.2,13.3,7,13.6,7h8.7c0.3,0,0.7,0.2,0.9,0.5l4.3,7 C27.7,14.8,27.7,15.2,27.5,15.5z"></path> <path d="M21.9,11.4c-0.6-0.9-1.5-1.4-2.5-1.4h-2.8c-1,0-2,0.5-2.5,1.4l-1.3,2c-0.6,1-0.6,2.2,0,3.2l1.3,2 c0.6,0.9,1.5,1.4,2.5,1.4h2.8c1,0,2-0.5,2.5-1.4l1.3-2c0.6-1,0.6-2.2,0-3.2L21.9,11.4z M21.5,15.5l-1.3,2C20,17.8,19.7,18,19.4,18 h-2.8c-0.3,0-0.7-0.2-0.8-0.5l-1.3-2c-0.2-0.3-0.2-0.7,0-1.1l1.3-2c0.2-0.3,0.5-0.5,0.8-0.5h2.8c0.3,0,0.7,0.2,0.8,0.5l1.3,2 C21.7,14.8,21.7,15.2,21.5,15.5z"></path> </g> </svg> 