<?xml version="1.0" encoding="UTF-8"?> <!-- Generator: Adobe Illustrator 23.0.1, SVG Export Plug-In . SVG Version: 6.00 Build 0) --> <svg xmlns="http://www.w3.org/2000/svg" xmlns:xlink="http://www.w3.org/1999/xlink" id="Layer_1" x="0px" y="0px" viewBox="0 0 34 34" style="enable-background:new 0 0 34 34;" xml:space="preserve"> <g> <path d="M7,24H3c-1.7,0-3,1.3-3,3v4c0,1.7,1.3,3,3,3h4c1.7,0,3-1.3,3-3v-4C10,25.3,8.7,24,7,24z M8,31c0,0.6-0.4,1-1,1 H3c-0.6,0-1-0.4-1-1v-4c0-0.6,0.4-1,1-1h4c0.6,0,1,0.4,1,1V31z"></path> <path d="M19,24h-4c-1.7,0-3,1.3-3,3v4c0,1.7,1.3,3,3,3h4c1.7,0,3-1.3,3-3v-4C22,25.3,20.7,24,19,24z M20,31 c0,0.6-0.4,1-1,1h-4c-0.6,0-1-0.4-1-1v-4c0-0.6,0.4-1,1-1h4c0.6,0,1,0.4,1,1V31z"></path> <path d="M31,24h-4c-1.7,0-3,1.3-3,3v4c0,1.7,1.3,3,3,3h4c1.7,0,3-1.3,3-3v-4C34,25.3,32.7,24,31,24z M32,31 c0,0.6-0.4,1-1,1h-4c-0.6,0-1-0.4-1-1v-4c0-0.6,0.4-1,1-1h4c0.6,0,1,0.4,1,1V31z"></path> <path d="M9,22h4c1.7,0,3-1.3,3-3v-4c0-1.7-1.3-3-3-3H9c-1.7,0-3,1.3-3,3v4C6,20.7,7.3,22,9,22z M8,15c0-0.6,0.4-1,1-1 h4c0.6,0,1,0.4,1,1v4c0,0.6-0.4,1-1,1H9c-0.6,0-1-0.4-1-1V15z"></path> <path d="M18,15v4c0,1.7,1.3,3,3,3h4c1.7,0,3-1.3,3-3v-4c0-1.7-1.3-3-3-3h-4C19.3,12,18,13.3,18,15z M26,15v4 c0,0.6-0.4,1-1,1h-4c-0.6,0-1-0.4-1-1v-4c0-0.6,0.4-1,1-1h4C25.6,14,26,14.4,26,15z"></path> <path d="M15,10h4c1.7,0,3-1.3,3-3V3c0-1.7-1.3-3-3-3h-4c-1.7,0-3,1.3-3,3v4C12,8.7,13.3,10,15,10z M14,3 c0-0.6,0.4-1,1-1h4c0.6,0,1,0.4,1,1v4c0,0.6-0.4,1-1,1h-4c-0.6,0-1-0.4-1-1V3z"></path> </g> </svg> 