<?xml version="1.0" encoding="UTF-8"?> <!-- Generator: Adobe Illustrator 23.0.1, SVG Export Plug-In . SVG Version: 6.00 Build 0) --> <svg xmlns="http://www.w3.org/2000/svg" xmlns:xlink="http://www.w3.org/1999/xlink" id="Layer_1" x="0px" y="0px" viewBox="0 0 34 34" style="enable-background:new 0 0 34 34;" xml:space="preserve"> <g> <path d="M5,19.8c-0.4,0.4-0.4,1,0,1.4c0.2,0.2,0.5,0.3,0.7,0.3s0.5-0.1,0.7-0.3l3.8-3.8c0,0,0,0,0,0 c0.1-0.1,0.2-0.2,0.2-0.3c0.1-0.2,0.1-0.5,0-0.8c0-0.1-0.1-0.2-0.2-0.3c0,0,0,0,0,0l-3.8-3.8c-0.4-0.4-1-0.4-1.4,0s-0.4,1,0,1.4 l2.1,2.1H1c-0.6,0-1,0.4-1,1c0,0.6,0.4,1,1,1h6.1L5,19.8z"></path> <path d="M33,15.8h-6.1l2.1-2.1c0.4-0.4,0.4-1,0-1.4s-1-0.4-1.4,0l-3.8,3.8c0,0,0,0,0,0.1c-0.1,0.1-0.1,0.2-0.2,0.3 c-0.1,0.2-0.1,0.5,0,0.8c0,0.1,0.1,0.2,0.2,0.3c0,0,0,0,0,0.1l3.8,3.8c0.2,0.2,0.5,0.3,0.7,0.3s0.5-0.1,0.7-0.3 c0.4-0.4,0.4-1,0-1.4l-2.1-2.1H33c0.6,0,1-0.4,1-1C34,16.2,33.6,15.8,33,15.8z"></path> <path d="M15,12c-1.7,0-3,1.3-3,3v4c0,1.7,1.3,3,3,3h4c1.7,0,3-1.3,3-3v-4c0-1.7-1.3-3-3-3H15z M20,15v4 c0,0.6-0.4,1-1,1h-4c-0.6,0-1-0.4-1-1v-4c0-0.6,0.4-1,1-1h4C19.6,14,20,14.4,20,15z"></path> <path d="M1.6,12.3c0.5,0.2,1.1-0.1,1.3-0.6C5.1,5.9,10.8,2,17,2c6.2,0,11.8,3.9,14,9.7c0.2,0.4,0.5,0.6,0.9,0.6 c0.1,0,0.2,0,0.4-0.1c0.5-0.2,0.8-0.8,0.6-1.3C30.4,4.4,24,0,17,0C9.9,0,3.5,4.4,1.1,11C0.9,11.5,1.1,12.1,1.6,12.3z"></path> <path d="M32.3,21.7c-0.5-0.2-1.1,0.1-1.3,0.6c-2.2,5.8-7.8,9.7-14,9.7s-11.8-3.9-14-9.7c-0.2-0.5-0.8-0.8-1.3-0.6 c-0.5,0.2-0.8,0.8-0.6,1.3C3.5,29.6,9.9,34,17,34s13.4-4.4,15.9-11C33.1,22.5,32.8,21.9,32.3,21.7z"></path> </g> </svg> 