<?xml version="1.0" encoding="UTF-8"?> <!-- Generator: Adobe Illustrator 23.0.1, SVG Export Plug-In . SVG Version: 6.00 Build 0) --> <svg xmlns="http://www.w3.org/2000/svg" xmlns:xlink="http://www.w3.org/1999/xlink" id="Layer_1" x="0px" y="0px" viewBox="0 0 34 34" style="enable-background:new 0 0 34 34;" xml:space="preserve"> <g> <path d="M29,11h-2.8c-0.6,0-1,0.4-1,1s0.4,1,1,1H29c1.7,0,3,1.3,3,3v13c0,1.7-1.3,3-3,3H16c-1.7,0-3-1.3-3-3v-2.8 c0-0.6-0.4-1-1-1s-1,0.4-1,1V29c0,2.8,2.2,5,5,5h13c2.8,0,5-2.2,5-5V16C34,13.2,31.8,11,29,11z"></path> <path d="M23,18V5c0-2.8-2.2-5-5-5H5C2.2,0,0,2.2,0,5v13c0,2.8,2.2,5,5,5h13C20.8,23,23,20.8,23,18z M2,18V5 c0-1.7,1.3-3,3-3h13c1.7,0,3,1.3,3,3v13c0,1.7-1.3,3-3,3H5C3.3,21,2,19.7,2,18z"></path> <path d="M15.7,8.7L8.5,5.9C7.7,5.6,6.9,5.8,6.3,6.3C5.8,6.9,5.6,7.7,5.9,8.5l2.8,7.3c0.3,0.8,1,1.3,1.9,1.3 c0,0,0,0,0.1,0c0.9,0,1.6-0.6,1.8-1.4l0.8-2.4l2.4-0.8c0.8-0.3,1.4-1,1.4-1.8C17,9.8,16.5,9,15.7,8.7z M12.6,11.4 c-0.6,0.2-1.1,0.7-1.3,1.3L10.6,15L7.8,7.8l7.3,2.8L12.6,11.4z"></path> </g> </svg> 