<?xml version="1.0" encoding="UTF-8"?> <!-- Generator: Adobe Illustrator 23.0.1, SVG Export Plug-In . SVG Version: 6.00 Build 0) --> <svg xmlns="http://www.w3.org/2000/svg" xmlns:xlink="http://www.w3.org/1999/xlink" id="Layer_1" x="0px" y="0px" viewBox="0 0 34 34" style="enable-background:new 0 0 34 34;" xml:space="preserve"> <g> <path d="M31,0H17c-1.7,0-3,1.3-3,3v4c0,1.7,1.3,3,3,3h14c1.7,0,3-1.3,3-3V3C34,1.3,32.7,0,31,0z M32,7c0,0.6-0.4,1-1,1 H17c-0.6,0-1-0.4-1-1V3c0-0.6,0.4-1,1-1h14c0.6,0,1,0.4,1,1V7z"></path> <path d="M31,12H17c-1.7,0-3,1.3-3,3v4c0,1.7,1.3,3,3,3h14c1.7,0,3-1.3,3-3v-4C34,13.3,32.7,12,31,12z M32,19 c0,0.6-0.4,1-1,1H17c-0.6,0-1-0.4-1-1v-4c0-0.6,0.4-1,1-1h14c0.6,0,1,0.4,1,1V19z"></path> <path d="M31,24H17c-1.7,0-3,1.3-3,3v4c0,1.7,1.3,3,3,3h14c1.7,0,3-1.3,3-3v-4C34,25.3,32.7,24,31,24z M32,31 c0,0.6-0.4,1-1,1H17c-0.6,0-1-0.4-1-1v-4c0-0.6,0.4-1,1-1h14c0.6,0,1,0.4,1,1V31z"></path> <path d="M7,0H3C1.3,0,0,1.3,0,3v4c0,1.7,1.3,3,3,3h4c1.7,0,3-1.3,3-3V3C10,1.3,8.7,0,7,0z M8,7c0,0.6-0.4,1-1,1H3 C2.4,8,2,7.6,2,7V3c0-0.6,0.4-1,1-1h4c0.6,0,1,0.4,1,1V7z"></path> <path d="M7,12H3c-1.7,0-3,1.3-3,3v4c0,1.7,1.3,3,3,3h4c1.7,0,3-1.3,3-3v-4C10,13.3,8.7,12,7,12z M8,19c0,0.6-0.4,1-1,1 H3c-0.6,0-1-0.4-1-1v-4c0-0.6,0.4-1,1-1h4c0.6,0,1,0.4,1,1V19z"></path> <path d="M7,24H3c-1.7,0-3,1.3-3,3v4c0,1.7,1.3,3,3,3h4c1.7,0,3-1.3,3-3v-4C10,25.3,8.7,24,7,24z M8,31c0,0.6-0.4,1-1,1 H3c-0.6,0-1-0.4-1-1v-4c0-0.6,0.4-1,1-1h4c0.6,0,1,0.4,1,1V31z"></path> </g> </svg> 