<?xml version="1.0" encoding="UTF-8"?> <!-- Generator: Adobe Illustrator 23.0.1, SVG Export Plug-In . SVG Version: 6.00 Build 0) --> <svg xmlns="http://www.w3.org/2000/svg" xmlns:xlink="http://www.w3.org/1999/xlink" id="Layer_1" x="0px" y="0px" viewBox="0 0 34 34" style="enable-background:new 0 0 34 34;" xml:space="preserve"> <g> <path d="M3,22h4c1.7,0,3-1.3,3-3v-4c0-1.7-1.3-3-3-3H3c-1.7,0-3,1.3-3,3v4C0,20.7,1.3,22,3,22z M2,15c0-0.6,0.4-1,1-1 h4c0.6,0,1,0.4,1,1v4c0,0.6-0.4,1-1,1H3c-0.6,0-1-0.4-1-1V15z"></path> <path d="M17,12c-2.8,0-5,2.2-5,5s2.2,5,5,5s5-2.2,5-5S19.8,12,17,12z M17,20c-1.7,0-3-1.3-3-3s1.3-3,3-3s3,1.3,3,3 S18.7,20,17,20z"></path> <path d="M31,12h-4c-1.7,0-3,1.3-3,3v4c0,1.7,1.3,3,3,3h4c1.7,0,3-1.3,3-3v-4C34,13.3,32.7,12,31,12z M32,19 c0,0.6-0.4,1-1,1h-4c-0.6,0-1-0.4-1-1v-4c0-0.6,0.4-1,1-1h4c0.6,0,1,0.4,1,1V19z"></path> <path d="M17.7,24.3c-0.4-0.4-1-0.4-1.4,0s-0.4,1,0,1.4l2.3,2.3H1c-0.6,0-1,0.4-1,1s0.4,1,1,1h17.6l-2.3,2.3 c-0.4,0.4-0.4,1,0,1.4c0.2,0.2,0.5,0.3,0.7,0.3s0.5-0.1,0.7-0.3l4-4c0.4-0.4,0.4-1,0-1.4L17.7,24.3z"></path> <path d="M12.1,5.4c0.1,0.1,0.1,0.2,0.2,0.3l4,4C16.5,9.9,16.7,10,17,10s0.5-0.1,0.7-0.3c0.4-0.4,0.4-1,0-1.4L15.4,6H33 c0.6,0,1-0.4,1-1s-0.4-1-1-1H15.4l2.3-2.3c0.4-0.4,0.4-1,0-1.4s-1-0.4-1.4,0l-4,4c-0.1,0.1-0.2,0.2-0.2,0.3C12,4.7,12,4.9,12,5 S12,5.3,12.1,5.4z"></path> </g> </svg> 