<?xml version="1.0" encoding="UTF-8"?> <!-- Generator: Adobe Illustrator 23.0.1, SVG Export Plug-In . SVG Version: 6.00 Build 0) --> <svg xmlns="http://www.w3.org/2000/svg" xmlns:xlink="http://www.w3.org/1999/xlink" id="Layer_1" x="0px" y="0px" viewBox="0 0 34 34" style="enable-background:new 0 0 34 34;" xml:space="preserve"> <g> <path d="M31,14h-1v-3c0-3.9-3.1-7-7-7s-7,3.1-7,7v3h-1c-1.7,0-3,1.3-3,3v14c0,1.7,1.3,3,3,3h16c1.7,0,3-1.3,3-3V17 C34,15.3,32.7,14,31,14z M18,11c0-2.8,2.2-5,5-5s5,2.2,5,5v3H18V11z M32,31c0,0.6-0.4,1-1,1H15c-0.6,0-1-0.4-1-1V17 c0-0.6,0.4-1,1-1h16c0.6,0,1,0.4,1,1V31z"></path> <path d="M10,2.2l4,2.3c0.5,0.3,1.1,0.1,1.4-0.4C15.6,3.6,15.5,3,15,2.7l-4.5-2.6c-0.3-0.2-0.7-0.2-1,0l-9,5.2 C0.2,5.5,0,5.8,0,6.2v10.5c0,1.6,0.8,3.2,2.1,4.1l5.8,4.1C8.1,24.9,8.3,25,8.5,25c0.3,0,0.6-0.1,0.8-0.4c0.3-0.5,0.2-1.1-0.2-1.4 l-5.8-4.1C2.5,18.6,2,17.6,2,16.7V6.7L10,2.2z"></path> <path d="M26.3,20.3l-4.8,4.8l-1.8-1.8c-0.4-0.4-1-0.4-1.4,0s-0.4,1,0,1.4l2.5,2.5c0.2,0.2,0.5,0.3,0.7,0.3 s0.5-0.1,0.7-0.3l5.5-5.5c0.4-0.4,0.4-1,0-1.4S26.7,19.9,26.3,20.3z"></path> </g> </svg> 