<svg viewBox="0 0 754 120" xmlns="http://www.w3.org/2000/svg"><g fill="#42790c" fill-rule="evenodd"><g transform="translate(172 28)"><path d="m12.344 61.004c-7.803 0-12.344-4.63-12.344-12.709v-35.22c0-8.079 4.541-12.709 12.344-12.709 7.809 0 12.256 4.63 12.256 12.709v6.714h-7.808v-6.266c0-4.171-1.541-6.076-4.448-6.076-2.902 0-4.536 1.905-4.536 6.076v34.314c0 4.185 1.634 6.086 4.536 6.086 2.907 0 4.448-1.901 4.448-6.086v-6.257h7.808v6.715c0 8.079-4.447 12.709-12.256 12.709"/><path d="m41.641 54.015c2.909 0 4.812-1.998 4.812-6.173v-21.879c0-4.176-1.903-6.169-4.812-6.169-2.902 0-4.81 1.993-4.81 6.169v21.879c0 4.175 1.908 6.173 4.81 6.173zm0 6.989c-7.804 0-12.526-4.625-12.526-12.704v-22.79c0-8.08 4.722-12.708 12.526-12.708 7.808 0 12.529 4.628 12.529 12.708v22.79c0 8.079-4.721 12.704-12.529 12.704z"/><path d="m59.683 60.276v-46.748h7.445v2.904c.819-2.085 3.901-3.63 6.535-3.63 7.353 0 10.352 4.541 10.352 12.708v34.766h-7.718v-34.313c0-4.171-1.635-6.169-4.449-6.169-2.721 0-4.446 1.998-4.446 6.169v34.313z"/><path d="m95.68 60.276-8.622-46.748h7.988l3.813 25.689c.635 4.268 1.181 11.529 1.181 11.529h.177s.546-7.354 1.179-11.529l3.818-25.689h7.984l-8.712 46.748z"/><path d="m132.45 32.863v-6.9c0-4.171-1.812-6.169-4.721-6.169-2.902 0-4.718 1.998-4.718 6.169v6.9zm-4.631 28.146c-7.804 0-12.526-4.635-12.526-12.714v-22.785c0-8.075 4.631-12.708 12.436-12.708 7.808 0 12.529 4.633 12.529 12.708v13.527h-17.247v8.805c0 4.175 1.906 6.169 4.808 6.169 2.909 0 4.726-1.994 4.726-6.169v-2.636h7.713v3.089c0 8.079-4.631 12.714-12.439 12.714z"/><path d="m145.688 60.276v-46.748h7.533v5.901c1.639-4.268 5.901-6.447 10.442-6.266v8.084c-5.811-.912-10.257 1.992-10.257 8.892v30.137z"/><path d="m176.774 61.004c-7.804 0-12.526-4.63-12.526-12.709v-3.084h7.716v2.626c0 4.185 1.903 6.266 4.81 6.266 2.814 0 4.901-1.813 4.901-5.536 0-2.543-.543-3.907-2.991-5.807l-7.171-5.721c-4.086-3.27-6.449-5.993-6.449-11.802 0-7.807 4.086-12.435 11.71-12.435 7.625 0 11.892 4.628 11.892 12.708v3.176h-7.714v-2.718c0-3.908-1.364-6.266-4.178-6.266-2.722 0-4.082 2.085-4.082 5.535 0 2.544.546 3.723 2.993 5.628l7.174 5.721c4.081 3.269 6.445 6.174 6.445 11.981 0 7.807-4.905 12.437-12.53 12.437"/><path d="m193.752 60.276h7.718v-46.748h-7.718z"/><path d="m219.633 54.015c2.902 0 4.812-1.998 4.812-6.173v-21.879c0-4.176-1.91-6.169-4.812-6.169s-4.812 1.993-4.812 6.169v21.879c0 4.175 1.91 6.173 4.812 6.173zm0 6.989c-7.803 0-12.525-4.625-12.525-12.704v-22.79c0-8.08 4.722-12.708 12.525-12.708 7.809 0 12.531 4.628 12.531 12.708v22.79c0 8.079-4.722 12.704-12.531 12.704z"/><path d="m237.676 60.276v-46.748h7.443v2.904c.819-2.085 3.902-3.63 6.534-3.63 7.356 0 10.348 4.541 10.348 12.708v34.766h-7.714v-34.313c0-4.171-1.635-6.169-4.447-6.169-2.724 0-4.445 1.998-4.445 6.169v34.313z"/><path d="m295.463 27.688c3.269 0 4.814-2.358 4.814-6.076v-7.265c0-3.723-1.545-6.082-4.814-6.082h-4.356v19.423zm-12.164 32.588v-59.183h12.164c8.985 0 12.616 5.083 12.616 12.888v7.987c0 4.087-2.086 7.081-4.901 8.537 3.268 1.363 4.901 4.897 4.901 9.433v13.619c0 2.364.365 4.903 1.087 6.719h-7.987c-.726-1.723-.902-2.996-.902-5.895v-14.073c0-3.722-1.545-6.086-4.814-6.086h-4.356v26.054z"/><path d="m323.927 54.103c2.904 0 4.99-2.266 4.99-7.08v-10.257c-.814 1.092-1.905 1.998-3.903 3.177-3.63 2.178-5.351 4.171-5.351 8.537 0 4.079 1.814 5.623 4.264 5.623zm-2.626 6.901c-4.727 0-9.536-3.626-9.536-11.526 0-7.625 3.08-11.347 9.712-14.711 5.169-2.629 7.538-4.267 7.538-9.437 0-3.085-.912-5.628-3.913-5.628-2.9 0-4.264 2.085-4.264 6.261v2.723h-7.714v-2.723c0-8.078 4.357-13.161 12.162-13.161 9.629 0 11.442 6.627 11.442 14.979v15.798c0 10.436.087 13.336.814 16.697h-7.529c-.278-1.182-.462-2.449-.555-3.629-1.628 2.724-4.625 4.357-8.157 4.357z"/><path d="m355.771 60.361c-8.74.069-12.25-5.023-12.25-12.427v-27.052h-3.629v-7.354h3.629v-11.071h7.714v11.071h6.359v7.354h-6.359v26.141c0 4.269 1.632 6.359 6.359 5.993v7.26c-.633.052-1.24.08-1.823.085"/><path d="m377.608 32.863v-6.9c0-4.171-1.812-6.169-4.721-6.169-2.905 0-4.718 1.998-4.718 6.169v6.9zm-4.633 28.146c-7.801 0-12.523-4.635-12.523-12.714v-22.785c0-8.075 4.633-12.708 12.435-12.708 7.81 0 12.527 4.633 12.527 12.708v13.527h-17.245v8.805c0 4.175 1.901 6.169 4.806 6.169 2.909 0 4.726-1.994 4.726-6.169v-2.636h7.713v3.089c0 8.079-4.629 12.714-12.439 12.714z"/><path d="m406.096 60.276v-59.183h19.423v7.168h-11.613v17.883h10.257v7.265h-10.257v19.876h11.613v6.991z"/><path d="m426.975 60.276 9.262-24.143-8.99-22.605h7.627l4.175 10.987c.722 1.902 1.277 5.079 1.277 5.079h.088s.448-3.084 1.179-5.079l3.991-10.987h7.811l-8.996 22.697 9.263 24.051h-7.99l-3.899-12.249c-.633-1.999-1.183-5.088-1.183-5.088h-.088s-.639 3.177-1.273 5.088l-4.267 12.249z"/><path d="m469.437 54.015c2.899 0 4.809-1.998 4.809-6.173v-21.879c0-4.176-1.91-6.169-4.809-6.169-2.905 0-4.814 1.993-4.814 6.169v21.879c0 4.175 1.909 6.173 4.814 6.173zm-12.533 23.511v-64.003h7.451v3.089c.907-2.358 3.991-3.81 6.807-3.81 7.353 0 10.798 4.541 10.798 12.708v22.79c0 8.167-3.445 12.704-10.798 12.704-2.636 0-5.725-1.545-6.539-3.626v20.148z"/><path d="m504.061 32.863v-6.9c0-4.171-1.823-6.169-4.727-6.169-2.899 0-4.717 1.998-4.717 6.169v6.9zm-4.634 28.146c-7.807 0-12.523-4.635-12.523-12.714v-22.785c0-8.075 4.628-12.708 12.43-12.708 7.811 0 12.532 4.633 12.532 12.708v13.527h-17.249v8.805c0 4.175 1.905 6.169 4.81 6.169 2.904 0 4.72-1.994 4.72-6.169v-2.636h7.719v3.089c0 8.079-4.633 12.714-12.439 12.714z"/><path d="m517.296 60.276v-46.748h7.528v5.901c1.643-4.268 5.902-6.447 10.442-6.266v8.084c-5.807-.912-10.256 1.992-10.256 8.892v30.137z"/><path d="m552.6 60.361c-8.746.069-12.256-5.023-12.256-12.427v-27.052h-3.625v-7.354h3.625v-11.071h7.723v11.071h6.354v7.354h-6.354v26.141c0 4.269 1.628 6.359 6.354 5.993v7.26c-.638.052-1.239.08-1.821.085"/><path d="m569.155 61.004c-7.806 0-12.523-4.63-12.523-12.709v-3.084h7.714v2.626c0 4.185 1.9 6.266 4.809 6.266 2.812 0 4.902-1.813 4.902-5.536 0-2.543-.546-3.907-2.997-5.807l-7.172-5.721c-4.083-3.27-6.442-5.993-6.442-11.802 0-7.807 4.087-12.435 11.709-12.435 7.62 0 11.89 4.628 11.89 12.708v3.176h-7.714v-2.718c0-3.908-1.364-6.266-4.176-6.266-2.723 0-4.084 2.085-4.084 5.535 0 2.544.546 3.723 2.992 5.628l7.173 5.721c4.083 3.269 6.442 6.174 6.442 11.981 0 7.807-4.903 12.437-12.523 12.437"/><circle cx="197.5" cy="4.5" r="4.5"/></g><path d="m71.5772799.38663871c10.859-1.018 21.514-.042 31.5630001 3.121l.546.181-4.6320001 4.338-.113-.043c-8.87-2.996-18.427-4.041-28.249-3.213-2.684.222-5.293.587-7.841 1.059l-1.051.208.915 5.07299999 1.296-.227c1.819-.286 3.675-.499 5.569-.638 12.385-.87399999 24.223 1.752 33.8210001 8.033 9.484 6.248 16.777 16.37 16.935 29.902.014 2.099-.153 4.222-.497 6.34l-.18.985-11.277-2.488.19-.962c.229-1.355.365-2.705.413-4.065.326-10.876-5.11-19.353-12.6870001-24.736-7.654-5.401-17.442-7.862-27.874-7.265-7.85.467-15.076 2.567-21.488 5.785l-1.2.629-3.626-4.005.269-.157c3.997-2.183 8.282-3.986 12.818-5.346l1.37-.393-.729-5.02699999-.432.125c-20.707 6.26599999-37.694 19.36699999-45.65299997 38.72499999-5.296 13.531-4.551 28.224 4.28899997 41.006l.411.55 7.356-6.423-.081-.102 7.383-6.128.804.916c5.278 5.679 13.421 10.109 24.048 11.349 14.641 1.812 30.686-3.464 41.34-12.976l.023-.024-7.817-5.614-.929.759c-8.306 6.645-19.946 10.312-30.881 9.225-20.22-2.174-29.122-17.157-25.395-30.831l.123-.416 6.99.43-.176.846c-.516 2.937-.317 5.813.573 8.491l.171.467 6.985-3.737-.025-.051c-.756-2.215-.837-4.652-.178-7.149 2.206-7.94 10.755-13.804 20.239-14.05 9.423-.198 17.108 5.846 16.029 14.655-.61 4.653-3.77 9.023-8.287 11.946l-.525.323-3.008-5.974.478-.37c1.961-1.642 3.311-3.769 3.677-6.04.808-5.23-3.638-9.105-9.471-9.064-5.873.051-11.273 3.788-12.493 8.694-1.203 4.893 2.499 9.383 8.779 9.661.384.013.777.013 1.166-.005l.041-.004 2.819 6.168-.447.084c-1.613.268-3.257.36-4.894.272-4.264-.24-7.791-1.706-10.278-3.852l-.354-.319-7.316 3.899.198.249c3.436 4.005 9.035 6.956 16.237 7.497 15.499 1.377 31.378-10.128 32.388-23.017 1.107-12.906-10.419-21.009-23.578-20.537-11.259.43-21.245 6.28-26.274 14.678l-.141.264-6.967-.314.134-.255c.586-1.078 1.239-2.118 1.949-3.121l.204-.278-5.328-2.335-.633.851c-2.192 3.024-3.968 6.339-5.2 9.942-2.613 7.677-2.306 15.502 1.119 22.517l.363.689-7.272 5.98-.102-.176c-4.664-9.194-4.9-19.367-1.32-29.13 3.623-9.777 10.338-17.67 18.652-23.756l.641-.449 3.438 4.121-.043.028c-1.767 1.299-3.434 2.691-4.993 4.18l-.68.68 5.383 2.211.687-.652c7.067-6.498 16.718-10.836 27.532-11.368 16.831-.837 32.642 9.045 31.847 26.392-.326 4.814-2.107 9.61-5.111 13.929l-1.021 1.392 7.9540001 5.378.513-.647c1.429-1.877 2.671-3.838 3.711-5.855l.773-1.609 11.394 2.775-.058.143c-3.835 9.425-11.468 18.221-21.4180001 24.519l-2.018 1.226 7.0700001 9.642.257-.143c20.22-11.678 32.276-31.863 31.053-50.199-1.068-18.378-12.728-30.823-26.266-37.486l-.629-.296 4.716-4.47699999 1.09.49c15.464 7.15499999 29.449 20.81999999 31.504 41.94499999 1.761 17.73-7.167 37.495-24.536 51.4610003-17.099 14.132-41.8560001 21.494-63.8990001 18.858l-1.567-.194 1.817-9.679.819.083c11.928 1.086 24.598-.902 36.015-5.609l1.064-.468-6.729-9.8680003-1.121.467c-10.387 4.088-21.915 5.536-32.628 3.987-10.736-1.536-19.254-5.726-25.335-11.09l-.327-.3-7.581 6.691.203.217c6.063 6.142 14.567 11.3300003 25.525 14.1230003l.932.222-2.035 9.416-1.612-.435c-20.13-5.771-32.23699997-18.1650003-37.77399997-30.9740003-5.55-12.986-4.94-26.591.256-39.23 5.554-13.277 15.02999997-23.506 26.49199997-31.294 11.54-7.70399999 25.138-13.00399999 40.921-14.55299999"/><path d="m71.5772799.38663871c10.859-1.018 21.514-.042 31.5630001 3.121l.546.181-4.6320001 4.338-.113-.043c-8.87-2.996-18.427-4.041-28.249-3.213-2.684.222-5.293.587-7.841 1.059l-1.051.208.915 5.07299999 1.296-.227c1.819-.286 3.675-.499 5.569-.638 12.385-.87399999 24.223 1.752 33.8210001 8.033 9.484 6.248 16.777 16.37 16.935 29.902.014 2.099-.153 4.222-.497 6.34l-.18.985-11.277-2.488.19-.962c.229-1.355.365-2.705.413-4.065.326-10.876-5.11-19.353-12.6870001-24.736-7.654-5.401-17.442-7.862-27.874-7.265-7.85.467-15.076 2.567-21.488 5.785l-1.2.629-3.626-4.005.269-.157c3.997-2.183 8.282-3.986 12.818-5.346l1.37-.393-.729-5.02699999-.432.125c-20.707 6.26599999-37.694 19.36699999-45.65299997 38.72499999-5.296 13.531-4.551 28.224 4.28899997 41.006l.411.55 7.356-6.423-.081-.102 7.383-6.128.804.916c5.278 5.679 13.421 10.109 24.048 11.349 14.641 1.812 30.686-3.464 41.34-12.976l.023-.024-7.817-5.614-.929.759c-8.306 6.645-19.946 10.312-30.881 9.225-20.22-2.174-29.122-17.157-25.395-30.831l.123-.416 6.99.43-.176.846c-.516 2.937-.317 5.813.573 8.491l.171.467 6.985-3.737-.025-.051c-.756-2.215-.837-4.652-.178-7.149 2.206-7.94 10.755-13.804 20.239-14.05 9.423-.198 17.108 5.846 16.029 14.655-.61 4.653-3.77 9.023-8.287 11.946l-.525.323-3.008-5.974.478-.37c1.961-1.642 3.311-3.769 3.677-6.04.808-5.23-3.638-9.105-9.471-9.064-5.873.051-11.273 3.788-12.493 8.694-1.203 4.893 2.499 9.383 8.779 9.661.384.013.777.013 1.166-.005l.041-.004 2.819 6.168-.447.084c-1.613.268-3.257.36-4.894.272-4.264-.24-7.791-1.706-10.278-3.852l-.354-.319-7.316 3.899.198.249c3.436 4.005 9.035 6.956 16.237 7.497 15.499 1.377 31.378-10.128 32.388-23.017 1.107-12.906-10.419-21.009-23.578-20.537-11.259.43-21.245 6.28-26.274 14.678l-.141.264-6.967-.314.134-.255c.586-1.078 1.239-2.118 1.949-3.121l.204-.278-5.328-2.335-.633.851c-2.192 3.024-3.968 6.339-5.2 9.942-2.613 7.677-2.306 15.502 1.119 22.517l.363.689-7.272 5.98-.102-.176c-4.664-9.194-4.9-19.367-1.32-29.13 3.623-9.777 10.338-17.67 18.652-23.756l.641-.449 3.438 4.121-.043.028c-1.767 1.299-3.434 2.691-4.993 4.18l-.68.68 5.383 2.211.687-.652c7.067-6.498 16.718-10.836 27.532-11.368 16.831-.837 32.642 9.045 31.847 26.392-.326 4.814-2.107 9.61-5.111 13.929l-1.021 1.392 7.9540001 5.378.513-.647c1.429-1.877 2.671-3.838 3.711-5.855l.773-1.609 11.394 2.775-.058.143c-3.835 9.425-11.468 18.221-21.4180001 24.519l-2.018 1.226 7.0700001 9.642.257-.143c20.22-11.678 32.276-31.863 31.053-50.199-1.068-18.378-12.728-30.823-26.266-37.486l-.629-.296 4.716-4.47699999 1.09.49c15.464 7.15499999 29.449 20.81999999 31.504 41.94499999 1.761 17.73-7.167 37.495-24.536 51.4610003-17.099 14.132-41.8560001 21.494-63.8990001 18.858l-1.567-.194 1.817-9.679.819.083c11.928 1.086 24.598-.902 36.015-5.609l1.064-.468-6.729-9.8680003-1.121.467c-10.387 4.088-21.915 5.536-32.628 3.987-10.736-1.536-19.254-5.726-25.335-11.09l-.327-.3-7.581 6.691.203.217c6.063 6.142 14.567 11.3300003 25.525 14.1230003l.932.222-2.035 9.416-1.612-.435c-20.13-5.771-32.23699997-18.1650003-37.77399997-30.9740003-5.55-12.986-4.94-26.591.256-39.23 5.554-13.277 15.02999997-23.506 26.49199997-31.294 11.54-7.70399999 25.138-13.00399999 40.921-14.55299999"/><path d="m61.2489856 43.15212c2.814-.628 5.521.745 6.04 3.076.519 2.326-1.346 4.721-4.16 5.35-2.816.625-5.526-.749-6.042-3.075-.52-2.326 1.345-4.721 4.162-5.351"/></g></svg>