<svg width="107" height="26" viewBox="0 0 107 26" fill="none" xmlns="http://www.w3.org/2000/svg">
<path d="M2.56478 16.9308H5.01657C5.87645 16.9308 6.58526 16.2431 6.58526 15.3834V2.8782C6.58526 2.03 5.88807 1.33081 5.01657 1.33081H2.56478C1.69329 1.34227 0.996094 2.03 0.996094 2.8782V15.3834C0.996094 16.2316 1.69329 16.9308 2.56478 16.9308Z" fill="black"/>
<path d="M2.56478 25.1836H5.01657C5.87645 25.1836 6.58526 24.4959 6.58526 23.6362V21.4469C6.58526 20.5987 5.88807 19.8995 5.01657 19.8995H2.56478C1.70491 19.8995 0.996094 20.5873 0.996094 21.4469V23.6362C0.996094 24.4844 1.69329 25.1836 2.56478 25.1836Z" fill="black"/>
<path d="M22.3768 9.65234H19.9366C19.0767 9.65234 18.3679 10.3401 18.3679 11.1997V23.7049C18.3679 24.5531 19.0651 25.2523 19.9366 25.2523H22.3768C23.2367 25.2523 23.9455 24.5646 23.9455 23.7049V11.1883C23.9455 10.3401 23.2483 9.65234 22.3768 9.65234Z" fill="black"/>
<path d="M13.7779 14.9249H11.3377C10.4779 14.9249 9.76904 15.6127 9.76904 16.4723V23.7049C9.76904 24.5531 10.4662 25.2523 11.3377 25.2523H13.7779C14.6378 25.2523 15.3466 24.5646 15.3466 23.7049V16.4723C15.3466 15.6127 14.6494 14.9249 13.7779 14.9249Z" fill="black"/>
<path d="M13.7779 1.39966H11.3377C10.4779 1.39966 9.76904 2.08739 9.76904 2.94705V10.1797C9.76904 11.0279 10.4662 11.7271 11.3377 11.7271H13.7779C14.6378 11.7271 15.3466 11.0393 15.3466 10.1797V2.93559C15.3466 2.08739 14.6494 1.39966 13.7779 1.39966Z" fill="black"/>
<path d="M22.3768 1.39966H19.9366C19.0767 1.39966 18.3679 2.08739 18.3679 2.94705V5.13632C18.3679 5.98452 19.0651 6.68371 19.9366 6.68371H22.3768C23.2367 6.68371 23.9455 5.99598 23.9455 5.13632V2.93559C23.9455 2.08739 23.2483 1.39966 22.3768 1.39966Z" fill="black"/>
<path d="M56.3068 1.86963H54.0874C53.425 1.86963 52.8789 2.40835 52.8789 3.06169V23.9343C52.8789 24.5876 53.425 25.1263 54.0874 25.1263H56.3068C56.9691 25.1263 57.5152 24.5876 57.5152 23.9343V3.06169C57.5152 2.40835 56.9807 1.86963 56.3068 1.86963Z" fill="black"/>
<path d="M71.4126 1.04431C65.4865 1.04431 60.6526 5.80111 60.6526 11.6583V14.1914V16.885V23.9457C60.6526 24.599 61.1987 25.1378 61.8611 25.1378H63.8829C64.5452 25.1378 65.0914 24.599 65.0914 23.9457V14.1914V14.1799V11.6583C65.0914 8.21962 67.9266 5.42285 71.4126 5.42285C74.8986 5.42285 77.7338 8.21962 77.7338 11.6583V14.1799V14.1914V23.9457C77.7338 24.599 78.28 25.1378 78.9423 25.1378H80.9641C81.6265 25.1378 82.1726 24.599 82.1726 23.9457V15.4293V14.2029V11.6468C82.1726 5.80111 77.3387 1.04431 71.4126 1.04431Z" fill="black"/>
<path d="M40.3292 20.9197C35.8207 20.9197 32.1837 17.1945 32.3928 12.7013C32.5788 8.75834 35.7858 5.53747 39.7831 5.27384C42.2465 5.11337 44.5008 6.06473 46.0578 7.6809C46.6737 8.31132 47.6846 8.3457 48.3121 7.72675L49.4508 6.60346C49.8691 6.19082 49.8924 5.52601 49.4973 5.07899C47.1385 2.45416 43.6525 0.837991 39.7831 1.00992C33.4386 1.27355 28.3143 6.35129 28.0702 12.6096C27.803 19.4869 33.3921 25.1721 40.3176 25.1721C44.0011 25.1721 47.3011 23.5674 49.5554 21.0228C49.9505 20.5758 49.9272 19.9225 49.5089 19.4984L48.3818 18.3865C47.7543 17.7676 46.7318 17.7905 46.1275 18.4209C44.6751 19.9683 42.6183 20.9197 40.3292 20.9197Z" fill="black"/>
<path d="M97.4761 20.9197C92.9675 20.9197 89.3305 17.1945 89.5397 12.7013C89.7256 8.75833 92.9327 5.53746 96.9299 5.27383C99.3933 5.11336 101.648 6.06472 103.205 7.68089C103.821 8.31131 104.831 8.34569 105.459 7.72674L106.598 6.60345C107.016 6.19081 107.039 5.526 106.644 5.07898C104.297 2.45415 100.811 0.849443 96.9415 1.00991C90.6087 1.27354 85.4727 6.35128 85.2287 12.6096C84.9614 19.4869 90.5506 25.1721 97.4761 25.1721C101.16 25.1721 104.46 23.5674 106.714 21.0228C107.109 20.5758 107.086 19.9225 106.667 19.4984L105.54 18.3865C104.913 17.7676 103.89 17.7905 103.286 18.4209C101.822 19.9683 99.7652 20.9197 97.4761 20.9197Z" fill="black"/>
</svg>
