<?xml version="1.0" encoding="UTF-8"?> <svg xmlns="http://www.w3.org/2000/svg" width="188" height="39" viewBox="0 0 188 39" fill="none"><g clip-path="url(#clip0)"><path d="M34.909 1.64553C30.7039 -0.97741 25.1659 -0.359048 20.228 2.74635C15.3049 -0.356783 9.7646 -0.97741 5.56404 1.64553C-1.08165 5.79852 -1.88801 16.4941 3.75992 25.534C7.92423 32.2012 14.4374 36.1062 20.236 36.0337C26.0334 36.1062 32.5466 32.2012 36.7109 25.5351C42.3565 16.493 41.5547 5.79852 34.909 1.6444V1.64553ZM6.81775 23.6279C5.65196 21.7804 4.77259 19.7669 4.20954 17.6561C3.70892 15.8245 3.51754 13.9221 3.64327 12.0274C3.89582 8.68987 5.25486 6.08731 7.47235 4.69996C9.68872 3.31375 12.6186 3.23334 15.7387 4.47006C16.2132 4.66146 16.6776 4.87551 17.1294 5.11334C15.3953 6.69319 13.8876 8.50499 12.6491 10.4974C9.21872 15.9868 8.17113 22.0968 9.36821 26.9655C8.41471 25.9356 7.56041 24.8182 6.81662 23.6279H6.81775ZM36.2669 17.6561C35.7034 19.7662 34.8244 21.7791 33.6599 23.6268C32.9161 24.8198 32.0614 25.9399 31.1071 26.9723C32.1785 22.6064 31.4503 17.2597 28.8262 12.2437C28.7846 12.1609 28.726 12.0878 28.6543 12.0292C28.5825 11.9705 28.4992 11.9276 28.4098 11.9033C28.3204 11.8789 28.2269 11.8736 28.1353 11.8878C28.0437 11.902 27.9561 11.9353 27.8783 11.9855L19.6958 17.0989C19.6213 17.1454 19.5568 17.2061 19.5058 17.2775C19.4548 17.3489 19.4184 17.4297 19.3986 17.5152C19.3788 17.6007 19.3761 17.6892 19.3905 17.7758C19.405 17.8624 19.4364 17.9452 19.4828 18.0196L20.6833 19.9393C20.7298 20.0139 20.7905 20.0786 20.862 20.1297C20.9336 20.1808 21.0145 20.2172 21.1001 20.237C21.1857 20.2568 21.2744 20.2595 21.3611 20.2449C21.4478 20.2304 21.5307 20.1989 21.6052 20.1522L26.9088 16.8396C27.0798 17.3537 27.252 17.86 27.38 18.3832C27.8805 20.2145 28.0719 22.1171 27.9462 24.0119C27.6937 27.3528 26.3335 29.9543 24.1183 31.3405C22.9748 32.0399 21.6645 32.4193 20.3243 32.439H20.1544C18.8141 32.4197 17.5037 32.0403 16.3605 31.3405C14.143 29.9543 12.7828 27.3528 12.5314 24.0107C12.4068 22.1171 12.5971 20.2145 13.0976 18.3832C14.2476 14.147 16.6234 10.3449 19.9268 7.45428C21.3517 6.20245 22.9749 5.19626 24.7299 4.47686C27.842 3.24013 30.7776 3.32167 32.9951 4.70676C35.2125 6.09298 36.5704 8.69553 36.823 12.0342C36.9509 13.926 36.7633 15.8259 36.2681 17.6561H36.2669Z" fill="white"></path><path d="M83.8799 14.6006C79.2818 14.6006 75.5671 18.1896 75.5671 22.7548C75.5671 27.2894 79.2818 30.8195 83.8799 30.8195C88.5074 30.8195 92.2221 27.2951 92.2221 22.7559C92.2221 18.1918 88.513 14.6017 83.8799 14.6017V14.6006ZM83.8799 26.5567C81.7609 26.5567 80.1482 24.8432 80.1482 22.7242C80.1482 20.6053 81.7609 18.8657 83.8799 18.8657C86.0294 18.8657 87.6421 20.6098 87.6421 22.7299C87.6421 24.8477 86.0294 26.5635 83.8799 26.5635V26.5567ZM102.587 8.33769H94.1292C94.0379 8.33615 93.9472 8.35304 93.8625 8.38736C93.7779 8.42167 93.701 8.47271 93.6365 8.53741C93.572 8.60211 93.5212 8.67915 93.4872 8.76392C93.4532 8.8487 93.4366 8.93947 93.4384 9.0308V29.6519C93.4317 29.7464 93.4446 29.8412 93.4764 29.9304C93.5081 30.0197 93.558 30.1013 93.6229 30.1703C93.6879 30.2393 93.7664 30.294 93.8535 30.3311C93.9407 30.3682 94.0345 30.3868 94.1292 30.3858H102.587C109.356 30.3858 114.06 25.884 114.06 19.3346C114.06 12.7455 109.356 8.33769 102.587 8.33769ZM102.787 26.0301H98.1588V12.6821H102.787C106.534 12.6821 109.116 15.484 109.116 19.3255C109.116 23.1036 106.534 26.0301 102.787 26.0301ZM130.897 15.0445H127.716C127.54 15.0587 127.375 15.1372 127.254 15.2651C127.132 15.393 127.062 15.5612 127.056 15.7376V16.681C126.332 15.484 124.695 14.6028 122.658 14.6028C118.69 14.6028 114.976 17.7184 114.976 22.6948C114.976 27.6439 118.658 30.8161 122.626 30.8161C124.671 30.8161 126.341 29.9362 127.065 28.7391V29.7142C127.066 29.8891 127.136 30.0568 127.259 30.1808C127.382 30.3048 127.55 30.3752 127.725 30.3767H130.905C130.992 30.3787 131.079 30.363 131.161 30.3304C131.242 30.2978 131.316 30.249 131.377 30.1871C131.439 30.1252 131.488 30.0513 131.52 29.97C131.553 29.8887 131.568 29.8017 131.566 29.7142V15.7376C131.569 15.6478 131.554 15.5583 131.521 15.4745C131.489 15.3906 131.44 15.3141 131.377 15.2495C131.315 15.1849 131.24 15.1335 131.157 15.0983C131.075 15.0631 130.986 15.0448 130.896 15.0445H130.897ZM123.498 26.5918C121.392 26.5918 119.811 24.9723 119.811 22.7276C119.811 20.4829 121.393 18.8657 123.498 18.8657C125.605 18.8657 127.187 20.4807 127.187 22.7254C127.187 24.9712 125.607 26.5895 123.498 26.5895V26.5918ZM148.747 8.33769H145.567C145.478 8.33498 145.389 8.35001 145.306 8.38192C145.223 8.41383 145.147 8.46197 145.082 8.52354C145.018 8.58511 144.967 8.65887 144.931 8.74052C144.896 8.82217 144.877 8.91007 144.876 8.99909V16.6188C144.142 15.484 142.481 14.6028 140.404 14.6028C136.468 14.6028 132.816 17.7184 132.816 22.6948C132.816 27.6439 136.499 30.8161 140.467 30.8161C142.512 30.8161 144.057 29.9362 144.906 28.7391V29.7142C144.906 30.0789 145.202 30.3745 145.567 30.3767H148.747C148.834 30.3789 148.921 30.3633 149.003 30.3307C149.084 30.2982 149.158 30.2494 149.22 30.1875C149.281 30.1255 149.33 30.0516 149.362 29.9702C149.395 29.8888 149.41 29.8017 149.408 29.7142V9.00362C149.411 8.91579 149.396 8.82832 149.364 8.74656C149.331 8.6648 149.283 8.59047 149.221 8.52812C149.159 8.46578 149.085 8.41673 149.003 8.38399C148.922 8.35124 148.834 8.33549 148.747 8.33769ZM141.349 26.6303C139.252 26.6303 137.683 24.9949 137.683 22.7254C137.683 20.4569 139.257 18.8215 141.349 18.8215C143.44 18.8215 145.015 20.4569 145.015 22.7254C145.015 24.9949 143.448 26.6303 141.349 26.6303ZM166.593 8.33769H163.419C163.329 8.33498 163.241 8.35 163.157 8.38188C163.074 8.41376 162.998 8.46187 162.934 8.52341C162.869 8.58495 162.818 8.65869 162.782 8.74035C162.746 8.82201 162.727 8.90996 162.725 8.99909V16.6188C162.001 15.484 160.331 14.6028 158.255 14.6028C154.318 14.6028 150.667 17.7184 150.667 22.6948C150.667 27.6439 154.352 30.8161 158.318 30.8161C160.364 30.8161 161.906 29.9362 162.757 28.7391V29.7142C162.758 29.8895 162.828 30.0575 162.951 30.1816C163.075 30.3057 163.243 30.3758 163.419 30.3767H166.593C166.681 30.3789 166.767 30.3633 166.849 30.3307C166.93 30.2981 167.004 30.2494 167.065 30.1873C167.127 30.1253 167.175 30.0514 167.207 29.97C167.24 29.8887 167.255 29.8016 167.252 29.7142V9.00362C167.255 8.9159 167.24 8.82848 167.209 8.74673C167.177 8.66497 167.128 8.59062 167.067 8.52824C167.005 8.46586 166.931 8.41677 166.849 8.384C166.768 8.35123 166.681 8.33547 166.593 8.33769ZM159.195 26.6303C157.097 26.6303 155.529 24.9949 155.529 22.7254C155.529 20.4569 157.104 18.8215 159.195 18.8215C161.286 18.8215 162.861 20.4569 162.861 22.7254C162.861 24.9949 161.298 26.6303 159.201 26.6303H159.195ZM184.005 16.117L179.259 32.3915C178.343 35.2862 176.3 37.019 173.12 37.019C171.674 37.019 170.356 36.7234 169.326 36.1334C168.724 35.7902 168.226 35.4765 168.226 34.9748C168.226 34.6634 168.327 34.5025 168.509 34.2103L169.452 32.7992C169.718 32.4051 169.914 32.2771 170.199 32.2771C170.426 32.2824 170.645 32.3584 170.826 32.4946C171.419 32.8785 171.968 33.2081 172.806 33.2081C173.785 33.2081 174.532 32.8943 174.935 31.729L175.343 30.3779H173.422C172.949 30.3779 172.688 30.0959 172.572 29.7165L168.325 16.117C168.166 15.5814 168.312 15.0457 169.098 15.0457H172.444C172.851 15.0457 173.138 15.185 173.317 15.7705L176.454 26.722L179.386 15.7705C179.479 15.3922 179.733 15.0457 180.236 15.0457H183.409C184.034 15.0445 184.223 15.484 184.005 16.117ZM74.3689 20.9575V29.6508C74.3702 29.7455 74.3526 29.8396 74.3169 29.9274C74.2812 30.0152 74.2283 30.095 74.1612 30.162C74.0942 30.2289 74.0143 30.2817 73.9265 30.3173C73.8386 30.3528 73.7445 30.3703 73.6497 30.3688H71.0256C70.9309 30.3705 70.8368 30.3531 70.7489 30.3176C70.661 30.2821 70.5812 30.2293 70.5142 30.1623C70.4471 30.0952 70.3943 30.0154 70.3588 29.9275C70.3233 29.8397 70.3059 29.7455 70.3076 29.6508V27.3687C68.6405 29.473 65.7435 30.798 62.466 30.798C56.3118 30.798 51.502 26.1682 51.502 19.5769C51.502 12.7274 56.6946 8.00586 63.2542 8.00586C68.0969 8.00586 71.9679 10.0886 73.6871 14.2767C73.7354 14.3873 73.7623 14.506 73.7664 14.6266C73.7664 14.8248 73.635 14.9743 73.216 15.1193L70.1513 16.2994C69.9667 16.3763 69.7598 16.3799 69.5726 16.3096C69.4083 16.2126 69.2796 16.0653 69.2057 15.8894C68.106 13.7976 66.1478 12.3786 63.1353 12.3786C59.2281 12.3786 56.4285 15.4296 56.4285 19.3867C56.4285 23.2225 58.8113 26.3766 63.2463 26.3766C65.5793 26.3766 67.44 25.2781 68.3076 24.0697H65.5385C65.4438 24.071 65.3497 24.0534 65.2619 24.0177C65.1741 23.982 65.0943 23.9291 65.0273 23.862C64.9604 23.795 64.9076 23.7151 64.872 23.6272C64.8365 23.5394 64.819 23.4453 64.8205 23.3505V20.9881C64.8191 20.8934 64.8368 20.7994 64.8724 20.7117C64.908 20.6239 64.9608 20.5442 65.0277 20.4773C65.0947 20.4103 65.1744 20.3575 65.2621 20.3219C65.3499 20.2863 65.4439 20.2687 65.5385 20.27H73.6486C73.7416 20.2652 73.8346 20.2795 73.9219 20.312C74.0093 20.3444 74.089 20.3943 74.1564 20.4587C74.2237 20.5231 74.2772 20.6005 74.3135 20.6863C74.3499 20.772 74.3683 20.8643 74.3677 20.9575H74.3689Z" fill="white"></path><path d="M184.093 11.8256V11.6149C184.093 11.6002 184.098 11.5855 184.107 11.5742C184.117 11.5648 184.131 11.5596 184.145 11.5594H185.485C185.5 11.5594 185.513 11.5651 185.523 11.5742C185.534 11.5855 185.538 11.6002 185.538 11.6149V11.8256C185.538 11.8398 185.533 11.8535 185.523 11.8641C185.518 11.869 185.512 11.8728 185.506 11.8753C185.499 11.8779 185.492 11.879 185.485 11.8788H184.996V13.2005C184.995 13.2147 184.989 13.2282 184.979 13.2383C184.969 13.2484 184.956 13.2543 184.941 13.2548H184.688C184.681 13.2548 184.674 13.2534 184.668 13.2507C184.662 13.2479 184.656 13.244 184.651 13.239C184.646 13.2341 184.642 13.2281 184.639 13.2215C184.636 13.2149 184.634 13.2077 184.634 13.2005V11.8788H184.145C184.138 11.8793 184.131 11.8783 184.124 11.8758C184.118 11.8733 184.111 11.8694 184.106 11.8643C184.101 11.8593 184.097 11.8532 184.095 11.8465C184.092 11.8399 184.091 11.8327 184.092 11.8256H184.093ZM186.435 11.607L186.801 12.4564L187.168 11.607C187.174 11.5921 187.184 11.5794 187.197 11.5708C187.213 11.5627 187.23 11.5588 187.247 11.5594H187.672C187.679 11.559 187.686 11.56 187.693 11.5624C187.699 11.5648 187.705 11.5686 187.71 11.5735C187.715 11.5785 187.719 11.5844 187.722 11.5909C187.724 11.5975 187.725 11.6045 187.725 11.6115V13.2016C187.726 13.2085 187.725 13.2155 187.722 13.222C187.72 13.2285 187.716 13.2345 187.711 13.2395C187.707 13.2445 187.701 13.2485 187.694 13.2511C187.688 13.2537 187.681 13.255 187.674 13.2548H187.436C187.429 13.2552 187.422 13.2541 187.415 13.2516C187.408 13.2491 187.402 13.2452 187.397 13.2401C187.391 13.2352 187.387 13.2292 187.385 13.2225C187.382 13.2159 187.381 13.2087 187.382 13.2016V12.0011L186.988 12.8732C186.982 12.89 186.972 12.9049 186.958 12.9162C186.944 12.9245 186.927 12.9284 186.91 12.9275H186.715C186.698 12.9283 186.682 12.9244 186.667 12.9162C186.653 12.9057 186.643 12.891 186.638 12.8743L186.246 12.0023V13.2027C186.246 13.2165 186.24 13.2298 186.231 13.2401C186.221 13.249 186.208 13.2542 186.195 13.2548H185.95C185.944 13.2548 185.938 13.2535 185.932 13.2509C185.926 13.2484 185.921 13.2447 185.916 13.2401C185.911 13.2352 185.907 13.2292 185.905 13.2225C185.902 13.2159 185.901 13.2087 185.902 13.2016V11.6115C185.901 11.6045 185.903 11.5975 185.905 11.5909C185.908 11.5844 185.912 11.5785 185.917 11.5735C185.922 11.5686 185.928 11.5648 185.934 11.5624C185.941 11.56 185.948 11.559 185.955 11.5594H186.367C186.383 11.5594 186.4 11.5628 186.415 11.5708C186.425 11.581 186.432 11.5934 186.435 11.607Z" fill="white"></path></g><defs><clipPath id="clip0"><rect width="188" height="38.506" fill="white"></rect></clipPath></defs></svg> 