<?xml version="1.0" standalone="no"?>
<!DOCTYPE svg PUBLIC "-//W3C//DTD SVG 20010904//EN"
 "http://www.w3.org/TR/2001/REC-SVG-20010904/DTD/svg10.dtd">
<svg version="1.0" xmlns="http://www.w3.org/2000/svg"
 width="562.000000pt" height="562.000000pt" viewBox="0 0 562.000000 562.000000"
 preserveAspectRatio="xMidYMid meet">
<metadata>
Created by potrace 1.14, written by Peter Selinger 2001-2017
</metadata>
<g transform="translate(0.000000,562.000000) scale(0.100000,-0.100000)"
fill="#000000" stroke="none">
<path d="M310 2811 l0 -2809 748 2 747 1 5 844 5 844 30 -35 c17 -19 71 -79
120 -133 50 -54 99 -107 110 -119 49 -54 203 -222 230 -252 17 -18 66 -72 110
-120 44 -48 91 -99 104 -113 13 -14 57 -63 99 -109 41 -46 89 -98 106 -116 17
-18 67 -72 111 -120 44 -49 94 -103 110 -120 17 -18 70 -77 120 -132 49 -54
109 -118 131 -141 23 -24 40 -43 38 -43 -1 0 24 -28 57 -62 32 -34 59 -65 59
-70 0 -4 439 -8 975 -8 536 0 975 3 975 6 0 4 -27 34 -59 68 -32 33 -76 79
-97 102 -59 63 -314 332 -359 380 -22 23 -96 102 -165 175 -69 72 -141 149
-160 169 -19 20 -87 92 -150 159 -63 67 -142 151 -175 185 -33 35 -118 125
-190 201 -71 76 -148 157 -170 180 -22 23 -74 78 -115 122 -41 44 -134 142
-207 219 -367 388 -458 485 -461 494 -2 5 11 28 28 52 48 66 103 144 120 168
8 12 30 42 48 66 17 23 32 47 32 53 0 5 4 11 8 13 7 3 391 541 417 585 6 9 18
26 28 37 9 11 17 23 17 27 0 4 6 14 13 21 6 7 26 33 42 58 36 53 37 56 70 96
14 18 25 36 25 42 0 6 4 12 8 14 4 2 33 39 63 83 29 44 56 82 59 85 3 3 14 19
26 35 11 17 43 62 69 100 27 39 52 72 57 73 4 2 8 8 8 13 0 7 50 83 83 124 4
6 34 48 67 95 123 177 165 235 172 238 5 2 8 8 8 13 0 10 100 155 125 180 8 9
15 21 15 27 0 7 5 12 10 12 6 0 10 5 10 10 0 6 5 16 11 23 9 10 248 351 351
500 18 27 38 54 44 60 5 7 38 53 72 102 34 50 71 101 82 115 11 14 20 28 20
33 0 4 -375 7 -832 7 l-833 0 -90 -138 c-49 -75 -92 -139 -95 -142 -3 -3 -23
-33 -45 -67 -22 -35 -43 -63 -47 -63 -5 0 -8 -5 -8 -10 0 -6 -35 -61 -77 -123
-43 -61 -82 -119 -88 -129 -28 -47 -170 -253 -177 -256 -4 -2 -8 -9 -8 -16 0
-7 -8 -21 -17 -32 -16 -17 -219 -315 -248 -362 -19 -31 -49 -77 -55 -82 -3 -3
-9 -13 -15 -22 -24 -42 -191 -283 -197 -286 -5 -2 -8 -8 -8 -13 0 -5 -22 -40
-50 -79 -27 -39 -50 -73 -50 -76 0 -3 -12 -23 -27 -43 -16 -20 -32 -43 -38
-52 -38 -60 -69 -104 -76 -107 -5 -2 -9 -8 -9 -12 0 -5 -18 -35 -40 -67 -48
-69 -37 -53 -160 -236 l-100 -148 0 1280 0 1281 -750 0 -750 0 0 -2809z"/>
</g>
</svg>
