<svg id="Layer_1" data-name="Layer 1" xmlns="http://www.w3.org/2000/svg" viewBox="0 0 1012.87 531.89"><defs><style>.cls-1{fill:#005bc1;}.cls-2,.cls-3{fill:#ec1c24;}.cls-2,.cls-39,.cls-4,.cls-5{fill-rule:evenodd;}.cls-4{fill:#010101;}.cls-6{fill:#000105;}.cls-7{fill:#f27123;}.cls-39,.cls-8{fill:#fff;}.cls-9{fill:#eb680f;}.cls-10{fill:#cb1244;}.cls-11{fill:#685ba3;}.cls-12{fill:#1986c8;}.cls-13{fill:#13a438;}.cls-14{fill:#f9b700;}.cls-15{fill:#12100b;}.cls-16{fill:#036;}.cls-17{fill:#c20017;}.cls-18{fill:#39017d;}.cls-19{fill:#3a017d;}.cls-20{fill:#7f21fe;}.cls-21{fill:#3a027d;}.cls-22{fill:#7f22fe;}.cls-23{fill:#fcfbfe;}.cls-24{fill:#faf6fe;}.cls-25{fill:#077ec4;}.cls-26{fill:#919396;}.cls-27,.cls-28{fill:none;stroke:#000;stroke-miterlimit:3.86;}.cls-27{stroke-width:0.77px;}.cls-28{stroke-width:0.61px;}.cls-29{fill:#231f20;}.cls-30{fill:#bbbac0;}.cls-31{fill:#c82127;}.cls-32{fill:#0b8d86;}.cls-33{fill:#814995;}.cls-34{fill:#777c8f;}.cls-35{fill:#5495cf;}.cls-36{fill:#dc9227;}.cls-37{fill:#8eb73f;}.cls-38{fill:#c82c8b;}.cls-40{fill:#33a3ff;}.cls-41{fill:#0dbe98;}</style></defs><path class="cls-1" d="M117.1,58.86V54.38c0-3.82.1-7.64.11-11.45,0-6,.09-12,.06-18,0-3.85-.09-7.69-.29-11.53a10.06,10.06,0,0,0-.78-3.14c-.61-1.57-2-2.07-3.55-2.26-1-.12-1.3-.64-1-1.57a.65.65,0,0,1,.46-.34q8.13-1.53,16.28-3h.18V21.62l.72-.33c4.5-2.14,9.11-2.75,13.79-.74a15.21,15.21,0,0,1,8.53,9.94,25.41,25.41,0,0,1-2,20.79c-2.79,4.95-7.27,7.73-12.76,8.88a35.86,35.86,0,0,1-12.4.06c-2.22-.31-4.42-.78-6.63-1.17C117.57,59,117.37,58.92,117.1,58.86Zm11.38-15.41h0v6.76c0,2.25.1,4.29.18,6.43,0,.4,0,.9.57,1,2.64.4,5.1.1,6.93-2.1A15.45,15.45,0,0,0,138,52.77c2.11-4.1,2.72-8.54,2.83-13.07A24.78,24.78,0,0,0,139,28.84a9.13,9.13,0,0,0-3.27-4.12c-2.15-1.4-4.39-1.22-6.7-.42-.41.14-.53.29-.53.69V43.44Z" transform="translate(-3 -3)"/><path class="cls-1" d="M23.5,8.09c-.16,7.5-.32,14.91-.47,22.4,2.4-.1,4.64-.13,6.87-.32a4.69,4.69,0,0,0,3.92-2.73c.73-1.5,1.24-3.14,1.9-4.82h2v18.7H35.57c-.36-1.22-.65-2.43-1.1-3.57-1-2.59-2.77-4.09-5.71-4-1.84,0-3.69-.17-5.65-.26V36c.12,4,.17,8.06.4,12.08a27.91,27.91,0,0,0,1,5.45A4.52,4.52,0,0,0,28.75,57c1,.09,2,.32,2.92.47.21,2.19.21,2.18-1.82,2.18H3V57.48c1-.2,2-.46,3-.61a4.15,4.15,0,0,0,3.53-2.93,17.54,17.54,0,0,0,1-4.36c.6-8.63.6-17.26.48-25.9,0-3.13-.21-6.35-.47-9.52a17.84,17.84,0,0,0-.91-4.08C8.94,7.92,7.28,7,5.09,6.73,4.4,6.67,3.73,6.59,3,6.51V4.16H47.73c.09,5.13.17,10.3.26,15.55-.72.23-1.44.47-2.15.68-.55.16-.59-.28-.71-.62a25,25,0,0,0-3.36-7A10.57,10.57,0,0,0,32.71,8.1Z" transform="translate(-3 -3)"/><path class="cls-1" d="M42.32,39.38a21.42,21.42,0,0,1,5.54-14.79,17.84,17.84,0,0,1,10.9-5.5,22,22,0,0,1,11,1,16.3,16.3,0,0,1,10,10.47,25.56,25.56,0,0,1-.11,18c-2.71,7-7.88,11-15.33,11.9a21.39,21.39,0,0,1-10.4-1c-5.58-2.12-8.89-6.27-10.55-11.89A29.58,29.58,0,0,1,42.32,39.38Zm26.94,2h.22C69.19,38.2,69,35,68.6,31.77A17.21,17.21,0,0,0,65.77,24c-2.24-3.14-6.28-3.33-8.43-.29a12.46,12.46,0,0,0-1.57,3.19,31.56,31.56,0,0,0-1.34,8.68,52.51,52.51,0,0,0,.68,13.07,17.44,17.44,0,0,0,2.8,7.1,4.91,4.91,0,0,0,8.21,0A13.94,13.94,0,0,0,68,51.85C69,48.51,69.11,45,69.26,41.44Z" transform="translate(-3 -3)"/><path class="cls-1" d="M191.49,38H168.71c-.68,0-.91.13-.88.88a24.77,24.77,0,0,0,1.08,7c2,6,6.62,9.21,13,9a12.89,12.89,0,0,0,7.34-2.4c.29-.21.64-.69,1-.09s.9.86.27,1.61A18.07,18.07,0,0,1,179,60.43,19.69,19.69,0,0,1,165.35,58,18.17,18.17,0,0,1,157,46.44c-1.7-6.76-1-13.28,2.74-19.24a17.33,17.33,0,0,1,12.85-8.14,19.72,19.72,0,0,1,7.42.27,13.46,13.46,0,0,1,8.81,6.76C190.83,29.74,191.44,33.74,191.49,38Zm-23.64-3,12-.32c-.16-2.06-.23-4-.49-5.9a12.89,12.89,0,0,0-1.79-5.53A3.39,3.39,0,0,0,172.92,22a3.76,3.76,0,0,0-.46.32,5.12,5.12,0,0,0-1.09,1c-2.59,3.4-3.14,7.4-3.52,11.63Z" transform="translate(-3 -3)"/><path class="cls-1" d="M221.93,26.16v4.62c0,1.06-1,.69-1.45,1a1.45,1.45,0,0,1-.59-.6,18.29,18.29,0,0,0-4-7.13,7.46,7.46,0,0,0-6.09-2.19c-3,.28-4.9,2.74-4.83,5.88.06,2.46,1.51,4,3.47,5,2.49,1.32,5.09,2.44,7.66,3.63a15.07,15.07,0,0,1,6.17,4.6,9.6,9.6,0,0,1,1.7,5.28,13.08,13.08,0,0,1-1.87,7.91,13.88,13.88,0,0,1-9.2,6,29.2,29.2,0,0,1-11.14,0c-2.35-.38-4.61-1.09-6.92-1.65-.49-.11-.63-.4-.64-.91q-.09-5.29-.23-10.58c0-.58.35-.58.68-.67,1.42-.42,1.12-.38,1.57.74a20.87,20.87,0,0,0,3.93,6.78,8.78,8.78,0,0,0,8.41,2.83,5.76,5.76,0,0,0,4.57-4.59A5.39,5.39,0,0,0,210.3,46a44.69,44.69,0,0,0-5.39-2.51,23.36,23.36,0,0,1-6.5-3.41c-3-2.51-4-5.82-3.66-9.6.48-5.89,5.23-10.12,11-11.2a29.75,29.75,0,0,1,14.88,1.28A1.29,1.29,0,0,1,221.74,22c-.09,1.37,0,2.76,0,4.13Z" transform="translate(-3 -3)"/><path class="cls-1" d="M81.46,22.29,98.4,18.86v8.63c.48-.84.93-1.7,1.44-2.5a13.14,13.14,0,0,1,6.63-5.69,9.28,9.28,0,0,1,7.06.16c.6.26.79.54.53,1.2-1.29,3.33-2.52,6.67-3.82,10.12l-.85-.47a10.39,10.39,0,0,0-9.51-.72,2.35,2.35,0,0,0-1.64,2.46c.07,4.43-.1,8.86,0,13.28a73.12,73.12,0,0,0,.59,8.24c.35,2.75,1.44,3.58,4.22,3.72.69,0,1.37.11,2.08.18v2.18H82.71c-1.57,0-1.27,0-1.29-1.26v-.87c.43-.08.84-.17,1.25-.23,2.52-.32,3.72-1.4,3.92-3.92.24-2.68.31-5.39.37-8.09.08-3.37.12-6.73.07-10.1,0-2.41-.2-4.82-.42-7.22s-1.29-3.44-3.71-3.78C81.34,23.94,81.34,23.94,81.46,22.29Z" transform="translate(-3 -3)"/><path class="cls-2" d="M376.55,5.75c-.25,4.21-.49,8.41-.74,12.78l-6.31-.23c-.15-2.64-.28-5.21-.43-7.86h-9.83v18.8h4.25c.33-1.37.66-2.72,1-4.14h4.37V38h-4.25c-.36-1.39-.72-2.81-1.08-4.27h-4.23v20h9.83c.31-2.84.63-5.66,1-8.63l6.63.22c.18,4.44.35,8.78.52,13.21H345V53.89l4.53-.78V10.92l-5.06-.55V5.78Z" transform="translate(-3 -3)"/><path class="cls-2" d="M490.71,76.39c.08-1.29.16-2.45.24-3.63l3.42-.75V27l-4.06-.61V22.63l10.74-1.49c.38,1.39.75,2.67,1.12,4a4,4,0,0,0,.43-.39,10.94,10.94,0,0,1,9.83-3.68c4.83.46,7.5,3.52,8.84,7.86a26.91,26.91,0,0,1,1.15,6,46.32,46.32,0,0,1-.41,12.5A22.61,22.61,0,0,1,520.68,52a11.17,11.17,0,0,1-10,7.13,14,14,0,0,1-7-1,4.44,4.44,0,0,0-.52-.15V72.08l3.65.75c-.08,1.19-.16,2.37-.25,3.63Zm12.48-23.53a11.19,11.19,0,0,0,8.43.29,1.42,1.42,0,0,0,1-1.06c.34-1.4.76-2.79,1-4.21a61.23,61.23,0,0,0,.21-13,18.88,18.88,0,0,0-.82-4.35c-1-3.07-3-4.25-6.21-3.73l-.47.11a3.69,3.69,0,0,0-3.13,3.76V52.86Z" transform="translate(-3 -3)"/><path class="cls-2" d="M610.11,53.92l3.79.75c-.07,1.31-.14,2.54-.21,3.83H601.4V33.2a11.1,11.1,0,0,0-.59-3.28,3.39,3.39,0,0,0-2.76-2.26,5.89,5.89,0,0,0-3.66.31,2.66,2.66,0,0,0-1.84,2.44V53.57a2.37,2.37,0,0,0,.09.36l3.61.73c-.08,1.27-.15,2.53-.23,3.85h-15.9V54.68l3.54-.75V27.39l-4-.46V23l10.43-1.49c.33,1.16.63,2.29.94,3.4.79-.6,1.61-1.31,2.51-1.89a12,12,0,0,1,11-1.19,8.26,8.26,0,0,1,5.43,7,15.89,15.89,0,0,1,.21,2.76V53.92Z" transform="translate(-3 -3)"/><path class="cls-2" d="M392.78,53.93l3.64.74c-.08,1.3-.15,2.53-.23,3.83h-16c.07-1.26.14-2.48.21-3.82l3.39-.73c.26-.87.31-25.23,0-26.54l-4-.45V23l10.47-1.5c.31,1.15.62,2.26,1,3.47.29-.25.62-.56,1-.85a12.28,12.28,0,0,1,11.43-2.66c3.66.88,5.75,3.37,6.48,7a14.7,14.7,0,0,1,.26,2.88V53.92l3.77.73c0,.65-.08,1.27-.09,1.9s0,1.26,0,2H401.63V34a19.51,19.51,0,0,0-.23-2.76,3.93,3.93,0,0,0-3.74-3.61c-1.57-.15-3.15-.12-4.3,1.3a2.77,2.77,0,0,0-.67,1.85v22C392.69,53.08,392.78,53.47,392.78,53.93Z" transform="translate(-3 -3)"/><path class="cls-2" d="M666.63,26.39l-4.06-.4V22.54l11.94-1.36a13.52,13.52,0,0,1,1,4.38V53.92l3.71.75c-.13,1.3-.26,2.53-.4,3.83H668.53c-.29-.91-.6-1.88-1-3-.33.26-.58.43-.8.64a12.19,12.19,0,0,1-13.42,1.71,8.61,8.61,0,0,1-4.8-6.69,17.66,17.66,0,0,1-.25-3V26.44L644.21,26V22.57l11.89-1.38a17.13,17.13,0,0,1,.91,3.93V46.36a23.2,23.2,0,0,0,.18,2.88,4.42,4.42,0,0,0,4.61,4.17,10.45,10.45,0,0,0,2.73-.37,3.85,3.85,0,0,0,2.22-2.95V26.69A1.88,1.88,0,0,0,666.63,26.39Z" transform="translate(-3 -3)"/><path class="cls-2" d="M470.82,42.37a13.62,13.62,0,0,0,2.06,8,7,7,0,0,0,6,3.23,17,17,0,0,0,6.88-1.37c.28-.13.59-.24,1-.4.48,1.11,1,2.2,1.49,3.43a19.76,19.76,0,0,1-2,1.32,18,18,0,0,1-14.07,1.8,13.51,13.51,0,0,1-8.62-7.86,25.42,25.42,0,0,1-2-13.19,23.68,23.68,0,0,1,2-8c2-4.13,4.91-7,9.49-8,4.36-.93,8.41-.37,11.79,2.86a15.39,15.39,0,0,1,3.86,7,29.57,29.57,0,0,1,1.07,8.21,9.59,9.59,0,0,1-.83,2.73Zm11-4.76c-.1-1.11-.15-2-.27-3a16.34,16.34,0,0,0-1.76-6.21,4.08,4.08,0,0,0-5.3-2,2.75,2.75,0,0,0-1.87,1.69,27.75,27.75,0,0,0-2,9.26,4.58,4.58,0,0,0,.13.74Z" transform="translate(-3 -3)"/><path class="cls-2" d="M642.68,42.15l-18.15.22a12.57,12.57,0,0,0,.29,3.72,11.06,11.06,0,0,0,2.26,5,6.89,6.89,0,0,0,5.25,2.52,15.88,15.88,0,0,0,6.71-1.2l1.43-.55,1.5,3.48-.6.39A18.32,18.32,0,0,1,628.6,59c-5.7-.63-9.51-4-11.57-9.17a26.16,26.16,0,0,1,.2-20.2,12.91,12.91,0,0,1,9.54-8.25c3.65-.78,7.19-.54,10.39,1.66a13,13,0,0,1,4.63,6.31,25.82,25.82,0,0,1,1.67,10A12.17,12.17,0,0,1,642.68,42.15Zm-7.24-4.52a28.12,28.12,0,0,0-1.11-7.12,10.52,10.52,0,0,0-1.69-3.17c-1.43-1.83-5.85-1.46-6.54,1.06a50.05,50.05,0,0,0-1.52,6.17,11.19,11.19,0,0,0-.14,3.56Z" transform="translate(-3 -3)"/><path class="cls-2" d="M578.08,42.15l-18.17.23c0,3.26.55,6.22,2.62,8.7a6.71,6.71,0,0,0,5.13,2.52,16.06,16.06,0,0,0,6.88-1.19l1.41-.56,1.48,3.41c-.43.32-.81.64-1.24.92a18.23,18.23,0,0,1-13.51,2.57c-4.49-.86-7.62-3.66-9.64-7.69a24.73,24.73,0,0,1-2.32-13,24.2,24.2,0,0,1,2.07-8.73,13.27,13.27,0,0,1,7.1-7.21c4-1.56,8-1.71,11.88.38A12.18,12.18,0,0,1,577,28.73a26.72,26.72,0,0,1,2,10.6A10.34,10.34,0,0,1,578.08,42.15Zm-7.19-4.53c-.11-1.21-.17-2.28-.31-3.34a15.63,15.63,0,0,0-1.67-5.74,4.15,4.15,0,0,0-5.49-2.08l-.23.12a2.33,2.33,0,0,0-1.35,1.26,25.13,25.13,0,0,0-1.91,7.42c-.1.9-.15,1.81-.25,2.88Z" transform="translate(-3 -3)"/><path class="cls-2" d="M446.9,21.52c.28,1.11.53,2.14.82,3.26L449,24a20.48,20.48,0,0,1,8.24-2.51A3.12,3.12,0,0,1,460.45,23c-.35,3.2-.72,6.47-1.1,9.83l-5.89-.24c-.22-1.81-.44-3.51-.65-5.28A7.74,7.74,0,0,0,449,28.6V54l3.66.82c-.07,1.24-.13,2.43-.21,3.71H436.67V54.8L440,54V27.36l-3.8-.44V23Z" transform="translate(-3 -3)"/><path class="cls-2" d="M681.44,58.52c.06-1.29.11-2.49.16-3.74l3.29-.81V27.38L681,26.91V23l10.81-1.48c.28,1.13.55,2.16.79,3.1a42.49,42.49,0,0,1,4.57-2.05A39.25,39.25,0,0,1,702,21.5,2.94,2.94,0,0,1,705.38,23c-.36,3.13-.72,6.4-1.1,9.83l-5.9-.22c-.23-1.81-.44-3.55-.69-5.46L694,28.4V54l3.65.82c-.08,1.24-.15,2.47-.23,3.73Z" transform="translate(-3 -3)"/><path class="cls-2" d="M541.88,27.08l-3.76,1.38V54l3.73.84c-.11,1.26-.2,2.45-.31,3.71H525.81v-3.7l3.35-.85V27.36l-3.85-.44V23L536,21.5l.91,3.17c1-.54,2.05-1.11,3.09-1.61a20.53,20.53,0,0,1,6.17-1.57,3.26,3.26,0,0,1,3.44,1.43l-1.09,9.83-5.89-.22C542.33,30.77,542.16,29.07,541.88,27.08Z" transform="translate(-3 -3)"/><path class="cls-2" d="M426.71,14.47V22h6.57c-.15,1.67-.28,3.15-.41,4.7l-5.9.67a8.36,8.36,0,0,0-.12,1V49.93a9.79,9.79,0,0,0,.07,1.43,2.71,2.71,0,0,0,2.76,2.5h3.75c.13,1.33.26,2.59.39,3.87a7.52,7.52,0,0,1-2.95,1,18.63,18.63,0,0,1-6.7.2,7,7,0,0,1-6.08-6.37,19.68,19.68,0,0,1-.08-2.17V28.68c0-.43-.06-.87-.09-1.32l-4.16-.69c.07-1.49.14-2.94.21-4.57l4.68-.23,2.08-7Z" transform="translate(-3 -3)"/><path class="cls-3" d="M706.27,56.23a3.12,3.12,0,1,1-3.59-2.57,3,3,0,0,1,.52,0A2.86,2.86,0,0,1,706.27,56.23Zm-5.25,0a2.19,2.19,0,1,0,2.39-1.95h-.23A2,2,0,0,0,701,56.2v0Zm1.79,1.23H702V55.05a8.24,8.24,0,0,1,1.22-.08,2.23,2.23,0,0,1,1.11.18.61.61,0,0,1,.29.53c0,.25-.25.47-.64.56h0a.72.72,0,0,1,.57.61,2.21,2.21,0,0,0,.2.58h-1a1.14,1.14,0,0,1-.2-.51.42.42,0,0,0-.46-.36h-.29Zm0-1.38h.24c.31,0,.52-.1.52-.29s-.19-.3-.48-.3h-.28Z" transform="translate(-3 -3)"/><path class="cls-4" d="M1015.86,59.82a7.73,7.73,0,1,1-7.66-7.72,7.75,7.75,0,0,1,7.66,7.72Z" transform="translate(-3 -3)"/><path class="cls-5" d="M983.36,41.74l18.5-1.91Q999.16,22.6,981.6,20.2c-17.55-2.39-28.4,5.75-31.27,9.9S946,37.91,945.7,44.61,949.53,57.38,951,59s8,9.42,24.57,9.42,22-6.38,24.73-12.29a16.23,16.23,0,0,0,1.59-6.22H983.68q-.81,7.18-8.14,7.18c-7.34,0-8.3-6.86-8-12.45s-.16-12.92,7.66-13.24Q983,31.06,983.36,41.74Z" transform="translate(-3 -3)"/><path class="cls-4" d="M947.75,54.18V67.32H914.64V53.73h6.25v-.41c0-4.62,0-9.24,0-13.86a6,6,0,0,0-1.13-3.72,5.88,5.88,0,0,0-3.8-2.22,9.07,9.07,0,0,0-7.58,1.65,7.91,7.91,0,0,0-3.17,6.34c-.07,4,0,8.05,0,12.08,2.15.12,4.27.12,6.41.12V67.32H877.75V53.73h6.09V33.31h-6.09V19.7h26.71v9.38c.39-.42.71-.73,1-1.07a21.46,21.46,0,0,1,7.43-5.83,21.06,21.06,0,0,1,6.41-1.8,31.89,31.89,0,0,1,11.23.51,16.14,16.14,0,0,1,7.29,3.65,12.69,12.69,0,0,1,4,7.28,21.62,21.62,0,0,1,.38,3.93c0,5.81,0,11.61,0,17.42v.52h5.52ZM840.19,19.68h-8.08V5.05h43.32V19.6h-8.08V53.7h8.07V67.31h-43.3V53.73h8.07Z" transform="translate(-3 -3)"/><polygon class="cls-6" points="28.62 202.03 28.62 210.43 38.6 210.43 38.6 238.04 48.17 238.04 48.17 210.43 58.09 210.43 58.09 202.03 28.62 202.03"/><path class="cls-6" d="M86.56,232.39a10.24,10.24,0,0,1-7.84,0,8.75,8.75,0,0,1-3-2.14,9.8,9.8,0,0,1-1.91-3.2,12,12,0,0,1,0-8,9.65,9.65,0,0,1,1.91-3.19,8.64,8.64,0,0,1,3-2.15,10.24,10.24,0,0,1,7.84,0,8.7,8.7,0,0,1,3,2.15,9.65,9.65,0,0,1,1.91,3.19,11.88,11.88,0,0,1,0,8,9.8,9.8,0,0,1-1.91,3.2,8.8,8.8,0,0,1-3,2.14m9.82-22.74a18.51,18.51,0,0,0-6.09-3.84,22,22,0,0,0-15.27,0,18.54,18.54,0,0,0-6.1,3.84,17.34,17.34,0,0,0-4,5.88,20.15,20.15,0,0,0,0,15.06,17.48,17.48,0,0,0,4,5.89,18.68,18.68,0,0,0,6.1,3.83,22,22,0,0,0,15.27,0,18.51,18.51,0,0,0,6.09-3.84,17.72,17.72,0,0,0,4-5.88,20.15,20.15,0,0,0,0-15.06,17.72,17.72,0,0,0-4-5.88" transform="translate(-3 -3)"/><path class="cls-6" d="M132.25,223a10.4,10.4,0,0,1-.66,3.69,8.91,8.91,0,0,1-1.87,3.06,9.15,9.15,0,0,1-3,2.09,10.28,10.28,0,0,1-4.11.79H117V213.43h5.62a11.37,11.37,0,0,1,4.22.73,8.32,8.32,0,0,1,3,2,8.65,8.65,0,0,1,1.8,3,11.48,11.48,0,0,1,.6,3.78m4.23-13.18a18.14,18.14,0,0,0-6.14-3.57,23.61,23.61,0,0,0-7.79-1.24H107.44v36H122.6a23.18,23.18,0,0,0,7.74-1.24,17.71,17.71,0,0,0,6.14-3.59,16.5,16.5,0,0,0,4-5.67,20.15,20.15,0,0,0,0-15.06,16.14,16.14,0,0,0-4-5.65" transform="translate(-3 -3)"/><path class="cls-6" d="M166.21,227.51h-8.52l4.26-12.6ZM167.85,205h-11.8l-13.44,35.76-.1.26h10.83l1.76-5.12h13.75l1.77,5.12h10.82L167.9,205.15Z" transform="translate(-3 -3)"/><polygon class="cls-6" points="200.3 202.03 192.78 214.97 185.16 202.03 174.34 202.03 188 223.54 188 238.04 197.57 238.04 197.57 223.54 211.17 202.03 200.3 202.03"/><path class="cls-7" d="M55.09,188.8a67,67,0,0,1,133.66.4c.08,1.37.13,2.75.13,4.14h23.44c0-1.24,0-2.48-.08-3.71a90.41,90.41,0,0,0-180.63-1c-.08,1.55-.12,3.12-.12,4.69H54.94c0-1.53.05-3,.15-4.54" transform="translate(-3 -3)"/><path class="cls-7" d="M85.32,189.07a36.83,36.83,0,0,1,73.2.28,35.18,35.18,0,0,1,.22,4h23.44q0-1.93-.12-3.84a60.27,60.27,0,0,0-120.3-.14c-.09,1.32-.13,2.64-.13,4H85.07a37.52,37.52,0,0,1,.25-4.27" transform="translate(-3 -3)"/><path class="cls-7" d="M121.91,163.17a30.14,30.14,0,0,0-30.14,30.17H152a30.12,30.12,0,0,0-30.13-30.17" transform="translate(-3 -3)"/><g id="layer1"><g id="g3120"><g id="g3108"><path id="path3082" class="cls-8" d="M386.27,166.46a9.34,9.34,0,0,0-10-6,9.55,9.55,0,0,0-8.41,11.75,9.89,9.89,0,0,0-12.08.84c-5.53,5.49-2.58,12.91.47,14.69a9.52,9.52,0,0,0-9.82,7.8c-1.25,7.27,4.36,11.52,9.82,11.52h60.53c6.32,0,9.82-5.41,9.43-10.5A9.39,9.39,0,0,0,416.11,188c2.8-1.55,6.55-8.82.86-14.53-4.52-4.26-10.29-2.71-12.31-.86,1.09-3.55-.7-10.89-8-12.06-.51-.05-1-.08-1.46-.08a9.4,9.4,0,0,0-8.9,6" transform="translate(-3 -3)"/><path id="path3084" class="cls-9" d="M356.82,174.26a8.22,8.22,0,0,0,1.4,13.15l23,15.6-11.14-25.27c-2.34-6-8.73-7.26-13.24-3.48" transform="translate(-3 -3)"/><path id="path3086" class="cls-10" d="M376.6,162a8.11,8.11,0,0,0-6.85,11.2l11.53,26.9,4.05-28.29c.94-7-4.44-10.28-8.73-9.81" transform="translate(-3 -3)"/><path id="path3088" class="cls-11" d="M387.13,170.71h2.18s1.16,0,1.32.54c-.86.69-3.19.78-2.88,4.48l3.66,24.35,11.45-27a8.2,8.2,0,0,0-6.93-11.2c-.21,0-.41,0-.62,0-3.92,0-8.4,2.82-8.18,8.84" transform="translate(-3 -3)"/><path id="path3090" class="cls-12" d="M402.4,178l-10.83,25,23-15.69c5.3-3.72,4.44-9.66,1.48-12.6a8.31,8.31,0,0,0-5.95-2.45c-2.85,0-5.91,1.5-7.68,5.77" transform="translate(-3 -3)"/><path id="path3092" class="cls-13" d="M412,190.8,390.4,205.72H417c5.45,0,8.95-5.57,7.4-10.67a8.3,8.3,0,0,0-7.72-5.73A8.48,8.48,0,0,0,412,190.8" transform="translate(-3 -3)"/><path id="path3094" class="cls-14" d="M356.2,205.72h26.18L360.79,190.8c-5-3.17-10.59-1.31-12.62,3.95a8.34,8.34,0,0,0,8,11" transform="translate(-3 -3)"/></g><g id="flowRoot3020"><path id="path3029" class="cls-15" d="M482.09,205.82v-50.7h-12l-13.33,21.44-13.33-21.44h-12v50.7h10.94V172.93l14.12,21.44h.29L471,172.72v33.1Z" transform="translate(-3 -3)"/><path id="path3031" class="cls-15" d="M525.71,190.82v-.14a14.15,14.15,0,0,0-1.05-5.72,11.59,11.59,0,0,0-3.12-4.17,19.26,19.26,0,0,0-5.07-3,52.62,52.62,0,0,0-6.84-2.28c-2.18-.58-4-1.09-5.4-1.52a16.56,16.56,0,0,1-3.37-1.38,4.26,4.26,0,0,1-1.7-1.63,4.58,4.58,0,0,1-.47-2.13v-.15a3.85,3.85,0,0,1,1.63-3.15,7.93,7.93,0,0,1,4.89-1.27,17.14,17.14,0,0,1,6.52,1.34,37.58,37.58,0,0,1,6.66,3.66l5.8-8.4a29.61,29.61,0,0,0-8.59-4.78,30.31,30.31,0,0,0-10.25-1.67,22.75,22.75,0,0,0-7.17,1.09,16.44,16.44,0,0,0-5.61,3.11,14.36,14.36,0,0,0-3.66,4.82,14.62,14.62,0,0,0-1.3,6.27v.14a14.85,14.85,0,0,0,1.19,6.3,11.65,11.65,0,0,0,3.37,4.24,19.63,19.63,0,0,0,5.29,2.86,64.33,64.33,0,0,0,7,2.1c2.13.53,3.85,1,5.18,1.52a15.58,15.58,0,0,1,3.11,1.45,4,4,0,0,1,1.53,1.56,4.45,4.45,0,0,1,.4,1.92v.14a4,4,0,0,1-1.92,3.51,9.71,9.71,0,0,1-5.4,1.27,19,19,0,0,1-8-1.66,33.3,33.3,0,0,1-7.14-4.5l-6.59,7.9a30.13,30.13,0,0,0,10.14,6.12,33.54,33.54,0,0,0,11.37,2,25.54,25.54,0,0,0,7.54-1,17.34,17.34,0,0,0,5.86-3,13.81,13.81,0,0,0,3.84-4.93,15.52,15.52,0,0,0,1.38-6.7Z" transform="translate(-3 -3)"/><path id="path3033" class="cls-15" d="M575.23,205.82v-50.7h-11v31.21l-23.76-31.21H530.18v50.7h11V173.59l24.56,32.23Z" transform="translate(-3 -3)"/><path id="path3035" class="cls-15" d="M625.12,191.91v-.14c0-3.38-.85-6-2.54-7.93a17.09,17.09,0,0,0-7-4.53,13.83,13.83,0,0,0,2.57-1.74,11.51,11.51,0,0,0,2.1-2.35,11.82,11.82,0,0,0,1.45-3,12.44,12.44,0,0,0,.55-3.84v-.14a11.58,11.58,0,0,0-4.46-9.56q-4.46-3.55-12.28-3.55H582v50.7h24.12a32.41,32.41,0,0,0,7.79-.87,18,18,0,0,0,6-2.61,11.77,11.77,0,0,0,3.84-4.35,13.13,13.13,0,0,0,1.34-6.08Zm-13.91-21.66a4.38,4.38,0,0,1-2.17,4.1,11.68,11.68,0,0,1-5.87,1.26H592.89V164.89h11a9.34,9.34,0,0,1,5.43,1.34,4.47,4.47,0,0,1,1.88,3.88ZM614,190.53a4.59,4.59,0,0,1-2.1,4.17,10.78,10.78,0,0,1-5.8,1.34H592.89V184.89h12.89q4.35,0,6.3,1.48a4.77,4.77,0,0,1,2,4Z" transform="translate(-3 -3)"/><path id="path3037" class="cls-15" d="M673.53,197.63l-7.1-7.17a28.18,28.18,0,0,1-6,4.35,15.54,15.54,0,0,1-7.35,1.59,14,14,0,0,1-10.61-4.71,16.06,16.06,0,0,1-3-5.07,17.23,17.23,0,0,1-1.09-6.15v-.15a17,17,0,0,1,1.09-6.12,15.64,15.64,0,0,1,3-5,13.92,13.92,0,0,1,4.67-3.41,14.14,14.14,0,0,1,5.9-1.23,15.46,15.46,0,0,1,6.92,1.52,27.31,27.31,0,0,1,6.05,4.2l7.1-8.18a30.41,30.41,0,0,0-3.77-3.19,23.35,23.35,0,0,0-4.42-2.46,26.36,26.36,0,0,0-5.32-1.59,33.29,33.29,0,0,0-6.48-.58,27.21,27.21,0,0,0-10.72,2.06,25.22,25.22,0,0,0-8.33,5.65,26.37,26.37,0,0,0-7.39,18.51v.14a26.56,26.56,0,0,0,2,10.21,25.11,25.11,0,0,0,5.43,8.3,25.54,25.54,0,0,0,8.25,5.54,26.3,26.3,0,0,0,10.36,2,33,33,0,0,0,6.67-.62,23.5,23.5,0,0,0,5.46-1.81,24.17,24.17,0,0,0,4.6-2.86,36.51,36.51,0,0,0,4.06-3.77Z" transform="translate(-3 -3)"/></g></g></g><path class="cls-16" d="M853.77,119H967.36v92.13H853.77Z" transform="translate(-3 -3)"/><path class="cls-17" d="M853.77,212.39H967.36v20.2H853.77Z" transform="translate(-3 -3)"/><path class="cls-8" d="M967.36,185h-.21a92.24,92.24,0,0,0-4.28-9h1.4c1.1,2.12,2.13,4.26,3.09,6.44ZM853.77,131.62a91.22,91.22,0,0,1,17.19-4l1.66-8.65h13.5l-3,7.85a91.61,91.61,0,0,1,10.86.64l4.21-8.49H913l-7.06,10.72a90.86,90.86,0,0,1,26.42,11.57c1.62,1,3.19,2.13,4.72,3.26h-2.14a90.72,90.72,0,0,0-29.72-13.71l-8.64,13.4h-6.2v9.12l-15.29,24.95h-4.89v8.35L854.5,211.13H854l39.37-82.46a85.38,85.38,0,0,0-10.72-.58l-28.78,83h-.11m0-1.54L870.68,129a89.45,89.45,0,0,0-16.84,4h-.07" transform="translate(-3 -3)"/><path class="cls-8" d="M900.46,165.29h8.3v-7.75h-8.3v-3.7h10.1l-.55-7.77H892v28.46h8.44Zm35.1,9.15h9.08l4.14-7,4.24,7h9.29l-9-14.74,8.07-13.6h-9.2L948.75,152l-3.6-5.92H935.8l8.31,13.67Zm-10.56.31a14.56,14.56,0,0,0,14.77-14.32,14.8,14.8,0,0,0-29.58,0A14.55,14.55,0,0,0,925,174.75Zm-2.61-20.56a2.63,2.63,0,0,1,2.52-2.61,2.72,2.72,0,0,1,2.67,2.61v12.08a2.6,2.6,0,0,1-5.19,0Zm-20,41.58H911v-5.69h-8.59v-3.87h10.46V180h-17.1v26.61H913v-6.4H902.39Zm37-15.73-3.29,15.23L932.85,180h-5.69l-3.06,15.39L920.91,180h-6.78l6.15,26.61h6.18l3-15.25,3.12,15.25h6L944.84,180Zm22.44,12c-1.76-1.62-3.79-2.06-6.06-2.7-2.69-.75-4.17-.84-4.17-2.4a2.09,2.09,0,0,1,2.3-1.89h0a3.48,3.48,0,0,1,3.67,2.66l5.81-1.93a8.91,8.91,0,0,0-9-6.61c-6.06,0-9.77,3.72-9.77,8.74,0,4.33,2.52,6.46,7.57,8,3,.91,4.62.84,4.62,2.78,0,1-.95,1.82-2.52,1.82a3.94,3.94,0,0,1-4.33-3.25l-6.37,1.4c1.09,5,4.85,8,10.62,8a10.13,10.13,0,0,0,7.57-3.12,8.61,8.61,0,0,0,2.23-5.86,7.39,7.39,0,0,0-2.18-5.66Zm-74.3,1.34-7.93-13.24h-7.69v26.51h6.75V191.18l9,15.45h6.4v-26.5h-6.57Zm-22.81,28.12a1.55,1.55,0,0,1,1.7,1h3.79c-.24-1.79-2.28-2.86-5.44-2.86-3.62,0-5.92,1.6-5.92,4.13,0,2.3,2.26,3.79,5.69,3.79,3.16,0,5.23-1.1,5.62-3H866.4c-.22.71-.81,1.07-1.78,1.07a1.76,1.76,0,0,1-1.94-2,1.9,1.9,0,0,1,2-2.15Zm36.85,4.35v-2.79a2.72,2.72,0,0,0-.75-2.37,6.9,6.9,0,0,0-4.24-1c-3.26,0-5,.79-5.41,2.52h3.46c.15-.54.79-.84,1.87-.84s1.49.23,1.49.65v.18c0,.57-1.42.45-4.09.85-2,.31-3,1.06-3,2.29s1.33,2.12,3.59,2.12a6.55,6.55,0,0,0,3.66-1,3.33,3.33,0,0,0,.2.75h3.78V227c-.33-.12-.5-.51-.5-1.17Zm-3.6-1.19c0,.78-.91,1.26-2.18,1.26-.84,0-1.38-.37-1.38-.88s.39-.67,1.26-.81a14.78,14.78,0,0,0,2.3-.42Zm17-4.91a4.57,4.57,0,0,0-3.48,1.18v-1h-3.67v7.36h3.79v-4c0-1.26.55-1.77,1.91-1.77s1.58.65,1.58,2v3.7h3.79v-4.81c-.05-1.86-1.09-2.72-3.87-2.72Zm-32.74.1a4.93,4.93,0,0,0-3.53,1.15v-3.57h-3.79v10h3.79v-3.93c0-1.26.54-1.77,1.9-1.77s1.58.65,1.58,2v3.7h3.79v-5c0-1.64-1.3-2.5-3.7-2.5Zm50.48-.1a4.57,4.57,0,0,0-3.48,1.18v-1h-3.6v7.36h3.79v-4c0-1.26.54-1.77,1.9-1.77s1.59.65,1.59,2v3.7h3.79v-4.81c0-1.86-1.1-2.72-3.89-2.72Zm14.72-.08c-3.51,0-5.78,1.5-5.78,4s2.32,3.89,5.87,3.89c2.94,0,5-.94,5.69-2.52h-3.63c-.27.53-.91.81-1.93.81-1.33,0-2.06-.55-2.06-1.59h7.77a3.23,3.23,0,0,0,0-.44c0-2.57-2.22-4.11-5.84-4.11Zm-2,3.14c.14-1,.93-1.52,2.14-1.52s2.12.55,2.14,1.52Zm13.16-5.39v10h3.79v-10Z" transform="translate(-3 -3)"/><path class="cls-18" d="M102.27,298.08h13.07v20a3.71,3.71,0,0,0,.32-.3c3.58-4,8.1-4.88,13.07-3.68,4.78,1.15,7.45,4.53,8.6,9.16a20.26,20.26,0,0,1,.59,4.59c.06,7.83,0,15.65,0,23.49,0,.13,0,.25,0,.44H124.79V351c0-6.38,0-12.76,0-19.14a11.72,11.72,0,0,0-.4-3,3.8,3.8,0,0,0-3.46-3,4.35,4.35,0,0,0-4.43,1.93,7.62,7.62,0,0,0-1.07,4.3V351.8H102.27Z" transform="translate(-3 -3)"/><path class="cls-19" d="M85.11,317.8v-3.2H97.78v37.22H85.14v-3.4c-.35.39-.57.62-.79.85a12.13,12.13,0,0,1-8.45,3.52,17.24,17.24,0,0,1-17.4-12.3c-2.52-7.72-1.4-14.9,4-21.12a16.27,16.27,0,0,1,17.39-4.9,11.42,11.42,0,0,1,4.88,3.15,1.37,1.37,0,0,0,.22.19ZM70,333.23a7.71,7.71,0,1,0,7.73-7.64A7.56,7.56,0,0,0,70,333.23Z" transform="translate(-3 -3)"/><path class="cls-19" d="M14.73,314.55h3.94c3.21,0,6.41,0,9.61,0a.9.9,0,0,1,1,.68q4,10.21,8,20.44l.29.72c.15-.34.26-.57.35-.81q4-10.12,8-20.27a1,1,0,0,1,1.08-.76c4.09,0,8.19,0,12.28,0h.83c-.12.32-.19.56-.28.78L39.22,365a1,1,0,0,1-1.09.76c-4.14,0-8.29,0-12.43,0h-.76c.1-.29.17-.49.25-.69,1.71-4.05,3.41-8.1,5.14-12.14a1.63,1.63,0,0,0,0-1.43q-7.65-18-15.28-36.05C14.94,315.14,14.86,314.88,14.73,314.55Z" transform="translate(-3 -3)"/><path class="cls-19" d="M160.66,313.62c8.9.05,16.39,5.23,18.94,13.3,4,12.69-4.28,25.63-18.5,25.87-7.16.13-13.1-2.53-17.14-8.58-7.37-11-2.17-28.1,13.74-30.33C158.68,313.74,159.67,313.7,160.66,313.62Zm0,12.13a7.5,7.5,0,1,0,7.42,7.54,7.31,7.31,0,0,0-7.42-7.54Z" transform="translate(-3 -3)"/><path class="cls-19" d="M182.83,333.67c0-11.83,9.11-20.5,20.65-20,7,.32,12.76,3.18,16.45,9.31,6.84,11.37,1.06,27.93-14.73,29.66-7.24.8-13.47-1.41-18.19-7.15A18.73,18.73,0,0,1,182.83,333.67Zm20-7.93a7.51,7.51,0,1,0,7.41,7.54,7.34,7.34,0,0,0-7.41-7.54Z" transform="translate(-3 -3)"/><path class="cls-19" d="M229.12,331.84l14-33.77h15.62c-.1.26-.18.49-.27.71q-6.69,16.16-13.37,32.32a1,1,0,0,1-1.1.76c-4.67,0-9.35,0-14,0Z" transform="translate(-3 -3)"/><path class="cls-20" d="M170.6,367.52v-1.78h7.56v21h-7.55v-2.12a7.3,7.3,0,0,1-4.44,2.62,9.17,9.17,0,0,1-9.38-3.74,12.58,12.58,0,0,1,.54-15.16,9.17,9.17,0,0,1,10-2.75A23.39,23.39,0,0,1,170.6,367.52Zm.18,8.76a4.23,4.23,0,0,0-4.32-4.27,4.27,4.27,0,1,0,4.32,4.28Z" transform="translate(-3 -3)"/><path class="cls-20" d="M152.42,386.79h-7.75V375.55a6.33,6.33,0,0,0-.17-1.5,2.3,2.3,0,0,0-2.11-1.9,2.36,2.36,0,0,0-2.65,1.47,6.09,6.09,0,0,0-.4,2.07c0,3.4,0,6.81,0,10.22v.87h-7.71v-21h7.68V368l.43-.44a7.25,7.25,0,0,1,10.77-.16,8.56,8.56,0,0,1,1.89,5.05c0,.43,0,.87,0,1.3Z" transform="translate(-3 -3)"/><path class="cls-20" d="M189.16,365.72v2.15a1.17,1.17,0,0,0,.28-.17c1.95-2.5,4.58-3,7.47-2.35s4.44,2.71,5.08,5.49a11.58,11.58,0,0,1,.27,2.34c0,4.35,0,8.7,0,13,0,.17,0,.35,0,.56h-7.71v-.84q0-5.19,0-10.38a6.33,6.33,0,0,0-.17-1.5,2.33,2.33,0,0,0-2.18-1.92,2.39,2.39,0,0,0-2.65,1.61,6.18,6.18,0,0,0-.33,2c0,3.38,0,6.76,0,10.14v.87h-7.71v-21Z" transform="translate(-3 -3)"/><path class="cls-20" d="M244.26,378.23H229.73a3.1,3.1,0,0,0,1.43,2.5,4.35,4.35,0,0,0,5.4-.55.85.85,0,0,1,1.1-.26c1.93.78,3.88,1.51,5.89,2.28a5.77,5.77,0,0,1-.29.55c-2,3.05-5,4.37-8.59,4.64a13,13,0,0,1-6.34-.94c-3.82-1.69-5.65-4.76-6.12-8.8a11.22,11.22,0,0,1,5.49-11.09,11.66,11.66,0,0,1,12.72.88,10.54,10.54,0,0,1,3.82,7.38A32.13,32.13,0,0,1,244.26,378.23Zm-7.48-4.44c-.09-1.78-1.61-2.92-3.69-2.84-1.85.07-3.28,1.31-3.25,2.84Z" transform="translate(-3 -3)"/><path class="cls-20" d="M112.76,371.88v14.9h-7.71V371.92h-2.76V365.7H105c.1-1,.14-2,.3-2.92.79-4.43,3.76-7.13,8.25-7.34a23.16,23.16,0,0,1,4.21.45.81.81,0,0,1,.52.59c0,2,0,3.91,0,5.94-1.65-.47-3.26-.88-4.64.42a3.19,3.19,0,0,0-.81,2.84h5.12v6.2Z" transform="translate(-3 -3)"/><path class="cls-20" d="M220.74,373a16.76,16.76,0,0,0-3-.88,7.17,7.17,0,0,0-2.84.27,4,4,0,0,0-2.7,4.43,4.18,4.18,0,0,0,3.8,3.58c1.48.17,2.25,0,4.65-1.07a4,4,0,0,1,.06.5c0,1.93,0,3.86,0,5.79a.78.78,0,0,1-.55.86,11.62,11.62,0,0,1-11.4-1.15c-3.46-2.38-4.67-5.91-4.39-10,.61-8.71,9.23-11.94,15.7-9.45a.85.85,0,0,1,.65.94C220.72,368.91,220.74,371,220.74,373Z" transform="translate(-3 -3)"/><path class="cls-21" d="M224.37,343.93a8.8,8.8,0,0,1,8.79-8.82h.12a8.42,8.42,0,0,1,8.51,8.59,8.77,8.77,0,0,1-8.89,8.81A8.42,8.42,0,0,1,224.37,343.93Z" transform="translate(-3 -3)"/><path class="cls-22" d="M128.29,386.8h-7.63V365.74h7.63Z" transform="translate(-3 -3)"/><path class="cls-22" d="M124.49,355.22a4.28,4.28,0,0,1,4.32,4.25.06.06,0,0,1,0,0,4.34,4.34,0,1,1-4.33-4.29Z" transform="translate(-3 -3)"/><path class="cls-23" d="M170.78,376.29a4.26,4.26,0,0,1-4.35,4.25,4.27,4.27,0,1,1,0-8.53A4.24,4.24,0,0,1,170.78,376.29Z" transform="translate(-3 -3)"/><path class="cls-24" d="M236.78,373.79h-6.94c0-1.53,1.4-2.77,3.25-2.84C235.17,370.87,236.69,372,236.78,373.79Z" transform="translate(-3 -3)"/><path class="cls-25" d="M450.64,288.28v16.28c1.08-.53,2-1,2.87-1.39,5.36-2.46,12.3-1.66,15.94,3.61a22.2,22.2,0,0,1,2.61,6.19,15.18,15.18,0,0,1,.61,4.45c.06,7.12,0,14.24,0,21.61h-9.6c0-.81-.15-1.64-.16-2.48V320.27a24.06,24.06,0,0,0-.54-4.78c-.6-2.83-2.53-4.24-5.59-4.34a5,5,0,0,0-5.51,4,15.53,15.53,0,0,0-.57,4.13c-.06,6.51,0,13,0,19.69-3.17.55-6.26.14-9.32.3-.65-2.68-.84-36.36-.32-46.08,2.2-1.12,4.52-2.27,6.8-3.49a9.23,9.23,0,0,0,1.51-1.35Z" transform="translate(-3 -3)"/><path class="cls-26" d="M679.2,344.33H352.07c-1.22,0-2.54.37-4.07-.66a6.23,6.23,0,0,1,1.48-.69c.86-.08,1.73,0,2.61,0H679.2Z" transform="translate(-3 -3)"/><path class="cls-25" d="M383,339.15V302.67c2.7,0,5.29.12,7.85,0,1.5-.09,1.73.81,2,2A12.52,12.52,0,0,1,402,302c3.38.23,6.11,2,8.47,4.25,1-.7,1.89-1.32,2.8-1.87a16.21,16.21,0,0,1,13-1.88c4.41,1.12,6.6,4.2,7.91,8.14a11.16,11.16,0,0,1,.65,3.47c.06,8.23,0,16.46,0,24.87h-9.45c0-.81-.15-1.64-.15-2.49V319.58c0-1.08,0-2.17-.09-3.25-.27-3.15-2-5-4.72-5.21-3.36-.26-5.44,1.14-6.19,4.32a14.57,14.57,0,0,0-.27,3.36v20.35H404a20.18,20.18,0,0,1-.22-2V316.6c-.3-4.07-3.25-6.27-7.12-5.21-2.4.65-3.36,2.61-3.81,4.77a11.43,11.43,0,0,0-.12,2.61v17.59c0,.94-.08,1.88-.12,2.94Z" transform="translate(-3 -3)"/><path class="cls-25" d="M351.1,329c3.75,1,7,2,10.37,2.65a19.22,19.22,0,0,0,5.71-.35c.94-.12,1.4-.9,1.42-1.91s-.08-1.72-1.1-2.11c-2-.78-3.95-1.62-5.95-2.39-2.9-1.1-5.92-1.82-8.47-3.79a10,10,0,0,1-3.82-10.56c1-4.31,3.77-6.73,7.77-7.79a27.51,27.51,0,0,1,18.6,1.84c1,.46,1.71,1,1.22,2.18-.85,2-1.78,4.07-2.69,6.21a39.9,39.9,0,0,0-5.63-1.86,49.19,49.19,0,0,0-7.37-.62,2.09,2.09,0,0,0-2.39,1.71c-.2,1.31.72,1.95,1.79,2.34l6.33,2.39c3.05,1.13,6,2.18,8.54,4.44,4.71,4.27,3.71,13.91-2.54,16.85a21.26,21.26,0,0,1-6.83,1.68,31.15,31.15,0,0,1-14.14-2c-4.12-1.44-4.16-1.52-2.34-5.6Z" transform="translate(-3 -3)"/><path class="cls-26" d="M598.73,338.39H594c0-.93-.14-1.76-.14-2.61,0-5.32.12-10.64-.06-15.94a37.94,37.94,0,0,0-1.21-8.14c-.78-3-3.46-4.56-6.67-4.47-2.66.09-5.8,2.46-6.34,5a27.21,27.21,0,0,0-.66,5.4c-.09,5.86,0,11.72,0,17.59v3.05h-5.75V316.17a14.86,14.86,0,0,0-.66-4.07c-1-3.25-3.16-4.86-6.35-4.88a6.89,6.89,0,0,0-6.62,4.69,13.15,13.15,0,0,0-.73,4.4c-.07,6.84,0,13.68,0,20.52,0,.41,0,.84-.08,1.42-1.82.58-3.6.08-5.68.29v-35c1-.06,1.86-.14,2.79-.17s1.72,0,2.77,0c.11,1,.21,1.95.33,3.11,6.4-5.82,12.28-5.09,17.83,1.37,2.12-2,4.31-4.07,7.37-4.77,5.91-1.43,12.37.65,14.18,7.62a25.45,25.45,0,0,1,.82,6c.09,7.05,0,14.11,0,21.17A1.81,1.81,0,0,0,598.73,338.39Z" transform="translate(-3 -3)"/><path class="cls-26" d="M644,338.37h-5.17c-.06-1-.11-2-.17-3.05-.62.27-1.24.35-1.55.7-2.44,2.72-5.86,3.23-9.08,3.42a10.1,10.1,0,0,1-7.94-2.65c-2-2-3.55-4.34-3.46-7.38a16,16,0,0,1,.76-5.7c2-4.5,5.61-6.27,10.1-6.72a21.84,21.84,0,0,1,10.94,1.33,11.56,11.56,0,0,0-.54-7.58c-.93-2.56-3.43-3.32-6-3.57a15.92,15.92,0,0,0-6.3,1c-.39.13-.77.35-1.17.51-2.43,1-3.05.71-4.26-1.7a9.32,9.32,0,0,1-.39-1.27c2.91-2.19,6.31-2.69,9.67-3.06a17.25,17.25,0,0,1,6.71.44c4.89,1.44,7.76,4.75,7.78,9.68v25.5Zm-5.17-11.08a18.08,18.08,0,0,0,0-3.29,2.42,2.42,0,0,0-1.11-1.71c-2.94-1-6-1.91-9.16-1.3s-5.62,1.82-6.48,5.31c-.72,3,1.12,7.61,4.88,8.46,3.47.81,6-.5,8.71-1.95,2.32-1.19,4.07-2.87,3.13-5.52Z" transform="translate(-3 -3)"/><path class="cls-26" d="M532.52,339.44c-9,.29-14.24-7.57-14.86-14.73a32.26,32.26,0,0,1,.67-11A14.84,14.84,0,0,1,535.87,303c7.46,1.62,10.75,7.12,11.87,13.68a25.35,25.35,0,0,1-.8,11.64,14.66,14.66,0,0,1-9.16,10.17A30.32,30.32,0,0,1,532.52,339.44Zm10-18.41a33.47,33.47,0,0,0,0-3.47,12.39,12.39,0,0,0-4.07-8.4c-4.66-3.9-12.07-2.36-14.69,4.89-1.25,3.49-1.08,7.23-.65,10.85a13.92,13.92,0,0,0,1.77,5.09c2,3.68,5.36,5.16,9.49,4.56,3.46-.5,5.58-2.61,6.91-5.86a17.61,17.61,0,0,0,1.24-7.66Z" transform="translate(-3 -3)"/><path class="cls-26" d="M651.19,303.41h5c.06.89.17,1.72.17,2.55,0,6.4,0,12.79.08,19.2a11.52,11.52,0,0,0,.56,3.44c1.62,5.35,3.9,6.8,9.31,5.95,2.42-.38,4-2,5.08-4.07a10.56,10.56,0,0,0,1.31-5.21c-.06-6.1,0-12.15,0-18.23,0-3.74,0-3.74,3.8-3.69.32,0,.65.06.95.08.65,2.38.86,26.79.32,34.8-1.51.53-3.05.21-4.86.22-.1-1-.2-1.95-.32-3.05a2.91,2.91,0,0,0-.78.41c-4,4.18-8.8,4-13.74,2.6-2.82-.81-4.56-2.93-5.64-5.7a18.45,18.45,0,0,1-1.3-6.89C651.24,318.45,651.19,311.11,651.19,303.41Z" transform="translate(-3 -3)"/><path class="cls-26" d="M511.89,331.3a5.49,5.49,0,0,1,.65.52c2.57,2.52,2.48,3.44-.65,5.31-4.46,2.68-12.5,3.5-17.53-.9a16,16,0,0,1-4.91-8.47,25.66,25.66,0,0,1,.18-14.17,14.85,14.85,0,0,1,15.81-10.9,16,16,0,0,1,8.26,3.19c1.16.84.84,1.68.36,2.47a15.82,15.82,0,0,1-2,2.21c-1.66-.84-3.26-1.73-4.89-2.44a8.36,8.36,0,0,0-11,3.78c-2.65,5.35-2.68,10.89-.77,16.51a10.46,10.46,0,0,0,3.91,5A7.33,7.33,0,0,0,507,334C508.63,333.26,510.16,332.24,511.89,331.3Z" transform="translate(-3 -3)"/><path class="cls-26" d="M608.57,339.15a4,4,0,0,1-4.22-3.74v-.48a4.07,4.07,0,0,1,3.78-4.34,4.56,4.56,0,0,1,.64,0c2.44,0,4.7,2.21,4.6,4.38a4.48,4.48,0,0,1-4.76,4.17Z" transform="translate(-3 -3)"/><path class="cls-26" d="M482.1,330.61c2.76,0,4.28,1.4,4.33,4.07a4.27,4.27,0,1,1-8.53.54h0v-.4a3.88,3.88,0,0,1,3.51-4.21A4,4,0,0,1,482.1,330.61Z" transform="translate(-3 -3)"/><path d="M436.07,359.76l-3,2,1,.87v11.57a1.85,1.85,0,0,1-2,1.74h-.5v-14.4L429,359.84l-3.2,2.11.14.29s.59-.37.73-.44a3.73,3.73,0,0,1,1.17,2.11v11.93a3.6,3.6,0,0,0-2.62,3.85,3.11,3.11,0,0,0,2.69,2.84,15.66,15.66,0,0,0,3.71-.29,10.58,10.58,0,0,1,2.18-.15,2.86,2.86,0,0,1,2.25.8l.3.3a2.87,2.87,0,0,0,.65-1.68,2.68,2.68,0,0,0-1.38-2.47,4.6,4.6,0,0,0-2.4-.44,3.42,3.42,0,0,0-.73.08,11.47,11.47,0,0,1-1.67.14c-.8.07-1.67.22-2.26.29a3.81,3.81,0,0,1-.72.07,1.56,1.56,0,0,1-1-.36.87.87,0,0,1-.29-.73c.07-1,1.38-1.45,1.74-1.52h.44A24.17,24.17,0,0,0,433,377a5.36,5.36,0,0,0,1.82-.36,4.65,4.65,0,0,0,1.6-1,4,4,0,0,0,1-1.24,3.17,3.17,0,0,0,.43-1.67V361.07c-.07-.14-1.82-1.31-1.82-1.31" transform="translate(-3 -3)"/><path class="cls-27" d="M437.75,361.15l1.09-.66" transform="translate(-3 -3)"/><path d="M464.37,374l-.66.44-.58-.51V361.22L461,359.76l-4,2.62-.15-.22a4.32,4.32,0,0,0-1.74-2.25l-3.78,2.55.14.21a4.08,4.08,0,0,1,.66-.36,4.69,4.69,0,0,1,1,2V374l-1,.87,2.91,2,2.91-1.89-1-.87V363.33l1-.66,1.45,1.6v10a3.49,3.49,0,0,0,1.6,2.54l3.56-2.32-.14-.44" transform="translate(-3 -3)"/><path class="cls-27" d="M462.91,361.36l1-.65m-77.17,14,1-.66" transform="translate(-3 -3)"/><path d="M394.47,374.17s-1,.58-1.09.65l-2.11-1.53v-4.72l5.16-3.5-3-5.45-6.18,4.07v10.55c1.16.8,3.71,2.33,3.71,2.33l3.49-2.26Zm-3.13-12,2.4,4.15-2.4,1.6v-5.75" transform="translate(-3 -3)"/><path class="cls-27" d="M465.1,374.82l1-.65" transform="translate(-3 -3)"/><path d="M545.76,360.2s-2.62,1.75-3.13,2a5.89,5.89,0,0,0-1.89-2.55l-3.63,2.4.14.22s.44-.29.51-.36l.22.14c.43.44.65.73.65,1v10.25l-1.09.88,3,2.32s3.2-2.25,3.13-2.18l-1.16-1V363.18l.65-.43,1.46,1.89a4.13,4.13,0,0,0-.22.36,2.44,2.44,0,0,0-.58,1.46c0,.21.29.87.72.87h.08a1.92,1.92,0,0,0,.65-.15l.15-.07h-.15a3.69,3.69,0,0,1-.51-.22h-.07a1.11,1.11,0,0,1-.36-.65,2.16,2.16,0,0,1,.65-1.31,17.56,17.56,0,0,1,2.47-2.11l-1.67-2.62" transform="translate(-3 -3)"/><path class="cls-27" d="M676.47,362.31l1-.65m-11.35,13.09,1-.66" transform="translate(-3 -3)"/><path d="M422.26,373.29a21,21,0,0,0-6.33-3h-.08l2.33-3.49c3,.65,5,2.25,5,4A4.08,4.08,0,0,1,422.26,373.29ZM416.87,362c-.43-.08-1.74-.29-2-.37-1.09-.22-6.4-1.82-6.4-4.14,0-2.69,3.41-2.69,5.09-2.69.36,0,4.22.36,6.11,2.83C419.56,357.73,417.31,361.22,416.87,362Zm11.64-3.57a2,2,0,0,0,.58-1.09,1.51,1.51,0,0,0-.36-.94,1.25,1.25,0,0,0-1.09-.44h-.29c-1.17,0-2.4.73-3.71,2a14.07,14.07,0,0,0-2.33,3.05c-.58.95-.87,1.38-1,1.6a21.42,21.42,0,0,1-2.76-.51c.36-.65,1.52-2.62,2.83-4.51a31.43,31.43,0,0,1,2.7-3.27.91.91,0,0,1,.29-.22c.07-.07.21-.07.21-.14s-.14-.22-.14-.22a.28.28,0,0,0-.22.07.56.56,0,0,1-.36.07c-.22,0-.44-.14-.8-.51a9.07,9.07,0,0,0-6-2.32c-5.53,0-8.8,4.65-8.73,7.78,0,2,.37,4.07,1.38,4.94s2.62,1.6,5.53,2.26l.22.07-.44.51a3.8,3.8,0,0,1-2.76,1.31,2.38,2.38,0,0,1-1.67-.58h-.08a7.82,7.82,0,0,0,.51.8,1.42,1.42,0,0,0,.88.58,2.82,2.82,0,0,0,1-.07,5.75,5.75,0,0,0,2.48-1.75l.65-.73,2,.37c.22.07.43.07.65.14L416.8,368c-1.09,1.6-1.45,2.11-1.45,2.11a8,8,0,0,1-1-.14,13.84,13.84,0,0,0-2.84-.15,12,12,0,0,0-8.07,3,6.48,6.48,0,0,0-1.09,1.39,5.21,5.21,0,0,0-.73,2.76c0,1.24.8,2.76,3.2,2.76,3.13,0,5.89-3,7.35-4.51l.22-.29c.43-.43.65-.8.8-.94a26.54,26.54,0,0,1,6.76,3.13,34.4,34.4,0,0,0,3.2-4.15c.73-1.09,2.4-3.56,2.47-5.46s-1.67-4.07-4.87-4.72a6.91,6.91,0,0,1,.8-1.24c1.31-2,2.47-4.15,5-4.15a1.78,1.78,0,0,1,1.89,1Zm-18.69,18.4a13.78,13.78,0,0,1-1.82,1.31,6.52,6.52,0,0,1-1.89.73,2.9,2.9,0,0,0-.51.15,3.1,3.1,0,0,1-.8.07h-.37c-1.3-.15-2-.87-2-2,0-2.91,4.87-3.79,6.62-3.79h.36a15.24,15.24,0,0,1,3,.37h.37a19.8,19.8,0,0,1-2.33,2.54,2.13,2.13,0,0,1-.58.58m-36.73-7.12a11.65,11.65,0,0,1-4.59,3.71V359c2.55-.14,4.37-1.6,4.37-4a3.8,3.8,0,0,0-.22-1.09A3.43,3.43,0,0,1,370,355a24.07,24.07,0,0,1-6-1.17,24.38,24.38,0,0,0-6.76-1.31c-3.27.08-7.06,1.6-7.06,5.89a7.12,7.12,0,0,0,3.64,5.75h.07a7.9,7.9,0,0,0-.58,2.55c0,4.14,2.55,10.4,9.82,10.4a9.75,9.75,0,0,0,4.8-1.17,10.16,10.16,0,0,0,3.06-2.54A12.85,12.85,0,0,0,373.09,369.66Zm-12,3.41a1.39,1.39,0,0,0,.3-.21c2.4-1.6,3.56-3.06,3.56-4.51V358.6a11.52,11.52,0,0,0,2.91.36v14.62A9.19,9.19,0,0,1,361.08,373.07Zm.22-2.4a4.31,4.31,0,0,1-.72,2.11l-.22-.14c-2.48-1.6-3.71-4.73-3.86-8.08a11.5,11.5,0,0,1,3-7.56,9.47,9.47,0,0,1,1.75.58v13.09ZM359,356.85a22.31,22.31,0,0,0-4.94,7l-.15-.08a3.35,3.35,0,0,1-1.6-3.05c-.14-2.84,1.89-4.07,4.59-4.07a12.8,12.8,0,0,1,2.1.21m205.92,2.77c-.07.07-3.56,2.4-3.56,2.4l.14.29a6.81,6.81,0,0,0,.58-.36l.22.14c.44.44.58.73.58,1V374.6l1.89,2,3.64-2-.29-.36-.51.29-.87-.95V361.22l-1.82-1.6m-2.11-4.07,2.33-1.82,2,2-2.33,1.67-2-1.81M485,359.69l-3,2,1,.87v11.56a1.85,1.85,0,0,1-2,1.75h-.51v-14.4L478,359.76l-3.27,2.11.14.29s.59-.36.73-.43a3.74,3.74,0,0,1,1.16,2.11V376a3.54,3.54,0,0,0-2.61,3.79,3.1,3.1,0,0,0,2.69,2.83,15.71,15.71,0,0,0,3.71-.29,16.79,16.79,0,0,1,2.18-.22,2.86,2.86,0,0,1,2.25.8l.29.3a2.82,2.82,0,0,0,.66-1.68,2.68,2.68,0,0,0-1.38-2.47,4.6,4.6,0,0,0-2.4-.44,3.36,3.36,0,0,0-.73.08,11.47,11.47,0,0,1-1.67.14c-.88.07-1.68.22-2.26.29a3.83,3.83,0,0,1-.73.07,1.78,1.78,0,0,1-1.09-.36,1,1,0,0,1-.36-.73c.07-1,1.31-1.45,1.75-1.52h.58a24.17,24.17,0,0,0,4.29.43,5.75,5.75,0,0,0,1.82-.36,4.65,4.65,0,0,0,1.6-1,4.19,4.19,0,0,0,1-1.24,3.17,3.17,0,0,0,.43-1.67V361.07c0-.21-1.74-1.38-1.74-1.38M607.08,367a2.5,2.5,0,0,1,.8.08.58.58,0,0,1,.36.36c.07.07.07,3.71.07,3.71a2.22,2.22,0,0,1-.21,1.24,8.82,8.82,0,0,0,3.41-3c.59-1.1.51-3.35.44-5.68-.07-2.69-.15-5.67.73-7.93a13,13,0,0,0-2.4,2,6.84,6.84,0,0,0-1.53,2,11.6,11.6,0,0,0-.44,3.78c-4.14.44-4.94,2.33-4.87,4,0,.08.07.37.07.59l.08.21a4.06,4.06,0,0,1,3.49-1.31m-3.57-11.49c.15,0,.88.15,2.48.51a21.12,21.12,0,0,0,2.11.44H609c.87,0,2.76-1.09,5-3l.36-.29a4.92,4.92,0,0,1-1.82.43,12.62,12.62,0,0,1-3.27-.73,12,12,0,0,0-3.71-.8c-2.55,0-4.22,1.53-4.22,3.79a2.73,2.73,0,0,0,.58,1.6,2.23,2.23,0,0,1-.14-.66c.07-.8.65-1.31,1.74-1.31m19-4.51a3.6,3.6,0,0,1,1.74,1.6c-1.23.88-2.83,2.11-3.34,2.4-.95-1.09-2.19-2.54-3.13-2.61a3.68,3.68,0,0,0-.8.07.65.65,0,0,0-.29.58v8.44l3.56-2.26,2.84,2.84v9.45c0,2.7-1.89,5.53-5.6,8a11.78,11.78,0,0,0,5.67.14c-1.38,2-2.91,3.06-4.65,3.06a3.35,3.35,0,0,1-1-.22,5.75,5.75,0,0,0-3.42-.29,15.12,15.12,0,0,0,3.78-4.15,9,9,0,0,0,1.31-4.65v-9.24l-2.54-1.82v1c0,2.4,0,4.51-.51,5.6a9.53,9.53,0,0,1-3.42,3,2.55,2.55,0,0,0,.22-1.24v-12c0-.22.07-1.23.07-1.45a6.17,6.17,0,0,1,3-4.87,8.1,8.1,0,0,1,4.51-1.82,4.66,4.66,0,0,1,2,.43M386.11,374.82c-.22.22-2,1.46-2.55,1.89a6,6,0,0,0-1.67,1.67,3.6,3.6,0,0,0-.59,1.9,1.06,1.06,0,0,0,.22.65,2.21,2.21,0,0,0,1.38.51h.44a1.11,1.11,0,0,0,.51-.07v.07a1.11,1.11,0,0,1-.65.65,2.36,2.36,0,0,1-.95.29,1.7,1.7,0,0,1-1.67-1.81c0-1.09,1.38-3,2.25-3.86,0,0-1.6-1.31-1.6-2.33V364l-1.45-1.6-1,.66V373.8c.07.07,1,.87,1,.87l-2.91,2-3-2,1-.87V356.13a5.77,5.77,0,0,0-.36-2.48,1.92,1.92,0,0,0-.73-.5,1.48,1.48,0,0,1,1.53-1.17,2.65,2.65,0,0,1,1.16.29,2.44,2.44,0,0,1,2-1.6,1.94,1.94,0,0,1,.95.37c-.88.94-.8,3-.8,4.29v7.05l4-2.62,2.32,1.53v11.57a3.52,3.52,0,0,0,1.1,2m279.08-.8.15.22-3.64,2.33-2.84-2,.95-.87v-18a5.72,5.72,0,0,0-.36-2.47,1.83,1.83,0,0,0-.73-.51,1.48,1.48,0,0,1,1.53-1.17,2.46,2.46,0,0,1,1.09.3c.51-.44.94-1.24,2.18-1.24a2,2,0,0,1,1,.36,3.64,3.64,0,0,0-.73,2.4c-.07,4.95,0,20.59,0,20.59l.8.72.65-.65" transform="translate(-3 -3)"/><path class="cls-27" d="M384.87,361.36l1-.65m64,1.53,1-.66m-11.34,13,1-.65m46.12-12.88,1-.65M535.5,362l1-.66m-11.34,13.53,1-.65m40.3-12.95,1-.65M562.13,375l1-.66M593,362.09l1-.65m62,.14,1-.65" transform="translate(-3 -3)"/><path d="M666.87,352.85v4.88c.72.72,2.47,2.33,3.27,3a9,9,0,0,1-3.35,1.75c-.07,0,.15.36.15.73v11l3.27,2.47a17.48,17.48,0,0,1,6.4-2.76V362.16Zm4.14,8.73,2,1.89v10.91l-2.26-1.6V361.87l.29-.29m-137.76-2a28.72,28.72,0,0,1-7.42,3.05c-.07,0,.15.37.15.73v11l3.27,2.48a17.57,17.57,0,0,1,6.4-2.77V361.87ZM530,362l2,2.18v10.25l-2.25-1.6V362.09L530,362m-89.69-9.17v4.87c.73.73,2.48,2.33,3.28,3.06a10.06,10.06,0,0,1-3.35,1.75c-.07,0,.15.36.15.72v11l3.27,2.47a17.57,17.57,0,0,1,6.4-2.77V362.09Zm4.08,8.73,2,1.89v10.91l-2.25-1.6V361.8l.29-.29" transform="translate(-3 -3)"/><path class="cls-28" d="M656.54,374.53l1-.66" transform="translate(-3 -3)"/><path class="cls-27" d="M543.58,374.31l.73-.51" transform="translate(-3 -3)"/><path d="M656.54,374.17a1.75,1.75,0,0,1-.37-.95V361.44c-.21-.22-2-1.82-2-1.82L651.3,362l-2.25-2.18-2.91,2.32,2,2.26c-.29.44-1.16,2.11-.14,3.42a4.38,4.38,0,0,0,.29.36l-.29.07a4.91,4.91,0,0,0-3.2,4.15,4.83,4.83,0,0,0,2.32,4.22l5.17-3.2v.36a5.73,5.73,0,0,0,1.45,2.91l3.06-2.18Zm-4.37-1.53-2.47,1.53a4.12,4.12,0,0,1-1.67-1.68,4.4,4.4,0,0,1-.51-2.11,2.27,2.27,0,0,1,.36-1.23,2.52,2.52,0,0,1,.44-.44.45.45,0,0,1,.51,0,4.88,4.88,0,0,0,3.27.8l.07,3.13Zm-.87-10,.8.87v5.46a4.1,4.1,0,0,1-3-.73c-2.11-2-.22-4.51,2.18-5.6M560.82,374l-.66.44-.58-.51V361.22l-2.18-1.46-4,2.7-.15-.22a5,5,0,0,0-1.74-2.33l-3.79,2.55.15.29.65-.44a5.07,5.07,0,0,1,1,2V374l-1,.87,2.91,2,2.91-1.89-1-.87V363.33l1-.66,1.46,1.6v10a3.79,3.79,0,0,0,1.6,2.62l3.56-2.33-.14-.51" transform="translate(-3 -3)"/><path class="cls-27" d="M559.36,361.36l1.09-.65" transform="translate(-3 -3)"/><path d="M581.62,374l-.66.44-.58-.51V361.22l-2.18-1.46-4,2.7-.15-.22a5,5,0,0,0-1.74-2.33l-3.78,2.55.14.29.66-.44a5.21,5.21,0,0,1,1,2V374l-1,.87,2.91,2,2.91-1.89-1-.87V363.33l1-.66,1.45,1.6v10a3.82,3.82,0,0,0,1.6,2.62l3.56-2.33-.14-.51" transform="translate(-3 -3)"/><path class="cls-27" d="M580.24,361.36l1-.65" transform="translate(-3 -3)"/><path d="M473,374.17l-1.09.65-2.11-1.53v-4.72l5.17-3.5L472,359.62l-6.19,4.07v10.55c1.17.8,3.71,2.33,3.71,2.33l3.49-2.26-.07-.14Zm-3.13-12,2.4,4.15-2.4,1.6v-5.75" transform="translate(-3 -3)"/><path class="cls-27" d="M624.46,374.82l1-.65" transform="translate(-3 -3)"/><path d="M632.39,374.24l-1.09.65s-2-1.52-2.11-1.52v-4.73l5.16-3.49-2.91-5.46-6.18,4.07v10.55c1.16.8,3.71,2.33,3.71,2.33l3.56-2.26Zm-3.2-12,2.4,4.14-2.4,1.6v-5.74m14.11-2s-2.62,1.75-3.13,2a5.89,5.89,0,0,0-1.89-2.55l-3.64,2.4.15.22s.44-.29.51-.36l.22.14c.43.44.65.73.65,1v10.25l-1.09.88,3,2.32s3.2-2.25,3.13-2.18l-1.16-1V363.18l.65-.43,1.46,1.89a4.13,4.13,0,0,0-.22.36,2.44,2.44,0,0,0-.58,1.46c0,.21.29.8.72.8h.08a2.19,2.19,0,0,0,.65-.15l.15-.07h-.15a5.5,5.5,0,0,1-.51-.22h-.07a1.19,1.19,0,0,1-.37-.66,2.16,2.16,0,0,1,.66-1.3,16.87,16.87,0,0,1,2.47-2.11l-1.67-2.55" transform="translate(-3 -3)"/><path class="cls-27" d="M641,374.31l.73-.51" transform="translate(-3 -3)"/><path d="M586.86,362.09l2.61,2.4v8.8l-.8.66h-.07a4.28,4.28,0,0,1-2.11-2.91v-8.73Zm6.32,10.26V362s-1.89-1.67-2.61-2.47a40.9,40.9,0,0,1-8.08,3.27,4.15,4.15,0,0,1,.37.44v6.4a12.21,12.21,0,0,0,.36,3.56,5.11,5.11,0,0,0,2.33,2.91l.29.15-6,5a2.1,2.1,0,0,1,.08.66,1.72,1.72,0,0,0,.51-.15,4.91,4.91,0,0,1,2.32-.51,9.3,9.3,0,0,1,4.22,1.6,2.25,2.25,0,0,1,.37.22,21.18,21.18,0,0,0,4.07-3.13,24.17,24.17,0,0,0,2.33-2.4,3.69,3.69,0,0,0,1-1.89,2.38,2.38,0,0,0-.8-1.52A3.26,3.26,0,0,1,593.18,372.35Zm-2.76,8-.51-.29a7.55,7.55,0,0,0-3.64-1.31h-.36c-.44.07-1.09.14-1.67.29l-.22-.44s4.65-3.93,5.09-4.29a9.66,9.66,0,0,1,1.75,2,3.38,3.38,0,0,1,.51,1.89,2.73,2.73,0,0,1-1,2.11m-90.7-22.11a2.14,2.14,0,0,1-.73-1.39,2.11,2.11,0,0,1,2.33-2,16.88,16.88,0,0,1,2.11.36c.43.08.94.22,1,.22,1.23,0,3.2-1.31,4.43-2.62l.08-.07h-.08a7.34,7.34,0,0,1-2.69-.65,6.35,6.35,0,0,0-2.76-.66c-2.4,0-5.17,1.82-5.17,4.29a3.36,3.36,0,0,0,1.46,2.48m5.74,15.49a6.9,6.9,0,0,1-2.18-.22,15.62,15.62,0,0,0-1.6-.29H501a3.87,3.87,0,0,0-3.79,4.07c0,2.69,1.24,5.6,4.73,5.6,1,0,3.27-.58,3.27-2.69,0-.07-.21-1.31-.8-1.31h-.43c.07.37.36.95.36,1.17,0,1.38-1.89,2.11-2.69,2.11a3.34,3.34,0,0,1-3.64-3.42c0-1.24.66-2.62,2.11-2.62s2.91.8,4.15.8c2.91-.07,3.49-2,3.56-5.89-.14.58-1.16,2.69-2.33,2.69m19.13.07a1.37,1.37,0,0,1-.58.29,1.22,1.22,0,0,1-.36-.14,2.62,2.62,0,0,1-1.09-2.11V356.56a2.9,2.9,0,0,1,.58-1.81v-.08a15,15,0,0,1-1.31-1.09c-.87-.73-2.11-1.67-2.76-2.18,0,0-3.49,2.84-3.71,3.05l-1.6-1.3c-.66-.59-1.68-1.39-2-1.61-.51.3-7.78,6.48-7.78,6.48v5.16h-.22c-4.07.51-4.36,3.64-4.36,4.59,0,.14.14.58.22.94v.07l.07-.07a4.76,4.76,0,0,1,1.09-1.31,3.42,3.42,0,0,1,1.6-.65c1.31-.15,1.38-.08,1.45,0l.08.07v5.53a1.55,1.55,0,0,1-.29,1.09,9.22,9.22,0,0,0,3.49-3.06c.58-1.16.51-1.16.51-3.56v-.44H511v6.4L509.83,374l4,2.69,3.71-2.76-.51-.29a1,1,0,0,0-.22.14.57.57,0,0,1-.36.15c-.37,0-1.53-1-1.67-1.24v-6.33h3.63v6a5,5,0,0,0,.44,2.18,6.85,6.85,0,0,0,2.11,2.11c.36-.22,3.78-2.69,3.78-2.69l-.15-.22Zm-13.45-10.91h-3.35v-7l1.38-1.16,2,1.67v6.47Zm7.56,0h-3.78v-7.05l1.31-1.09,2.4,2.25.07,5.89m92.52,9.31a8,8,0,0,0-7.49,7.71c0,1.53.58,3.78,2.77,3.78.94,0,1.6-.43,1.6-1.67a2,2,0,0,0-.22-.87c-.15.43-.88,1.38-1.6,1.38a2.11,2.11,0,0,1-2-2.4c0-2.33,1.67-5,4.51-5a6,6,0,0,1,4.58,2.4s3.28-2.4,3.28-2.47c-1.82-2.33-3-2.91-5.39-2.84" transform="translate(-3 -3)"/><path class="cls-29" d="M860.73,310.84v4.89h.2a11.07,11.07,0,0,1,4.75-4.44,13.74,13.74,0,0,1,6-1.4A16.41,16.41,0,0,1,878,311a9.36,9.36,0,0,1,3.9,2.91,11.37,11.37,0,0,1,2,4.54,28.29,28.29,0,0,1,.58,5.94v21.59h-9.64V326.12q0-4.33-1.36-6.49c-.86-1.43-2.51-2.14-4.81-2.14-2.6,0-4.53.78-5.7,2.35s-1.73,4.12-1.73,7.7v18.39h-9.68V310.84Z" transform="translate(-3 -3)"/><path class="cls-29" d="M897.71,337.52a9.89,9.89,0,0,0,11.27.64,6.09,6.09,0,0,0,2.6-3.08h8.48q-2,6.3-6.24,9a18.37,18.37,0,0,1-10.18,2.71,20.06,20.06,0,0,1-7.47-1.32,15.49,15.49,0,0,1-5.62-3.74,16.87,16.87,0,0,1-3.57-5.83,21.39,21.39,0,0,1-1.25-7.47,20.16,20.16,0,0,1,1.29-7.33,16.84,16.84,0,0,1,3.66-5.87,17.17,17.17,0,0,1,5.67-3.9,18.11,18.11,0,0,1,7.3-1.43,16.67,16.67,0,0,1,7.78,1.73,15.74,15.74,0,0,1,5.47,4.65,19.07,19.07,0,0,1,3.05,6.63,24.85,24.85,0,0,1,.67,7.78H895.34C895.47,333.85,896.26,336.11,897.71,337.52Zm10.89-18.46q-1.73-1.9-5.26-1.9a8.31,8.31,0,0,0-3.83.78,7.28,7.28,0,0,0-2.44,1.93,7.17,7.17,0,0,0-1.29,2.44,10.71,10.71,0,0,0-.44,2.31H911A11,11,0,0,0,908.6,319.06Z" transform="translate(-3 -3)"/><path class="cls-29" d="M952.15,345.93l-6.26-23.55h-.14l-5.91,23.55h-10l-11.13-35.09h10.18l6.45,23.83h.13l5.83-23.83h9.37l6,23.76h.13l6.43-23.76h9.91l-11,35.09Z" transform="translate(-3 -3)"/><path class="cls-29" d="M980.89,337.21a5.63,5.63,0,0,0,1.66,1.84,7.19,7.19,0,0,0,2.35,1,10.58,10.58,0,0,0,2.75.35,11,11,0,0,0,2.13-.24,7.29,7.29,0,0,0,2-.75,4.56,4.56,0,0,0,1.54-1.36A3.55,3.55,0,0,0,994,336q0-2.18-2.88-3.26a57.13,57.13,0,0,0-8-2.17c-1.4-.32-2.78-.69-4.11-1.13a13.65,13.65,0,0,1-3.56-1.73,8.12,8.12,0,0,1-2.51-2.64,7.4,7.4,0,0,1-1-3.9,10.6,10.6,0,0,1,1.32-5.57,9.72,9.72,0,0,1,3.46-3.46,15.19,15.19,0,0,1,4.89-1.73,30.54,30.54,0,0,1,5.57-.51,27.7,27.7,0,0,1,5.52.54,14.7,14.7,0,0,1,4.79,1.84,11,11,0,0,1,3.46,3.46,11.54,11.54,0,0,1,1.66,5.39h-9.11a4.29,4.29,0,0,0-2.1-3.77,9.8,9.8,0,0,0-4.48-1c-.58,0-1.16,0-1.73.1a6,6,0,0,0-1.73.44,3.6,3.6,0,0,0-1.33,1,2.61,2.61,0,0,0-.54,1.73,2.67,2.67,0,0,0,1,2.11A7.61,7.61,0,0,0,985,323a32.07,32.07,0,0,0,3.46.92c1.31.26,2.65.56,4,.86a41.54,41.54,0,0,1,4.1,1.15,13.77,13.77,0,0,1,3.57,1.8,8.54,8.54,0,0,1,2.5,2.78,8.19,8.19,0,0,1,1,4.11,11.33,11.33,0,0,1-1.4,5.81,11.16,11.16,0,0,1-3.63,3.76,14.88,14.88,0,0,1-5.09,2,30.49,30.49,0,0,1-5.87.57,29.3,29.3,0,0,1-6-.6,15.85,15.85,0,0,1-5.19-2,11.19,11.19,0,0,1-5.31-9.64h9.16A5.32,5.32,0,0,0,980.89,337.21Z" transform="translate(-3 -3)"/><path class="cls-30" d="M850,378.35v4.75h-4.84v-4.75Z" transform="translate(-3 -3)"/><path class="cls-30" d="M863.31,362.11a5,5,0,0,0-2.89.79,6.12,6.12,0,0,0-1.9,2,8.94,8.94,0,0,0-1,2.73,14.83,14.83,0,0,0-.31,3,14,14,0,0,0,.31,2.89,8.66,8.66,0,0,0,1,2.65,5.75,5.75,0,0,0,1.84,2,5.15,5.15,0,0,0,2.84.75,5.21,5.21,0,0,0,4-1.44,6.76,6.76,0,0,0,1.73-3.87h6.92a11.87,11.87,0,0,1-4,7.95,13.12,13.12,0,0,1-8.57,2.73,14.14,14.14,0,0,1-5.38-1,11.88,11.88,0,0,1-4.19-2.75,12.78,12.78,0,0,1-2.68-4.23,14.69,14.69,0,0,1-1-5.4,17.77,17.77,0,0,1,.86-5.65,12.78,12.78,0,0,1,2.6-4.5,12.06,12.06,0,0,1,4.26-3,14.16,14.16,0,0,1,5.68-1.06,16.19,16.19,0,0,1,4.48.61,12.16,12.16,0,0,1,3.84,1.84,9.62,9.62,0,0,1,4,7.48h-7Q867.93,362.12,863.31,362.11Z" transform="translate(-3 -3)"/><path class="cls-30" d="M876.71,364.82a12,12,0,0,1,7-7.14,14.88,14.88,0,0,1,5.57-1,15.11,15.11,0,0,1,5.6,1,12,12,0,0,1,7,7.14,16,16,0,0,1,1,5.7,15.7,15.7,0,0,1-1,5.67,12.16,12.16,0,0,1-2.73,4.32,11.75,11.75,0,0,1-4.32,2.76,15.5,15.5,0,0,1-5.6,1,15.34,15.34,0,0,1-5.57-1,12,12,0,0,1-4.25-2.76,12.18,12.18,0,0,1-2.74-4.32,17,17,0,0,1,0-11.37Zm6.53,8.77a8.44,8.44,0,0,0,1,2.68,5.41,5.41,0,0,0,1.94,1.89,5.85,5.85,0,0,0,3,.71,6.05,6.05,0,0,0,3.06-.71,5.44,5.44,0,0,0,2-1.89,8.44,8.44,0,0,0,1-2.68,15.82,15.82,0,0,0,.3-3.07,16,16,0,0,0-.3-3.09,8.26,8.26,0,0,0-1-2.68,5.65,5.65,0,0,0-5-2.6,5.55,5.55,0,0,0-5,2.64,7.91,7.91,0,0,0-1,2.68,16,16,0,0,0-.3,3.09,15.44,15.44,0,0,0,.33,3Z" transform="translate(-3 -3)"/><path class="cls-30" d="M911.22,357.4v3.54h.08a10.31,10.31,0,0,1,3.46-3.14,9.26,9.26,0,0,1,4.58-1.11,10.48,10.48,0,0,1,4.54,1,6.37,6.37,0,0,1,3.11,3.39,11,11,0,0,1,3.16-3,8.48,8.48,0,0,1,4.74-1.32,13.9,13.9,0,0,1,3.85.51,7.85,7.85,0,0,1,3,1.62,7.47,7.47,0,0,1,2,2.91,12,12,0,0,1,.71,4.32v17.52h-7.22V368.74a17.9,17.9,0,0,0-.11-2.48,5.48,5.48,0,0,0-.55-2,3.4,3.4,0,0,0-1.34-1.37,4.94,4.94,0,0,0-2.42-.51,4.59,4.59,0,0,0-2.45.59,4.14,4.14,0,0,0-1.46,1.51,6,6,0,0,0-.71,2.13A16.16,16.16,0,0,0,928,369v14.59h-7.22v-14.7c0-.78,0-1.55,0-2.31a6.55,6.55,0,0,0-.43-2.1,3.21,3.21,0,0,0-1.25-1.52,4.69,4.69,0,0,0-2.59-.59,5.45,5.45,0,0,0-1.34.23,4.44,4.44,0,0,0-1.63.87,5.07,5.07,0,0,0-1.35,1.82,7.34,7.34,0,0,0-.56,3.11v15.19h-7.19V357.4Z" transform="translate(-3 -3)"/><path class="cls-30" d="M951.08,378.89v4.69h-4.79v-4.69Z" transform="translate(-3 -3)"/><path class="cls-30" d="M954.36,361.25a8.7,8.7,0,0,1,2.84-2.69,12.47,12.47,0,0,1,3.87-1.44,21.6,21.6,0,0,1,4.32-.43,28.11,28.11,0,0,1,4,.28,12.32,12.32,0,0,1,3.7,1.09,7.27,7.27,0,0,1,2.73,2.25,6.34,6.34,0,0,1,1.07,3.82v13.63a27.3,27.3,0,0,0,.2,3.39,5.94,5.94,0,0,0,.71,2.43h-7.29a8.57,8.57,0,0,1-.33-1.23,9.45,9.45,0,0,1-.18-1.3,9.3,9.3,0,0,1-4,2.48,16.34,16.34,0,0,1-4.76.71,12.93,12.93,0,0,1-3.5-.45,8,8,0,0,1-2.83-1.42,6.49,6.49,0,0,1-1.9-2.44,8.07,8.07,0,0,1-.68-3.46,7.6,7.6,0,0,1,.78-3.66,6.64,6.64,0,0,1,2-2.31,9,9,0,0,1,2.83-1.29,32.33,32.33,0,0,1,3.22-.68c1.08-.18,2.14-.31,3.19-.41a18.88,18.88,0,0,0,2.79-.46,4.76,4.76,0,0,0,1.92-.86,2,2,0,0,0,.65-1.73,3.69,3.69,0,0,0-.38-1.85,2.73,2.73,0,0,0-1-1.07,4.24,4.24,0,0,0-1.46-.51,13.61,13.61,0,0,0-1.8-.12,5.52,5.52,0,0,0-3.35.87,4.12,4.12,0,0,0-1.42,3h-7.19A8.4,8.4,0,0,1,954.36,361.25Zm14.21,10.16a14.4,14.4,0,0,1-1.47.38c-.53.09-1.07.18-1.65.25s-1.15.15-1.73.25a12.36,12.36,0,0,0-1.59.41,4.74,4.74,0,0,0-1.37.68,3.29,3.29,0,0,0-.94,1.09,3.45,3.45,0,0,0-.36,1.67,3.49,3.49,0,0,0,.36,1.62,2.77,2.77,0,0,0,1,1,4.15,4.15,0,0,0,1.41.53,8.51,8.51,0,0,0,1.67.15,6.52,6.52,0,0,0,3.3-.7,4.94,4.94,0,0,0,1.73-1.73,5.7,5.7,0,0,0,.68-2,14.71,14.71,0,0,0,.12-1.62v-2.69A3.35,3.35,0,0,1,968.57,371.41Z" transform="translate(-3 -3)"/><path class="cls-30" d="M996.92,383.58v-3.65h-.15a8.09,8.09,0,0,1-3.55,3.3,10.39,10.39,0,0,1-4.46,1,12.3,12.3,0,0,1-4.73-.76,6.7,6.7,0,0,1-2.91-2.15,8.55,8.55,0,0,1-1.5-3.39,20.6,20.6,0,0,1-.42-4.43V357.4h7.18v14.79a9.15,9.15,0,0,0,1,4.84,3.91,3.91,0,0,0,3.59,1.59,5,5,0,0,0,4.26-1.73c.86-1.17,1.31-3.08,1.31-5.75V357.4h7.2v26.18Z" transform="translate(-3 -3)"/><rect class="cls-31" x="779.47" y="298.09" width="14.85" height="15.57" rx="1.65"/><rect class="cls-32" x="779.47" y="366.55" width="14.85" height="15.57" rx="1.65"/><rect class="cls-33" x="744.88" y="335.48" width="15.57" height="14.85" rx="1.65"/><rect class="cls-34" x="813.34" y="335.49" width="15.57" height="14.85" rx="1.65"/><rect class="cls-35" x="757.9" y="361.29" width="15.57" height="14.85" rx="1.65" transform="translate(-39.46 646.41) rotate(-45)"/><rect class="cls-36" x="806.31" y="312.88" width="15.57" height="14.85" rx="1.65" transform="translate(8.96 666.46) rotate(-45)"/><rect class="cls-37" x="806.67" y="360.92" width="14.85" height="15.57" rx="1.65" transform="translate(-25.27 680.64) rotate(-45)"/><rect class="cls-38" x="758.26" y="312.52" width="14.85" height="15.57" rx="1.65" transform="translate(-5.23 632.24) rotate(-45)"/><path class="cls-5" d="M178.28,511.1l.73.55a13.45,13.45,0,0,1,.06-2.2,1.83,1.83,0,0,0-.69,1.05l-.78.1.68.5ZM208.23,517a.5.5,0,0,0-.69-.14.51.51,0,0,0-.14.7.57.57,0,0,0,.38.22.52.52,0,0,0,.5-.53V517Zm0-2.14a.29.29,0,0,1,0,.13.53.53,0,0,1-.37.52v.68a.88.88,0,0,1,.65.36,1.15,1.15,0,0,1,.22.68,1,1,0,0,1-.68,1c1.12-.08,1.83-.19,1.83-.19-1.09-.23-.46-.86-.46-.86a5.77,5.77,0,0,1,1.47-.73,2.77,2.77,0,0,1-2.06-1.6h-.6Zm-.57,3.44A1.07,1.07,0,0,1,207,517a1,1,0,0,1,.7-.7v-.73a.63.63,0,0,1-.51-.5h0a4.16,4.16,0,0,1-.86.13.24.24,0,0,0,.09.32c1,.68.32,1.32.32,1.32-.45.41-.69.41-.69.41a9.27,9.27,0,0,0-1.55,1.1c1.23,0,2.35,0,3.25-.06Zm-12.53-4.23a.4.4,0,0,0,.23-.08l.91.4a.46.46,0,0,0,.41.5.38.38,0,0,0,.34-.22l.77.11a.45.45,0,0,0,.4.39.52.52,0,0,0,.46-.47l.64-.31a.42.42,0,0,0,.32.19.52.52,0,0,0,.46-.51l.41-.68a12.08,12.08,0,0,0,2.33,0,21.34,21.34,0,0,1,2.24-1,6.06,6.06,0,0,0-1,.78,8.8,8.8,0,0,0-.64.73,1.23,1.23,0,0,0-.51,1,2,2,0,0,0,.28.74,1.72,1.72,0,0,0,.55.41l.51.45a4.74,4.74,0,0,1-1.34.55,1.85,1.85,0,0,1-1.18-.13c-1.61-.37-2.15.36-2.15.36a1.58,1.58,0,0,1-.92.41l.28.42a1.13,1.13,0,0,1-.92,0,3.48,3.48,0,0,1,.37-1.56c-.19-1.23-2.74-1-2.74-1L195,515l-.14-.15-1.47-1.37A4.44,4.44,0,0,1,193,515a8.24,8.24,0,0,1-.42.77l-.55-.27a1.73,1.73,0,0,0,.23-.5,18,18,0,0,0,.78-2.66,2.72,2.72,0,0,1,.69.09,1.64,1.64,0,0,0,.22.14l.35.15.5.72a.63.63,0,0,0-.06.27c0,.27.12.46.36.46Zm5.1-.72-.27.38a.39.39,0,0,0-.35-.21c-.23,0-.41.22-.41.55a.28.28,0,0,0,0,.13l-.59.26a.5.5,0,0,0-.44-.39c-.22,0-.4.26-.4.54l-.7-.12v-.1c0-.28-.19-.55-.41-.55a.44.44,0,0,0-.38.34l-.81-.37a.34.34,0,0,0,0-.2.43.43,0,0,0-.41-.45H195l-.21-.39h0a23.14,23.14,0,0,0,2.58.64h1l.33-.5a4.27,4.27,0,0,0,1.48.43Zm-5.41-7.8.11.13-.06.1h-.11a.35.35,0,0,0-.31.36h0l-.37-.41-.14-.14-.86-.86c-1-1.27-2.42,0-2.42,0l-.23-.18a.62.62,0,0,0,.31-.8.59.59,0,0,0-.22-.25l1.51-3.89-.42-.5a1,1,0,0,0-.86-1.56c-.45-1.37-1.28-.73-1.28-.73-.27-1.33-1.28-.64-1.28-.64a.81.81,0,0,0-1-.48l-.2.11v-2.14h-2.1l.08,2.19a.81.81,0,0,0-1.12.15.83.83,0,0,0-.16.4c-1.27-.73-1.27.69-1.27.69-1.06-.32-1,.68-1,.68a1.22,1.22,0,0,0-1.25,1.18,1.15,1.15,0,0,0,0,.19l1.1,3.76a58,58,0,0,1-3.52,4.66l-1.37-.41-.09-.24a.62.62,0,0,0,.54.1,4.2,4.2,0,0,1,0-1.37c.42-1.78-.31-2.43-.31-2.43a3.62,3.62,0,0,0-.47-1.6c.69-.86-.32-1.72-.32-1.72l-.14-.22v-1.88c-.18,0-.27-.23-.27-.23-.28-.78-.78-.28-.78-.28a.53.53,0,0,0-.66-.38.52.52,0,0,0-.3.2.6.6,0,0,0-1,0l-.41-1.32-1.37.55.46,1.46c-1-.23-.69.78-.69.78-.86,0-.46.81-.46.81-.86.1-.5,1-.5,1l.92,1.52c-.73.86,0,1.36,0,1.36.23.42.5.42.5.42a3.93,3.93,0,0,0,.13,2.51,7.62,7.62,0,0,1-2.23,1.64,13.31,13.31,0,0,1-2.16.86c-1.78.42-5.3,1.56-5.3,1.56-1.23.32-3.2.92-3.2.92-2.47.73-3.11,0-3.11,0-.59-.38-.13-1.34-.13-1.34a2.91,2.91,0,0,1,1.83-1.46,7.65,7.65,0,0,1,1.19.86,2.22,2.22,0,0,0,1.5.51v-.18a1.36,1.36,0,0,0,.69-.1.9.9,0,0,1-.27-.59c0-.24-.32-.6-.32-.6l6.35-.27a1.25,1.25,0,0,0,.59-.09c2.2-.41,2.71-.92,2.71-.92a3,3,0,0,0,.86-3.15,3.06,3.06,0,0,0-2.43-2,5.17,5.17,0,0,0-2.14-.14,10,10,0,0,1-2.11-.32,4.41,4.41,0,0,0,.55,1.15,1.6,1.6,0,0,1-1.15-.37,2.23,2.23,0,0,0-1.92-.37,7.87,7.87,0,0,0,1.29,1.29,9.41,9.41,0,0,1-2.38-.69,4.09,4.09,0,0,0,5,2.87,3.61,3.61,0,0,0,.89-.36,11,11,0,0,1,1.72-.86,1,1,0,0,1,1.32.49.75.75,0,0,1,.05.16c-.09,1.54-1.23,1.59-1.23,1.59a30.46,30.46,0,0,1-7.69.23,3.36,3.36,0,0,0,.37-1.46l-.37.09c-1.92-.19-2.42.23-2.42.23a2.76,2.76,0,0,0-1,1.28,7.19,7.19,0,0,0-2.06,1.28,4.64,4.64,0,0,0-1.42,2.58c-.1,1.65.86,1.88.86,1.88-.86,1.59.4,2.19.4,2.19a2.82,2.82,0,0,0,.79-.86c1.09-.86,4.3-1.51,4.3-1.51a4.78,4.78,0,0,0-1,2,2.91,2.91,0,0,1-1.46-.14c-.5,0-.5.37-.5.37l-.23.55-.32,1c-2-.08-1.72,1.05-1.72,1.05l-.28,3.07c.47,1.14,1.19,1,1.19,1V520h.51a2.76,2.76,0,0,0,1.5,1.5h.28c.32-.08.46.37.46.37l.32,0,.05-.78h.36c.23.09.37.46.37.46h.26a2.35,2.35,0,0,0,.14-.69c.37-.23.28-1,.28-1a3.36,3.36,0,0,1,1.51.14l-.05.68a2.17,2.17,0,0,0,1.24,1.06,9.25,9.25,0,0,0,2,.27c1.42.09,3.2,0,4.85,0s3.57-.23,5.35-.41c.18.26.28.22.28.22.77.28,1.64-.55,1.64-.55l-.27.55a3.15,3.15,0,0,0,1.23-.45,1.32,1.32,0,0,0,.64.45l.14-.14.18.28a1.67,1.67,0,0,0,.6-.86,1.4,1.4,0,0,0,1,.27l.18.27.13-.23a7.22,7.22,0,0,0,.78.41,2.18,2.18,0,0,0,.32-1.72l.14.22.14-.54a1.13,1.13,0,0,0,.73.27c-.86.37-.37,1-.37,1a1.07,1.07,0,0,0,.46.41.58.58,0,0,1,.64.46.86.86,0,0,0,1.1-.42l.09-.54a2.54,2.54,0,0,1-.14-.86l.14.59.23.14,1.55,1.23,1.33-1.09a3.61,3.61,0,0,0,1.72.5c.37,0,.09-.46.09-.46a4.39,4.39,0,0,0,3,.73c.28-.22.09-.36.09-.36.32-.14.87.32.87.32a1.41,1.41,0,0,0,1.14,0,.35.35,0,0,0-.28-.27c.32,0,.14-.45.14-.45a1.07,1.07,0,0,1,.6.4.86.86,0,0,0,.77.28l0-.23a2.77,2.77,0,0,0,1.05.27.43.43,0,0,0,.06-.46,30,30,0,0,0,8.18.86c6.35,0,7.22-1.28,7.22-1.28a.6.6,0,0,0,.1-.59v-.36a1.27,1.27,0,0,1,.86-.06l-.47,1-.13.32c1.1,1.24,2.74-.14,2.74-.14v-.41a1.68,1.68,0,0,0,.59-.5l.74.18a1.37,1.37,0,0,1-.19.86,1.29,1.29,0,0,0,1.55-.86l-.58-3.07a3.31,3.31,0,0,0-2.58-.86l-.05-.77a.83.83,0,0,0-.69-.5l-.35-.13-.33.13H212l.08-1.06v-1.19l-.08-.41,1,.14a8.61,8.61,0,0,0,2.42.32.86.86,0,0,1,.55.78l-.18.64c1.55-.14,1.37-1.88,1.37-1.88,1.09-.91.81-3.38.81-3.38a2.44,2.44,0,0,0-.49-1.1h0a2.66,2.66,0,0,0-1.56-2.24,1,1,0,0,0-.6-.23,2.62,2.62,0,0,1-.86-.69,2,2,0,0,0-.09,1.92c-.91-.18-5.49.74-5.49.74a7,7,0,0,1-2.92-.33c-1.15-.64-1-1.46-1-1.46.23-1.33,1.32-1.15,1.32-1.15h.33a2.72,2.72,0,0,1,1.64.19c1.92.91,5.35,0,5.35,0a4.18,4.18,0,0,0,2.11-2.79,2.73,2.73,0,0,1-2.16.82,5.91,5.91,0,0,0-.69.19,2,2,0,0,1,1.11-1.15,2.91,2.91,0,0,0-2.47.37,4.37,4.37,0,0,1-2.06.91,3.48,3.48,0,0,0,1.6-1.55,4.06,4.06,0,0,1-1.92.32c-1.88-.37-3.93,1.32-3.93,1.32a3.2,3.2,0,0,0-1,3.66,2.35,2.35,0,0,0,1.38,1.19,6.09,6.09,0,0,0,1.77.51,37.93,37.93,0,0,0,6-.24,3.31,3.31,0,0,1,.77-.09,3,3,0,0,0-.86,1.79,4.38,4.38,0,0,1,1.28-.28v.18a5.36,5.36,0,0,1,1.6,0,.47.47,0,0,0,.55-.36c.55.86-.55,1.72-.55,1.72-.64.64-2.06.14-2.06.14a11.94,11.94,0,0,0-2.79-.51c-.36-.45-4.53-1.28-4.53-1.28a.48.48,0,0,0-.63-.22l-.37-.05a.79.79,0,0,0-1-.46.52.52,0,0,0-.18.1,7.85,7.85,0,0,1-2.1-1,1.62,1.62,0,0,1-.41-.27,7.52,7.52,0,0,0,2-5,4.47,4.47,0,0,0-3.34-4.3,2.35,2.35,0,0,0-1.92-1.2l-.08.23.13.32a2,2,0,0,0,.23.65l-.59.13-3.7-2.15c-.92-.23-.56.55-.56.55l.19.27,3.2,2.52a6.31,6.31,0,0,1-1.41,1.46l-.42.09-.51.55.05.73a1.37,1.37,0,0,1-.73.18v.47c.31.46,1.23.46,1.23.46l.73.73a.32.32,0,0,0,.41-.06l.65-.72.86-.41a1.75,1.75,0,0,0,.63.18,3.92,3.92,0,0,0-1.23,1.1,3.26,3.26,0,0,0-1.32,0l-.1.5V505l-.19-.12a.77.77,0,0,0-.78-.75.73.73,0,0,0-.56.25,1,1,0,0,0-.08,1.31Zm0,1a.4.4,0,0,0,.19-.39.22.22,0,0,0,0-.16l.07-.14a.84.84,0,0,0,.5.17c.48,0,.66-.69.66-.69h.12l-.12.54a3.28,3.28,0,0,0-.86,1.19l-.52-.52Zm.28-1.31a.53.53,0,0,1,.24-.71l0,0c.64-.09.51.73.51.73a.65.65,0,0,1-.43.31c-.25,0-.35-.32-.36-.32Zm-25,9.65a3.16,3.16,0,0,1-1.82.86l-.37.59.86.23.18.1.78.23a.49.49,0,0,1,.54-.44l.1,0s.41-1.1,2.05-.73a.89.89,0,0,1,.64.09,2.15,2.15,0,0,1,.41.32l-.18-.6a.62.62,0,0,1,.64-.18,2,2,0,0,1-.32-.45,1.79,1.79,0,0,1-.32-.92,2.18,2.18,0,0,1,1.1-.13v-.51h.32l-.59-.36a4.26,4.26,0,0,1-4.3.86,6.67,6.67,0,0,1-1.6-.69,2.34,2.34,0,0,0,2.29,1.33c-.12.14-.24.28-.37.41Zm-7.36,0a16.57,16.57,0,0,0,2.52.42,3.62,3.62,0,0,1-.42.36,2.39,2.39,0,0,1-.91.5,2.38,2.38,0,0,0-.14,1.29,2.47,2.47,0,0,0,.92.45c.46.18.92.32.92.32a4.2,4.2,0,0,1-1.73,0,2.8,2.8,0,0,1-.81-.18l.22-.45c-.18-1.2-2-1.33-2-1.33l.09-.55a3.36,3.36,0,0,0,.54-.86.87.87,0,0,0,.14-.27,2,2,0,0,0,.55.27Zm32.56,3.8a.41.41,0,0,0-.23.36s.09.28.69.46a2.85,2.85,0,0,0-.05-1,2.06,2.06,0,0,0-.41.23Zm-20.85-.86.32-.1a1.32,1.32,0,0,1-.37-.45.93.93,0,0,0-.41-.68v.77l.14.14v.37l.27,0Zm1.46,1.6v.69l.6-.65a.23.23,0,0,1-.23-.13,1.78,1.78,0,0,1-.37-.45Zm2.07-4.55a.84.84,0,0,1,.81.18.6.6,0,0,1,.54-.66h0a11.85,11.85,0,0,1-1.83-.51,2.75,2.75,0,0,1-1.28-.68l-.41.14-.32.13v.14a3.33,3.33,0,0,1,1.32.51v-.19a1.72,1.72,0,0,1,1.16.94Zm2.41,1.8c0-.08,0-.18,0-.32l.69.74a.9.9,0,0,1-.14.73,2.35,2.35,0,0,0-.32-.23,1,1,0,0,0-.37-.09v-.59a.72.72,0,0,0,.14-.24Zm-55.6-25s6.81,3.45,7.64,4.16.4,1.14.4,1.14a1.83,1.83,0,0,1-1.09.64c-.78.14-.55.78-.55.78l-.09,16.24c3.21,3.15,6.22,1.46,6.22,1.46a1.3,1.3,0,0,0,1-1.38s.24-15.27.14-15.76a.58.58,0,0,0-.54-.56s-2.84-1.78-3.3-2.1,0-.86,0-.86,4.81-3.34,5.49-4a1,1,0,0,1,1.24-.23s7.91,4.44,8.83,5.16.45.91.45.91l-2.24,2.25a.74.74,0,0,0-.23.86l-.09,15c-.6,3.85-6.63,4.4-6.63,4.4-7.27.09-10.65-3-10.65-3a7.83,7.83,0,0,0-6.23-.55c-4.25,1.46-4.57,4.21-4.57,4.21-.14,2,2.06,2.92,2.06,2.92,2.7,1.72,6.64.64,6.64.64,3.33-1.14,8.5-2.87,8.5-2.87A15.3,15.3,0,0,1,143,521a7.54,7.54,0,0,1,4.07,2,6.25,6.25,0,0,1,1.72,4.38c.14,5.41-6.49,7.23-6.49,7.23-3,.6-3.79-.09-3.79-.09-2.11-.46.13-.68.13-.68s-3.84.22.32,0,4.62-2.15,4.62-2.15c1.51-2.7-.86-3.15-.86-3.15-3.2-.46-6.67,2.14-6.67,2.14-7.75,3.44-13.67.59-13.67.59-6-2.33-5.26-6.81-5.26-6.81.14-5.8,3.79-8.09,3.79-8.09l-.23-18a1,1,0,0,0-.63-.59,12.74,12.74,0,0,1-2.93-1.56.49.49,0,0,1,0-.68.56.56,0,0,1,.17-.09l5.81-3.85c.69-1,1.56,0,1.56,0ZM12.16,489c-.86-.6.09-.91.09-.91L21,481.65H44.08c5,.46,4.57,6.89,4.57,6.89l-.09,23.59a18.84,18.84,0,0,0-12,8.42c-7.55-2.16-20.48-.24-20.48-.24-1.15.1-.37-.77-.37-.77a15.45,15.45,0,0,1,13.08-7.64h1.63l0-22.7L12.16,489Zm11.53,1.28c1.72-.78,1.37.36,1.37.36v13.13a11.43,11.43,0,0,1-4.49,8.55C19.3,514,14.4,516,14.4,516c-1.72.63-.68-1-.68-1A8.19,8.19,0,0,0,15.31,511V495.19a1,1,0,0,1,.19-.65l8.19-4.3ZM31.21,512a22.83,22.83,0,0,1,6.93,1.82l-.06-10.15-.06.05s-3.21-4.23-6.8.16Zm6.89-9.35v-4.31c-1.23,1.15-4.08,3.08-6.82-.49v4.82c2.95-3,5.66-1.11,6.79,0Zm0-5.37-.05-7.1c.32-1.19-1.32-.87-1.32-.87l-5.42-.06v7.28c3.07,5.08,6.49,1.14,6.8.75Zm63.1-11.12s10.06-3.26,11.34-3.58,1.24.32,1.24.32-.27,28.63,0,29.64.68.73.68.73,2.34,1.65,2.84,1.87a.56.56,0,0,1,.31.7l0,.08-5.67,4.4s-9.24-4.07-10-4.53c-.91-.65-.32-1-.32-1l1.65-1.65s.27-23.41-.18-24.64a3.35,3.35,0,0,0-1.92-1.72c-.32-.51.08-.6.08-.6ZM89.91,491a1.07,1.07,0,0,0,1.14.64,10,10,0,0,0,5.12-4.94c.92-3.44-1.23-4.31-1.23-4.31a3.24,3.24,0,0,0-3.34-.23,6,6,0,0,0-2.78,3.45A7.74,7.74,0,0,0,89.91,491Zm-1.65,1.55s-5.94,3.67-6.4,4.3-.08,1-.08,1,2.58,1.6,3.24,1.88.46.59.46.59l.18,11.89a4.35,4.35,0,0,1,0,1.14L84,514.68a.75.75,0,0,0-.19,1l.06.08,9.19,4.61s6.22-4.48,6.77-4.71,0-.69,0-.69-2.7-1.55-3.16-1.78a.53.53,0,0,1-.27-.69s-.36-11.75-.09-12.75.54-.65.54-.65a6.77,6.77,0,0,0,1.56-.68c.69-.46,0-.86,0-.86s-8.54-4.48-9.18-5a.73.73,0,0,0-1-.06l-.06.06ZM50.4,512.33c0-.1.71,6.88,9.67,8l5.87-4.82a.46.46,0,0,1,.62-.22.44.44,0,0,1,.15.12l10.06,4.9,6.13-4.8a1.05,1.05,0,0,0-.19-1.1l-4.25-2.84V500s0-.54.32-.64L80.43,498s.27-.46-.27-1.05-10.52-5.58-10.52-5.58-.37-.55-1.28.09c0,0-10.93,4.39-15.23,10,0,0-3.44,2.2-2.81,10.84Zm8.6-3.76a10.19,10.19,0,0,1-.82-6.76,6.2,6.2,0,0,1,4-5l5.26,3.45-.08,13.53s-.69,1.15-2.39.37c0,0-4.3-2.15-6-5.54Zm252-15.68s-5.95,3.61-6.4,4.31-.1,1-.1,1a32.61,32.61,0,0,0,3.25,1.84c.74.23.46.63.46.63l.18,11.9a4.27,4.27,0,0,1,0,1.13s-1,.79-1.56,1.24a.75.75,0,0,0-.19,1l.06.08,9.2,4.66s6.21-4.48,6.76-4.75,0-.69,0-.69-2.66-1.56-3.16-1.78a.53.53,0,0,1-.27-.69s-.36-11.75-.1-12.75.56-.64.56-.64a6.54,6.54,0,0,0,1.55-.69.46.46,0,0,0,0-.86s-8.54-4.48-9.19-5a.73.73,0,0,0-1.05-.05l0,.05ZM220,489c-1.41-.77-.4-1.14-.4-1.14l7.12-4.57c.36-.32.69.13.69.13l6.49,3.8s8.78-4.67,9.37-5a.57.57,0,0,1,.69.09l7.41,4.12,7.45-4.66c.82-.69,1.05-.24,1.05-.24l8.74,5.17c.73.45.41.59.41.59V511a5.3,5.3,0,0,0,2.79,4.07c.68.55.36,1,.36,1l-6.72,4.8c-5.81-2-6.36-6.67-6.36-6.67V491.45a1.2,1.2,0,0,0-.68-1l-4.49-2.29v10.06h4.81l-4.79,6.89v8.32l3.35,2.27c.46.56-.27.65-.27.65l-7,4.3-10.32-5.48c-1-.64-.24-1-.24-1l2.25-1.42V505.5h-4.92v9.34l1.66,1a.56.56,0,0,1,0,.79.44.44,0,0,1-.15.12l-6.88,3.88L222.58,516c-.77-.5,0-.91,0-.91l2.58-1.46V492.67l-4.94-3.56L220,489Zm33.3-1.1c-1.36-.43-1.15.42-1.15.42l.09,9.19v.73h1.1l0-10.32Zm.06,17.65h-1.12v6.73c0,.18.59.41.59.41l.56.38v-7.52Zm-16.47-1.3,4.05-6h.86v-6.79a2,2,0,0,0-.64-.74l-4.3-2.23v15.79Zm-.64-15.95c-1.27,0-1.34.86-1.34.86l-.1,24.42c0,.13.42.23.42.23l1.06.67v-26.2Zm36.78,24c0-.09.71,6.89,9.67,8l5.95-4.8a.46.46,0,0,1,.62-.21.29.29,0,0,1,.15.12l10.06,4.89,6.13-4.8a1,1,0,0,0-.19-1.09l-4.25-2.84V500s0-.54.33-.63l1.64-1.33s.28-.45-.27-1-10.52-5.58-10.52-5.58-.36-.55-1.28.09c0,0-10.93,4.39-15.23,10,0,0-3.44,2.19-2.81,10.83Zm8.6-3.75a10.13,10.13,0,0,1-.81-6.76,6.17,6.17,0,0,1,4-5l5.26,3.44L290,513.76s-.69,1.16-2.39.37c0,0-4.3-2.14-6-5.53Zm42.24-22.44s10-3.26,11.35-3.58,1.23.32,1.23.32-.27,28.95,0,30,.69.79.69.79,2.32,1.64,2.83,1.87a.55.55,0,0,1,.31.71.25.25,0,0,1,0,.07l-5.67,4.39s-9.23-4.07-10-4.57c-.92-.6-.32-1-.32-1l1.64-1.6s.28-23.82-.18-25.05a3.25,3.25,0,0,0-1.92-1.73c-.41-.52,0-.56,0-.56Zm-11.29,5.2a1.07,1.07,0,0,0,1.15.65,10.26,10.26,0,0,0,5.12-5c.91-3.4-1.24-4.31-1.24-4.31a3.13,3.13,0,0,0-3.33-.23,6.07,6.07,0,0,0-2.79,3.44,7.88,7.88,0,0,0,1.09,5.4Z" transform="translate(-3 -3)"/><path class="cls-39" d="M171.29,496.42l.64-.32v.46l.22-.22.28.63h-.37l.23.23c.51.37.18.69.18.69l-.22.18c-.73.27-.51-.86-.51-.86l-.22.23-.28-.68h.36l-.31-.37Z" transform="translate(-3 -3)"/><path class="cls-39" d="M170.6,499.3a.54.54,0,0,1,.59.46c.05-.77.65-.09.65-.09a1.21,1.21,0,0,0-.51.31c0,.47.69.47.69.47.59-.33.5-.69.5-.69.09-.51-.5-.23-.5-.23l-.24-.5h.37v-.19l-.31-.18,1-.5-.13.4.08.1.23-.28.18.74c-.45-.09-.27.31-.27.31.26.29.46.31.62.25a.58.58,0,0,0,.29-.29c.28-.32,0-.46,0-.46-.36.14-.41.28-.41.28-.18-1,.33-.78.33-.78a.83.83,0,0,1,0-.69.76.76,0,0,1,.4.55c.55-.6.65,0,.65,0-.74.14-.42.55-.42.55.17.27.3.32.42.25a3.48,3.48,0,0,0,.31-.86,1.88,1.88,0,0,0-1.46-.64l0,.37-.54.1-.1-.28h-.14v-.23a2.66,2.66,0,0,1,2.52.59l.05,1.83a13.42,13.42,0,0,0-4.46,1.8l-1-1.64a3.65,3.65,0,0,1,1.56-2.06l.18.18-.24.28.1.32-.55.45-.46-.22a1.58,1.58,0,0,0-.32,1.05l.32.69c.64.27.41-.51.41-.51-.18-.22-.41.28-.41.28-.41-.78.14-.73.14-.73a.67.67,0,0,1-.14-.59ZM155.74,516a8.09,8.09,0,0,0-.27,3.56h-.37v-2.51c-1-.24-.6-.64-.6-.64A1.38,1.38,0,0,1,155.74,516Zm2,4.62a1.69,1.69,0,0,1,.18.86.43.43,0,0,0-.46-.33C157.3,520.66,157.76,520.66,157.76,520.66Zm.86,0a.59.59,0,0,0,.23-.46c.51.23.18,1,.18,1A.92.92,0,0,0,158.62,520.66Zm-.6-1.78a.76.76,0,0,1,.92.54c.32.33.32-.14.32-.14C158.85,518,158,518.88,158,518.88Zm1,.86a.25.25,0,0,0,.32-.1.73.73,0,0,1,0,.73c0-.36-.28-.36-.28-.36v-.27Z" transform="translate(-3 -3)"/><path class="cls-39" d="M159.58,519.19c-.46-1.72-1.64-.55-1.64-.55a2.52,2.52,0,0,1,.13-1.87,8.66,8.66,0,0,0,1.61,0c.22,0,.13.14.13.14.18.86-.32.86-.32.86.37.32.46.19.46.19.73.08,1.37-1.37,1.37-1.37a2.85,2.85,0,0,1,1.51.54c.46.41,0,.55,0,.55a6,6,0,0,0-1.79.09c-.13.09-.09.37-.09.37a7.77,7.77,0,0,1,.15,1.18A7,7,0,0,0,159.58,519.19Zm3-5c.18-.68,1.55-1.41,1.55-1.41a13,13,0,0,1,1.72-.51,3,3,0,0,1,2,1.33l-.46.36.18.14c.41-.42.86,0,.86,0,.41.22,1.41.59,1.41.59-.45.68-1.86.41-1.86.41a1.69,1.69,0,0,1-.79,1.23,9.59,9.59,0,0,0,2.65.87c.79-1.11,1.6-.32,1.6-.32a3.62,3.62,0,0,1,.42.36c-.46.23-.32.86-.32.86a28.21,28.21,0,0,1-3.44.18,13.52,13.52,0,0,1-3.8-1,.2.2,0,0,1-.11-.27l0,0-.05-.27c0-.32.23-.28.23-.28a3.27,3.27,0,0,0,1.73-1.13c.22-.55-.28-.46-.28-.46a14.53,14.53,0,0,1-3.2-.64Z" transform="translate(-3 -3)"/><path class="cls-39" d="M170.74,516.41a1,1,0,0,1,1.4-.29h0a1.84,1.84,0,0,1,.37.55.47.47,0,0,0-.46.32c-.32-.65-1.32-.59-1.32-.59Zm1.1,1.59a.42.42,0,0,1,.23-.5,2,2,0,0,1,.36.46h-.59Zm.31-.78a.86.86,0,0,1,.46.69h.32a1.26,1.26,0,0,0-.28-1,.58.58,0,0,0-.5.41Zm.46-1.23c.23.14.19.6.19.6a1.14,1.14,0,0,1,.4.68,1,1,0,0,1,.6-.09c-.18-1.28-1.19-1.19-1.19-1.19Zm.69,1.47v.36l.51-.05a.65.65,0,0,0-.1-.45.51.51,0,0,0-.45.14Zm3.2-9.88a3.35,3.35,0,0,1,0,1c-.14.28-.51.86-.51.86l.65.64,1.56,0a5.74,5.74,0,0,1,1.09-1.46,6.8,6.8,0,0,1,2.1-3.88v-.23a.56.56,0,0,1-.4-.46.85.85,0,0,1,.36-.73c.18.18.18-.14.18-.14a.35.35,0,0,0-.23-.09l-.09.18-.41.64a17.3,17.3,0,0,1-1.33,2.33c-.36.37-1.56,1.73-1.56,1.73l-.18-.09a3.5,3.5,0,0,1-1.23-.28Zm2.65,7.74.32-.55.23.05a2.35,2.35,0,0,0,.5,1.1v.92a.51.51,0,0,0-.45-.33,1,1,0,0,0-.55-1.19Zm-2.05,4.25h-.32l-.79.86c0,.51-.68.74-.68.74,1.23-.09,1.42-.55,1.42-.55a3.14,3.14,0,0,1-.28.68c.78-.41.6-.59.6-.59.14-.46.09-.5.09-.5a.71.71,0,0,1,.09-.28c.1-.37-.13-.37-.13-.37Zm.55.37a2.48,2.48,0,0,0,.77,0c.65.59,0,1.46,0,1.46-.18-.41-.1-.59-.1-.59a.61.61,0,0,0-.08-.51,1.29,1.29,0,0,0-.1,1,1.23,1.23,0,0,1-.69-.77,1.1,1.1,0,0,1,.24-.64Zm5.11-5.31.41-.32a1.07,1.07,0,0,1-.13.92,1.88,1.88,0,0,0-.28-.61Zm-.64.6a3.29,3.29,0,0,0,.33-.41,1.38,1.38,0,0,1,.13,1c-.23-.14-.13,0-.13,0Z" transform="translate(-3 -3)"/><path class="cls-39" d="M182,510.6v1.55c1.34-.13,1.19.86,1.19.86.55.19.19,1.14.19,1.14a1.77,1.77,0,0,1,0,1.2,4.62,4.62,0,0,0,2.74,2.18l-.09-7Zm-.27-2.75,0,.91a6.82,6.82,0,0,0-.32,3.66.51.51,0,0,0-.37.28C180.57,509.41,181.71,507.85,181.71,507.85Zm2.92,9.24v3.44l1.47,1.19,1.24-1.1v-3.11h-.51v2.66l-.73.81-.82-.59v-2.93Z" transform="translate(-3 -3)"/><path class="cls-39" d="M186,518.69c.13,0,.23-.1.23-.28s-.1-.32-.23-.32-.18.14-.18.32S185.92,518.69,186,518.69Zm.41.73c.09,0,.19-.14.19-.27s-.1-.33-.19-.33a.33.33,0,0,0-.23.33.26.26,0,0,0,.24.27Zm-.37.55c.1,0,.19-.14.19-.28s-.09-.26-.19-.26a.24.24,0,0,0-.22.25h0a.26.26,0,0,0,.22.28Zm-.36-.59c.14,0,.23-.14.23-.32a.26.26,0,0,0-.22-.28h0a.26.26,0,0,0-.23.28c0,.18.11.32.23.32Zm-3.93-3.71c0-.37.14-.41.14-.41a1.81,1.81,0,0,0,.55.73h0a2,2,0,0,0,.54.64.26.26,0,0,1-.21.31h-.06a4.22,4.22,0,0,1-1-1.23Zm.91.28a.63.63,0,0,0,.18-.51c.14.23.24.23.24.23l.13-.09.28.41a.79.79,0,0,0-.51.42A.69.69,0,0,1,182.67,516Zm-1.72.4.31.47a.56.56,0,0,1,.1-.33l.37-.36-.19-.33-.37.42-.22.13Zm-.51-.86.28.37a.3.3,0,0,1,.14-.23l.45-.41L181,515Zm-1.14-5.07v.49l.14,0h.68l-.86,1,.55.37h.78v-.37h-.82l.82-.92v-.41H179.4l-.14-.08Zm.09-1.15,0,.46.1-.09,1.05.14.13.18.1-.55h-.18l-1-.14-.18-.14Zm.82-2.47.33.23-.23.1c-.37.32-.14.5-.14.5.23.13.27-.14.27-.14.36-.5.64-.23.64-.23a.6.6,0,0,1,.15.83v0l-.14.18,0,.14-.36-.14.18-.13a.39.39,0,0,0,.13-.37c-.09-.41-.31,0-.31,0-.56.55-.87,0-.87,0-.23-.41.37-.92.37-.92Zm1.33-1.51v.37a.38.38,0,0,0-.48.2.31.31,0,0,0,0,.21c.13.64.59.55.59.55v.28a.88.88,0,0,1-.86-.51.86.86,0,0,1,.59-1.06l.19,0Zm.41,5h4v-5.85h-4.16Zm-.32-11.65a8.24,8.24,0,0,1,3.7-1.84v.92a9.57,9.57,0,0,0-3.66,1Zm4.94-1.79v.86a6,6,0,0,1,4.17,1.14,5.6,5.6,0,0,0-4.13-2Zm-1,0v.91h.78v-.91Zm-5.07,2.42c-.28-1.28.68-.78.68-.78Zm1-1c-.08-1.33.78-.6.78-.6Zm1.23-.86c0-1.33.86-.55.86-.55Zm1.2-.64c.18-1.72.91-.37.91-.37Zm1.41-.86h1.24c.18.27-.18.69-.18.69a1.27,1.27,0,0,1-.86,0c-.64-.14-.23-.65-.23-.65Zm0-2.06h1.19l-.36.55.22.24.28-.37v1.14l-.6-.46.28.69-1-.05.46-.55-.14-.13-.46.4v-1.09l.46.41.14-.13-.42-.65ZM190.5,498l.68.65c.27-1.45-.64-.67-.64-.67Zm-.37-.27-.86-.46c1-1,.9.43.9.43Zm-2-1.14.86.36c0-1.44-.84-.38-.84-.38Zm-.33-.05c-.08-.64-.45-.64-.45-.64-.42-.09-.46.6-.46.6h.91Zm-6.07,7a22.38,22.38,0,0,1,8.32,0c.54.09.32.5.32.5a.78.78,0,0,1-.6,0,25.3,25.3,0,0,0-7.91.14c-.69,0-.55-.27-.55-.27.14-.5.42-.42.42-.42Zm4.43,1.05v5.84H190l.14-5.9Zm3.79,6.08h-3.79l.05,7A3.56,3.56,0,0,0,188.9,516q.45-1.68,1-3.3Zm-2.37,6.82v.68a7.22,7.22,0,0,0,1.82.86.35.35,0,0,0,.27-.42l0-.09a1.39,1.39,0,0,0-.46-.22,3.21,3.21,0,0,1-1.6-.78ZM189,516.1l.22.24-.86,1.18-.14-.31.74-1.11Zm.4.37-.77,1.1c1.19.78,1.87-1.05,1.87-1.05a1.61,1.61,0,0,1-1.06-.07Zm.79-9v1.1a7.45,7.45,0,0,1,.5,2.29l.37-.64a5.44,5.44,0,0,0-.87-2.74Zm-2.66,12.67v.5a4.15,4.15,0,0,0,1.32.55c.23-.09,0-.41,0-.41A3,3,0,0,1,187.53,520.18Z" transform="translate(-3 -3)"/><path class="cls-39" d="M189.08,520l.22-.86c.78-.05.51-.92.51-.92.63-.18,1.37-1.37,1.37-1.37l.19.46.26.55c.14.27.23.41.19.41l-.41.36v-.22l-.78.68.27-1.51-.73,1.72a2.85,2.85,0,0,1-1.09.69Zm.13.41c.64,1,2.75,1,2.75,1a1.66,1.66,0,0,0-.86-.79,1.79,1.79,0,0,1,1.72.46,1.73,1.73,0,0,0,1.05.46,2.42,2.42,0,0,0-.46-.5.86.86,0,0,0,.55,0,3.59,3.59,0,0,0-1.24-1.05c1-.51,1.8.64,1.8.64a1.93,1.93,0,0,0,.77.73l-.28-.92a1.88,1.88,0,0,0,1.37,1.06c.14-.14,0-.41,0-.41-.32,0-.59-.46-.59-.46v-.92c-1-.14-1-.68-1-.68a1.06,1.06,0,0,1,.86-.91l-.09-1.06c.59-.54,1.72-.22,1.72-.22-.09-.65-.59-.46-.59-.46,0-.51-.59-.55-.59-.55v.14l-1.65,1.28c.23,1.27-.36,1.72-.36,1.72a1.47,1.47,0,0,1-2-.27l-.64.41a1.59,1.59,0,0,1,1,.6l-.1.09a2.29,2.29,0,0,0-1-.5l-.55.22-.26.23-1.38.68Z" transform="translate(-3 -3)"/><path class="cls-39" d="M192.87,515.76a6,6,0,0,0,.73-1.92l.18.23-.26.86.18.18.32-.73.22.28-.36.59.27.23.37-.5.23.18-.51.51.23.31.42-.63.31.22-.55.55.24.18.55-.45.18.13-1.34,1.1a2.55,2.55,0,0,0-1.41-1.33Zm4.71,1.1c1.14-.27.19-.86.19-.86-1-.37-1.15-.19-1.15-.19.37.15.32.37.32.37.5,0,.68.68.68.68Zm0,1.1.41-1a1.72,1.72,0,0,1-1.05.09,1.51,1.51,0,0,0-1,.1c-.41.22-.09.27-.09.27a3.13,3.13,0,0,0,1.72.55Zm1.32-.14.24.27,1.1-.36-.65.46,1.19.09-.54-.86-1.34.36Zm-3.28-20.21a1.91,1.91,0,0,0-.55-1.19c-.5-.32-.55,0-.55,0a.58.58,0,0,0,.32.54l.78.69Zm1,.64a2.12,2.12,0,0,0-.14-.55,5.29,5.29,0,0,0-.32-.5l-.59-.41a2.81,2.81,0,0,1,.23.86l.86.64Zm0-.73a1.4,1.4,0,0,1,.23.86l.73.73a2,2,0,0,0-.36-1.18l-.6-.46v0Zm-1.41,5.07a.74.74,0,0,1-.56.1c0,.45.87.45.87.45a.92.92,0,0,0,.59-.32v-.18a1.75,1.75,0,0,1-.59.22l-.28-.28Zm1,3.16.09-.32c.86-.23.23-.86.23-.86.32-.14.41-.05.41-.05.41-.22.55.28.55.28.32-.28.55-.1.55-.1-.69.65.13.86.13.86a.53.53,0,0,0,.51-.4.9.9,0,0,1-.23-.32,1.2,1.2,0,0,1,.36.22.23.23,0,0,1,.17-.27h.06a.6.6,0,0,1,.1.41c.14-.14.41,0,.41,0-.41.46.13.86.13.86.65.36.55-.69.55-.69a.37.37,0,0,1,.41.32.17.17,0,0,1,0,.1l.28-.24a1.51,1.51,0,0,1,.09.47.34.34,0,0,1,.46,0c-.74.45-.23.86-.23.86a.33.33,0,0,0,.41.05l0-.33.59.1-.59.68a10.3,10.3,0,0,0-5.4-1.6Zm1.42-7.63.59.36a1.67,1.67,0,0,1-.36.73,2.69,2.69,0,0,0-.14-1.09Zm2.83.36c1.23-.32,2.06,1.32,2.06,1.32l-.91-.36a8.84,8.84,0,0,0-1.07-1Zm1.23,1.23a2.84,2.84,0,0,1,.42,1,6.92,6.92,0,0,0,1.23.92A2.34,2.34,0,0,0,201.74,499.71Zm.6,1.51a1.85,1.85,0,0,1,1.1,2.28,1.37,1.37,0,0,0-.65-.77A2.6,2.6,0,0,1,202.34,501.22Zm.27,1.79a3.76,3.76,0,0,1-.08,1,4.83,4.83,0,0,1,.4,1.1,5.33,5.33,0,0,0,.42-1.28,1.6,1.6,0,0,0-.65-.82Zm-.18,1.46a6.25,6.25,0,0,1-.64,1.42l.23.27.28.18A1.56,1.56,0,0,0,202.43,504.47Zm9.42,14.86-.41-1.56a.57.57,0,0,0-.79-.22l-.07,0a1,1,0,0,1-.92.13c-.54-.08-.08-.45-.08-.45a7.18,7.18,0,0,1,1.46-.68,4.52,4.52,0,0,0,1.55.18c.86-.14.69.59.69.59a9.9,9.9,0,0,1-.18,1.88q-.65,0-1.29.09Zm1.46.32.23.22-.68,1.24-.32-.19a3.31,3.31,0,0,0,.77-1.27Zm.42.32-.56,1.19a2.18,2.18,0,0,0,1.73-.5l-.14-.73a1.64,1.64,0,0,1-1,0Zm2.05-.51a6.57,6.57,0,0,1,.69.23,3.66,3.66,0,0,0-.23-1.82c.78.27.78,0,.78,0,.23-.64-.55-.86-.55-.86a4.5,4.5,0,0,0-1.78-.33,1.46,1.46,0,0,1,0,.59,1.77,1.77,0,0,1,0,.46,1.52,1.52,0,0,1,1,1.72Zm-25.6-14.17v.37l.45-.32-.45,1.05-.05.64.74-1.55-.24-.42-.45.23Zm.14,2h.18l1-.73.09-.19.23.5h-.14l-.86.69.14.37.23.23-.33.13-.5-1Zm.86,2,.13.55.23-.14.37-.13.32.22h.45l-.55-.36.41-.46-.18-.55-.09.23-.41.55-.55.13Zm.73,3.25c-.24.05-.14.18-.14.18.46.59.73.09.73.09a.72.72,0,0,0,.09-.45h-.13c0,.55-.28.41-.28.41a.34.34,0,0,1-.22-.23Zm-.51.86-.09.59.18.32.09-.55.46.23-.23.46-.14.05.32.18.32-.74.14-.18h-.14l-.91-.46Zm-9,5a.39.39,0,0,1-.42.33l-.5-.59c-.32-.51,0-.65,0-.65l.63-.91a.82.82,0,0,1,.33.36l-.46.59c-.13.33.09.42.09.42Z" transform="translate(-3 -3)"/><path class="cls-39" d="M183.09,516.49c.18.78-.6.6-.6.6-.27.55.14.55.14.55a.92.92,0,0,0,.86-.6.62.62,0,0,0-.41-.55Zm13.53-12.66-.55-.51a.92.92,0,0,0,.36-.86h-.31l-.24.13s-.22-.08-.26-.22l-.1-.55.42-.5h.36a12.13,12.13,0,0,1,1.55-1.49l.19.21c-.23.5,0,.63,0,.63.37.24.5-.22.5-.22.36.18.24,0,.24,0a2,2,0,0,1-.87-.67l.87-.71a1.74,1.74,0,0,1,.59-.73,3.3,3.3,0,0,1-.41-1,1.41,1.41,0,0,1,1.32,1.2c3.52,2.79,1.33,7.18,1.33,7.18a10.76,10.76,0,0,0-3.45-1.42,3,3,0,0,1,1.11-1.05c1.5,0,1.27-1.78,1.27-1.78-.31-.65-.22.31-.22.31-.65,2.1-2.29.23-2.29.23-.18-.14,0,.33,0,.33.09.22.18.18.18.18l.14.13-1.14.46c-.18.28-.51.73-.51.73Zm-21.26-3.61a11,11,0,0,0-4.26,1.87c-.27.18-.31.14-.31.14a.82.82,0,0,0,.5,1.19,3.34,3.34,0,0,0,.37,2.19,4.27,4.27,0,0,1,.49,1.78,1.29,1.29,0,0,0,.42-.73,2.46,2.46,0,0,0,1.56,1.88,1.15,1.15,0,0,1,.73.54,2.52,2.52,0,0,0,.08-.91,1.62,1.62,0,0,0,.69.91,7.74,7.74,0,0,1,.28-1.05,2.43,2.43,0,0,0,.09-1.72.93.93,0,0,0,.6.4,2.27,2.27,0,0,1,0-1.5,2.15,2.15,0,0,0-.19-1.37l-.09-.34a4.1,4.1,0,0,0-.09,1.48,3.47,3.47,0,0,1-.46-.13,3.9,3.9,0,0,1-.41,1.92,2.27,2.27,0,0,0-.37.86,4.29,4.29,0,0,0-1.72-.92,5.52,5.52,0,0,1-.56-.86c-.18.32-.36.23-.36.23a4,4,0,0,0-.55-1,2.46,2.46,0,0,1-.32-1.09c.17.33.35.65.55,1s.32.86.32.86a.62.62,0,0,0,.32-.45,2.68,2.68,0,0,0,1.52,1.24,3.55,3.55,0,0,1,.68.49,1.8,1.8,0,0,1,.31-1.05,2.33,2.33,0,0,0,.24-1.82.85.85,0,0,0,.63.5,2.92,2.92,0,0,1,0-.78,4.4,4.4,0,0,0,.12-1l-.12-.48a3.6,3.6,0,0,1-.32-1,.8.8,0,0,0-.24-1.12.52.52,0,0,0-.13-.06Zm-1.88,4.07a2.12,2.12,0,0,0,.86.68,1.82,1.82,0,0,0,.18-1.05.87.87,0,0,1-.59-.09c-.14.5-.46.46-.46.46Zm-1.78-2c.64.18.86-.09.86-.09a.54.54,0,0,1,.72.23.64.64,0,0,1,.05.23,1.18,1.18,0,0,0,.14.55,1,1,0,0,0,.69-.18c.18-.24-.09-.46-.09-.46a2.82,2.82,0,0,0-.19-.51c0-.73.51-.68.51-.68a.63.63,0,0,0,.54-.27.86.86,0,0,1-.49.86.46.46,0,0,0-.24.5c.32.55.05.59.05.59a.53.53,0,0,1-.36.31.5.5,0,0,0,.49.34,1,1,0,0,0,.51-.87c.23.65,0,.87,0,.87a.4.4,0,0,1-.09.56l-.05,0a1.51,1.51,0,0,1-.41,1.14c-1.56-.91-1.6-2-1.6-2,.51.86,1,.47,1,.47a3.74,3.74,0,0,0,.06-.55,1.55,1.55,0,0,1-.43,0,.9.9,0,0,1-.23-.64c-.23-.51-.37-.09-.37-.09a.68.68,0,0,1-1-.12.64.64,0,0,1-.13-.26ZM161.14,518c1.27.78,6,.78,6,.78a29.89,29.89,0,0,0,7-.59,4.62,4.62,0,0,0,1.46-.42c.18,0,.09.32.09.32a5,5,0,0,0,0,2.11c0,.73-.78.68-.78.68a60.25,60.25,0,0,1-11.93.46c-1.56-.27-1.6-1.1-1.6-1.1a2.48,2.48,0,0,0-.14-2c-.18-.14,0-.23,0-.23Zm1.46,2.7.14-.14v-1.32l-.1-.23c1,0,1.33.37,1.33.37a.86.86,0,0,1-.07,1.21,1,1,0,0,1-.44.21,1.58,1.58,0,0,1-.86-.09Zm2.28-1.51h.69c-.18.1-.14.37-.14.37l0,1.24.18.26h-.73c.18-.14.18-.22.18-.22v-1.33a.55.55,0,0,0-.14-.32Zm-1.72,0v1.29a.53.53,0,0,0,.59-.37.76.76,0,0,0-.09-.55.57.57,0,0,0-.46-.37Zm3.11.1h1.32l0,.32a1.18,1.18,0,0,0-.42-.1H167V520h.13l.32-.09,0,.41H167v.55h.31a.52.52,0,0,0,.32-.14v.36h-1.28v-.05a.41.41,0,0,0,.19-.08v-1.42a.58.58,0,0,0-.23-.18Zm2,0,.69,0a.85.85,0,0,0-.09.22v.92c0,.37.32.32.32.32.32,0,.27-.46.27-.46v-.91l-.08-.09h.5a.21.21,0,0,0-.05.13v1a.76.76,0,0,1-.69.65.7.7,0,0,1-.68-.69v-.91a.5.5,0,0,0-.19-.19Zm3.34-.18,1.1-.1.13.33a1.12,1.12,0,0,0-.31,0h-.28v.46h.28a.38.38,0,0,1,.13-.09V520a.24.24,0,0,0-.18-.09h-.27v.5h.4c.1,0,.24-.13.24-.13v.31l-1.05.14.09-.09-.05-1.47c0-.09-.18-.13-.18-.13Zm2-.18,0,.36c.08-.18.41-.18.41-.18v1.32l-.09.1.55-.1-.1,0V519a.42.42,0,0,1,.42,0l-.06-.37h0l-1.05.1h-.09v0Zm2.64-1.47a1,1,0,0,1-.09-1,1,1,0,0,1,1.05-.74c.46.28.41-.09.41-.09a.71.71,0,0,1,1-.29l0,0a1,1,0,0,0,.6.36c.31.42.13.64.13.64a.58.58,0,0,0,.09.41.52.52,0,0,1,.37.56,3.5,3.5,0,0,1-.23,1.32.55.55,0,0,1-.6,0c-.22,0-.13.14-.13.14.23.36,0,.55,0,.55a1.11,1.11,0,0,1-.87.37c-.73,0-.77-.37-.77-.37-.09-.32-.5-.32-.5-.32a.9.9,0,0,1-.64-.77.45.45,0,0,1,.18-.47c.23-.13,0-.36,0-.36Zm1.24.42a.85.85,0,0,1-.23.95c-.37.05-.41-.22-.41-.22a.31.31,0,0,0-.23-.32c-.14-.55.14-.55.14-.55a.73.73,0,0,1,.73.14Zm.86-.28c.09.46.73.82.73.82.32,0,.18-.46.18-.46-.18-.23-.09-.36-.09-.36.46-.09.13-.51.13-.51-.86-.22-1,.51-1,.51Zm-.64-.73c0-.86-.55-.86-.55-.86a.33.33,0,0,0-.28.32c.1.46-.09.46-.09.46-.41.09-.14.54-.14.54.14.19.23.14.23.14a1.39,1.39,0,0,0,.74-.22c.22-.05.09-.42.09-.42Zm.59-1a.37.37,0,0,0,.37.23c.5,0,.19.5.19.5a1.08,1.08,0,0,1-.65.41c-.5-.59-.46-.91-.46-.91,0-.73.55-.23.55-.23Zm-.31,2.19a.78.78,0,0,1,.63.86c-.18.32-.37.18-.37.18-.22-.22-.36,0-.36,0,0,.41-.32.14-.32.14-.19-1,.42-1.11.42-1.11Z" transform="translate(-3 -3)"/><path class="cls-39" d="M178.69,519.93a.87.87,0,0,0,.68-.86l.16-.07a1.43,1.43,0,0,1,.62.71,2.16,2.16,0,0,1,.46.54c0-.59-.32-.73-.32-.73a2.16,2.16,0,0,0-.49-.76,2,2,0,0,0,.35-1.11c.5-.19,1,.45,1,.45a.53.53,0,0,1-.37,0c.74.32.6,1.47.6,1.47a.68.68,0,0,1-.46-.14c.55.64,0,1.87,0,1.87a1.14,1.14,0,0,1-.64-.86c.09.46-.09.59-.09.59-.46-.09-.65-.68-.65-.68,0,.55-.31.32-.31.32s-.14-.42-.14-.42c-.22,0-.36-.4-.36-.4Zm5.71-.51a3.5,3.5,0,0,1-.55-.17,5.32,5.32,0,0,1-.77,1.45c.24-.49.45-1,.64-1.51a4.48,4.48,0,0,1-1.1-.73c-.05.68-.77.32-.77.32a.55.55,0,0,0,.11.77.72.72,0,0,0,.2.09,1.23,1.23,0,0,0,.86-.37c.63-.13.18.37.18.37a1.78,1.78,0,0,1-.73.32.5.5,0,0,0-.41.56.47.47,0,0,0,.09.22c.37.5.73.32.73.32a.28.28,0,0,1,.32.27c.23.55.6.23.6.23a.87.87,0,0,0,.18-.91,1.13,1.13,0,0,1-.09-.86c-.14-.86.23-.23.23-.23a2.3,2.3,0,0,1,.18.5c.14.32.18.1.18.1Zm-7.13-3.93.27-.5a1.23,1.23,0,0,0-.59-.86.58.58,0,0,0,0,.41,2.54,2.54,0,0,0-1.1-.69,1.61,1.61,0,0,0,0,.69,1.62,1.62,0,0,0-1.29-.86,1,1,0,0,0,.19.59,2,2,0,0,0-1.24-.22,2.54,2.54,0,0,0,.87,1.37l-.1.23c-.5-.37-.64-.1-.64-.1v.14a3.4,3.4,0,0,0,1.29.86.59.59,0,0,0-.37.32c.37.73,1.46.69,1.46.69a2.62,2.62,0,0,1,0-1.52,9.11,9.11,0,0,1-1-.68,4.76,4.76,0,0,0-.55-.55l-.64-.5a3.63,3.63,0,0,1,.87.46,8.77,8.77,0,0,0,1.41,1,1.37,1.37,0,0,1,1.1-.32Zm18.63,2.38a9.06,9.06,0,0,1,.09,2.65c5.16,2,13.9.77,13.9.77,1.46-.18,1.51-.41,1.51-.41.55,0,.46-.86.46-.86a6.7,6.7,0,0,1-.51-2.06c-1.19.69-7.91.86-7.91.86C198,519,195.9,517.87,195.9,517.87Zm.64.68.51.09.27,1,.54-.77.46,0,0,.14v1.46l.09.18-.64-.09.09-.14v-.78l-.59.78-.42-1v.86l-.36-.19,0-.08v-1.56Zm2.42.69a1.08,1.08,0,0,0,0,1.53l0,0a.92.92,0,0,0,1,0,1.09,1.09,0,0,0,0-1.54l0,0C199.28,518.88,199,519.24,199,519.24Zm.5,0c-.77.37-.22,1.19-.22,1.19.18.42.45.09.45.09.37-.36.09-1,.09-1C199.69,519.15,199.46,519.24,199.46,519.24Zm1.19-.09h.41l.6.86,0-.63v-.14h.59l-.09.14v1.55l0,.13h-.32l-.65-.95v.82l-.45,0v-.22l0-1.33Zm2.89.09h.63c.69,0,.86.92.86.92a.9.9,0,0,1-.85,1h-.61l.18-.13v-1.55l-.14-.15Zm.55.23v1.46a.8.8,0,0,0,.45-.91c-.1-.51-.42-.51-.42-.51Zm1.23-.23h.27a1.27,1.27,0,0,1,.86,0,.65.65,0,0,1,0,.93l0,0,.42.65a.31.31,0,0,1,.18.14.45.45,0,0,1-.36,0,1.24,1.24,0,0,1-.51-.64H206v.82h-.45l0-.14,0-1.6-.14-.1Zm.55.86v-.73a.2.2,0,0,1,.32,0,.47.47,0,0,1,0,.59.35.35,0,0,1-.32.1ZM208,519c.86,0,.86,1.1.86,1.1a.94.94,0,0,1-.92.91c-.77-.09-.82-1-.82-1,.14-1.05.86-1,.86-1Zm0,.27c.46,0,.41.73.41.73a.68.68,0,0,1-.41.78c-.23.05-.33-.27-.33-.27-.26-.86.1-1.14.1-1.14Zm1.14-.32.64,0-.09.18,0,1.6.1.09-.56.05v-1.74l-.13-.14Zm1.1-.13,0,.45.14-.13.23,0v1.47l0,.13.46-.09v-1.65h.31l0-.37h-.08l-.87.19Zm-18.7-2.06a1.91,1.91,0,0,0,.06.33h.06c.14-.41.06-.57.06-.57l.13-.1a1.15,1.15,0,0,1,0,.61,1,1,0,0,1,.38,0,2,2,0,0,0,.08-.65l-.66-.08a.76.76,0,0,0-.11.48Zm.11.53a2.17,2.17,0,0,0,.49.86c.21-.16.16-.78.14-1a.82.82,0,0,0-.63.13Zm.59.94a2.47,2.47,0,0,0,.62.41,1.55,1.55,0,0,0,.1-.74,2.34,2.34,0,0,0-.64.12l-.11.19Zm.78.48.21.06a1.41,1.41,0,0,0,.41,0v-.42a1.4,1.4,0,0,0-.53.19l-.06.17Zm.76,0a.7.7,0,0,0,.44-.54.82.82,0,0,0-.44,0Zm.46-.72a2,2,0,0,0-.49-1.36,1.93,1.93,0,0,1,.08.86l.22-.08v.13h-.32a1.14,1.14,0,0,1,0,.45.64.64,0,0,1,.47,0Zm-.6-1.48a2.47,2.47,0,0,0-.59-.38,1,1,0,0,1,.14.57.91.91,0,0,1,.45-.19Zm-.86-.47a2.57,2.57,0,0,0-.66-.13.75.75,0,0,0-.43.18l.67,0Zm-.39.26a.41.41,0,0,0,.65.49,1,1,0,0,0-.14-.57Zm.86.62a1,1,0,0,1,0,.63.65.65,0,0,1,.49-.08,1.21,1.21,0,0,0-.1-.7.51.51,0,0,0-.45.15Zm-.09.86a1.12,1.12,0,0,1,0,.63.73.73,0,0,1,.51-.26,1.08,1.08,0,0,0,.07-.47,1.78,1.78,0,0,0-.56.1ZM193,517a1,1,0,0,0-.69,0,2.42,2.42,0,0,1,0,.76,1.22,1.22,0,0,1,.65-.12,1.13,1.13,0,0,0,0-.68Zm-11.31-13.84-.78-2.47.41-1.1.46,1.78-.41-.19a.9.9,0,0,0,.92.89.94.94,0,0,0,.54-.2c.51-.55,0-.73,0-.73-.59-.32-.69,0-.69,0-.4-1.55.65-.95.65-.95-.05-1,.36-1.11.36-1.11.55.19.55,1.06.55,1.06.6-1,1,0,1,0a1,1,0,0,1-.06.42.57.57,0,0,0-.76.28.54.54,0,0,0-.05.22c-.1.5.81.63.81.63a1.6,1.6,0,0,0,1.11-1.5,2.44,2.44,0,0,0-.86.55v-2.06a2.1,2.1,0,0,0,1,.78,2.72,2.72,0,0,0-.65-1.43h1.92a2.06,2.06,0,0,0-.59,1.47,1.25,1.25,0,0,0,.86-.64l0,1.78c-.41-.63-.86-.36-.86-.36a1.11,1.11,0,0,0,.75,1.37,1.09,1.09,0,0,0,.26,0,.77.77,0,0,0,.86-.68h0c-.18-.86-.73-.37-.73-.37-.22-1.37.77-.77.77-.77-.36-.91.28-1.24.28-1.24a1,1,0,0,1,.41,1.24c1.06-.55.86.77.86.77-1-.45-.86.6-.86.6.47,1.1,1.37.27,1.37.27a1.5,1.5,0,0,0,.23-.55l-.41.1.41-1.42.37.73.27-.78.23.28-1.32,3.33a25.4,25.4,0,0,0-8.61-.09Zm6.81-.64c-.23-.05-.45-.14-.41-.23s.18-.18.46-.14.45.14.41.23-.25.14-.52.1Zm-4.94,0c.23,0,.42-.14.42-.27s-.24-.14-.46-.1-.46.14-.46.23.23.19.5.14Zm2.52-.91.64.54-.64.42-.6-.42Zm8.6,7.18a4.4,4.4,0,0,1,.41-1.38l-.53-.57-.19.33a.5.5,0,0,1,.17.38.52.52,0,0,1-.29.47v.19l.47.58Zm-.26-2.1-1.34-1.42c-.91-1.33-1.56-.69-1.56-.69l-.63.23a2.44,2.44,0,0,1,.77.86c.55-.09.59.18.59.18l1.42,1.72h0a.46.46,0,0,1,.42-.49.2.2,0,0,1,.15,0l.18-.4Z" transform="translate(-3 -3)"/><path class="cls-39" d="M192.5,506.53c-.32-.37-.54-.64-.68-.5a11.84,11.84,0,0,1,.73,1.72,5.83,5.83,0,0,1,.36,2.19l.69.05h.18l-.07-.35a.47.47,0,0,1-.34-.49c0-.32.19-.55.41-.55h.05l.07-.4-.34-.43c-.19-.23-.41-.46-.59-.69s-.3-.4-.47-.59Zm1.46,3.52.74.09a1.5,1.5,0,0,1-.09-1.06l-.49-.58-.05.25a.59.59,0,0,1,.17.43.5.5,0,0,1-.31.47v.4Z" transform="translate(-3 -3)"/><path class="cls-39" d="M189.26,515.9c.31.45,1.28.32,1.28.32s.09-.64.09-.64a1.06,1.06,0,0,1,0-.5c.23,0,.27.31.27.31a3.53,3.53,0,0,1-.14.56c1-.65.14-1.88.14-1.88a3.3,3.3,0,0,1,.55-1.6c1.05-.91,1.6-.59,1.6-.59a10.1,10.1,0,0,1,2.43.5c.58.19,2.69.55,2.69.55a.77.77,0,0,1,.18-.36c.6-.42,1-2.39,1-2.39,0-.32.14-.18.14-.18a1.1,1.1,0,0,1,0,.51,4.92,4.92,0,0,1-.46,1.92,6.33,6.33,0,0,0,3,.5,4.86,4.86,0,0,0,2.38-.68,6.47,6.47,0,0,1,2.79-.41l-.05-.28c-1.13-.51-.36-1.1-.36-1.1l-.45-.64c-1.24-.09-5.08-2.1-5.08-2.1-3.29-1.83-5-1.51-5-1.51a5.81,5.81,0,0,0-1.19,4l.82.1a3.56,3.56,0,0,1,1-2.66c.32-.14.09.23.09.23a3.35,3.35,0,0,0-.69,2.89,21.89,21.89,0,0,0-3.52-.37,1.79,1.79,0,0,0-1.46.23,2.7,2.7,0,0,0-.77,1.19l-.6,2.05a6,6,0,0,0-.64,2ZM202,510.55a7.73,7.73,0,0,1-.77,2c.09.31.45-.19.45-.19a5.49,5.49,0,0,0,.55-1.72c-.09-.78-.23-.09-.23-.09Zm-1.5-.64a5.67,5.67,0,0,1-.92,2.33c-.13.37.28.09.28.09a6,6,0,0,0,.77-2.33c0-.41-.13-.09-.13-.09Zm.73.41a4.31,4.31,0,0,1-.86,2c-.18.32.22.14.22.14a3.83,3.83,0,0,0,.86-2.19c-.09-.51-.22,0-.22,0Zm5,1.88a1.94,1.94,0,0,1,1-.09l.1.49a.62.62,0,0,0-.32.56.55.55,0,0,0,.5.59h0v.71a9.73,9.73,0,0,1-1.51.35c-.77.18-.23.63-.23.63a1.83,1.83,0,0,1,.51.69c.36.41-.23.73-.23.73a7,7,0,0,0-2.59,1.47,15.49,15.49,0,0,1-2.36,0,2.7,2.7,0,0,1-.65-.92.66.66,0,0,1,.93.05l0,0a2.54,2.54,0,0,0,1.19.14c.68-.36,1.72-.86,1.72-.86a.68.68,0,0,1,.46-.1c.28-.09,0-.32,0-.32a6.06,6.06,0,0,1-1.23-1.14c-.37-.6,0-.86,0-.86a21.69,21.69,0,0,1,2.73-2.15Zm1.29,0a1.46,1.46,0,0,1,.73.59c.27.59.19.73.19.73a1,1,0,0,0,0,.55,4.29,4.29,0,0,1-.65.31v-.73a.62.62,0,0,0,.23-.49.56.56,0,0,0-.47-.59Z" transform="translate(-3 -3)"/><path class="cls-39" d="M217.56,510.78a5.9,5.9,0,0,0,.05-2,1.82,1.82,0,0,0-.65-.86c0-2-1.19-2.24-1.19-2.24a2.57,2.57,0,0,0,.24.86c.08.18-.24,0-.24,0a1.27,1.27,0,0,0-.63-1,2.49,2.49,0,0,1-.69-.6c-.51.86.86,1.72.86,1.72a31.34,31.34,0,0,0-5.63.65,5.45,5.45,0,0,1-3.93-.28,1.55,1.55,0,0,1-.92-2h0a2.33,2.33,0,0,1,2.2-1.23,8.16,8.16,0,0,1,2.19.36,9.51,9.51,0,0,0,4.53-.09,3.13,3.13,0,0,0,1.52-1.72,2.78,2.78,0,0,1-1.66.41,5.58,5.58,0,0,1-2.51.64c1.28-.5,1.24-1,1.24-1a2,2,0,0,1,.59-.73,4.69,4.69,0,0,0-1.73.86,4.44,4.44,0,0,1-2,.41,1.13,1.13,0,0,1-.63,0c.91-.28,1-.65,1-.65a5.25,5.25,0,0,0-4,.73c-1.82,1.52-1.27,3-1.27,3,.31,1.47,2.92,1.92,2.92,1.92a31.45,31.45,0,0,0,5.31-.27c2.19-.27,2.78.05,2.78.05.27.18,0,.22,0,.22-1.33-.18-1.72,1.37-1.72,1.37a2.37,2.37,0,0,1,2.15-.72c.23,0,0,.09,0,.09a1.46,1.46,0,0,0-1.1.32,1.86,1.86,0,0,0,1.51.31.89.89,0,0,0,.55-.45,1.84,1.84,0,0,1,.28,1.92,2.14,2.14,0,0,1-.93.78,7,7,0,0,1-3.2-.37,4,4,0,0,0-1.5-.23,3.47,3.47,0,0,1-.55-.18,34.57,34.57,0,0,0-3.93-.78l.23.32c.37.09.55.27.59.46a.59.59,0,0,1,0,.37,1.69,1.69,0,0,1-.23.36l.19.37a1.5,1.5,0,0,1,1.18,1.72,2.27,2.27,0,0,0,.86,1.59,4.23,4.23,0,0,0,3.15,1.15c.56,0,.65.13.65.13.54.33.46,1.79.46,1.79a3.68,3.68,0,0,1-.28,1.23c.18.46,1.09.24,1.09.24a.38.38,0,0,0,.19-.24.69.69,0,0,0-.13-.55c-.1-.13,0-.08,0-.08a1,1,0,0,1,.55,1,1.26,1.26,0,0,0-.15-1.77c-.07-.06-.15-.1-.22-.15a1.68,1.68,0,0,1-.32-.09,13.42,13.42,0,0,1-.18-1.78v-.32l-.46-.51a3.36,3.36,0,0,1-2.19-.13,5.81,5.81,0,0,0,0-.59,19.27,19.27,0,0,0-.19-2.84,22.64,22.64,0,0,0,2.47.55,4.54,4.54,0,0,0,1.51.18c1.19.27.82,1.1.82,1.1,1-.78.14-1.32.14-1.32a1.75,1.75,0,0,0,1.05-1.38Zm-63.83.46a3,3,0,0,1,.22-2.19,5.54,5.54,0,0,1,2.84-2.34,2.82,2.82,0,0,1,2.2-1.32,3.42,3.42,0,0,1-.51.69,3.93,3.93,0,0,0,1.56-.86,1.65,1.65,0,0,1-1,1.46,42.94,42.94,0,0,0,8.33-.09,2.1,2.1,0,0,0,1.87-2.15c-.41-1.65-2.47-.69-2.47-.69-4.3,2.52-6.45-.86-6.45-.86a11.7,11.7,0,0,0,3.11.41,6.78,6.78,0,0,1-1.78-1.47,2.05,2.05,0,0,1,1,.37,4.42,4.42,0,0,0,2.34.46l-1-1.09a4.35,4.35,0,0,0,1.47.32l.86.08a2.61,2.61,0,0,0,1.18,0,2.86,2.86,0,0,1,2.59,2.39c.22,2.73-2.93,3-2.93,3-1.28.37-8.37.27-8.37.27a1.76,1.76,0,0,1,.92,1,2.54,2.54,0,0,0,.32.55c-.74,0-1.47-.92-1.47-.92a7.4,7.4,0,0,0,.86,1.14c-.41.18-1.28-.86-1.28-.86a1.88,1.88,0,0,0-2.58.05c-1.28,1-1.05,1.87-1.05,1.87a1.06,1.06,0,0,0,.32.78,1.62,1.62,0,0,0,1.28.46,8.7,8.7,0,0,0,2.47-.46,7.88,7.88,0,0,0,1.42-.55,1.75,1.75,0,0,1,.4.05,1.89,1.89,0,0,1,1-.24c2-.18,7.75-2.28,7.75-2.28a12,12,0,0,0,2.2-1.83c.5.32.82,1.51.82,1.51a.84.84,0,0,0,.32-.42c.27,1,1.65,1.56,1.65,1.56a1.32,1.32,0,0,1,.73.46l.13-.42a20.38,20.38,0,0,0,3,2.16c1,.65,1.93,1.3,2.92,1.92,1.23-1.37,2.1-.56,2.1-.56a.49.49,0,0,1-.41.14,1.58,1.58,0,0,0-1.05.32c1.52-.22,1.79.28,1.79.28.31.73-.74,1.09-.74,1.09a.86.86,0,0,0-.75-1h-.2a1.3,1.3,0,0,1,.68,1c-.32.86-1.1.19-1.1.19a4.64,4.64,0,0,1-.69-.5,9.8,9.8,0,0,1-4.39-1.73L175,513a5,5,0,0,1-1.51-1.73c-.13-.23-.22-.41-.22-.41v.41a3.67,3.67,0,0,0,.54,1.19c-2,2.24-5.48.23-5.48.23-.41-.14-1.72-.86-1.72-.86a6.28,6.28,0,0,0-5.35,3.25l-.27.45c-.28,2.06-.92,2.06-.92,2.06a.85.85,0,0,0-.45-1.13h0a14,14,0,0,1-1.83,0,2.45,2.45,0,0,0-.14,2.52c1.6,0,.91,1.23.91,1.23a.56.56,0,0,1-.5.41,1.09,1.09,0,0,0-.94-1.23h-.25c1,.41.82,1,.82,1-.27,0-.55.41-.55.41a3,3,0,0,1-1.32-2.79c.18-3.15.86-3.75.86-3.75.23-.09.32,0,.32,0a2.41,2.41,0,0,0,1.59,0c.37-.08.47-.86.47-.86a5.46,5.46,0,0,1,1.09-2.29c-.59.28-3.93,1.15-3.93,1.15a2.72,2.72,0,0,0-2,1.72c-1-1.24.59-1.92.59-1.92A1.56,1.56,0,0,1,153.73,511.24Zm17.87-1.05a8.23,8.23,0,0,0,1.65,1.88,2.51,2.51,0,0,0,.37.27.62.62,0,0,1-.32.09,5.44,5.44,0,0,1-1.72-1.82c-.23-.46,0-.42,0-.42Zm-1.5,1a7,7,0,0,0,.86.95,3.23,3.23,0,0,0,1,.86,2.56,2.56,0,0,1-1.92-1.32c-.19-.37-.14-.51-.14-.51l.14.05Zm.77-.6a5.12,5.12,0,0,0,1.72,1.83c.33.09.24.32.24.32-.28,0-.37-.09-.37-.09a2.87,2.87,0,0,1-1.64-1.78c-.23-.51.09-.29.09-.29Z" transform="translate(-3 -3)"/><path class="cls-40" d="M442,457.24a11,11,0,1,1-11,11,11,11,0,0,1,11-11" transform="translate(-3 -3)"/><path class="cls-40" d="M470.54,457.24a11,11,0,1,1-11,11v0a11,11,0,0,1,11-11h0" transform="translate(-3 -3)"/><path class="cls-40" d="M499.12,457.24a11,11,0,1,1-11,11,11,11,0,0,1,11-11h0" transform="translate(-3 -3)"/><path class="cls-40" d="M442,484.84a11,11,0,1,1-11,11h0a11,11,0,0,1,11-11" transform="translate(-3 -3)"/><path class="cls-40" d="M470.54,484.84a11,11,0,1,1-11,11v0a11,11,0,0,1,11-11h0" transform="translate(-3 -3)"/><path class="cls-40" d="M488.11,495.84a11,11,0,1,1,11,11,11,11,0,0,1-11-11v0" transform="translate(-3 -3)"/><path class="cls-40" d="M442,512.59a11,11,0,1,1-11,11,11,11,0,0,1,11-11" transform="translate(-3 -3)"/><path class="cls-40" d="M470.54,512.59a11,11,0,1,1-11,11v0a11,11,0,0,1,11-11" transform="translate(-3 -3)"/><path class="cls-40" d="M488.11,523.61a11,11,0,1,1,11,11h0a11,11,0,0,1-11-11" transform="translate(-3 -3)"/><path class="cls-40" d="M537.25,475.09H579v12.49H537.25Zm50.41-17.85H527.87a8.5,8.5,0,0,0-8.51,8.5v29.77c0,6.33,4.33,9.15,8.61,9.15l8.51.09h42.46v12.06H528.09a8.91,8.91,0,0,0-1,17.76v.12h60.48c8.7,0,9.16-7.63,9.16-9.16v-59a8.81,8.81,0,0,0-9.12-9.33Z" transform="translate(-3 -3)"/><path d="M736.5,522.35h11.72l6.28-36H742.78l-2.32,12.88H730.31l2.31-12.88H720.91l-6.29,36h11.73l2.35-13.45h10.16Zm24.63-36-3.53,20a22.67,22.67,0,0,0-.45,4.5c0,10.6,9.27,12.21,14.84,12.21,11.67,0,16.7-3.87,18.54-14.34l3.92-22.41H782.7l-3.34,18.8c-1.08,5.88-1.83,9-6.18,9-2.85,0-4.23-1.52-4.23-4.64a25.24,25.24,0,0,1,.53-4.5l3.39-18.62H761.13Zm95.21,36h11.74l1.65-9.26h5.53c10.2,0,15.89-5.53,15.89-15.6,0-7.06-4.91-11.14-13.51-11.14h-15Zm18.27-18.13h-3.39l1.56-8.47H876c2.57,0,4,1.3,4,3.66,0,3-2,4.81-5.3,4.81Zm39.25-18.58c-12.75,0-20.36,8.23-20.36,22.06,0,9.62,6.06,15.42,16.21,15.42,12.75,0,20.36-8.25,20.36-22.07C930.07,491.38,924.05,485.64,913.86,485.64Zm-3.41,28.15c-3,0-4.81-2.18-4.81-5.83a20.23,20.23,0,0,1,.4-4c.88-4.73,2.41-9.05,7.17-9.05,3,0,4.82,2.19,4.82,5.84a21.21,21.21,0,0,1-.4,4C916.71,509.47,915.19,513.79,910.45,513.79Zm60.41,8.56h11.72L987.21,496H996l1.69-9.64h-30L966.06,496h9.36Zm-19.42-22.68c-3.69-1.16-5.2-1.64-5.2-3.38,0-1.16.76-2.54,3-2.54a3.73,3.73,0,0,1,3.53,2.32l10.34-2.81c-1.21-5.08-5.57-7.66-13.1-7.66-14.13,0-15.28,9.49-15.28,12.36,0,5.88,3.11,9.49,9.88,11.36,1.77.48,3.84,1,3.84,3,0,1.56-1.16,2.54-3.16,2.54a4.75,4.75,0,0,1-4.46-2.94l-10.21,2.76c1.13,5.35,6.18,8.38,14,8.38,6,0,16.08-1.61,16.08-12.48,0-5.43-3-9-9.31-10.92Z" transform="translate(-3 -3)"/><path class="cls-41" d="M708.07,522.35l6.33-36H695v36Zm294.67-36-6.29,36h19.42v-36Z" transform="translate(-3 -3)"/><path d="M808.4,511.75h9.85l1.6-9H810l1.11-6.68h13.77l1.69-9.71H801.1l-6.28,36h11.71Zm30.7,0H849l1.61-9h-9.88l1.12-6.68H855.6l1.7-9.71H831.84l-6.29,36h11.73Z" transform="translate(-3 -3)"/></svg>