<?xml version="1.0" encoding="UTF-8" standalone="no"?>
<svg width="14px" height="14px" viewBox="0 0 14 14" version="1.1" xmlns="http://www.w3.org/2000/svg" xmlns:xlink="http://www.w3.org/1999/xlink" xmlns:sketch="http://www.bohemiancoding.com/sketch/ns">
    <!-- Generator: Sketch 3.3.3 (12072) - http://www.bohemiancoding.com/sketch -->
    <title>Rectangle 364</title>
    <desc>Created with Sketch.</desc>
    <defs></defs>
    <g id="Final" stroke="none" stroke-width="1" fill="none" fill-rule="evenodd" sketch:type="MSPage">
        <g id="Community" sketch:type="MSArtboardGroup" transform="translate(-613.000000, -2333.000000)" fill="#C3CED4">
            <g id="Rectangle-67-+-Group-Copy-3-+-Rectangle-67-+-Group-Copy-6-+-Rectangle-67-+-Group-Copy-7" sketch:type="MSLayerGroup" transform="translate(170.000000, 2100.000000)">
                <g id="Rectangle-67-+-Group-Copy-6" transform="translate(320.000000, 0.000000)" sketch:type="MSShapeGroup">
                    <g id="Rectangle-67-+-Group-Copy-3">
                        <g id="Group">
                            <g id="Group-+-239-+-20-+-Rectangle-364-+-20-+-Rectangle-364-Copy-+-Oval-43-Copy-Copy-Copy-Copy" transform="translate(20.000000, 227.000000)">
                                <g id="20-+-Rectangle-364" transform="translate(103.000000, 1.000000)">
                                    <path d="M8,15 L11.9941413,15 C13.1029399,15 14,14.1047419 14,13.000385 L14,6.99961498 C14,5.88743329 13.1019465,5 11.9941413,5 L2.00585866,5 C0.897060126,5 0,5.89525812 0,6.99961498 L0,13.000385 C0,14.1125667 0.898053512,15 2.00585866,15 L3,15 L3,18.0020869 C3,19.1017394 3.63321196,19.366788 4.4143185,18.5856815 L8,15 Z" id="Rectangle-364" transform="translate(7.000000, 12.017385) scale(-1, 1) translate(-7.000000, -12.017385) "></path>
                                </g>
                            </g>
                        </g>
                    </g>
                </g>
            </g>
        </g>
    </g>
</svg>