<?xml version="1.0" encoding="UTF-8" standalone="no"?>
<svg width="143px" height="35px" viewBox="0 0 143 35" version="1.1" xmlns="http://www.w3.org/2000/svg" xmlns:xlink="http://www.w3.org/1999/xlink" xmlns:sketch="http://www.bohemiancoding.com/sketch/ns">
    <!-- Generator: Sketch 3.3.3 (12072) - http://www.bohemiancoding.com/sketch -->
    <title>Imported Layers</title>
    <desc>Created with Sketch.</desc>
    <defs></defs>
    <g id="About" stroke="none" stroke-width="1" fill="none" fill-rule="evenodd" sketch:type="MSPage">
        <g id="Artboard" sketch:type="MSArtboardGroup" transform="translate(-1607.000000, -153.000000)" fill="#FFFFFF">
            <g id="Rectangle-56-Copy-3-+-Bitmap" sketch:type="MSLayerGroup" transform="translate(1537.000000, 70.000000)">
                <path d="M175,84 L144,84 L144,116 L175,116 L175,110 L150,110 L150,103 L171,103 L171,97 L150,97 L150,90 L175,90 L175,84 M101,84 L70,84 L70,90 L82,90 L82,110 L70,110 L70,116 L101,116 L101,110 L89,110 L89,90 L101,90 L101,84 M123,84 L108,84 L108,116 L123,116 L123,116 C132.593333,115.880716 139,108.893899 139,100 C139,91.0333667 132.733571,84.2603873 123,84 L123,84 M114,90 L123,90 C128.523307,90.1428571 132,94.2971429 132,100 C132,105.737143 128.485039,109.9 123,110 L114,110 L114,90 Z M196,112 C189.928196,112 185,106.848562 185,100 C185,94.151438 189.928196,89 196,89 C202.074692,89 207,94.151438 207,100 C207,106.848562 202.074692,112 196,112 M196,83 C186.609781,83 179,90.8370833 179,100 C179,110.162917 186.609781,118 196,118 C205.388758,118 213,110.162917 213,100 C213,90.8370833 205.388758,83 196,83" id="Imported-Layers" sketch:type="MSShapeGroup"></path>
            </g>
        </g>
    </g>
</svg>