<?xml version="1.0" encoding="UTF-8" standalone="no"?>
<svg width="16px" height="12px" viewBox="0 0 16 12" version="1.1" xmlns="http://www.w3.org/2000/svg" xmlns:xlink="http://www.w3.org/1999/xlink" xmlns:sketch="http://www.bohemiancoding.com/sketch/ns">
    <!-- Generator: Sketch 3.3.3 (12072) - http://www.bohemiancoding.com/sketch -->
    <title>Rectangle 362 Copy 2</title>
    <desc>Created with Sketch.</desc>
    <defs></defs>
    <g id="Final" stroke="none" stroke-width="1" fill="none" fill-rule="evenodd" sketch:type="MSPage">
        <g id="Community" sketch:type="MSArtboardGroup" transform="translate(-557.000000, -2333.000000)" fill="#C3CED4">
            <g id="Rectangle-67-+-Group-Copy-3-+-Rectangle-67-+-Group-Copy-6-+-Rectangle-67-+-Group-Copy-7" sketch:type="MSLayerGroup" transform="translate(170.000000, 2100.000000)">
                <g id="Rectangle-67-+-Group-Copy-6" transform="translate(320.000000, 0.000000)" sketch:type="MSShapeGroup">
                    <g id="Rectangle-67-+-Group-Copy-3">
                        <g id="Group">
                            <g id="Group-+-239-+-20-+-Rectangle-364-+-20-+-Rectangle-364-Copy-+-Oval-43-Copy-Copy-Copy-Copy" transform="translate(20.000000, 227.000000)">
                                <g id="Group-+-239" transform="translate(45.000000, 0.000000)">
                                    <g id="Group" transform="translate(10.000000, 9.849242) rotate(-315.000000) translate(-10.000000, -9.849242) translate(3.500000, 3.349242)">
                                        <path d="M3.76345597,12.263456 L11.2550154,12.263456 C11.5316544,12.263456 11.7845244,12.1504512 11.9678528,11.9678913 L11.9720998,11.9698941 C12.1532623,11.7872616 12.263456,11.5344071 12.263456,11.2550154 L12.263456,3.76345629 L12.263456,3.76345597 C12.263456,1.83045934 10.6964526,0.263455967 8.76345597,0.263455967 C6.83045934,0.263455967 5.26345597,1.83045934 5.26345597,3.76345597 L5.26345597,5.26345597 L3.76345597,5.26345597 C1.83045934,5.26345597 0.263455967,6.83045934 0.263455967,8.76345597 C0.263455967,10.6964526 1.83045934,12.263456 3.76345597,12.263456 Z" id="Rectangle-362-Copy-2"></path>
                                    </g>
                                </g>
                            </g>
                        </g>
                    </g>
                </g>
            </g>
        </g>
    </g>
</svg>