<?xml version="1.0" encoding="UTF-8" standalone="no"?>
<svg width="16px" height="12px" viewBox="0 0 16 12" version="1.1" xmlns="http://www.w3.org/2000/svg" xmlns:xlink="http://www.w3.org/1999/xlink" xmlns:sketch="http://www.bohemiancoding.com/sketch/ns">
    <!-- Generator: Sketch 3.3.3 (12072) - http://www.bohemiancoding.com/sketch -->
    <title>Oval 43</title>
    <desc>Created with Sketch.</desc>
    <defs></defs>
    <g id="Final" stroke="none" stroke-width="1" fill="none" fill-rule="evenodd" sketch:type="MSPage">
        <g id="Community" sketch:type="MSArtboardGroup" transform="translate(-510.000000, -2333.000000)" fill="#C3CDD4">
            <g id="Rectangle-67-+-Group-Copy-3-+-Rectangle-67-+-Group-Copy-6-+-Rectangle-67-+-Group-Copy-7" sketch:type="MSLayerGroup" transform="translate(170.000000, 2100.000000)">
                <g id="Rectangle-67-+-Group-Copy-6" transform="translate(320.000000, 0.000000)" sketch:type="MSShapeGroup">
                    <g id="Rectangle-67-+-Group-Copy-3">
                        <g id="Group">
                            <g id="Group-+-239-+-20-+-Rectangle-364-+-20-+-Rectangle-364-Copy-+-Oval-43-Copy-Copy-Copy-Copy" transform="translate(20.000000, 227.000000)">
                                <g id="20-+-Rectangle-364-Copy-+-Oval-43" transform="translate(0.000000, 1.000000)">
                                    <path d="M10.9887926,10.7388704 C10.9962128,10.8249263 11,10.9120209 11,11 C11,12.6568542 9.65685425,14 8,14 C6.34314575,14 5,12.6568542 5,11 C5,9.34314575 6.34314575,8 8,8 C8.08797911,8 8.17507368,8.00378716 8.26112958,8.01120735 C8.09494129,8.30283399 8,8.64032963 8,9 C8,10.1045695 8.8954305,11 10,11 C10.3596704,11 10.697166,10.9050587 10.9887926,10.7388704 Z M15.747965,11 C14.8598794,14.4504544 11.7276789,17 8,17 C4.27232114,17 1.14012056,14.4504544 0.25203497,11 C1.14012056,7.54954557 4.27232114,5 8,5 C11.7276789,5 14.8598794,7.54954557 15.747965,11 L15.747965,11 Z" id="Oval-43"></path>
                                </g>
                            </g>
                        </g>
                    </g>
                </g>
            </g>
        </g>
    </g>
</svg>