<svg width="372" height="203" viewBox="0 0 372 203" fill="none" xmlns="http://www.w3.org/2000/svg">
<g clip-path="url(#clip0_1571_328404)">
<rect width="377" height="203" fill="#0A047A"/>
<path d="M373.686 34.6538C372.166 34.652 370.655 34.8945 369.211 35.3721L387.716 46.0533C387.043 42.831 385.281 39.9385 382.726 37.8624C380.171 35.7864 376.979 34.6533 373.686 34.6538V34.6538Z" fill="#2B6AFF" stroke="#2B6AFF" stroke-width="0.651686" stroke-linecap="round" stroke-linejoin="round"/>
<path d="M567.096 246.069L414.272 157.861L414.271 199.21L266.221 113.76V86.1941L309.207 61.3799L359.35 90.327L359.357 18.6529L447.705 -32.4282L567.125 36.5704L567.096 246.069Z" fill="url(#paint0_linear_1571_328404)"/>
<path d="M237.569 130.295V196.807L307.45 237.144L307.348 170.571L237.569 130.295Z" fill="#FF80ED" stroke="#2B6AFF" stroke-width="0.651686" stroke-linecap="round" stroke-linejoin="round"/>
<path d="M459.124 53.1109H307.348" stroke="#2B6AFF" stroke-width="0.651686" stroke-linecap="round" stroke-linejoin="round"/>
<path d="M307.348 53.1109V202.438C307.348 213.678 314.732 224.924 329.506 233.45C359.059 250.509 407.413 250.509 436.961 233.45C451.74 224.919 459.124 213.678 459.124 202.438V53.1109H307.348Z" fill="url(#paint1_linear_1571_328404)" stroke="#2B6AFF" stroke-width="0.651686" stroke-linecap="round" stroke-linejoin="round"/>
<path d="M307.348 53.1122C307.348 64.3527 314.732 75.5983 329.506 84.1248C359.059 101.183 407.413 101.183 436.961 84.1248C451.74 75.5931 459.124 64.3527 459.124 53.1122C459.124 41.8718 451.74 30.6262 436.966 22.0997C425.163 15.2816 410.359 11.1927 394.949 9.82293C387.154 9.13552 379.313 9.13552 371.518 9.82293C359.823 10.8644 348.472 13.4757 338.517 17.6569L338.563 17.6825L339.051 17.9647L369.209 35.3666L387.713 46.0478L420.242 64.8247C424.84 67.477 424.301 72.1302 419.052 75.1622C413.797 78.1942 405.74 78.5071 401.143 75.8548C400.008 75.1981 392.876 71.0836 386.856 67.6104L385.861 67.0358C385.697 66.9435 385.537 66.846 385.373 66.7537L384.429 66.2098C380.868 64.1526 378.158 62.5879 378.158 62.5879C378.158 62.5879 322.383 30.2722 320.351 29.2205L319.848 28.9332C311.515 36.2234 307.348 44.6678 307.348 53.1122Z" fill="url(#paint2_linear_1571_328404)" stroke="#2B6AFF" stroke-width="0.651686" stroke-linecap="round" stroke-linejoin="round"/>
<path d="M401.146 75.8547C405.744 78.507 413.801 78.1941 419.056 75.1621C424.305 72.1301 424.844 67.4769 420.246 64.8246L338.521 17.6569C338.521 17.6569 341.863 29.2205 330.59 35.0745L401.146 75.8547Z" fill="#0A047A" stroke="#2B6AFF" stroke-width="0.651686" stroke-linecap="round" stroke-linejoin="round"/>
<path d="M307.45 53.2778C307.45 64.5107 314.829 75.7487 329.593 84.2694C359.126 101.316 407.448 101.316 436.976 84.2694C451.745 75.7435 459.124 64.5107 459.124 53.2778" stroke="#2B6AFF" stroke-width="0.651686" stroke-linecap="round" stroke-linejoin="round"/>
<path d="M307.348 68.3856C307.348 79.626 314.732 90.8715 329.506 99.3981C359.059 116.456 407.413 116.456 436.961 99.3981C451.74 90.8664 459.124 79.626 459.124 68.3856" stroke="#2B6AFF" stroke-width="0.651686" stroke-linecap="round" stroke-linejoin="round"/>
<path d="M307.348 83.5588C307.348 94.7993 314.732 106.045 329.506 114.571C359.059 131.629 407.413 131.629 436.961 114.571C451.74 106.04 459.124 94.7993 459.124 83.5588" stroke="#2B6AFF" stroke-width="0.651686" stroke-linecap="round" stroke-linejoin="round"/>
<path d="M307.348 98.7322C307.348 109.973 314.732 121.218 329.506 129.745C359.059 146.803 407.413 146.803 436.961 129.745C451.74 121.213 459.124 109.973 459.124 98.7322" stroke="#2B6AFF" stroke-width="0.651686" stroke-linecap="round" stroke-linejoin="round"/>
<path d="M307.348 113.906C307.348 125.146 314.732 136.392 329.506 144.918C359.059 161.976 407.413 161.976 436.961 144.918C451.74 136.386 459.124 125.146 459.124 113.906" stroke="#2B6AFF" stroke-width="0.651686" stroke-linecap="round" stroke-linejoin="round"/>
<path d="M307.348 129.073C307.348 140.313 314.732 151.559 329.506 160.085C359.059 177.144 407.413 177.144 436.961 160.085C451.74 151.554 459.124 140.313 459.124 129.073" stroke="#2B6AFF" stroke-width="0.651686" stroke-linecap="round" stroke-linejoin="round"/>
<path d="M307.348 144.246C307.348 155.487 314.732 166.732 329.506 175.259C359.059 192.317 407.413 192.317 436.961 175.259C451.74 166.727 459.124 155.487 459.124 144.246" stroke="#2B6AFF" stroke-width="0.651686" stroke-linecap="round" stroke-linejoin="round"/>
<path d="M307.348 159.419C307.348 170.66 314.732 181.906 329.506 190.432C359.059 207.49 407.413 207.49 436.961 190.432C451.74 181.9 459.124 170.66 459.124 159.419" stroke="#2B6AFF" stroke-width="0.651686" stroke-linecap="round" stroke-linejoin="round"/>
<path d="M307.348 174.593C307.348 185.833 314.732 197.079 329.506 205.605C359.059 222.664 407.413 222.664 436.961 205.605C451.74 197.074 459.124 185.833 459.124 174.593" stroke="#2B6AFF" stroke-width="0.651686" stroke-linecap="round" stroke-linejoin="round"/>
<path d="M307.348 189.766C307.348 201.007 314.732 212.252 329.506 220.779C359.059 237.837 407.413 237.837 436.961 220.779C451.74 212.247 459.124 201.007 459.124 189.766" stroke="#2B6AFF" stroke-width="0.651686" stroke-linecap="round" stroke-linejoin="round"/>
<path d="M507.397 181.294L476.355 163.377L290.103 270.881L321.148 288.797L507.397 181.294Z" fill="#0A047A" stroke="#2B6AFF" stroke-width="0.651686" stroke-linecap="round" stroke-linejoin="round"/>
<path d="M507.4 181.297L507.409 195.076L321.151 302.582L321.151 288.8L507.4 181.297Z" fill="#FF80ED" stroke="#2B6AFF" stroke-width="0.651686" stroke-linecap="round" stroke-linejoin="round"/>
<path d="M237.572 177.078L278.171 200.51L237.572 223.944L196.979 200.51L237.572 177.078Z" fill="url(#paint3_linear_1571_328404)" stroke="#2B6AFF" stroke-width="0.651686" stroke-linecap="round" stroke-linejoin="round"/>
<path d="M237.572 223.945V273.637L278.165 250.207V200.511L237.572 223.945Z" fill="#2B6AFF" stroke="#2B6AFF" stroke-width="0.651686" stroke-linecap="round" stroke-linejoin="round"/>
<path d="M237.573 223.945V273.637L196.981 250.207V200.511L237.573 223.945Z" fill="#FEC810" stroke="#2B6AFF" stroke-width="0.651686" stroke-linecap="round" stroke-linejoin="round"/>
<path d="M196.977 200.511L201.756 203.344V208.859L196.977 206.101V200.511Z" fill="#FF80ED" stroke="#2B6AFF" stroke-width="0.651686" stroke-linecap="round" stroke-linejoin="round"/>
<path d="M237.573 196.456L268.615 178.538L428.604 270.883L397.559 288.799L237.573 196.456Z" fill="#FEC810" stroke="#2B6AFF" stroke-width="0.651686" stroke-linecap="round" stroke-linejoin="round"/>
<path d="M237.574 196.453V210.236L397.561 302.578L397.56 288.796L237.574 196.453Z" fill="#EFEEEA" stroke="#2B6AFF" stroke-width="0.651686" stroke-linecap="round" stroke-linejoin="round"/>
<path d="M308.792 201.721L277.743 219.64" stroke="#2B6AFF" stroke-width="0.651686" stroke-linecap="round" stroke-linejoin="round"/>
<path d="M304.369 199.171L273.32 217.089" stroke="#2B6AFF" stroke-width="0.651686" stroke-linecap="round" stroke-linejoin="round"/>
<path d="M299.941 196.614L268.892 214.532" stroke="#2B6AFF" stroke-width="0.651686" stroke-linecap="round" stroke-linejoin="round"/>
<path d="M295.52 194.063L264.47 211.981" stroke="#2B6AFF" stroke-width="0.651686" stroke-linecap="round" stroke-linejoin="round"/>
<path d="M291.092 191.506L260.042 209.424" stroke="#2B6AFF" stroke-width="0.651686" stroke-linecap="round" stroke-linejoin="round"/>
<path d="M286.669 188.95L255.619 206.868" stroke="#2B6AFF" stroke-width="0.651686" stroke-linecap="round" stroke-linejoin="round"/>
<path d="M282.241 186.399L251.19 204.317" stroke="#2B6AFF" stroke-width="0.651686" stroke-linecap="round" stroke-linejoin="round"/>
<path d="M277.819 183.848L246.768 201.766" stroke="#2B6AFF" stroke-width="0.651686" stroke-linecap="round" stroke-linejoin="round"/>
<path d="M273.397 181.292L242.346 199.209" stroke="#2B6AFF" stroke-width="0.651686" stroke-linecap="round" stroke-linejoin="round"/>
<path d="M237.571 130.292L307.35 170.57V90.0192L237.571 130.292Z" fill="url(#paint4_linear_1571_328404)" stroke="#2B6AFF" stroke-width="0.651686" stroke-linecap="round" stroke-linejoin="round"/>
<path d="M239.97 109.63L239.978 77.9377C239.978 76.6786 240.309 75.4418 240.939 74.3511C241.568 73.2605 242.473 72.3543 243.563 71.7235L249.515 68.2783L266.222 77.9216L256.685 105.494L256.676 119.274L239.97 109.63Z" fill="#FEC810" stroke="#2B6AFF" stroke-width="0.651686" stroke-linecap="round" stroke-linejoin="round"/>
<path d="M266.222 113.764V77.921L260.269 81.3663C259.179 81.9971 258.274 82.9033 257.645 83.9939C257.016 85.0846 256.685 86.3214 256.684 87.5805L256.676 119.273" fill="#2B6AFF"/>
<path d="M266.222 113.764V77.921L260.269 81.3663C259.179 81.9971 258.274 82.9033 257.645 83.9939C257.016 85.0846 256.685 86.3214 256.684 87.5805L256.676 119.273" stroke="#2B6AFF" stroke-width="0.651686" stroke-linecap="round" stroke-linejoin="round"/>
<path d="M230.416 115.137L230.424 83.4445C230.424 82.1854 230.756 80.9486 231.385 79.8579C232.014 78.7673 232.919 77.8611 234.009 77.2303L239.961 73.785L256.668 83.4284L247.131 111L247.122 124.78L230.416 115.137Z" fill="#FF80ED" stroke="#2B6AFF" stroke-width="0.651686" stroke-linecap="round" stroke-linejoin="round"/>
<path d="M256.668 119.271V83.4277L250.715 86.8731C249.625 87.5039 248.721 88.41 248.091 89.5007C247.462 90.5913 247.131 91.8281 247.131 93.0872L247.123 124.78" fill="#0A047A"/>
<path d="M256.668 119.271V83.4277L250.715 86.8731C249.625 87.5039 248.721 88.41 248.091 89.5007C247.462 90.5913 247.131 91.8281 247.131 93.0872L247.123 124.78" stroke="#2B6AFF" stroke-width="0.651686" stroke-linecap="round" stroke-linejoin="round"/>
<path d="M220.863 186.807L220.871 88.9571C220.872 87.6981 221.203 86.4613 221.832 85.3706C222.461 84.28 223.366 83.3738 224.456 82.743L230.409 79.2977L247.115 88.9411L237.578 116.513L237.57 177.239L220.863 186.807Z" fill="#EFEEEA" stroke="#2B6AFF" stroke-width="0.651686" stroke-linecap="round" stroke-linejoin="round"/>
<path d="M247.115 124.784V88.9404L241.163 92.3857C240.073 93.0165 239.168 93.9227 238.539 95.0133C237.909 96.104 237.578 97.3408 237.578 98.5999L237.57 130.292" fill="#FEC810"/>
<path d="M247.115 124.784V88.9404L241.163 92.3857C240.073 93.0165 239.168 93.9227 238.539 95.0133C237.909 96.104 237.578 97.3408 237.578 98.5999L237.57 130.292" stroke="#2B6AFF" stroke-width="0.651686" stroke-linecap="round" stroke-linejoin="round"/>
<path d="M237.572 122.019L247.13 116.51L278.153 134.434L268.631 139.948L237.572 122.019Z" fill="#FEC810" stroke="#2B6AFF" stroke-width="0.651686" stroke-linecap="round" stroke-linejoin="round"/>
<path d="M237.57 122.017V130.294L268.614 148.206L268.629 139.946L237.57 122.017Z" fill="#2B6AFF" stroke="#2B6AFF" stroke-width="0.651686" stroke-linecap="round" stroke-linejoin="round"/>
<path d="M278.165 134.437V142.706L268.624 148.211V139.942L278.165 134.437Z" fill="#0A047A" stroke="#2B6AFF" stroke-width="0.651686" stroke-linecap="round" stroke-linejoin="round"/>
<path d="M263.819 134.427C263.819 134.427 248.433 125.537 247.12 124.778C245.807 124.019 245.807 122.778 247.119 122.019C247.859 121.645 248.677 121.45 249.506 121.45C250.335 121.451 251.153 121.646 251.893 122.02C253.206 122.779 268.617 131.666 268.617 131.666L263.819 134.427Z" fill="#0A047A" stroke="#2B6AFF" stroke-width="0.651686" stroke-linecap="round" stroke-linejoin="round"/>
<path d="M262.843 132.94V127.529L269.577 127.532V133.046C269.551 133.343 269.446 133.627 269.273 133.869C269.1 134.112 268.865 134.304 268.593 134.426C267.853 134.8 267.036 134.994 266.206 134.994C265.377 134.994 264.56 134.799 263.82 134.425C263.53 134.3 263.282 134.093 263.109 133.829C262.935 133.565 262.843 133.256 262.843 132.94V132.94Z" fill="#FEC810" stroke="#2B6AFF" stroke-width="0.651686" stroke-linecap="round" stroke-linejoin="round"/>
<path d="M263.818 126.155C264.558 125.781 265.376 125.586 266.205 125.586C267.035 125.587 267.852 125.782 268.592 126.156C269.905 126.915 269.906 128.156 268.593 128.915C267.853 129.288 267.036 129.483 266.206 129.483C265.377 129.483 264.56 129.288 263.82 128.914C262.507 128.155 262.506 126.914 263.818 126.155Z" fill="#EFEEEA" stroke="#2B6AFF" stroke-width="0.651686" stroke-linecap="round" stroke-linejoin="round"/>
<path d="M307.35 101.05L275.783 119.272L302.039 134.437L280.559 146.836L273.392 142.701" stroke="#2B6AFF" stroke-width="0.651686" stroke-linecap="round" stroke-linejoin="round"/>
<path d="M247.127 136.499V182.671L216.083 200.59L206.534 195.076" stroke="#2B6AFF" stroke-width="0.651686" stroke-linecap="round" stroke-linejoin="round"/>
<path d="M220.851 134.437L219.962 134.95" stroke="#2B6AFF" stroke-width="0.651686" stroke-linecap="round" stroke-linejoin="round"/>
<path d="M218.229 135.95L184.409 155.47" stroke="#2B6AFF" stroke-width="0.651686" stroke-linecap="round" stroke-linejoin="round" stroke-dasharray="1.27 1.27"/>
<path d="M183.543 155.969L182.654 156.482V157.508" stroke="#2B6AFF" stroke-width="0.651686" stroke-linecap="round" stroke-linejoin="round"/>
<path d="M182.655 156.791V190.302" stroke="#2B6AFF" stroke-width="0.651686" stroke-linecap="round" stroke-linejoin="round" stroke-dasharray="1.26 1.26"/>
<path d="M182.654 191.298V192.324L183.543 191.811" stroke="#2B6AFF" stroke-width="0.651686" stroke-linecap="round" stroke-linejoin="round"/>
<path d="M183.195 192.103L219.104 171.273" stroke="#2B6AFF" stroke-width="0.651686" stroke-linecap="round" stroke-linejoin="round" stroke-dasharray="1.27 1.27"/>
<path d="M219.974 170.773L220.862 170.26" stroke="#2B6AFF" stroke-width="0.651686" stroke-linecap="round" stroke-linejoin="round"/>
<path d="M208.92 160.617L154 192.318" stroke="#2B6AFF" stroke-width="0.651686" stroke-linecap="round" stroke-linejoin="round"/>
<path d="M359.355 48.9825C359.353 49.9668 359.455 50.9486 359.657 51.9119L378.162 62.5931C381.03 61.6518 383.527 59.8291 385.297 57.3849C387.067 54.9408 388.02 52.0001 388.02 48.9825C388.021 47.9981 387.92 47.0163 387.717 46.0531C386.992 42.5827 385.006 39.5043 382.142 37.4128C379.279 35.3213 375.742 34.3654 372.214 34.7297C368.687 35.094 365.42 36.7528 363.045 39.3853C360.669 42.0178 359.355 45.4372 359.355 48.9825V48.9825Z" fill="url(#paint5_linear_1571_328404)" stroke="#2B6AFF" stroke-width="0.651686" stroke-linecap="round" stroke-linejoin="round"/>
<rect width="372" height="203" fill="url(#paint6_linear_1571_328404)"/>
</g>
<defs>
<linearGradient id="paint0_linear_1571_328404" x1="434.009" y1="-61.1608" x2="433.496" y2="374.4" gradientUnits="userSpaceOnUse">
<stop stop-color="#0A047A"/>
<stop offset="1" stop-color="#3874FF"/>
</linearGradient>
<linearGradient id="paint1_linear_1571_328404" x1="283.728" y1="42.4597" x2="426.363" y2="224.494" gradientUnits="userSpaceOnUse">
<stop stop-color="#EFEEEA"/>
<stop offset="1" stop-color="#3874FF"/>
</linearGradient>
<linearGradient id="paint2_linear_1571_328404" x1="377.977" y1="-14.2807" x2="390.274" y2="143.378" gradientUnits="userSpaceOnUse">
<stop stop-color="#0A047A"/>
<stop offset="0.022" stop-color="#0B077E"/>
<stop offset="0.4744" stop-color="#2341C3"/>
<stop offset="0.8008" stop-color="#3266EE"/>
<stop offset="0.9663" stop-color="#3874FF"/>
</linearGradient>
<linearGradient id="paint3_linear_1571_328404" x1="-127041" y1="30650" x2="-128840" y2="24913.6" gradientUnits="userSpaceOnUse">
<stop offset="0.1668" stop-color="#FEC810"/>
<stop offset="1" stop-color="#FF80ED"/>
</linearGradient>
<linearGradient id="paint4_linear_1571_328404" x1="352.976" y1="174.23" x2="248.144" y2="90.7627" gradientUnits="userSpaceOnUse">
<stop offset="0.4475" stop-color="#0A047A"/>
<stop offset="0.4594" stop-color="#0B077E"/>
<stop offset="0.7022" stop-color="#2341C3"/>
<stop offset="0.8774" stop-color="#3266EE"/>
<stop offset="0.9663" stop-color="#3874FF"/>
</linearGradient>
<linearGradient id="paint5_linear_1571_328404" x1="-37575.3" y1="7103.52" x2="-38520.3" y2="8950.28" gradientUnits="userSpaceOnUse">
<stop offset="0.1668" stop-color="#FEC810"/>
<stop offset="1" stop-color="#FF80ED"/>
</linearGradient>
<linearGradient id="paint6_linear_1571_328404" x1="342.398" y1="290.5" x2="169.996" y2="31.1112" gradientUnits="userSpaceOnUse">
<stop stop-color="#0A047A"/>
<stop offset="1" stop-color="#0A047A" stop-opacity="0"/>
</linearGradient>
<clipPath id="clip0_1571_328404">
<rect width="372" height="203" fill="white"/>
</clipPath>
</defs>
</svg>
