<svg id="eh6svhndp921" xmlns="http://www.w3.org/2000/svg" xmlns:xlink="http://www.w3.org/1999/xlink" viewBox="0 0 1052.310000 874.440000" shape-rendering="geometricPrecision" text-rendering="geometricPrecision"><style><![CDATA[#eh6svhndp9210 {animation: eh6svhndp9210_s_do 14000ms linear infinite normal forwards}@keyframes eh6svhndp9210_s_do { 0% {stroke-dashoffset: 410.780000} 18.571429% {stroke-dashoffset: 410.780000} 30% {stroke-dashoffset: 0} 58.571429% {stroke-dashoffset: 0;animation-timing-function: cubic-bezier(0.420000,0,0.580000,1)} 70% {stroke-dashoffset: -410.780000} 100% {stroke-dashoffset: -410.780000} }#eh6svhndp9220 {
           animation-name: eh6svhndp9220_c_o, eh6svhndp9220_s_do, eh6svhndp9220_s_da;
           animation-duration: 14000ms;
           animation-fill-mode: forwards;
           animation-timing-function: linear;
           animation-direction: normal;
           animation-iteration-count: infinite;  
        }@keyframes eh6svhndp9220_c_o { 0% {opacity: 1} 15.714286% {opacity: 1} 45% {opacity: 1} 70.714286% {opacity: 1} 100% {opacity: 1} }@keyframes eh6svhndp9220_s_do { 0% {stroke-dashoffset: 403.140000} 15.714286% {stroke-dashoffset: 403.140000} 30% {stroke-dashoffset: 810} 58.571429% {stroke-dashoffset: 810} 70% {stroke-dashoffset: 1209} 100% {stroke-dashoffset: 1209} }@keyframes eh6svhndp9220_s_da { 0% {stroke-dasharray: 403.140000} 15.714286% {stroke-dasharray: 403.140000} 70% {stroke-dasharray: 403.140000} 70.714286% {stroke-dasharray: 403.140000} 100% {stroke-dasharray: 403.140000} }#eh6svhndp9226 {
           animation-name: eh6svhndp9226_c_o, eh6svhndp9226_s_o, eh6svhndp9226_s_do;
           animation-duration: 14000ms;
           animation-fill-mode: forwards;
           animation-timing-function: linear;
           animation-direction: normal;
           animation-iteration-count: infinite;  
        }@keyframes eh6svhndp9226_c_o { 0% {opacity: 1} 5.714286% {opacity: 1} 61.428571% {opacity: 1} 62.857143% {opacity: 0} 100% {opacity: 0} }@keyframes eh6svhndp9226_s_o { 0% {stroke-opacity: 1} 5.714286% {stroke-opacity: 1} 61.428571% {stroke-opacity: 1} 62.857143% {stroke-opacity: 0} 100% {stroke-opacity: 0} }@keyframes eh6svhndp9226_s_do { 0% {stroke-dashoffset: 166.110000} 5.714286% {stroke-dashoffset: 166.110000} 12.857143% {stroke-dashoffset: 0;animation-timing-function: cubic-bezier(0.420000,0,0.580000,1)} 52.142857% {stroke-dashoffset: 0} 62.857143% {stroke-dashoffset: -166.110000} 100% {stroke-dashoffset: -166.110000} }#eh6svhndp9231 {
           animation-name: eh6svhndp9231_s_o, eh6svhndp9231_s_do;
           animation-duration: 14000ms;
           animation-fill-mode: forwards;
           animation-timing-function: linear;
           animation-direction: normal;
           animation-iteration-count: infinite;  
        }@keyframes eh6svhndp9231_s_o { 0% {stroke-opacity: 1} 80% {stroke-opacity: 1} 80.714286% {stroke-opacity: 0} 100% {stroke-opacity: 0} }@keyframes eh6svhndp9231_s_do { 0% {stroke-dashoffset: 3544} 54.285714% {stroke-dashoffset: 2205.140000} 80% {stroke-dashoffset: 1182} 100% {stroke-dashoffset: 1182} }#eh6svhndp9232 {animation: eh6svhndp9232_c_o 14000ms linear infinite normal forwards}@keyframes eh6svhndp9232_c_o { 0% {opacity: 0.420000} 25% {opacity: 0.420000} 26.500000% {opacity: 1} 67.142857% {opacity: 1} 68.571429% {opacity: 0.420000} 100% {opacity: 0.420000} }#eh6svhndp9240 {animation: eh6svhndp9240_c_o 14000ms linear infinite normal forwards}@keyframes eh6svhndp9240_c_o { 0% {opacity: 0.420000} 15.714286% {opacity: 0.420000} 17.214286% {opacity: 1} 60.785714% {opacity: 1} 62.142857% {opacity: 0.420000} 100% {opacity: 0.420000} }#eh6svhndp9241 {animation: eh6svhndp9241_c_o 14000ms linear infinite normal forwards}@keyframes eh6svhndp9241_c_o { 0% {opacity: 0.420000} 4.214286% {opacity: 0.420000} 5.714286% {opacity: 1} 53.642857% {opacity: 1} 55% {opacity: 0.420000} 100% {opacity: 0.420000} }#eh6svhndp9242 {animation: eh6svhndp9242_c_o 14000ms linear infinite normal forwards}@keyframes eh6svhndp9242_c_o { 0% {opacity: 0.420000} 28.571429% {opacity: 0.420000} 30.071429% {opacity: 1} 65.714286% {opacity: 1} 70% {opacity: 0.500000} 100% {opacity: 0.500000} }#eh6svhndp9249 {animation: eh6svhndp9249_c_o 14000ms linear infinite normal forwards}@keyframes eh6svhndp9249_c_o { 0% {opacity: 0.420000} 39.285714% {opacity: 0.420000} 40.785714% {opacity: 1} 75.714286% {opacity: 1} 77.071429% {opacity: 0.420000} 100% {opacity: 0.420000} }#eh6svhndp9250 {animation: eh6svhndp9250_c_o 14000ms linear infinite normal forwards}@keyframes eh6svhndp9250_c_o { 0% {opacity: 0.420000} 44.285714% {opacity: 0.420000} 45.785714% {opacity: 1} 78.571429% {opacity: 1} 82.857143% {opacity: 0.500000} 100% {opacity: 0.500000} }#eh6svhndp9258 {
           animation-name: eh6svhndp9258_s_o, eh6svhndp9258_s_do, eh6svhndp9258_s_da;
           animation-duration: 14000ms;
           animation-fill-mode: forwards;
           animation-timing-function: linear;
           animation-direction: normal;
           animation-iteration-count: infinite;  
        }@keyframes eh6svhndp9258_s_o { 0% {stroke-opacity: 1} 72.857143% {stroke-opacity: 1} 73.571429% {stroke-opacity: 0} 100% {stroke-opacity: 0} }@keyframes eh6svhndp9258_s_do { 0% {stroke-dashoffset: -551.230000} 27.142857% {stroke-dashoffset: -551.230000} 33.571429% {stroke-dashoffset: 0;animation-timing-function: cubic-bezier(0.420000,0,0.580000,1)} 64.285714% {stroke-dashoffset: 0;animation-timing-function: cubic-bezier(0.420000,0,0.580000,1)} 72.857143% {stroke-dashoffset: 551.230000} 100% {stroke-dashoffset: 551.230000} }@keyframes eh6svhndp9258_s_da { 0% {stroke-dasharray: 551.230000} 27.142857% {stroke-dasharray: 551.230000} 72.857143% {stroke-dasharray: 551.230000} 100% {stroke-dasharray: 551.230000} }#eh6svhndp9259 {animation: eh6svhndp9259_s_do 14000ms linear infinite normal forwards}@keyframes eh6svhndp9259_s_do { 0% {stroke-dashoffset: -507.840000} 40% {stroke-dashoffset: -507.840000} 44.285714% {stroke-dashoffset: 0;animation-timing-function: cubic-bezier(0.420000,0,0.580000,1)} 74.285714% {stroke-dashoffset: 0;animation-timing-function: cubic-bezier(0.420000,0,0.580000,1)} 85.714286% {stroke-dashoffset: 507.840000} 100% {stroke-dashoffset: 507.840000} }#eh6svhndp9260 {animation: eh6svhndp9260_c_o 14000ms linear infinite normal forwards}@keyframes eh6svhndp9260_c_o { 0% {opacity: 0.500000} 16.428571% {opacity: 0.500000} 20.714286% {opacity: 1} 60% {opacity: 1} 64.285714% {opacity: 0.500000} 100% {opacity: 0.500000} }#eh6svhndp9268 {animation: eh6svhndp9268_c_o 14000ms linear infinite normal forwards}@keyframes eh6svhndp9268_c_o { 0% {opacity: 0.420000} 50% {opacity: 0.420000} 51.500000% {opacity: 1} 85.714286% {opacity: 1} 90% {opacity: 0.500000} 100% {opacity: 0.500000} }#eh6svhndp9277 {
           animation-name: eh6svhndp9277_c_o, eh6svhndp9277_s_do;
           animation-duration: 14000ms;
           animation-fill-mode: forwards;
           animation-timing-function: linear;
           animation-direction: normal;
           animation-iteration-count: infinite;  
        }@keyframes eh6svhndp9277_c_o { 0% {opacity: 0} 45.714286% {opacity: 0} 46.428571% {opacity: 1} 91.428571% {opacity: 1} 92.857143% {opacity: 0} 100% {opacity: 0} }@keyframes eh6svhndp9277_s_do { 0% {stroke-dashoffset: 833.940000} 45.714286% {stroke-dashoffset: 833.940000} 56.428571% {stroke-dashoffset: 414} 81.428571% {stroke-dashoffset: 414} 91.428571% {stroke-dashoffset: 833.940000} 100% {stroke-dashoffset: 833.940000} }#eh6svhndp9278 {
           animation-name: eh6svhndp9278_c_o, eh6svhndp9278_s_do;
           animation-duration: 14000ms;
           animation-fill-mode: forwards;
           animation-timing-function: linear;
           animation-direction: normal;
           animation-iteration-count: infinite;  
        }@keyframes eh6svhndp9278_c_o { 0% {opacity: 0} 45.714286% {opacity: 0} 46.428571% {opacity: 1} 91.428571% {opacity: 1} 92.857143% {opacity: 0} 100% {opacity: 0} }@keyframes eh6svhndp9278_s_do { 0% {stroke-dashoffset: 833.940000} 45.714286% {stroke-dashoffset: 833.940000} 56.428571% {stroke-dashoffset: 1242} 81.428571% {stroke-dashoffset: 1242} 91.428571% {stroke-dashoffset: 833.940000} 100% {stroke-dashoffset: 833.940000} }#eh6svhndp9279 {
           animation-name: eh6svhndp9279_c_o, eh6svhndp9279_s_do;
           animation-duration: 14000ms;
           animation-fill-mode: forwards;
           animation-timing-function: linear;
           animation-direction: normal;
           animation-iteration-count: infinite;  
        }@keyframes eh6svhndp9279_c_o { 0% {opacity: 0} 33.571429% {opacity: 0} 34.285714% {opacity: 1} 81.428571% {opacity: 1} 82.857143% {opacity: 0} 100% {opacity: 0} }@keyframes eh6svhndp9279_s_do { 0% {stroke-dashoffset: 833.940000} 33.571429% {stroke-dashoffset: 833.940000} 52.857143% {stroke-dashoffset: 414} 72.857143% {stroke-dashoffset: 414} 82.857143% {stroke-dashoffset: 833.940000} 100% {stroke-dashoffset: 833.940000} }#eh6svhndp9280 {
           animation-name: eh6svhndp9280_c_o, eh6svhndp9280_s_do;
           animation-duration: 14000ms;
           animation-fill-mode: forwards;
           animation-timing-function: linear;
           animation-direction: normal;
           animation-iteration-count: infinite;  
        }@keyframes eh6svhndp9280_c_o { 0% {opacity: 0} 33.571429% {opacity: 0} 34.285714% {opacity: 1} 81.428571% {opacity: 1} 82.857143% {opacity: 0} 100% {opacity: 0} }@keyframes eh6svhndp9280_s_do { 0% {stroke-dashoffset: 833.940000} 33.571429% {stroke-dashoffset: 833.940000} 52.857143% {stroke-dashoffset: 1242} 72.857143% {stroke-dashoffset: 1242} 82.857143% {stroke-dashoffset: 833.940000} 100% {stroke-dashoffset: 833.940000} }#eh6svhndp9281 {
           animation-name: eh6svhndp9281_s_o, eh6svhndp9281_s_do;
           animation-duration: 14000ms;
           animation-fill-mode: forwards;
           animation-timing-function: linear;
           animation-direction: normal;
           animation-iteration-count: infinite;  
        }@keyframes eh6svhndp9281_s_o { 0% {stroke-opacity: 0} 30% {stroke-opacity: 0} 30.714286% {stroke-opacity: 1} 72.142857% {stroke-opacity: 1} 72.857143% {stroke-opacity: 0} 100% {stroke-opacity: 0} }@keyframes eh6svhndp9281_s_do { 0% {stroke-dashoffset: 833.510000} 30% {stroke-dashoffset: 833.510000} 40.714286% {stroke-dashoffset: 414} 62.857143% {stroke-dashoffset: 414} 72.857143% {stroke-dashoffset: 833.940000} 100% {stroke-dashoffset: 833.940000} }#eh6svhndp9282 {
           animation-name: eh6svhndp9282_s_o, eh6svhndp9282_s_do;
           animation-duration: 14000ms;
           animation-fill-mode: forwards;
           animation-timing-function: linear;
           animation-direction: normal;
           animation-iteration-count: infinite;  
        }@keyframes eh6svhndp9282_s_o { 0% {stroke-opacity: 0} 30% {stroke-opacity: 0} 30.714286% {stroke-opacity: 1} 72.142857% {stroke-opacity: 1} 72.857143% {stroke-opacity: 0} 100% {stroke-opacity: 0} }@keyframes eh6svhndp9282_s_do { 0% {stroke-dashoffset: 833.510000} 30% {stroke-dashoffset: 833.510000} 40.714286% {stroke-dashoffset: 1241} 62.857143% {stroke-dashoffset: 1243} 72.857143% {stroke-dashoffset: 833.940000} 100% {stroke-dashoffset: 833.940000} }#eh6svhndp9283 {animation: eh6svhndp9283_s_do 14000ms linear infinite normal forwards}@keyframes eh6svhndp9283_s_do { 0% {stroke-dashoffset: 833.940000} 12.142857% {stroke-dashoffset: 833.940000} 22.857143% {stroke-dashoffset: 414} 55.714286% {stroke-dashoffset: 414} 65.714286% {stroke-dashoffset: 833.940000} 100% {stroke-dashoffset: 833.940000} }#eh6svhndp9284 {animation: eh6svhndp9284_s_do 14000ms linear infinite normal forwards}@keyframes eh6svhndp9284_s_do { 0% {stroke-dashoffset: 833.940000} 12.142857% {stroke-dashoffset: 833.940000} 22.857143% {stroke-dashoffset: 1242} 55.714286% {stroke-dashoffset: 1242} 65.714286% {stroke-dashoffset: 833.940000} 100% {stroke-dashoffset: 833.940000} }]]></style><g id="eh6svhndp922" transform="matrix(0.80000000000000 0 0 0.80000000000000 105.73681688799979 87.44319305400006)"><g id="eh6svhndp923"><path id="eh6svhndp924" display="none" d="M800.250000,641C836.350000,661.750000,881,672.790000,924,674.490000C966.810000,676.180000,1010.440000,668.700000,1043.880000,649.830000L1022.210000,611.430000C998.010000,625.090000,963.210000,631.920000,925.740000,630.430000C888.470000,628.960000,851.050000,619.340000,822.250000,602.750000ZM783.170000,631.160000L800.250000,641L822.250000,602.790000L805.160000,592.950000ZM647.720000,625C663.530000,616.080000,686.950000,611.340000,712.720000,612.360000C738.330000,613.360000,763.810000,619.980000,783.140000,631.130000L805.140000,592.940000C778.490000,577.570000,745.760000,569.550000,714.440000,568.310000C683.300000,567.070000,651.070000,572.470000,626.020000,586.600000ZM606.470000,649.950000L648.290000,624.670000L625.480000,586.940000L583.660000,612.230000ZM811.250000,621.870000L822.250000,602.770000L822.250000,602.770000ZM794.170000,612L783.170000,631.100000L783.170000,631.100000ZM636.890000,605.770000L626.060000,586.570000L625.480000,586.910000Z" transform="matrix(1 0 0 1 -4.04000000000007 -97.68188673749999)" fill="rgb(240,240,240)" stroke="none" stroke-width="1"/><path id="eh6svhndp925" d="M-11.025799,84.314167L448.755795,-173.526730" transform="matrix(1 0 0 1 307.17498285250042 234.73916483125021)" fill="none" stroke="rgb(240,240,240)" stroke-width="24"/></g><g id="eh6svhndp926"><path id="eh6svhndp927" d="M3.151370,5.584690C59.679700,38.152177,111.446250,66.416287,167.974832,98.983738" transform="matrix(1 0 0 1 693.59862999625170 683.43291853875007)" fill="none" stroke="rgb(240,240,240)" stroke-width="24"/><path id="eh6svhndp928" d="M-10.345626,67.500619L30.502185,41.314430C70.411701,17.440681,139.200909,20.317278,184.105618,47.766723L200.789390,57.956476C264.178322,96.670613,361.111325,100.730307,417.399635,67.043328" transform="matrix(1 0 0 1 600.05707125875063 464.61101136874959)" fill="none" stroke="rgb(240,240,240)" stroke-width="24" stroke-linejoin="round"/><path id="eh6svhndp929" display="none" d="M709.070000,811.070000C738.010000,827.740000,765.710000,843.310000,793.310000,858.810000C820.910000,874.310000,848.430000,889.810000,877.130000,906.300000L899.130000,868.100000C870.190000,851.430000,842.490000,835.870000,814.900000,820.370000C787.310000,804.870000,759.780000,789.370000,731.080000,772.870000Z" transform="matrix(1 0 0 1 -6.90000000000000 -98.48000000000000)" fill="rgb(240,240,240)" stroke="none" stroke-width="1"/><path id="eh6svhndp9210" display="none" d="M635.260000,607.090000C635.260000,607.090000,696.830000,581,742.740000,591.430000C779.510000,599.790000,819.250000,631.210000,848.130000,640.480000C903.430000,658.220000,965.700000,656.480000,1029.350000,636.650000" transform="matrix(1 0 0 1 -6.90000000000000 -98.47495533750001)" fill="none" stroke="rgb(0,0,0)" stroke-width="5" stroke-miterlimit="10" stroke-dashoffset="410.780000" stroke-dasharray="410.780000"/></g><g id="eh6svhndp9211"><path id="eh6svhndp9212" d="M666.200000,121.300000C1090.140000,365.640000,1128.330000,736.070000,751.430000,948.710000L787.520000,969.480000C1182.150000,746.850000,1142.170000,358.990000,698.260000,103.180000ZM751.430000,948.710000C742.580000,953.710000,743.430000,962.420000,753.430000,968.180000C763.430000,973.940000,778.670000,974.520000,787.520000,969.500000ZM698.260000,103.210000C688.320000,97.470000,673.050000,96.870000,664.170000,101.860000C655.290000,106.850000,656.230000,115.570000,666.170000,121.300000Z" transform="matrix(1 0 0 1 -6.90000000000000 -98.47495533750001)" fill="rgb(240,240,240)" stroke="none" stroke-width="1"/></g><g id="eh6svhndp9213" transform="matrix(1 0 0 1 0 1)"/><path id="eh6svhndp9214" d="" transform="matrix(1 0 0 1 -6.90000000000000 -98.48000000000000)" fill="none" stroke="rgb(81,255,0)" stroke-width="5" stroke-linecap="round" stroke-linejoin="round" stroke-miterlimit="10"/><path id="eh6svhndp9215" d="" transform="matrix(1 0 0 1 -6.90000000000000 -98.48000000000000)" fill="none" stroke="rgb(81,255,0)" stroke-width="5" stroke-miterlimit="10"/><polygon id="eh6svhndp9216" points="5.060000,423.740000 124.360000,490.170000 366.800000,352.440000 247.150000,283.220000 5.060000,423.740000" fill="rgb(255,255,255)" stroke="rgb(240,240,240)" stroke-width="5" stroke-linecap="round" stroke-linejoin="round" stroke-miterlimit="10" stroke-dasharray="833.530000"/><path id="eh6svhndp9217" display="none" d="M893.350000,485.530000L997.800000,426.590000L976.130000,388.190000L871.690000,447.130000ZM714.350000,479.200000C741,494.540000,773.670000,502.570000,805,503.810000C836.120000,505.050000,868.340000,499.660000,893.380000,485.520000L871.710000,447.130000C855.920000,456.050000,832.520000,460.780000,806.710000,459.760000C781.120000,458.760000,755.660000,452.130000,736.340000,441ZM586.890000,473.400000C601.670000,465.050000,623.680000,460.560000,648.020000,461.520000C672.190000,462.520000,696.180000,468.720000,714.350000,479.190000L736.350000,441C710.870000,426.310000,679.620000,418.650000,649.740000,417.470000C620.050000,416.300000,589.220000,421.470000,565.190000,435.010000ZM447.770000,550.400000L586.770000,473.520000L565.430000,434.940000L426.430000,511.820000ZM882.540000,466.400000L871.710000,447.200000L871.710000,447.200000ZM725.340000,460.100000L714.340000,479.190000L714.340000,479.190000ZM576,454.200000L586.670000,473.490000L586.750000,473.440000L586.840000,473.440000Z" transform="matrix(1 0 0 1 -6.90000000000000 -98.48000000000000)" fill="rgb(240,240,240)" stroke="none" stroke-width="1"/><path id="eh6svhndp9218" d="M-29.504110,39.570700L111.632183,-42.800206C151.056804,-66.279302,218.961459,-63.441844,263.290975,-36.485603C309.966960,-8.110240,381.458860,-5.105873,422.939999,-29.808839L529.031111,-92.957229" transform="matrix(1 0 0 1 455.40541005999972 398.42272100500008)" fill="none" stroke="rgb(240,240,240)" stroke-width="24"/><g id="eh6svhndp9219"/><path id="eh6svhndp9220" d="M346.260000,524.890000C346.260000,524.890000,400.530000,501.390000,446.440000,511.830000C483.210000,520.180000,522.950000,551.610000,551.830000,560.830000C607.140000,578.570000,669.400000,576.830000,733.050000,557" transform="matrix(1 0 0 1 285.75000000250338 -19.62111584625018)" fill="none" stroke="rgb(0,0,0)" stroke-width="5" stroke-miterlimit="10" stroke-dashoffset="403.140000" stroke-dasharray="403.140000"/><polygon id="eh6svhndp9221" points="165.250000,518.010000 284.550000,584.450000 526.990000,446.710000 407.330000,377.490000 165.250000,518.010000" fill="none" stroke="rgb(240,240,240)" stroke-width="5" stroke-linecap="round" stroke-linejoin="round" stroke-miterlimit="10" stroke-dasharray="833.540000"/><polygon id="eh6svhndp9222" points="331.160000,612.320000 450.460000,678.750000 692.900000,541.010000 573.250000,471.790000 331.160000,612.320000" fill="none" stroke="rgb(240,240,240)" stroke-width="5" stroke-linecap="round" stroke-linejoin="round" stroke-miterlimit="10"/><polygon id="eh6svhndp9223" points="487.680000,703.750000 606.990000,770.180000 849.420000,632.450000 729.770000,563.230000 487.680000,703.750000" fill="none" stroke="rgb(240,240,240)" stroke-width="5" stroke-linecap="round" stroke-linejoin="round" stroke-miterlimit="10" stroke-dasharray="833.530000"/><g id="eh6svhndp9224"><path id="eh6svhndp9225" d="M177,611.610000L409.270000,480.550000C412.917664,478.917927,417.119761,479.091935,420.620000,481.020000L526,541.740000C529.320000,543.660000,529.600000,546.570000,526.670000,548.230000L294.430000,679.230000C290.778649,680.863866,286.574164,680.701159,283.060000,678.790000L177.680000,618.070000C174.360000,616.180000,174.080000,613.270000,177,611.610000Z" transform="matrix(1 0 0 1 -6.90000000000000 -98.48000000000000)" fill="rgb(255,255,255)" stroke="none" stroke-width="1"/></g><line id="eh6svhndp9226" x1="869.410000" y1="780.583804" x2="725.230000" y2="698.083804" transform="matrix(1 0 0 1 -4.69000001249867 1.83285227500005)" fill="none" stroke="rgb(4,4,4)" stroke-width="5" stroke-linecap="square" stroke-linejoin="round" stroke-miterlimit="10" stroke-dashoffset="166.110000" stroke-dasharray="166.110000"/><g id="eh6svhndp9227"><polygon id="eh6svhndp9228" points="343.669221,609.760000 574.585311,474.190000 684.560000,540.130000 453.634298,675.680000 343.669221,609.760000" transform="matrix(1 0 0 1 1.26999999999998 -0.36000000000001)" fill="rgb(255,255,255)" stroke="none" stroke-width="1"/></g><g id="eh6svhndp9229"><path id="eh6svhndp9230" d="M502.300000,799.060000L734.530000,668C737.740563,666.542329,741.452973,666.698250,744.530000,668.420000L849.930000,729.140000C852.840000,730.800000,853.100000,733.350000,850.510000,734.800000L618.220000,865.860000C616.652949,866.575067,614.941535,866.917350,613.220000,866.860000C611.496029,866.782409,609.812846,866.310297,608.300000,865.480000L502.890000,804.720000C500,803.060000,499.730000,800.510000,502.300000,799.060000Z" transform="matrix(1 0 0 1 -6.90000000000000 -98.48000000000000)" fill="rgb(255,255,255)" stroke="none" stroke-width="1"/></g><path id="eh6svhndp9231" d="M535.573679,865.568157C544.933278,867.110446,1181.257973,502.157219,454.624367,29.729936" transform="matrix(1 0 0 1 229.64563263875073 -9.56623817875072)" fill="none" stroke="rgb(0,0,0)" stroke-width="5" stroke-linecap="round" stroke-miterlimit="10" stroke-dashoffset="3544" stroke-dasharray="1181.290000"/><ellipse id="eh6svhndp9232" rx="20.656250" ry="14.375000" transform="matrix(1 0 0 1 980.27625000000000 307.76500000000004)" opacity="0.42" fill="rgb(0,0,0)" stroke="rgb(240,240,240)" stroke-width="6"/><g id="eh6svhndp9233" display="none" opacity="0.42"><path id="eh6svhndp9234" d="M465.690000,702.060000L462.500000,703.880000L455.930000,700.090000L459.230000,698.220000C460.177567,697.707366,461.243011,697.452211,462.320000,697.480000C463.400600,697.510752,464.454821,697.820817,465.380000,698.380000C468,699.860000,467.400000,701.100000,465.690000,702.060000ZM455.150000,696.220000L448.090000,700.220000L469,712.270000L473.080000,709.980000L466.170000,705.980000L469.170000,704.270000C474.170000,701.470000,473.900000,698.560000,469.510000,696.040000C465.033047,693.468470,459.511322,693.537444,455.100000,696.220000Z" transform="matrix(1 0 0 1 -6.90000000000000 -98.48000000000000)" fill="rgb(0,0,0)" stroke="none" stroke-width="1"/><polygon id="eh6svhndp9235" points="476.210000,581.980000 472.160000,584.270000 480.340000,588.970000 472.960000,593.150000 464.790000,588.420000 460.710000,590.710000 481.640000,602.780000 485.690000,600.470000 476.730000,595.280000 484.130000,591.120000 493.090000,596.320000 497.140000,594.030000 476.210000,581.980000" fill="rgb(0,0,0)" stroke="none" stroke-width="1"/><path id="eh6svhndp9236" d="M499.360000,675.270000L512.360000,679.840000L507.160000,682.770000ZM521.150000,682.850000L525.460000,680.440000L498.460000,671.760000L493.270000,674.650000L508.170000,690.220000L512.300000,687.860000L509.860000,685.500000L516.860000,681.500000Z" transform="matrix(1 0 0 1 -6.90000000000000 -98.48000000000000)" fill="rgb(0,0,0)" stroke="none" stroke-width="1"/><path id="eh6svhndp9237" d="M537.220000,674.440000C542.120000,671.660000,542.590000,668.440000,538.460000,666.130000C534.330000,663.820000,530.670000,664.050000,525.220000,666.130000C520.730000,667.820000,519.350000,667.840000,517.980000,667.060000C516.610000,666.280000,516.830000,665.060000,518.830000,663.950000C521.127872,662.747675,523.732837,662.260114,526.310000,662.550000L526.570000,659.550000C522.575890,659.117676,518.544157,659.898236,515,661.790000C510.660000,664.230000,510.120000,667.250000,513.910000,669.580000C517.700000,671.910000,521.540000,671.580000,526.910000,669.580000C531.610000,667.820000,533.110000,667.870000,534.700000,668.750000C536.290000,669.630000,535.700000,671.120000,533.630000,672.280000C530.950924,673.660306,527.927744,674.230192,524.930000,673.920000L524.930000,677C529.188141,677.354930,533.457718,676.465580,537.220000,674.440000Z" transform="matrix(1 0 0 1 -6.90000000000000 -98.48000000000000)" fill="rgb(0,0,0)" stroke="none" stroke-width="1"/><polygon id="eh6svhndp9238" points="534.130000,549.300000 521.720000,556.280000 542.650000,568.350000 555.290000,561.210000 551.530000,559.030000 542.960000,563.890000 537.770000,560.950000 545.560000,556.570000 541.920000,554.460000 534.130000,558.850000 529.460000,556.250000 537.790000,551.560000 534.130000,549.300000" fill="rgb(0,0,0)" stroke="none" stroke-width="1"/><path id="eh6svhndp9239" d="M574.470000,652.760000L586.130000,646.190000L582.620000,644.190000L579.120000,646.190000L562.190000,636.430000L559.070000,638.190000C561.070000,639.720000,561.670000,641.100000,558.450000,642.970000L557.880000,643.280000L560.880000,644.990000L565.190000,642.550000L575.290000,648.400000L571,650.760000Z" transform="matrix(1 0 0 1 -6.90000000000000 -98.48000000000000)" fill="rgb(0,0,0)" stroke="none" stroke-width="1"/></g><ellipse id="eh6svhndp9240" rx="21.556250" ry="15" transform="matrix(1 0 0 1 1022.48874999999975 534.30000000000109)" opacity="0.42" fill="rgb(0,0,0)" stroke="rgb(240,240,240)" stroke-width="6"/><ellipse id="eh6svhndp9241" rx="21.556250" ry="15" transform="matrix(1 0 0 1 868.92624938749987 783.38618251249989)" opacity="0.42" fill="rgb(0,0,0)" stroke="rgb(240,240,240)" stroke-width="6"/><g id="eh6svhndp9242" opacity="0.42"><polygon id="eh6svhndp9243" points="534.130000,549.300000 521.720000,556.280000 542.650000,568.350000 555.290000,561.210000 551.530000,559.030000 542.960000,563.890000 537.770000,560.950000 545.560000,556.570000 541.920000,554.460000 534.130000,558.850000 529.460000,556.250000 537.790000,551.560000 534.130000,549.300000" fill="rgb(0,0,0)" stroke="none" stroke-width="1"/><path id="eh6svhndp9244" d="M537.220000,674.440000C542.120000,671.660000,542.590000,668.440000,538.460000,666.130000C534.330000,663.820000,530.670000,664.050000,525.220000,666.130000C520.730000,667.820000,519.350000,667.840000,517.980000,667.060000C516.610000,666.280000,516.830000,665.060000,518.830000,663.950000C521.127872,662.747675,523.732837,662.260114,526.310000,662.550000L526.570000,659.550000C522.575890,659.117676,518.544157,659.898236,515,661.790000C510.660000,664.230000,510.120000,667.250000,513.910000,669.580000C517.700000,671.910000,521.540000,671.580000,526.910000,669.580000C531.610000,667.820000,533.110000,667.870000,534.700000,668.750000C536.290000,669.630000,535.700000,671.120000,533.630000,672.280000C530.950924,673.660306,527.927744,674.230192,524.930000,673.920000L524.930000,677C529.188141,677.354930,533.457718,676.465580,537.220000,674.440000Z" transform="matrix(1 0 0 1 -6.90000000000000 -98.48000000000000)" fill="rgb(0,0,0)" stroke="none" stroke-width="1"/><path id="eh6svhndp9245" d="M499.360000,675.270000L512.360000,679.840000L507.160000,682.770000ZM521.150000,682.850000L525.460000,680.440000L498.460000,671.760000L493.270000,674.650000L508.170000,690.220000L512.300000,687.860000L509.860000,685.500000L516.860000,681.500000Z" transform="matrix(1 0 0 1 -6.90000000000000 -98.48000000000000)" fill="rgb(0,0,0)" stroke="none" stroke-width="1"/><polygon id="eh6svhndp9246" points="476.210000,581.980000 472.160000,584.270000 480.340000,588.970000 472.960000,593.150000 464.790000,588.420000 460.710000,590.710000 481.640000,602.780000 485.690000,600.470000 476.730000,595.280000 484.130000,591.120000 493.090000,596.320000 497.140000,594.030000 476.210000,581.980000" fill="rgb(0,0,0)" stroke="none" stroke-width="1"/><path id="eh6svhndp9247" d="M465.690000,702.060000L462.500000,703.880000L455.930000,700.090000L459.230000,698.220000C460.177567,697.707366,461.243011,697.452211,462.320000,697.480000C463.400600,697.510752,464.454821,697.820817,465.380000,698.380000C468,699.860000,467.400000,701.100000,465.690000,702.060000ZM455.150000,696.220000L448.090000,700.220000L469,712.270000L473.080000,709.980000L466.170000,705.980000L469.170000,704.270000C474.170000,701.470000,473.900000,698.560000,469.510000,696.040000C465.033047,693.468470,459.511322,693.537444,455.100000,696.220000Z" transform="matrix(1 0 0 1 -6.90000000000000 -98.48000000000000)" fill="rgb(0,0,0)" stroke="none" stroke-width="1"/><path id="eh6svhndp9248" d="M574.470000,652.760000L586.130000,646.190000L582.620000,644.190000L579.120000,646.190000L562.190000,636.430000L559.070000,638.190000C561.070000,639.720000,561.670000,641.100000,558.450000,642.970000L557.880000,643.280000L560.880000,644.990000L565.190000,642.550000L575.290000,648.400000L571,650.760000Z" transform="matrix(1 0 0 1 -6.90000000000000 -98.48000000000000)" fill="rgb(0,0,0)" stroke="none" stroke-width="1"/></g><ellipse id="eh6svhndp9249" rx="18.856250" ry="13.125000" transform="matrix(1 0 0 1 751.89625000000001 63.15500000000000)" opacity="0.42" fill="rgb(0,0,0)" stroke="rgb(240,240,240)" stroke-width="6"/><g id="eh6svhndp9250" opacity="0.42"><g id="eh6svhndp9251"><path id="eh6svhndp9252" d="M305.060000,611.840000C310.060000,609.040000,309.780000,606.100000,305.420000,603.590000C300.928463,601.025699,295.398795,601.102287,290.980000,603.790000L283.980000,607.790000L304.880000,619.790000L308.950000,617.510000L302.050000,613.510000ZM298.330000,611.430000L291.760000,607.640000L295.060000,605.790000C295.999842,605.259416,297.060731,604.980416,298.140000,604.980000C299.216293,604.978954,300.274320,605.258107,301.210000,605.790000C303.810000,607.430000,303.320000,608.670000,301.530000,609.790000L301.530000,609.690000Z" transform="matrix(1 0 0 1 -6.90000000000000 -98.48000000000000)" fill="rgb(0,0,0)" stroke="none" stroke-width="1"/><polygon id="eh6svhndp9253" points="307.950000,491.810000 316.150000,496.540000 308.750000,500.690000 300.570000,496 296.500000,498.280000 317.420000,510.330000 321.500000,508.040000 312.520000,502.850000 319.920000,498.690000 328.870000,503.890000 332.920000,501.600000 312,489.530000 307.950000,491.810000" fill="rgb(0,0,0)" stroke="none" stroke-width="1"/><path id="eh6svhndp9254" d="M329.280000,582.220000L344.180000,597.800000L348.310000,595.460000L345.900000,593.100000L352.900000,589.100000L356.970000,590.390000L361.280000,587.950000L334.460000,579.310000ZM348.180000,587.410000L343,590.350000L335.210000,582.840000Z" transform="matrix(1 0 0 1 -6.90000000000000 -98.48000000000000)" fill="rgb(0,0,0)" stroke="none" stroke-width="1"/><path id="eh6svhndp9255" d="M374.300000,573.680000C370.170000,571.290000,366.510000,571.600000,361.060000,573.680000C356.570000,575.370000,355.190000,575.390000,353.810000,574.590000C352.430000,573.790000,352.670000,572.590000,354.670000,571.470000C356.971976,570.280343,359.575057,569.800095,362.150000,570.090000L362.410000,567.090000C358.420470,566.667876,354.396196,567.455310,350.860000,569.350000C346.520000,571.790000,345.970000,574.800000,349.760000,576.980000C353.550000,579.160000,357.400000,578.980000,362.760000,576.980000C367.480000,575.220000,368.960000,575.250000,370.550000,576.150000C372.140000,577.050000,371.550000,578.490000,369.480000,579.690000C366.792032,581.043760,363.775727,581.608883,360.780000,581.320000L360.780000,584.320000C365.008627,584.757333,369.272964,583.951037,373.050000,582C378,579.230000,378.430000,576.070000,374.300000,573.680000Z" transform="matrix(1 0 0 1 -6.90000000000000 -98.48000000000000)" fill="rgb(0,0,0)" stroke="none" stroke-width="1"/><polygon id="eh6svhndp9256" points="378.720000,471.430000 373.530000,468.530000 381.320000,464.110000 377.680000,462.010000 369.890000,466.420000 365.220000,463.830000 373.580000,459.130000 369.970000,456.740000 357.560000,463.750000 378.490000,475.800000 391.150000,468.660000 387.290000,466.610000 378.720000,471.430000" fill="rgb(0,0,0)" stroke="none" stroke-width="1"/><path id="eh6svhndp9257" d="M420.200000,550.780000L412.050000,555.370000C413.340000,550.370000,413.110000,546.990000,408.910000,544.570000C406.985876,543.487404,404.817738,542.912675,402.610000,542.900000C400.400547,542.878910,398.223259,543.430123,396.290000,544.500000C391.590000,547.090000,392.730000,550.280000,396.620000,552.570000L400.620000,550.310000C398.030000,548.880000,397.820000,547.710000,399.620000,546.600000C401.266404,545.716181,403.268239,545.824180,404.810000,546.880000C408.110000,548.780000,408.080000,551.660000,406.860000,558.410000L410.270000,560.410000L423.710000,552.810000Z" transform="matrix(1 0 0 1 -6.90000000000000 -98.48000000000000)" fill="rgb(0,0,0)" stroke="none" stroke-width="1"/></g></g><path id="eh6svhndp9258" d="M478.740000,511.090000C478.740000,511.090000,597.170000,421.870000,668.130000,440.650000C717.220000,453.650000,760.760000,477.930000,786.570000,481.870000C817.350000,486.570000,839.780000,487.090000,867.960000,473.520000C896.140000,459.950000,985.520000,407.090000,985.520000,407.090000" transform="matrix(1 0 0 1 -6.90000000000000 -98.48000000000000)" fill="none" stroke="rgb(0,0,0)" stroke-width="5" stroke-linecap="round" stroke-linejoin="round" stroke-miterlimit="10" stroke-dashoffset="-551.230000" stroke-dasharray="551.230000"/><line id="eh6svhndp9259" x1="304.540000" y1="315.910000" x2="747.320000" y2="67.220000" fill="none" stroke="rgb(0,0,0)" stroke-width="5" stroke-linecap="round" stroke-linejoin="round" stroke-miterlimit="10" stroke-dashoffset="-507.840000" stroke-dasharray="507.840000"/><g id="eh6svhndp9260" opacity="0.5"><g id="eh6svhndp9261"><path id="eh6svhndp9262" d="M623.930000,795.420000L620.740000,797.220000L614.170000,793.430000L617.470000,791.480000C619.388200,790.432891,621.717995,790.482380,623.590000,791.610000C626.190000,793.220000,625.620000,794.460000,623.930000,795.420000ZM613.360000,789.580000L606.360000,793.580000L627.280000,805.630000L631.340000,803.350000L624.430000,799.300000L627.430000,797.580000C632.430000,794.780000,632.150000,791.850000,627.790000,789.330000C623.283985,786.790100,617.754164,786.897326,613.350000,789.610000Z" transform="matrix(1 0 0 1 -6.90000000000000 -98.48000000000000)" fill="rgb(0,0,0)" stroke="none" stroke-width="1"/><polygon id="eh6svhndp9263" points="634.430000,675.320000 630.400000,677.600000 638.580000,682.330000 631.180000,686.480000 623,681.760000 618.930000,684.070000 639.850000,696.120000 643.930000,693.830000 634.970000,688.640000 642.350000,684.460000 651.300000,689.650000 655.350000,687.390000 634.430000,675.320000" fill="rgb(0,0,0)" stroke="none" stroke-width="1"/><path id="eh6svhndp9264" d="M657.580000,768.600000L670.580000,773.200000L665.390000,776.130000ZM679.360000,776.210000L683.670000,773.770000L656.720000,765.130000L651.530000,768L666.410000,783.580000L670.560000,781.240000L668.120000,778.850000L675.120000,774.910000Z" transform="matrix(1 0 0 1 -6.90000000000000 -98.48000000000000)" fill="rgb(0,0,0)" stroke="none" stroke-width="1"/><path id="eh6svhndp9265" d="M695.350000,767.770000C700.290000,765,700.730000,761.860000,696.600000,759.470000C692.470000,757.080000,688.810000,757.390000,683.380000,759.470000C678.890000,761.150000,677.520000,761.180000,676.140000,760.380000C674.760000,759.580000,674.970000,758.380000,677,757.260000C679.288307,756.041239,681.897287,755.559259,684.470000,755.880000L684.710000,752.880000C680.727078,752.461959,676.710379,753.249274,673.180000,755.140000C668.840000,757.580000,668.270000,760.590000,672.060000,762.770000C675.850000,764.950000,679.700000,764.770000,685.060000,762.770000C689.780000,760.980000,691.260000,761.030000,692.840000,761.940000C694.420000,762.850000,693.840000,764.280000,691.780000,765.470000C689.098205,766.841091,686.074853,767.400585,683.080000,767.080000L683.080000,770.150000C687.315361,770.587410,691.585321,769.759170,695.350000,767.770000Z" transform="matrix(1 0 0 1 -6.90000000000000 -98.48000000000000)" fill="rgb(0,0,0)" stroke="none" stroke-width="1"/><polygon id="eh6svhndp9266" points="692.380000,642.630000 679.970000,649.640000 700.890000,661.690000 713.530000,654.550000 709.770000,652.390000 701.180000,657.220000 696.240000,654.290000 704.030000,649.900000 700.400000,647.800000 692.610000,652.190000 687.960000,649.590000 696.300000,644.890000 692.380000,642.630000" fill="rgb(0,0,0)" stroke="none" stroke-width="1"/><path id="eh6svhndp9267" d="M736.740000,740.200000C734.330000,741.550000,730.380000,740.750000,725.940000,738.200000C721.500000,735.650000,720.200000,733.400000,722.590000,732.050000C724.980000,730.700000,728.590000,731.300000,733.340000,734.050000C738.090000,736.800000,739.150000,738.830000,736.740000,740.200000ZM740.350000,742.280000C744.940000,739.680000,744.350000,735.790000,737.350000,731.740000C730.350000,727.690000,723.670000,727.430000,719.050000,730.020000C714.430000,732.610000,714.970000,736.460000,721.900000,740.410000C728.830000,744.360000,735.750000,744.880000,740.350000,742.280000Z" transform="matrix(1 0 0 1 -6.90000000000000 -98.48000000000000)" fill="rgb(0,0,0)" stroke="none" stroke-width="1"/></g></g><g id="eh6svhndp9268" opacity="0.42"><g id="eh6svhndp9269"><path id="eh6svhndp9270" d="M139.210000,516.090000L136,517.910000L129.330000,514.120000L132.630000,512.250000C134.559271,511.192100,136.908347,511.253214,138.780000,512.410000C141.490000,513.890000,140.920000,515.130000,139.210000,516.090000ZM128.670000,510.250000L121.580000,514.250000L142.510000,526.330000L146.560000,524.010000L139.750000,520.010000L142.750000,518.300000C147.750000,515.490000,147.480000,512.560000,143.110000,510.070000C138.614791,507.472933,133.059262,507.541993,128.630000,510.250000Z" transform="matrix(1 0 0 1 -6.90000000000000 -98.48000000000000)" fill="rgb(0,0,0)" stroke="none" stroke-width="1"/><polygon id="eh6svhndp9271" points="149.730000,396.010000 145.680000,398.270000 153.890000,403 146.490000,407.180000 138.310000,402.450000 134.230000,404.740000 155.160000,416.810000 159.230000,414.500000 150.250000,409.310000 157.650000,405.150000 166.610000,410.340000 170.660000,408.060000 149.730000,396.010000" fill="rgb(0,0,0)" stroke="none" stroke-width="1"/><path id="eh6svhndp9272" d="M172.880000,489.300000L185.880000,493.870000L180.690000,496.800000ZM194.660000,496.880000L198.970000,494.440000L172,485.790000L166.810000,488.680000L181.710000,504.120000L185.870000,501.790000L183.430000,499.420000L190.430000,495.420000Z" transform="matrix(1 0 0 1 -6.90000000000000 -98.48000000000000)" fill="rgb(0,0,0)" stroke="none" stroke-width="1"/><path id="eh6svhndp9273" d="M210.740000,488.470000C215.640000,485.690000,216.110000,482.470000,211.980000,480.160000C207.850000,477.850000,204.190000,478.060000,198.740000,480.160000C194.250000,481.850000,192.870000,481.870000,191.500000,481.070000C190.130000,480.270000,190.360000,479.120000,192.380000,477.980000C194.664180,476.769433,197.262184,476.281218,199.830000,476.580000L200.090000,473.580000C196.102297,473.173232,192.083423,473.956129,188.540000,475.830000C184.230000,478.280000,183.660000,481.290000,187.450000,483.490000C191.240000,485.690000,195.080000,485.440000,200.450000,483.490000C205.170000,481.730000,206.650000,481.780000,208.240000,482.660000C209.830000,483.540000,209.240000,485.030000,207.170000,486.190000C204.494240,487.569488,201.474488,488.139384,198.480000,487.830000L198.480000,490.830000C202.709300,491.254246,206.970427,490.433996,210.740000,488.470000Z" transform="matrix(1 0 0 1 -6.90000000000000 -98.48000000000000)" fill="rgb(0,0,0)" stroke="none" stroke-width="1"/><polygon id="eh6svhndp9274" points="207.680000,363.270000 195.270000,370.280000 216.190000,382.330000 228.840000,375.220000 225.070000,373.040000 216.480000,377.890000 211.290000,374.960000 219.080000,370.570000 215.440000,368.470000 207.650000,372.850000 202.980000,370.260000 211.340000,365.560000 207.680000,363.270000" fill="rgb(0,0,0)" stroke="none" stroke-width="1"/><path id="eh6svhndp9275" d="M233.760000,451.050000C229.890000,453.240000,229.760000,456.050000,232.230000,458.170000L236.640000,456.430000C235.320000,455.210000,235.350000,454.090000,236.980000,453.160000C237.769626,452.701117,238.666718,452.459592,239.580000,452.460000C240.490271,452.458483,241.384424,452.700146,242.170000,453.160000C244.280000,454.350000,243.260000,455.520000,241.990000,456.220000L240.410000,457.100000L243.580000,458.950000L245.470000,457.880000C247.313658,456.827342,249.576342,456.827342,251.420000,457.880000C253.420000,459.030000,253.160000,460.320000,251.420000,461.340000C249.327775,462.313869,246.912225,462.313869,244.820000,461.340000L242,463.930000C246.230276,465.601654,250.980199,465.338581,255,463.210000C259.110000,460.890000,259.630000,457.780000,255.730000,455.550000C252.962446,454.036555,249.666378,453.827804,246.730000,454.980000C248.310000,453.470000,247.920000,451.760000,245.660000,450.430000C243.803766,449.494107,241.736243,449.056482,239.660000,449.160000C237.562891,449.268681,235.529916,449.919922,233.760000,451.050000Z" transform="matrix(1 0 0 1 -6.90000000000000 -98.48000000000000)" fill="rgb(0,0,0)" stroke="none" stroke-width="1"/></g></g><g id="eh6svhndp9276" transform="matrix(1 0 0 1 -117.36000061000010 -10.54499938999606)"><polyline id="eh6svhndp9277" points="417.130000,330.220000 359.450000,296.530000 117.360000,437.050000 236.670000,503.490000 479.100000,365.750000 416.620000,329.970000" transform="matrix(1 0 0 1 6 -1)" opacity="0" fill="none" stroke="rgb(0,122,255)" stroke-width="10" stroke-linecap="round" stroke-linejoin="round" stroke-miterlimit="10" stroke-dashoffset="833.940000" stroke-dasharray="834.100000"/><polyline id="eh6svhndp9278" points="417.130000,330.220000 359.450000,296.530000 117.360000,437.050000 236.670000,503.490000 479.100000,365.750000 416.620000,329.970000" transform="matrix(1 0 0 1 6 -1)" opacity="0" fill="none" stroke="rgb(0,122,255)" stroke-width="10" stroke-linecap="round" stroke-linejoin="round" stroke-miterlimit="10" stroke-dashoffset="833.940000" stroke-dasharray="834.100000"/><polyline id="eh6svhndp9279" points="580.880000,427.100000 519.640000,390.800000 277.550000,531.320000 396.860000,597.760000 639.290000,460.020000 581.100000,427.230000" transform="matrix(1 0 0 1 3 -2)" opacity="0" fill="none" stroke="rgb(0,122,255)" stroke-width="10" stroke-linecap="round" stroke-linejoin="round" stroke-miterlimit="10" stroke-dashoffset="833.940000" stroke-dasharray="833.290000"/><polyline id="eh6svhndp9280" points="580.880000,427.100000 519.640000,390.800000 277.550000,531.320000 396.860000,597.760000 639.290000,460.020000 581.100000,427.230000" transform="matrix(1 0 0 1 3 -2)" opacity="0" fill="none" stroke="rgb(0,122,255)" stroke-width="10" stroke-linecap="round" stroke-linejoin="round" stroke-miterlimit="10" stroke-dashoffset="833.940000" stroke-dasharray="833.290000"/><polyline id="eh6svhndp9281" points="747.050000,520.680000 685.550000,485.110000 443.470000,625.630000 562.770000,692.060000 805.210000,554.320000 747.060000,520.690000" transform="matrix(1 0 0 1 3 -1)" fill="none" stroke="rgb(0,122,255)" stroke-width="10" stroke-opacity="0" stroke-linecap="round" stroke-linejoin="round" stroke-miterlimit="10" stroke-dashoffset="833.510000" stroke-dasharray="833"/><polyline id="eh6svhndp9282" points="747.050000,520.680000 685.550000,485.110000 443.470000,625.630000 562.770000,692.060000 805.210000,554.320000 747.060000,520.690000" transform="matrix(1 0 0 1 3 -1)" fill="none" fill-opacity="0" stroke="rgb(0,122,255)" stroke-width="10" stroke-opacity="0" stroke-linecap="round" stroke-linejoin="round" stroke-miterlimit="10" stroke-dashoffset="833.510000" stroke-dasharray="833.510000"/><polyline id="eh6svhndp9283" points="841.560000,714.030000 961.730000,645.760000 842.080000,576.540000 599.990000,717.060000 719.290000,783.500000 842.060000,714.100000" transform="matrix(1 0 0 1 3 -1)" fill="none" stroke="rgb(0,122,255)" stroke-width="10" stroke-linecap="round" stroke-linejoin="round" stroke-miterlimit="10" stroke-dashoffset="833.940000" stroke-dasharray="833.940000"/><polyline id="eh6svhndp9284" points="841.560000,714.030000 961.730000,645.760000 842.080000,576.540000 599.990000,717.060000 719.290000,783.500000 842.060000,714.100000" transform="matrix(1 0 0 1 3 -1)" fill="none" stroke="rgb(0,122,255)" stroke-width="10" stroke-linecap="round" stroke-linejoin="round" stroke-miterlimit="10" stroke-dashoffset="833.940000" stroke-dasharray="833.940000"/></g></g></svg>